<svg width="264" height="222" viewBox="0 0 264 222" fill="none" xmlns="http://www.w3.org/2000/svg">
<g opacity="0.8" filter="url(#filter0_f_408_441)">
<path d="M43.0412 25.0206C43.0412 34.9731 34.9731 43.0412 25.0206 43.0412C15.0681 43.0412 7 34.9731 7 25.0206C7 15.0681 15.0681 7 25.0206 7C34.9731 7 43.0412 15.0681 43.0412 25.0206Z" fill="white"/>
</g>
<path d="M41.4746 25.804C41.4746 35.3238 34.1081 43.0411 25.021 43.0411C15.9339 43.0411 8.56738 35.3238 8.56738 25.804C8.56738 16.2842 15.9339 8.56689 25.021 8.56689C34.1081 8.56689 41.4746 16.2842 41.4746 25.804Z" fill="#139E9E"/>
<path fill-rule="evenodd" clip-rule="evenodd" d="M30.5051 16.1697C29.364 16.1697 28.4389 17.3261 28.4389 18.7525C28.4389 20.1789 29.364 21.3352 30.5051 21.3352C31.6462 21.3352 32.5713 20.1789 32.5713 18.7525C32.5713 17.3261 31.6462 16.1697 30.5051 16.1697ZM27.3711 18.7525C27.3711 16.5889 28.7742 14.835 30.5051 14.835C32.236 14.835 33.6391 16.5889 33.6391 18.7525C33.6391 20.9161 32.236 22.67 30.5051 22.67C28.7742 22.67 27.3711 20.9161 27.3711 18.7525Z" fill="white"/>
<path fill-rule="evenodd" clip-rule="evenodd" d="M17.969 22.4378C16.8279 22.4378 15.9028 23.5941 15.9028 25.0206C15.9028 26.447 16.8279 27.6033 17.969 27.6033C19.1101 27.6033 20.0352 26.447 20.0352 25.0206C20.0352 23.5941 19.1101 22.4378 17.969 22.4378ZM14.835 25.0206C14.835 22.857 16.2381 21.103 17.969 21.103C19.6999 21.103 21.103 22.857 21.103 25.0206C21.103 27.1841 19.6999 28.9381 17.969 28.9381C16.2381 28.9381 14.835 27.1841 14.835 25.0206Z" fill="white"/>
<path fill-rule="evenodd" clip-rule="evenodd" d="M30.5051 30.2728C29.364 30.2728 28.4389 31.4291 28.4389 32.8555C28.4389 34.2819 29.364 35.4383 30.5051 35.4383C31.6462 35.4383 32.5713 34.2819 32.5713 32.8555C32.5713 31.4291 31.6462 30.2728 30.5051 30.2728ZM27.3711 32.8555C27.3711 30.6919 28.7742 28.938 30.5051 28.938C32.236 28.938 33.6391 30.6919 33.6391 32.8555C33.6391 35.0191 32.236 36.773 30.5051 36.773C28.7742 36.773 27.3711 35.0191 27.3711 32.8555Z" fill="white"/>
<path fill-rule="evenodd" clip-rule="evenodd" d="M19.6339 26.1721C19.8337 25.8187 20.2735 25.6991 20.6163 25.9051L28.5814 30.6913C28.9242 30.8972 29.0401 31.3508 28.8404 31.7043C28.6406 32.0578 28.2008 32.1774 27.858 31.9714L19.893 27.1852C19.5501 26.9792 19.4342 26.5256 19.6339 26.1721Z" fill="white"/>
<path fill-rule="evenodd" clip-rule="evenodd" d="M28.84 19.8118C29.0403 20.0768 28.9244 20.417 28.5813 20.5717L20.6181 24.1613C20.275 24.316 19.8345 24.2265 19.6343 23.9615C19.4341 23.6965 19.5499 23.3563 19.893 23.2016L27.8562 19.612C28.1993 19.4573 28.6398 19.5468 28.84 19.8118Z" fill="white"/>
<path d="M213.846 49.3094C213.846 39.7896 206.065 32.0723 196.467 32.0723H68.2549C58.6571 32.0723 50.8766 39.7896 50.8766 49.3094V49.3094C50.8766 58.8292 58.6571 66.5465 68.2549 66.5465H196.467C206.065 66.5465 213.846 58.8292 213.846 49.3094V49.3094Z" fill="#139E9E"/>
<path d="M85.2087 48.8513C84.8538 49.2317 84.2327 49.7811 83.7891 50.1022L84.1973 50.4065C84.6586 50.1107 85.2619 49.6374 85.741 49.2232L85.2087 48.8513ZM83.0084 44.6084C82.9019 44.9465 82.689 45.4198 82.5204 45.7325L83.0794 45.8678C83.2834 45.5888 83.5319 45.1493 83.7448 44.7436L83.0084 44.6084ZM81.8018 47.2285H84.7917V47.9639H81.8018V47.2285ZM81.8018 46.003H84.7917V46.7383H81.8018V46.003ZM81.1896 45.4959V48.4794H85.4305V45.4959H81.1896ZM82.9818 48.2005V51.7166C82.9818 51.8095 82.9552 51.8349 82.8398 51.8349C82.7334 51.8434 82.3785 51.8434 81.9792 51.8349C82.0591 51.9955 82.1389 52.2321 82.1567 52.3927C82.7156 52.3927 83.0705 52.3843 83.3012 52.2913C83.523 52.1983 83.5851 52.0378 83.5851 51.7166V48.2005H82.9818ZM80.8525 49.2148V49.7472H82.3341V49.2148H80.8525ZM82.1833 49.2148V49.3162C81.926 50.4234 81.2872 51.201 80.4533 51.6151C80.5863 51.7081 80.7904 51.9194 80.8702 52.0547C81.7574 51.5729 82.4583 50.6854 82.7777 49.3415L82.414 49.1979L82.2986 49.2148H82.1833ZM83.5052 48.2428L83.1415 48.6738C83.381 49.7726 84.0198 51.3024 85.5369 52.0462C85.6257 51.8856 85.8208 51.649 85.9451 51.5306C84.3924 50.8883 83.7537 49.4345 83.5052 48.2428ZM79.0249 44.6253C78.7942 45.1831 78.3772 46.0114 78.0578 46.5017L78.5103 46.6876C78.8563 46.2227 79.2733 45.4621 79.6104 44.8366L79.0249 44.6253ZM80.0185 45.5888C79.5306 46.4763 78.6966 47.7357 78.0312 48.4879L78.4393 48.7076C79.1047 47.9723 79.9653 46.7721 80.5775 45.8339L80.0185 45.5888ZM77.6053 46.3833C78.0755 46.8144 78.6079 47.4145 78.8297 47.8202L79.2112 47.3469C78.9805 46.9581 78.4393 46.3918 77.9602 45.9776L77.6053 46.3833ZM79.6725 47.5244C80.0274 48.0822 80.3734 48.8344 80.4887 49.3077L81.0122 49.0795C80.888 48.6147 80.5242 47.8878 80.1516 47.33L79.6725 47.5244ZM77.5343 48.3611L77.6053 48.9274C78.4127 48.8767 79.4773 48.8175 80.5331 48.7499V48.2174C79.4152 48.2766 78.3062 48.3273 77.5343 48.3611ZM79.9032 49.5698C80.1161 50.0515 80.3024 50.6854 80.3468 51.0911L80.8614 50.939C80.8081 50.5333 80.6218 49.9078 80.3911 49.4261L79.9032 49.5698ZM78.0667 49.4514C77.9691 50.1868 77.8005 50.9474 77.5166 51.463C77.6497 51.5222 77.9158 51.6321 78.0223 51.6997C78.3062 51.1587 78.5103 50.3473 78.6256 49.5444L78.0667 49.4514ZM79.0071 48.6062V52.3927H79.5927V48.6062H79.0071Z" fill="white"/>
<path d="M92.5459 47.3553V47.9892H96.1923V47.3553H92.5459ZM88.8285 51.3616V51.9955H96.7956V51.3616H88.8285ZM92.1644 44.7436V51.6997H92.8653V44.7436H92.1644Z" fill="white"/>
<path d="M107.389 48.8513C107.034 49.2317 106.413 49.7811 105.969 50.1022L106.377 50.4065C106.839 50.1107 107.442 49.6374 107.921 49.2232L107.389 48.8513ZM105.189 44.6084C105.082 44.9465 104.869 45.4198 104.701 45.7325L105.26 45.8678C105.464 45.5888 105.712 45.1493 105.925 44.7436L105.189 44.6084ZM103.982 47.2285H106.972V47.9639H103.982V47.2285ZM103.982 46.003H106.972V46.7383H103.982V46.003ZM103.37 45.4959V48.4794H107.611V45.4959H103.37ZM105.162 48.2005V51.7166C105.162 51.8095 105.135 51.8349 105.02 51.8349C104.914 51.8434 104.559 51.8434 104.159 51.8349C104.239 51.9955 104.319 52.2321 104.337 52.3927C104.896 52.3927 105.251 52.3843 105.481 52.2913C105.703 52.1983 105.765 52.0378 105.765 51.7166V48.2005H105.162ZM103.033 49.2148V49.7472H104.514V49.2148H103.033ZM104.363 49.2148V49.3162C104.106 50.4234 103.467 51.201 102.633 51.6151C102.766 51.7081 102.971 51.9194 103.05 52.0547C103.938 51.5729 104.638 50.6854 104.958 49.3415L104.594 49.1979L104.479 49.2148H104.363ZM105.685 48.2428L105.322 48.6738C105.561 49.7726 106.2 51.3024 107.717 52.0462C107.806 51.8856 108.001 51.649 108.125 51.5306C106.573 50.8883 105.934 49.4345 105.685 48.2428ZM101.205 44.6253C100.974 45.1831 100.557 46.0114 100.238 46.5017L100.69 46.6876C101.036 46.2227 101.453 45.4621 101.791 44.8366L101.205 44.6253ZM102.199 45.5888C101.711 46.4763 100.877 47.7357 100.211 48.4879L100.619 48.7076C101.285 47.9723 102.145 46.7721 102.758 45.8339L102.199 45.5888ZM99.7855 46.3833C100.256 46.8144 100.788 47.4145 101.01 47.8202L101.391 47.3469C101.161 46.9581 100.619 46.3918 100.14 45.9776L99.7855 46.3833ZM101.853 47.5244C102.208 48.0822 102.554 48.8344 102.669 49.3077L103.192 49.0795C103.068 48.6147 102.704 47.8878 102.332 47.33L101.853 47.5244ZM99.7145 48.3611L99.7855 48.9274C100.593 48.8767 101.657 48.8175 102.713 48.7499V48.2174C101.595 48.2766 100.486 48.3273 99.7145 48.3611ZM102.083 49.5698C102.296 50.0515 102.483 50.6854 102.527 51.0911L103.041 50.939C102.988 50.5333 102.802 49.9078 102.571 49.4261L102.083 49.5698ZM100.247 49.4514C100.149 50.1868 99.9806 50.9474 99.6967 51.463C99.8298 51.5222 100.096 51.6321 100.202 51.6997C100.486 51.1587 100.69 50.3473 100.806 49.5444L100.247 49.4514ZM101.187 48.6062V52.3927H101.773V48.6062H101.187Z" fill="white"/>
<path d="M111.044 45.2423V45.8847H118.94V45.2423H111.044ZM114.46 45.7494V52.3843H115.161V45.7494H114.46ZM114.85 47.7526C115.924 48.2766 117.308 49.0795 117.991 49.6036L118.461 49.0288C117.751 48.5217 116.35 47.7526 115.285 47.2623L114.85 47.7526Z" fill="white"/>
<path d="M125.701 44.6253V52.3843H126.402V44.6253H125.701ZM122.569 48.6062V51.3531H123.252V49.1979H128.921V51.3362H129.631V48.6062H122.569ZM123.598 46.172H128.522V47.3384H123.598V46.172ZM122.924 45.5973V47.8962H129.232V45.5973H122.924ZM122.986 50.4234V50.9981H129.205V50.4234H122.986Z" fill="white"/>
<path d="M133.144 44.9803V45.555H136.276V44.9803H133.144ZM133.961 46.7552V47.2877H135.566V46.7552H133.961ZM136.596 50.3389V50.7953H137.926V50.3389H136.596ZM139.31 50.3389V50.7953H140.712V50.3389H139.31ZM133.961 48.4963V49.0373H135.566V48.4963H133.961ZM133.615 45.2677V50.677H134.182V45.2677H133.615ZM135.203 45.2677V52.3927H135.779V45.2677H135.203ZM138.991 48.6485V52.3927H139.55V48.6485H138.991ZM136.392 48.9697V51.1841H136.906V48.9697H136.392ZM140.402 48.9697V51.1587H140.934V48.9697H140.402ZM133.047 50.5755L133.162 51.1756C133.854 51.0404 134.706 50.8629 135.54 50.6939L135.495 50.136C134.582 50.3135 133.677 50.4826 133.047 50.5755ZM137.713 48.6654V50.0093C137.713 50.753 137.58 51.4715 136.489 51.9955C136.604 52.0885 136.773 52.2913 136.844 52.4181C138.095 51.8265 138.264 50.9559 138.264 50.0177V48.6654H137.713ZM136.09 47.9977L136.161 48.4625C136.773 48.4203 137.527 48.3527 138.299 48.285V47.8455C137.456 47.9047 136.667 47.9639 136.09 47.9977ZM136.214 46.0706C136.631 46.3918 137.075 46.8651 137.27 47.1947L137.589 46.789C137.403 46.4594 136.942 46.0199 136.534 45.7072L136.214 46.0706ZM137.713 47.3469C137.962 47.7441 138.193 48.2597 138.246 48.5978L138.698 48.4372C138.627 48.0991 138.397 47.592 138.13 47.2201L137.713 47.3469ZM137.332 44.6253C137.163 45.0648 136.853 45.7241 136.604 46.1213L136.986 46.2735C137.261 45.9016 137.607 45.3015 137.891 44.8028L137.332 44.6253ZM137.953 45.648C137.607 46.3918 137.004 47.4483 136.507 48.0822L136.888 48.2343C137.385 47.6258 138.015 46.62 138.468 45.8255L137.953 45.648ZM138.698 47.9723L138.787 48.4456C139.399 48.3949 140.144 48.3273 140.907 48.2597L140.899 47.8202C140.065 47.8793 139.275 47.9385 138.698 47.9723ZM138.663 46.0537C139.098 46.3833 139.568 46.8651 139.772 47.2116L140.1 46.789C139.896 46.4509 139.417 45.9945 138.973 45.6734L138.663 46.0537ZM140.242 47.3384C140.517 47.761 140.774 48.3104 140.845 48.6654L141.307 48.4963C141.227 48.1414 140.961 47.6004 140.668 47.1947L140.242 47.3384ZM139.816 44.6253C139.648 45.0733 139.328 45.7241 139.071 46.1213L139.479 46.2819C139.754 45.91 140.1 45.3099 140.384 44.8028L139.816 44.6253ZM140.464 45.6311C140.118 46.3664 139.515 47.4314 139.018 48.0568L139.399 48.2259C139.914 47.6173 140.544 46.6115 141.005 45.817L140.464 45.6311Z" fill="white"/>
<path d="M147.304 49.1049V52.3927H147.916V49.6881H151.093V52.3505H151.731V49.1049H147.304ZM151.403 44.6507C150.418 44.9887 148.617 45.2508 147.074 45.4113C147.153 45.555 147.242 45.8001 147.269 45.9523C148.857 45.8086 150.711 45.5466 151.927 45.1493L151.403 44.6507ZM149.221 45.386V49.443H149.859V45.386H149.221ZM146.657 47.1018V47.7103H152.308V47.1018H146.657ZM147.721 51.4461V52.0293H151.385V51.4461H147.721ZM144.625 45.1747C145.175 45.4536 145.911 45.8678 146.284 46.1213L146.674 45.6057C146.293 45.3606 145.539 44.9803 144.997 44.7267L144.625 45.1747ZM144.19 47.5075C144.731 47.7779 145.468 48.1836 145.831 48.4203L146.204 47.9047C145.831 47.6596 145.086 47.2877 144.563 47.0426L144.19 47.5075ZM144.403 51.8518L144.962 52.2829C145.485 51.4968 146.106 50.4403 146.577 49.5444L146.098 49.1302C145.583 50.0938 144.882 51.2095 144.403 51.8518Z" fill="white"/>
<path d="M155.529 50.1445V50.6263H159.574V50.1445H155.529ZM155.289 46.0706V46.5608H159.716V46.0706H155.289ZM157.214 45.3015V51.5222H157.826V45.3015H157.214ZM155.28 51.5391L155.378 52.0885C156.504 51.9786 158.11 51.8011 159.619 51.6321L159.61 51.1334C158.022 51.294 156.363 51.4461 155.28 51.5391ZM156.105 48.564H158.98V49.1894H156.105V48.564ZM156.105 47.5328H158.98V48.1414H156.105V47.5328ZM155.546 47.0933V49.6289H159.548V47.0933H155.546ZM159.228 44.7014C158.314 44.9042 156.7 45.0564 155.378 45.124C155.449 45.2508 155.511 45.4621 155.537 45.5973C156.868 45.555 158.518 45.4113 159.565 45.1916L159.228 44.7014ZM159.654 46.5946V47.1863H162.857V46.5946H159.654ZM162.6 46.5946V46.7468C162.502 50.1698 162.404 51.3869 162.183 51.649C162.103 51.7588 162.014 51.7842 161.872 51.7842C161.695 51.7842 161.304 51.7757 160.87 51.7419C160.976 51.911 161.047 52.173 161.065 52.3505C161.473 52.3758 161.899 52.3758 162.147 52.3505C162.413 52.3251 162.591 52.2491 162.75 52.0293C163.043 51.6659 163.132 50.4826 163.23 46.9158C163.23 46.8313 163.238 46.5946 163.238 46.5946H162.6ZM160.728 44.7267C160.719 47.9216 160.763 50.6009 158.731 51.987C158.891 52.0885 159.122 52.2913 159.228 52.4434C161.349 50.9305 161.358 48.0906 161.366 44.7267H160.728Z" fill="white"/>
<path d="M168.792 45.7241V46.2988H174.444V45.7241H168.792ZM171.152 44.6253V46.003H171.827V44.6253H171.152ZM171.152 48.6738V52.0293H171.747V48.6738H171.152ZM169.591 48.6231V49.4937C169.591 50.2882 169.475 51.2433 168.393 51.9617C168.544 52.0631 168.766 52.2575 168.863 52.3843C170.061 51.556 170.203 50.4572 170.203 49.5106V48.6231H169.591ZM170.753 46.0368C170.54 46.5777 170.15 47.3553 169.821 47.8371L170.354 48.023C170.691 47.5666 171.108 46.8482 171.445 46.2396L170.753 46.0368ZM172.306 46.8651C172.936 47.3891 173.636 48.1583 173.938 48.6654L174.488 48.3527C174.169 47.8371 173.459 47.1018 172.82 46.5862L172.306 46.8651ZM168.908 47.6849L168.979 48.2935C170.194 48.2428 171.942 48.1583 173.61 48.0653L173.628 47.5328C171.889 47.592 170.061 47.6596 168.908 47.6849ZM166.805 45.1493C167.373 45.4029 168.056 45.8086 168.393 46.1129L168.775 45.5973C168.437 45.3015 167.737 44.9211 167.178 44.6929L166.805 45.1493ZM166.335 47.4483C166.911 47.6765 167.612 48.0568 167.958 48.3442L168.34 47.8202C167.985 47.5413 167.266 47.1778 166.698 46.975L166.335 47.4483ZM166.601 51.8687L167.178 52.2744C167.666 51.4884 168.251 50.415 168.686 49.519L168.18 49.1302C167.701 50.0938 167.053 51.2179 166.601 51.8687ZM172.723 48.6231V51.3531C172.723 51.8687 172.767 52.0039 172.9 52.1223C173.024 52.2237 173.219 52.266 173.388 52.266C173.486 52.266 173.716 52.266 173.832 52.266C173.974 52.266 174.151 52.2321 174.249 52.173C174.373 52.1054 174.444 52.0039 174.488 51.8434C174.541 51.6912 174.568 51.2433 174.577 50.8714C174.417 50.8207 174.222 50.7277 174.107 50.6347C174.098 51.0404 174.089 51.3447 174.071 51.4884C174.053 51.6236 174.027 51.6828 173.982 51.7081C173.947 51.7419 173.867 51.7504 173.796 51.7504C173.716 51.7504 173.601 51.7504 173.539 51.7504C173.486 51.7504 173.423 51.7419 173.397 51.7166C173.353 51.6743 173.344 51.5898 173.344 51.4208V48.6231H172.723Z" fill="white"/>
<path d="M182.81 48.6062V51.987H183.467V48.6062H182.81ZM180.858 48.378V48.9358H185.445V48.378H180.858ZM180.477 51.6067V52.173H185.64V51.6067H180.477ZM181.071 49.9501V50.4995H185.241V49.9501H181.071ZM181.816 45.5212H184.487V47.0848H181.816V45.5212ZM181.195 44.9718V47.6342H185.135V44.9718H181.195ZM178.977 45.3184V52.3758H179.625V45.3184H178.977ZM177.522 47.0003V47.6004H180.743V47.0003H177.522ZM179.013 47.2285C178.693 48.2766 177.984 49.5951 177.345 50.2713C177.46 50.415 177.62 50.677 177.682 50.8545C178.365 50.0684 179.075 48.5893 179.43 47.3976L179.013 47.2285ZM180.29 44.7436C179.643 45.031 178.472 45.2677 177.469 45.4282C177.549 45.5719 177.638 45.7748 177.673 45.9185C178.702 45.7832 179.944 45.5466 180.761 45.2339L180.29 44.7436ZM179.598 48.0906L179.288 48.3442C179.563 48.64 180.228 49.443 180.441 49.7895L180.832 49.2908C180.654 49.0795 179.82 48.2766 179.598 48.0906Z" fill="white"/>
<path d="M74.3818 33.212L58.3804 38.3404C58.3804 38.3404 57.2285 34.4816 57.1495 31.9299C57.0553 28.8859 58.3804 24.2373 58.3804 24.2373C58.3804 24.2373 61.4911 27.638 64.5348 29.3657C67.7493 31.1903 74.3818 33.212 74.3818 33.212Z" fill="#139E9E"/>
<path d="M263.846 204.742C263.846 195.223 256.14 187.505 246.635 187.505H119.655C110.149 187.505 102.444 195.223 102.444 204.742V204.742C102.444 214.262 110.149 221.98 119.655 221.98H246.635C256.14 221.98 263.846 214.262 263.846 204.742V204.742Z" fill="#139E9E"/>
<path d="M133.783 207.198V207.729H141.752V207.198H133.783ZM135.393 205.689V206.177H139.596V205.689H135.393ZM137.422 206.717V208.732C137.422 208.843 137.386 208.869 137.24 208.878C137.094 208.886 136.576 208.895 136.021 208.878C136.112 209.032 136.212 209.255 136.248 209.426C136.976 209.426 137.449 209.418 137.722 209.332C138.022 209.246 138.095 209.083 138.095 208.749V206.717H137.422ZM139.441 205.689V205.8C139.041 206.143 138.25 206.58 137.586 206.82C137.677 206.897 137.84 207.06 137.922 207.163C138.677 206.88 139.56 206.435 140.16 205.98L139.751 205.655L139.605 205.689H139.441ZM133.892 204.609V206.177H134.547V205.106H140.988V206.177H141.661V204.609H133.892ZM134.438 201.908L134.647 204.857H135.275L135.102 202.2C135.211 202.183 135.266 202.148 135.284 202.106L134.438 201.908ZM140.506 201.857C140.46 202.817 140.369 204.103 140.26 204.883H140.915C141.006 204.12 141.097 202.843 141.152 201.857H140.506ZM139.014 201.857V202.303H140.76V201.857H139.014ZM136.212 201.608C135.794 201.763 135.084 202.003 134.584 202.097L134.884 202.448C135.384 202.346 136.076 202.183 136.567 201.968L136.212 201.608ZM134.838 202.774V203.211H136.494V202.774H134.838ZM134.884 203.683V204.129H136.54V203.683H134.884ZM139.05 202.774V203.211H140.688V202.774H139.05ZM139.014 203.683V204.129H140.624V203.683H139.014ZM138.186 201.617C137.822 202.063 137.195 202.474 136.576 202.757C136.685 202.834 136.885 202.989 136.967 203.074C137.577 202.757 138.25 202.268 138.668 201.754L138.186 201.617ZM136.831 201.977C137.367 202.251 138.013 202.663 138.323 202.963L138.677 202.663C138.359 202.363 137.704 201.951 137.167 201.703L136.831 201.977ZM138.277 203.04C137.904 203.511 137.24 203.949 136.594 204.24C136.712 204.317 136.913 204.48 136.994 204.557C137.622 204.232 138.341 203.717 138.768 203.177L138.277 203.04ZM136.894 203.434C137.44 203.726 138.095 204.163 138.404 204.472L138.768 204.163C138.441 203.854 137.777 203.426 137.231 203.169L136.894 203.434Z" fill="white"/>
<path d="M146.273 205.877V209.443H146.946V206.392H151.386V209.443H152.086V205.877H146.273ZM146.628 207.215V207.729H151.604V207.215H146.628ZM146.655 208.595V209.109H151.604V208.595H146.655ZM148.766 205.072C148.675 205.354 148.475 205.792 148.302 206.083L148.857 206.22C149.048 205.963 149.284 205.577 149.484 205.2L148.766 205.072ZM145.245 201.977V202.491H148.274V201.977H145.245ZM148.092 201.977V204.814C148.092 204.9 148.065 204.934 147.947 204.934C147.838 204.943 147.474 204.943 147.055 204.934C147.137 205.072 147.219 205.269 147.246 205.414C147.829 205.414 148.193 205.414 148.429 205.329C148.647 205.243 148.72 205.097 148.72 204.814V201.977H148.092ZM149.293 201.977V202.491H152.468V201.977H149.293ZM152.159 201.977V204.814C152.159 204.917 152.122 204.934 152.004 204.943C151.886 204.952 151.486 204.952 151.058 204.934C151.14 205.08 151.222 205.294 151.249 205.44C151.859 205.449 152.25 205.44 152.486 205.354C152.732 205.26 152.796 205.114 152.796 204.814V201.977H152.159ZM149.084 204.506L149.339 205.003C150.039 204.772 150.931 204.446 151.768 204.146L151.668 203.674C150.712 203.991 149.748 204.309 149.084 204.506ZM149.548 202.963C149.985 203.177 150.512 203.52 150.758 203.786L151.131 203.357C150.876 203.1 150.339 202.774 149.903 202.577L149.548 202.963ZM145.027 204.677L145.291 205.209C145.955 204.96 146.783 204.634 147.583 204.326L147.474 203.846C146.564 204.163 145.655 204.489 145.027 204.677ZM145.627 202.954C146.064 203.186 146.573 203.546 146.819 203.803L147.192 203.383C146.946 203.126 146.419 202.791 145.991 202.577L145.627 202.954Z" fill="white"/>
<path d="M157.48 201.943V202.534H164.549V201.943H157.48ZM157.608 208.638V209.186H164.576V208.638H157.608ZM161.165 207.06V207.575H163.694V207.06H161.165ZM157.071 201.943V204.48C157.071 205.843 156.998 207.738 156.261 209.092C156.434 209.152 156.716 209.306 156.835 209.401C157.608 207.986 157.717 205.912 157.717 204.489V201.943H157.071ZM160.81 206.195V208.938H161.474V206.195H160.81ZM158.781 206.812V208.946H159.436V206.812H158.781ZM157.999 204.051V204.532H160.819V204.051H157.999ZM159.172 203.091V206.22H159.755V203.091H159.172ZM159.091 204.249C158.79 204.832 158.217 205.474 157.69 205.775C157.817 205.869 157.99 206.049 158.081 206.177C158.618 205.8 159.191 205.072 159.491 204.394L159.091 204.249ZM161.101 204.051V204.532H164.421V204.051H161.101ZM162.338 203.091V206.22H162.929V203.091H162.338ZM162.147 204.249C161.829 204.84 161.201 205.474 160.628 205.775C160.755 205.869 160.928 206.049 161.01 206.186C161.601 205.809 162.229 205.08 162.547 204.394L162.147 204.249ZM159.709 204.557L159.373 204.806C159.627 204.986 160.228 205.483 160.428 205.697L160.783 205.286C160.61 205.14 159.927 204.677 159.709 204.557ZM163.12 204.257L162.702 204.386C163.02 205.089 163.639 205.792 164.285 206.143C164.376 206.006 164.549 205.817 164.685 205.715C164.039 205.44 163.421 204.849 163.12 204.257ZM160.228 202.74C159.746 202.937 158.818 203.083 158.017 203.16C158.081 203.271 158.154 203.443 158.19 203.546C159.027 203.486 160.046 203.331 160.692 203.083L160.228 202.74ZM163.512 202.714C162.993 202.92 161.974 203.057 161.119 203.134C161.183 203.237 161.256 203.426 161.283 203.529C162.193 203.469 163.284 203.314 163.985 203.066L163.512 202.714Z" fill="white"/>
<path d="M173.191 205.577V209.006H173.864V205.577H173.191ZM171.189 205.346V205.912H175.892V205.346H171.189ZM170.798 208.621V209.195H176.092V208.621H170.798ZM171.408 206.94V207.498H175.683V206.94H171.408ZM172.172 202.448H174.91V204.034H172.172V202.448ZM171.535 201.891V204.592H175.574V201.891H171.535ZM169.261 202.243V209.401H169.925V202.243H169.261ZM167.769 203.949V204.557H171.071V203.949H167.769ZM169.297 204.18C168.97 205.243 168.242 206.58 167.587 207.266C167.705 207.412 167.869 207.678 167.933 207.858C168.633 207.06 169.361 205.56 169.725 204.352L169.297 204.18ZM170.607 201.66C169.943 201.951 168.742 202.191 167.714 202.354C167.796 202.5 167.887 202.706 167.924 202.851C168.979 202.714 170.252 202.474 171.089 202.157L170.607 201.66ZM169.898 205.054L169.579 205.312C169.861 205.612 170.543 206.426 170.762 206.777L171.162 206.272C170.98 206.057 170.125 205.243 169.898 205.054Z" fill="white"/>
<path d="M127.516 190.212L111.514 195.34C111.514 195.34 110.362 191.482 110.283 188.93C110.189 185.886 111.514 181.237 111.514 181.237C111.514 181.237 114.625 184.638 117.669 186.366C120.883 188.19 127.516 190.212 127.516 190.212Z" fill="#139E9E"/>
<g opacity="0.8" filter="url(#filter1_f_408_441)">
<path d="M94.6082 182.021C94.6082 191.973 86.1894 200.041 75.8041 200.041C65.4189 200.041 57 191.973 57 182.021C57 172.068 65.4189 164 75.8041 164C86.1894 164 94.6082 172.068 94.6082 182.021Z" fill="white"/>
</g>
<path d="M93.0406 181.237C93.0406 190.757 85.3233 198.474 75.8035 198.474C66.2837 198.474 58.5664 190.757 58.5664 181.237C58.5664 171.717 66.2837 164 75.8035 164C85.3233 164 93.0406 171.717 93.0406 181.237Z" fill="#139E9E"/>
<path fill-rule="evenodd" clip-rule="evenodd" d="M69.2058 173.009C68.7831 173.009 68.3777 173.172 68.0788 173.462C67.7799 173.752 67.6119 174.145 67.6119 174.555V189.486C67.6119 189.896 67.7799 190.289 68.0788 190.579C68.3777 190.869 68.7831 191.032 69.2058 191.032H82.401C82.8237 191.032 83.2292 190.869 83.5281 190.579C83.827 190.289 83.9949 189.896 83.9949 189.486V174.555C83.9949 174.145 83.827 173.752 83.5281 173.462C83.2292 173.172 82.8237 173.009 82.401 173.009H80.2018C79.8675 173.009 79.5965 172.746 79.5965 172.422C79.5965 172.098 79.8675 171.835 80.2018 171.835H82.401C83.1448 171.835 83.8581 172.122 84.3841 172.632C84.91 173.142 85.2055 173.834 85.2055 174.555V189.486C85.2055 190.207 84.91 190.899 84.3841 191.409C83.8581 191.92 83.1448 192.206 82.401 192.206H69.2058C68.4621 192.206 67.7487 191.92 67.2228 191.409C66.6968 190.899 66.4014 190.207 66.4014 189.486V174.555C66.4014 173.834 66.6968 173.142 67.2228 172.632C67.7487 172.122 68.4621 171.835 69.2058 171.835H71.405C71.7393 171.835 72.0103 172.098 72.0103 172.422C72.0103 172.746 71.7393 173.009 71.405 173.009H69.2058Z" fill="white"/>
<path fill-rule="evenodd" clip-rule="evenodd" d="M72.7043 171.621C72.4478 171.621 72.2399 171.868 72.2399 172.173V174.631C72.2399 174.936 72.4478 175.183 72.7043 175.183H78.9028C79.1593 175.183 79.3673 174.936 79.3673 174.631V172.173C79.3673 171.868 79.1593 171.621 78.9028 171.621H72.7043ZM71.1025 172.173C71.1025 171.121 71.8197 170.268 72.7043 170.268H78.9028C79.7875 170.268 80.5046 171.121 80.5046 172.173V174.631C80.5046 175.683 79.7875 176.536 78.9028 176.536H72.7043C71.8197 176.536 71.1025 175.683 71.1025 174.631V172.173Z" fill="white"/>
<defs>
<filter id="filter0_f_408_441" x="0" y="0" width="50.041" height="50.041" filterUnits="userSpaceOnUse" color-interpolation-filters="sRGB">
<feFlood flood-opacity="0" result="BackgroundImageFix"/>
<feBlend mode="normal" in="SourceGraphic" in2="BackgroundImageFix" result="shape"/>
<feGaussianBlur stdDeviation="3.5" result="effect1_foregroundBlur_408_441"/>
</filter>
<filter id="filter1_f_408_441" x="50" y="157" width="51.6084" height="50.041" filterUnits="userSpaceOnUse" color-interpolation-filters="sRGB">
<feFlood flood-opacity="0" result="BackgroundImageFix"/>
<feBlend mode="normal" in="SourceGraphic" in2="BackgroundImageFix" result="shape"/>
<feGaussianBlur stdDeviation="3.5" result="effect1_foregroundBlur_408_441"/>
</filter>
</defs>
</svg>
