<svg width="258" height="234" viewBox="0 0 258 234" fill="none" xmlns="http://www.w3.org/2000/svg">
<g opacity="0.8" filter="url(#filter0_f_408_442)">
<path d="M169.237 25.8041C169.237 36.1894 177.656 44.6082 188.042 44.6082C198.427 44.6082 206.846 36.1894 206.846 25.8041C206.846 15.4189 198.427 7 188.042 7C177.656 7 169.237 15.4189 169.237 25.8041Z" fill="white"/>
</g>
<path d="M170.805 25.804C170.805 35.3238 178.522 43.0411 188.042 43.0411C197.562 43.0411 205.279 35.3238 205.279 25.804C205.279 16.2842 197.562 8.56689 188.042 8.56689C178.522 8.56689 170.805 16.2842 170.805 25.804Z" fill="#139E9E"/>
<path d="M0 49.3094C0 39.7896 7.78049 32.0723 17.3782 32.0723H145.591C155.189 32.0723 162.969 39.7896 162.969 49.3094V49.3094C162.969 58.8292 155.189 66.5465 145.591 66.5465H17.3782C7.7805 66.5465 0 58.8292 0 49.3094V49.3094Z" fill="#139E9E"/>
<path d="M26.6396 51.5587V52.0811H34.7207V51.5587H26.6396ZM26.8977 46.8661V47.3716H34.3558V46.8661H26.8977ZM31.9439 51.0111V53.269C31.9439 53.3785 31.8994 53.4122 31.757 53.4206C31.6057 53.429 31.1073 53.429 30.5734 53.4122C30.6624 53.5723 30.7514 53.7997 30.7781 53.9598C31.4989 53.9598 31.9528 53.9598 32.2376 53.8755C32.5135 53.7829 32.5847 53.6144 32.5847 53.2858V51.0111H31.9439ZM30.3331 46.2258V50.7415H30.9917V46.2258H30.3331ZM28.0636 52.4349C28.5976 52.7466 29.2206 53.21 29.5232 53.547L30.0127 53.1257C29.7012 52.7972 29.0426 52.3507 28.5175 52.0642L28.0636 52.4349ZM28.2149 49.1998H33.1632V49.7221H28.2149V49.1998ZM28.2149 48.2731H33.1632V48.787H28.2149V48.2731ZM27.583 47.8518V50.1518H33.8129V47.8518H27.583ZM31.9973 50.3287C32.7004 50.5562 33.5459 50.9943 33.982 51.3313L34.3825 50.969C33.9375 50.6573 33.092 50.236 32.38 50.0086L31.9973 50.3287ZM26.9956 50.6404L27.0223 51.1375C28.7044 51.1122 31.2319 51.0617 33.6082 51.0027L33.6438 50.573C31.2052 50.6152 28.6154 50.6404 26.9956 50.6404Z" fill="white"/>
<path d="M37.9157 51.4155V51.9463H45.7119V51.4155H37.9157ZM37.9513 47.717V48.2562H45.6763V47.717H37.9513ZM38.3073 49.1577V49.68H45.3559V49.1577H38.3073ZM38.7612 50.295V50.7837H44.9198V50.295H38.7612ZM41.4578 49.402V53.9682H42.1164V49.402H41.4578ZM40.639 46.209V47.9698H41.2709V46.209H40.639ZM42.3211 46.209V47.9445H42.9619V46.209H42.3211ZM41.2442 51.6261C40.4877 52.3591 39.0015 53.0078 37.6843 53.2858C37.8267 53.4206 38.0225 53.6649 38.1204 53.825C39.4465 53.4712 40.9505 52.7382 41.7782 51.862L41.2442 51.6261ZM42.33 51.6093L41.8049 51.8199C42.6415 52.7298 44.1278 53.4964 45.4805 53.8503C45.5784 53.6734 45.7831 53.4206 45.9344 53.2858C44.5817 53.0162 43.0865 52.3675 42.33 51.6093ZM44.3859 46.3101C44.2346 46.6976 43.9409 47.2537 43.7006 47.6075L44.2435 47.776C44.4927 47.4474 44.813 46.9504 45.0711 46.487L44.3859 46.3101ZM43.1933 48.0961C43.0865 48.3994 42.8551 48.8375 42.6771 49.1324L43.2378 49.2925C43.4336 49.0229 43.665 48.6353 43.8875 48.2562L43.1933 48.0961ZM38.6722 46.487C38.957 46.883 39.2774 47.4222 39.402 47.7592L39.9983 47.5485C39.8737 47.2031 39.5444 46.6724 39.2418 46.2932L38.6722 46.487ZM39.8292 48.3152C40.025 48.5932 40.2207 48.9892 40.2919 49.2419L40.9505 49.1071C40.8704 48.8544 40.6657 48.4753 40.461 48.1972L39.8292 48.3152Z" fill="white"/>
<path d="M49.6456 47.5654V48.1298H51.7282V52.5023H49.6456V53.0752H52.3512V47.5654H49.6456ZM49.2451 47.5654V53.7492H49.8681V47.5654H49.2451ZM49.6011 49.9075V50.4719H52.0575V49.9075H49.6011ZM50.6068 46.1921C50.5356 46.6302 50.3665 47.2705 50.2152 47.6749L50.7492 47.8013C50.9272 47.4222 51.1497 46.8409 51.3277 46.3185L50.6068 46.1921ZM53.615 47.5401V48.1298H56.3472V47.5401H53.615ZM56.1158 47.5401V47.6749C55.9912 51.3902 55.8488 52.7888 55.5551 53.092C55.4572 53.2016 55.3504 53.2268 55.1724 53.2268C54.9677 53.2268 54.4337 53.2184 53.8552 53.1763C53.9798 53.3448 54.0599 53.606 54.0777 53.7913C54.5761 53.8166 55.1012 53.8334 55.4038 53.7997C55.7153 53.7745 55.92 53.6986 56.1158 53.4543C56.4718 53.0415 56.5964 51.7357 56.7388 47.8687C56.7388 47.776 56.7388 47.5401 56.7388 47.5401H56.1158ZM53.8018 46.1753C53.5171 47.3463 53.0276 48.509 52.4224 49.2503C52.5826 49.3346 52.8585 49.5115 52.9742 49.6126C53.5883 48.8123 54.1133 47.5738 54.4426 46.3185L53.8018 46.1753ZM53.3925 49.7306C53.8819 50.3456 54.4782 51.1796 54.7452 51.6935L55.3148 51.3565C55.03 50.8595 54.4159 50.0423 53.9086 49.4441L53.3925 49.7306Z" fill="white"/>
<path d="M62.6394 46.7229V53.9598H63.2623V47.2874H67.2049V53.8924H67.8457V46.7229H62.6394ZM63.6272 48.509V49.006H66.9024V48.509H63.6272ZM62.9775 52.8898V53.4543H67.5609V52.8898H62.9775ZM64.98 47.557V50.2276H65.5229V47.557H64.98ZM64.5172 50.4045H66.0213V51.7104H64.5172V50.4045ZM64.001 49.9327V52.1906H66.5553V49.9327H64.001ZM61.7138 46.2511C61.2777 47.5317 60.5479 48.8038 59.7469 49.6295C59.8626 49.7811 60.0495 50.1265 60.1029 50.2782C60.9929 49.3093 61.8206 47.8603 62.3279 46.4196L61.7138 46.2511ZM60.9751 48.3152V53.9766H61.607V47.7255L61.5981 47.717L60.9751 48.3152Z" fill="white"/>
<path d="M74.7164 46.4702C74.6541 47.5907 74.6541 51.643 71.023 53.3953C71.2277 53.5386 71.4502 53.7323 71.5659 53.8924C75.2504 51.9968 75.3839 47.7929 75.4551 46.4702H74.7164ZM75.4284 46.6387L74.7876 46.6976C74.8499 47.4727 75.0991 52.1822 78.8726 53.8924C78.9794 53.7155 79.1841 53.5049 79.3799 53.3616C75.7132 51.7694 75.4551 47.2958 75.4284 46.6387Z" fill="white"/>
<path d="M86.1793 46.4196V52.6624C86.1793 53.5891 86.4641 53.8418 87.3986 53.8418C87.6033 53.8418 89.0006 53.8418 89.232 53.8418C90.1575 53.8418 90.3533 53.3616 90.4601 51.98C90.2643 51.9378 89.9884 51.8199 89.8194 51.702C89.7571 52.932 89.6859 53.2437 89.1964 53.2437C88.8938 53.2437 87.6834 53.2437 87.4431 53.2437C86.9447 53.2437 86.8557 53.1426 86.8557 52.6708V46.4196H86.1793ZM89.5168 47.8181C88.7603 48.4753 87.4876 49.2588 86.3484 49.8232C86.4463 49.958 86.5798 50.1771 86.6243 50.3203C87.7991 49.739 89.1074 49.0566 90.0062 48.3573L89.5168 47.8181ZM84.6308 46.3438C84.0434 47.6749 83.0644 48.9555 82.032 49.7727C82.1655 49.9243 82.3702 50.2529 82.4414 50.4045C83.545 49.4694 84.613 48.0287 85.2804 46.546L84.6308 46.3438ZM83.6162 48.5427V53.9514H84.2748V47.9361L84.2659 47.9276L83.6162 48.5427Z" fill="white"/>
<path d="M96.4675 50.6826V53.9598H97.0816V51.2639H100.268V53.9177H100.909V50.6826H96.4675ZM100.579 46.2427C99.5913 46.5797 97.7847 46.8409 96.2361 47.0009C96.3162 47.1441 96.4052 47.3885 96.4319 47.5401C98.025 47.3969 99.885 47.1357 101.104 46.7398L100.579 46.2427ZM98.3899 46.9756V51.0195H99.0306V46.9756H98.3899ZM95.8178 48.6859V49.2925H101.487V48.6859H95.8178ZM96.8858 53.0162V53.5975H100.561V53.0162H96.8858ZM93.7798 46.765C94.3315 47.043 95.0702 47.4559 95.444 47.7086L95.8356 47.1947C95.4529 46.9504 94.6964 46.5713 94.1536 46.3185L93.7798 46.765ZM93.3437 49.0903C93.8866 49.3599 94.6252 49.7643 94.9901 50.0001L95.3639 49.4862C94.9901 49.2419 94.2426 48.8712 93.7175 48.6269L93.3437 49.0903ZM93.5573 53.4206L94.118 53.8503C94.643 53.0668 95.266 52.0137 95.7377 51.1206L95.2571 50.7078C94.7409 51.6683 94.0379 52.7803 93.5573 53.4206Z" fill="white"/>
<path d="M104.718 51.7188V52.199H108.776V51.7188H104.718ZM104.477 47.6581V48.1467H108.918V47.6581H104.477ZM106.409 46.8914V53.092H107.023V46.8914H106.409ZM104.468 53.1089L104.566 53.6565C105.697 53.547 107.307 53.3701 108.82 53.2016L108.812 52.7045C107.218 52.8646 105.554 53.0162 104.468 53.1089ZM105.296 50.1434H108.18V50.7668H105.296V50.1434ZM105.296 49.1155H108.18V49.7221H105.296V49.1155ZM104.735 48.6775V51.2049H108.749V48.6775H104.735ZM108.429 46.2932C107.512 46.4954 105.892 46.6471 104.566 46.7145C104.638 46.8409 104.7 47.0515 104.727 47.1863C106.061 47.1441 107.717 47.0009 108.767 46.7819L108.429 46.2932ZM108.856 48.1804V48.7701H112.069V48.1804H108.856ZM111.811 48.1804V48.332C111.713 51.7441 111.615 52.9572 111.392 53.2184C111.312 53.3279 111.223 53.3532 111.081 53.3532C110.903 53.3532 110.511 53.3448 110.075 53.3111C110.182 53.4796 110.253 53.7408 110.271 53.9177C110.68 53.9429 111.108 53.9429 111.357 53.9177C111.624 53.8924 111.802 53.8166 111.962 53.5975C112.256 53.2353 112.345 52.0558 112.443 48.5005C112.443 48.4163 112.452 48.1804 112.452 48.1804H111.811ZM109.933 46.3185C109.924 49.5031 109.969 52.1737 107.93 53.5554C108.091 53.6565 108.322 53.8587 108.429 54.0103C110.556 52.5023 110.565 49.6716 110.574 46.3185H109.933Z" fill="white"/>
<path d="M119.358 49.5115V50.0591H123.407V49.5115H119.358ZM119.358 51.2049V51.7609H123.407V51.2049H119.358ZM119.295 52.9404V53.5217H123.772V52.9404H119.295ZM121.173 48.0877V53.151H121.796V48.0877H121.173ZM121.787 46.2343C121.618 46.7987 121.298 47.6159 121.022 48.113L121.583 48.2646C121.859 47.7929 122.215 47.0346 122.491 46.3859L121.787 46.2343ZM119.74 46.2006C119.376 47.4222 118.753 48.5932 117.969 49.3346C118.103 49.461 118.325 49.739 118.423 49.8569C119.251 49.0144 119.954 47.7086 120.381 46.3522L119.74 46.2006ZM119.723 47.8097H119.447L119.082 48.1551V53.9514H119.723V48.3742H123.621V47.8097H119.723ZM115.469 50.691L115.62 51.3144C116.412 51.0869 117.435 50.7837 118.406 50.4972L118.325 49.9327C117.275 50.2192 116.189 50.5225 115.469 50.691ZM115.62 47.9108V48.5005H118.334V47.9108H115.62ZM116.83 46.2174V53.1931C116.83 53.3195 116.777 53.3532 116.661 53.3532C116.554 53.3616 116.181 53.3616 115.78 53.3448C115.869 53.5217 115.958 53.7997 115.985 53.9598C116.563 53.9598 116.928 53.9429 117.16 53.8334C117.391 53.7323 117.471 53.5554 117.471 53.1931V46.2174H116.83Z" fill="white"/>
<path d="M126.869 46.7735V47.3042H134.763V46.7735H126.869ZM127.715 48.054V48.5174H134.612V48.054H127.715ZM129.201 50.851V51.2891H134.612V50.851H129.201ZM128.978 51.7609V52.2159H134.087V51.7609H128.978ZM128.943 46.209V47.8266H129.593V46.209H128.943ZM132.004 46.209V47.8266H132.672V46.209H132.004ZM130.438 47.5064V48.2562H131.079V47.5064H130.438ZM129.459 48.391V50.1349H130.038V48.391H129.459ZM131.488 48.391V50.1349H132.076V48.391H131.488ZM127.394 48.054V50.017C127.394 51.0785 127.314 52.5529 126.62 53.6144C126.78 53.6734 127.047 53.8334 127.163 53.9345C127.893 52.814 128.017 51.1712 128.017 50.017V48.054H127.394ZM127.786 48.9807V49.3851H133.597V50.017H127.786V50.4214H134.247V48.9807H127.786ZM128.97 50.2276C128.827 50.8932 128.605 51.7694 128.427 52.3085L129.041 52.3844C129.21 51.8368 129.432 50.9858 129.593 50.295L128.97 50.2276ZM133.918 51.7609V51.8367C133.829 52.8898 133.749 53.3027 133.624 53.429C133.562 53.488 133.491 53.4964 133.375 53.4964C133.25 53.4964 132.957 53.4964 132.645 53.4627C132.716 53.5975 132.77 53.8081 132.788 53.9514C133.135 53.9682 133.473 53.9682 133.642 53.9598C133.856 53.9429 134.007 53.8924 134.14 53.7745C134.327 53.5807 134.425 53.1257 134.523 51.9968C134.532 51.9126 134.541 51.7609 134.541 51.7609H133.918ZM128.48 52.477C128.32 52.9067 128.008 53.3953 127.608 53.6734L128.08 53.9682C128.525 53.6481 128.8 53.1342 128.978 52.6708L128.48 52.477ZM129.548 52.595C129.655 52.9909 129.744 53.5133 129.735 53.8503L130.287 53.766C130.278 53.4375 130.18 52.9235 130.046 52.5276L129.548 52.595ZM130.714 52.5613C130.928 52.9067 131.141 53.3785 131.221 53.6902L131.737 53.5133C131.64 53.2184 131.426 52.7551 131.195 52.4181L130.714 52.5613ZM131.924 52.4686C132.174 52.7129 132.458 53.0668 132.583 53.2942L133.046 53.0583C132.912 52.8393 132.627 52.5107 132.36 52.2748L131.924 52.4686Z" fill="white"/>
<path d="M139.465 34.7789L155.466 39.9073C155.466 39.9073 156.618 36.0485 156.697 33.4968C156.791 30.4528 155.466 25.8042 155.466 25.8042C155.466 25.8042 152.356 29.2049 149.312 30.9326C146.097 32.7572 139.465 34.7789 139.465 34.7789Z" fill="#139E9E"/>
<path fill-rule="evenodd" clip-rule="evenodd" d="M179.942 28.8389C180.776 27.8997 181.909 27.3711 183.091 27.3711H189.858C191.04 27.3711 192.173 27.8997 193.007 28.8389C193.842 29.778 194.31 31.0506 194.31 32.3766V34.5527C194.31 34.9136 194.048 35.2061 193.725 35.2061C193.402 35.2061 193.14 34.9136 193.14 34.5527V32.3766C193.14 31.3941 192.793 30.4529 192.177 29.7596C191.561 29.0665 190.727 28.678 189.858 28.678H183.091C182.222 28.678 181.388 29.0665 180.772 29.7596C180.156 30.4529 179.809 31.3941 179.809 32.3766V34.5527C179.809 34.9136 179.548 35.2061 179.225 35.2061C178.902 35.2061 178.64 34.9136 178.64 34.5527V32.3766C178.64 31.0506 179.108 29.778 179.942 28.8389Z" fill="white"/>
<path fill-rule="evenodd" clip-rule="evenodd" d="M187.258 17.6293C185.687 17.6293 184.389 19.1681 184.389 21.1029C184.389 23.0377 185.687 24.5765 187.258 24.5765C188.829 24.5765 190.128 23.0377 190.128 21.1029C190.128 19.1681 188.829 17.6293 187.258 17.6293ZM183.341 21.1029C183.341 18.523 185.081 16.4019 187.258 16.4019C189.436 16.4019 191.176 18.523 191.176 21.1029C191.176 23.6828 189.436 25.8039 187.258 25.8039C185.081 25.8039 183.341 23.6828 183.341 21.1029Z" fill="white"/>
<path fill-rule="evenodd" clip-rule="evenodd" d="M198.894 22.8182C199.057 23.0081 199.049 23.3074 198.877 23.4868L195.27 27.2418C195.105 27.414 194.846 27.414 194.681 27.2418L192.878 25.3643C192.705 25.1849 192.698 24.8856 192.86 24.6957C193.023 24.5057 193.295 24.4972 193.467 24.6766L194.976 26.2473L198.288 22.799C198.46 22.6197 198.731 22.6282 198.894 22.8182Z" fill="white"/>
<g opacity="0.8" filter="url(#filter1_f_408_442)">
<path d="M214.804 194.021C214.804 203.973 222.873 212.041 232.825 212.041C242.778 212.041 250.846 203.973 250.846 194.021C250.846 184.068 242.778 176 232.825 176C222.873 176 214.804 184.068 214.804 194.021Z" fill="white"/>
</g>
<path d="M214.804 193.237C214.804 202.757 222.521 210.474 232.041 210.474C241.561 210.474 249.278 202.757 249.278 193.237C249.278 183.717 241.561 176 232.041 176C222.521 176 214.804 183.717 214.804 193.237Z" fill="#139E9E"/>
<path d="M44 216.742C44 207.222 51.7805 199.505 61.3782 199.505H189.591C199.189 199.505 206.969 207.222 206.969 216.742V216.742C206.969 226.262 199.189 233.979 189.591 233.979H61.3782C51.7805 233.979 44 226.262 44 216.742V216.742Z" fill="#139E9E"/>
<path d="M74.07 216.969H72.3037V217.559H73.4309V219.952H74.07V216.969ZM74.07 219.699H73.493C73.0759 220.061 72.5966 220.44 72.2061 220.71L72.5522 221.325C72.996 220.954 73.4043 220.592 73.7948 220.23C74.3451 220.895 75.1528 221.19 76.3244 221.232C77.3185 221.274 79.2179 221.258 80.2208 221.215C80.2474 221.03 80.3539 220.735 80.4338 220.592C79.3599 220.659 77.3096 220.685 76.3244 220.643C75.2682 220.609 74.4871 220.322 74.07 219.699ZM72.3836 214.206C72.925 214.619 73.5374 215.209 73.7859 215.63L74.3362 215.234C74.0611 214.821 73.4398 214.24 72.8895 213.861L72.3836 214.206ZM74.5759 214.358V214.872H80.2918V214.358H74.5759ZM75.8185 216.818V217.239H78.996V216.818H75.8185ZM77.0522 213.642V214.669H77.6912V213.642H77.0522ZM77.1409 216.194V217.98H77.6557V216.194H77.1409ZM74.8954 215.731V220.146H75.5078V216.236H79.5995V215.731H74.8954ZM76.2179 217.846V219.707H76.7149V217.846H76.2179ZM76.4841 217.846V218.25H78.1173V218.983H76.4841V219.379H78.6143V217.846H76.4841ZM79.3599 215.731V219.463C79.3599 219.564 79.3244 219.59 79.2179 219.598C79.1025 219.606 78.7563 219.606 78.3569 219.59C78.4368 219.75 78.5255 219.977 78.5611 220.137C79.0847 220.137 79.4486 220.129 79.6883 220.036C79.919 219.935 79.9723 219.783 79.9723 219.472V215.731H79.3599ZM78.5167 214.762C78.419 215.032 78.2149 215.445 78.064 215.714L78.5966 215.857C78.7652 215.613 78.9516 215.268 79.1468 214.922L78.5167 214.762ZM75.6853 214.939C75.8628 215.225 76.0315 215.596 76.0847 215.849L76.6617 215.697C76.6084 215.445 76.4309 215.074 76.2445 214.804L75.6853 214.939Z" fill="white"/>
<path d="M85.1912 216.397V216.961H89.6734V216.397H85.1912ZM85.0314 220.491V221.055H89.7888V220.491H85.0314ZM84.7297 218.022V221.401H85.3776V218.595H89.487V221.401H90.1616V218.022H84.7297ZM87.4012 214.29C88.2356 215.369 89.7977 216.557 91.1912 217.247C91.3066 217.062 91.4663 216.843 91.6349 216.691C90.2148 216.093 88.6616 214.922 87.703 213.667H87.0285C86.3273 214.754 84.845 216.043 83.2829 216.792C83.4338 216.927 83.6113 217.155 83.7001 217.298C85.2178 216.514 86.6734 215.318 87.4012 214.29Z" fill="white"/>
<path d="M94.5817 218.461V219.025H102.463V218.461H94.5817ZM98.1586 217.677V221.376H98.8331V217.677H98.1586ZM97.8568 218.68C97.129 219.573 95.7 220.373 94.4042 220.752C94.5551 220.879 94.7503 221.123 94.8568 221.283C96.1527 220.836 97.5994 219.935 98.4071 218.916L97.8568 218.68ZM99.1438 218.696L98.5846 218.949C99.3923 219.943 100.839 220.803 102.188 221.224C102.286 221.055 102.49 220.811 102.632 220.685C101.283 220.339 99.8627 219.573 99.1438 218.696ZM97.8124 216.363H99.2059V217.29H97.8124V216.363ZM97.8124 214.973H99.2059V215.883H97.8124V214.973ZM97.2355 214.476V217.787H99.7917V214.476H97.2355ZM98.274 213.642C98.2207 213.945 98.0965 214.391 97.9899 214.686L98.5136 214.796C98.6467 214.526 98.7976 214.122 98.9396 213.743L98.274 213.642ZM94.6438 215.284C95.0876 215.63 95.6113 216.118 95.842 216.455L96.1527 215.992C95.9219 215.672 95.3894 215.2 94.9367 214.88L94.6438 215.284ZM96.2592 216.523C96.5166 217.003 96.7651 217.652 96.8361 218.056L97.3065 217.879C97.2266 217.492 96.9692 216.86 96.703 216.388L96.2592 216.523ZM96.4811 214.872C96.1172 215.638 95.4693 216.717 94.9545 217.374L95.3894 217.568C95.9042 216.919 96.5343 215.899 97.0047 215.065L96.4811 214.872ZM95.7888 213.701C95.6113 214.189 95.274 214.88 95.0166 215.31L95.4604 215.495C95.7355 215.074 96.055 214.434 96.3213 213.886L95.7888 213.701ZM94.5639 217.323L94.6349 217.871C95.2829 217.77 96.0728 217.669 96.8894 217.542L96.8805 217.087C96.0018 217.18 95.1675 217.273 94.5639 217.323ZM99.7385 215.217C100.209 215.605 100.741 216.152 100.972 216.523L101.318 216.085C101.079 215.731 100.537 215.2 100.076 214.83L99.7385 215.217ZM101.389 216.455C101.691 216.986 101.984 217.677 102.073 218.124L102.57 217.93C102.472 217.5 102.162 216.809 101.851 216.295L101.389 216.455ZM101.611 214.863C101.247 215.638 100.573 216.725 100.049 217.391L100.484 217.584C101.017 216.927 101.664 215.899 102.135 215.065L101.611 214.863ZM100.963 213.675C100.786 214.164 100.44 214.855 100.173 215.284L100.617 215.47C100.901 215.049 101.23 214.417 101.505 213.861L100.963 213.675ZM99.774 217.323L99.8538 217.871C100.502 217.787 101.309 217.686 102.126 217.584L102.117 217.121C101.238 217.197 100.395 217.273 99.774 217.323Z" fill="white"/>
<path d="M109.688 217.601V218.166H112.981V217.601H109.688ZM110.407 216.338V216.86H112.75V216.338H110.407ZM110.824 217.93V221.392H111.428V217.93H110.824ZM112.653 217.601V219.876C112.653 219.96 112.626 219.985 112.519 219.985C112.413 219.994 112.085 219.994 111.694 219.985C111.774 220.146 111.863 220.373 111.872 220.542C112.422 220.542 112.759 220.533 112.972 220.44C113.194 220.339 113.256 220.171 113.256 219.893V217.601H112.653ZM111.57 214.29C111.978 215.166 112.697 216.194 113.434 216.835C113.522 216.658 113.682 216.43 113.806 216.279C113.07 215.714 112.298 214.644 111.845 213.65H111.241C110.904 214.602 110.159 215.739 109.386 216.371C109.502 216.514 109.653 216.734 109.732 216.885C110.522 216.22 111.206 215.166 111.57 214.29ZM106.901 216.329C106.839 216.877 106.697 217.349 106.351 217.66C106.44 217.728 106.582 217.854 106.635 217.913C107.008 217.559 107.212 217.012 107.301 216.371L106.901 216.329ZM108.019 216.338C107.948 216.877 107.771 217.332 107.407 217.635C107.505 217.702 107.638 217.829 107.691 217.888C108.09 217.542 108.312 217.003 108.41 216.38L108.019 216.338ZM106.901 218.629C106.83 219.185 106.688 219.648 106.342 219.977C106.422 220.036 106.564 220.171 106.626 220.23C107.008 219.868 107.212 219.311 107.292 218.671L106.901 218.629ZM108.028 218.638C107.957 219.194 107.78 219.648 107.416 219.969C107.505 220.028 107.647 220.154 107.7 220.213C108.099 219.859 108.321 219.311 108.41 218.68L108.028 218.638ZM105.525 215.52V216.034H109.724V215.52H105.525ZM107.762 214.391V214.88H109.431V214.391H107.762ZM106.102 218.031V218.503H109.173V218.031H106.102ZM106.102 220.373V220.862H109.191V220.373H106.102ZM107.416 213.65V215.798H107.984V213.65H107.416ZM106.164 214.13V215.773H106.706V214.13H106.164ZM105.845 216.321V221.325H106.351V216.321H105.845ZM108.863 216.321V221.207H109.386V216.321H108.863ZM106.83 217.096C106.999 217.281 107.203 217.551 107.309 217.711L107.593 217.466C107.487 217.315 107.283 217.07 107.096 216.885L106.83 217.096ZM107.931 217.113C108.161 217.349 108.428 217.677 108.57 217.888L108.845 217.627C108.712 217.441 108.428 217.121 108.188 216.885L107.931 217.113ZM106.812 219.404C106.999 219.598 107.221 219.868 107.327 220.044L107.602 219.792C107.496 219.632 107.283 219.387 107.079 219.194L106.812 219.404ZM107.94 219.429C108.17 219.674 108.446 220.011 108.596 220.221L108.872 219.96C108.73 219.766 108.446 219.455 108.197 219.202L107.94 219.429Z" fill="white"/>
<path d="M121.031 214.754V215.335H124.706V214.754H121.031ZM121.28 213.633C120.996 214.585 120.508 215.52 119.904 216.118C120.055 216.203 120.321 216.371 120.437 216.472C121.031 215.815 121.573 214.804 121.892 213.768L121.28 213.633ZM121.324 216.447V217.012H124.564V216.447H121.324ZM120.339 218.25V218.831H124.706V218.25H120.339ZM121.413 215.52C121.218 216.321 120.863 217.113 120.392 217.643C120.552 217.719 120.809 217.879 120.925 217.972C121.386 217.399 121.786 216.54 122.034 215.655L121.413 215.52ZM116.656 215.057V215.647H120.295V215.057H116.656ZM117.934 216.835V217.416H119.593V216.835H117.934ZM118.271 213.658V215.234H118.919V213.658H118.271ZM117.658 215.394C117.632 217.534 117.543 219.775 116.522 220.988C116.691 221.081 116.904 221.258 117.019 221.401C118.12 220.053 118.244 217.711 118.289 215.394H117.658ZM119.407 216.835V216.961C119.3 219.581 119.185 220.508 119.008 220.727C118.937 220.82 118.866 220.836 118.732 220.836C118.599 220.836 118.289 220.836 117.951 220.803C118.049 220.963 118.111 221.215 118.129 221.392C118.475 221.409 118.812 221.409 119.016 221.384C119.256 221.359 119.407 221.3 119.549 221.114C119.806 220.811 119.913 219.868 120.019 217.129C120.028 217.037 120.028 216.835 120.028 216.835H119.407ZM122.94 218.621L122.434 218.747C122.771 219.943 123.463 220.921 124.493 221.392C124.59 221.241 124.777 221.013 124.928 220.904C123.942 220.525 123.259 219.657 122.94 218.621ZM122.238 216.75V217.964C122.238 218.848 122.105 220.095 120.082 220.963C120.232 221.072 120.419 221.266 120.508 221.401C122.611 220.415 122.877 219.008 122.877 217.972V216.75H122.238Z" fill="white"/>
<path d="M128.531 214.998V215.562H130.608V219.935H128.531V220.508H131.229V214.998H128.531ZM128.132 214.998V221.182H128.753V214.998H128.132ZM128.487 217.34V217.905H130.937V217.34H128.487ZM129.49 213.625C129.419 214.063 129.25 214.703 129.099 215.108L129.632 215.234C129.809 214.855 130.031 214.273 130.209 213.751L129.49 213.625ZM132.49 214.973V215.562H135.215V214.973H132.49ZM134.984 214.973V215.108C134.86 218.823 134.718 220.221 134.425 220.525C134.327 220.634 134.221 220.659 134.043 220.659C133.839 220.659 133.306 220.651 132.729 220.609C132.854 220.777 132.934 221.039 132.951 221.224C133.448 221.249 133.972 221.266 134.274 221.232C134.584 221.207 134.789 221.131 134.984 220.887C135.339 220.474 135.463 219.168 135.605 215.301C135.605 215.209 135.605 214.973 135.605 214.973H134.984ZM132.676 213.608C132.392 214.779 131.904 215.942 131.3 216.683C131.46 216.767 131.735 216.944 131.851 217.045C132.463 216.245 132.987 215.006 133.315 213.751L132.676 213.608ZM132.268 217.163C132.756 217.778 133.351 218.612 133.617 219.126L134.185 218.789C133.901 218.292 133.289 217.475 132.783 216.877L132.268 217.163Z" fill="white"/>
<path d="M141.303 214.577V215.166H147.002V214.577H141.303ZM142.182 216.523H146.061V217.787H142.182V216.523ZM141.57 215.984V218.326H146.709V215.984H141.57ZM142.12 218.494L141.57 218.671C142.51 220.213 144.33 221.089 146.682 221.409C146.771 221.232 146.939 220.98 147.081 220.845C144.774 220.6 142.954 219.817 142.12 218.494ZM143.771 213.675V217.399C143.771 218.823 143.62 220.263 140.984 220.895C141.117 221.03 141.303 221.283 141.383 221.426C144.135 220.651 144.428 219.033 144.428 217.407V213.675H143.771ZM140.922 213.625C140.407 214.905 139.537 216.161 138.641 216.961C138.765 217.113 138.951 217.441 139.013 217.584C139.999 216.649 140.948 215.234 141.552 213.81L140.922 213.625ZM139.99 215.832V221.435H140.629V215.242L140.62 215.234L139.99 215.832Z" fill="white"/>
<path d="M151.288 214.24V214.846H157.031V214.24H151.288ZM151.288 216.203V216.801H157.022V216.203H151.288ZM151.244 218.216V218.814H157.04V218.216H151.244ZM150.916 214.24V217.29C150.916 218.477 150.818 219.977 149.842 221.022C149.984 221.106 150.25 221.317 150.357 221.443C151.413 220.322 151.573 218.579 151.573 217.298V214.24H150.916ZM156.765 214.24V220.533C156.765 220.693 156.703 220.744 156.534 220.752C156.365 220.752 155.762 220.761 155.132 220.735C155.229 220.904 155.336 221.182 155.362 221.35C156.206 221.359 156.72 221.35 157.022 221.249C157.315 221.14 157.422 220.946 157.422 220.533V214.24H156.765ZM153.703 214.467V221.317H154.377V214.467H153.703Z" fill="white"/>
<path d="M163.848 214.341V214.88H169.031V214.341H163.848ZM163.661 218.991V219.522H169.022V218.991H163.661ZM165.152 213.65V215.52H165.783V213.65H165.152ZM167.14 213.65V215.52H167.788V213.65H167.14ZM164.833 217.205H167.93V217.812H164.833V217.205ZM164.833 216.152H167.93V216.75H164.833V216.152ZM164.212 215.68V218.292H168.569V215.68H164.212ZM166.031 218.208C165.88 219.606 165.463 220.474 163.422 220.895C163.546 221.022 163.714 221.258 163.768 221.401C165.987 220.887 166.501 219.868 166.688 218.208H166.031ZM166.839 219.168L166.271 219.286C166.688 220.356 167.558 221.072 168.809 221.392C168.898 221.232 169.084 220.996 169.226 220.87C168.055 220.643 167.203 220.036 166.839 219.168ZM161.096 215.276V215.857H163.759V215.276H161.096ZM162.197 213.642V221.384H162.836V213.642H162.197ZM162.241 215.655C162.019 216.835 161.487 218.309 160.927 219.067C161.043 219.219 161.212 219.497 161.283 219.674C161.868 218.814 162.401 217.138 162.658 215.782L162.241 215.655ZM162.809 216.161L162.472 216.413C162.703 216.776 163.28 217.862 163.475 218.317L163.892 217.854C163.732 217.576 163.004 216.422 162.809 216.161Z" fill="white"/>
<path d="M178.04 214.063C178.501 214.366 179.043 214.821 179.309 215.124L179.779 214.728C179.504 214.434 178.945 213.995 178.484 213.701L178.04 214.063ZM172.235 215.217V215.832H180.143V215.217H172.235ZM172.537 217.096V217.711H176.46V217.096H172.537ZM174.135 217.424V220.432H174.8V217.424H174.135ZM172.271 220.516L172.475 221.148C173.62 220.904 175.244 220.55 176.762 220.213L176.708 219.648C175.066 219.985 173.327 220.322 172.271 220.516ZM176.753 213.684C176.788 217.761 177.507 221.409 179.274 221.409C179.957 221.409 180.214 220.98 180.33 219.505C180.143 219.446 179.886 219.303 179.735 219.16C179.682 220.289 179.575 220.752 179.327 220.752C178.235 220.752 177.436 217.593 177.463 213.684H176.753Z" fill="white"/>
<path d="M183.464 202.212L199.465 207.34C199.465 207.34 200.617 203.481 200.696 200.929C200.79 197.885 199.465 193.237 199.465 193.237C199.465 193.237 196.355 196.638 193.311 198.365C190.096 200.19 183.464 202.212 183.464 202.212Z" fill="#139E9E"/>
<path fill-rule="evenodd" clip-rule="evenodd" d="M231.582 184.078C231.654 183.93 231.815 183.835 231.992 183.835C232.897 183.835 233.766 184.162 234.407 184.744C235.048 185.327 235.409 186.118 235.409 186.942V190.13H240.558C240.908 190.126 241.256 190.192 241.576 190.323C241.897 190.454 242.182 190.647 242.414 190.888C242.645 191.13 242.815 191.414 242.913 191.722C243.012 192.029 243.035 192.352 242.982 192.669L242.982 192.67L241.617 200.762C241.617 200.763 241.617 200.763 241.617 200.763C241.529 201.29 241.234 201.769 240.788 202.114C240.343 202.458 239.776 202.644 239.192 202.639H225.066C224.423 202.639 223.806 202.407 223.35 201.993C222.895 201.579 222.639 201.017 222.639 200.431V194.136C222.639 193.55 222.895 192.988 223.35 192.574C223.806 192.16 224.423 191.928 225.066 191.928H227.743L231.582 184.078ZM228.483 192.425L232.276 184.668C232.84 184.727 233.369 184.957 233.774 185.325C234.247 185.754 234.511 186.336 234.511 186.942V190.539C234.511 190.765 234.712 190.949 234.96 190.949H240.56L240.565 190.949C240.787 190.946 241.007 190.988 241.21 191.071C241.412 191.153 241.592 191.275 241.738 191.427C241.883 191.579 241.99 191.758 242.052 191.951C242.114 192.144 242.129 192.347 242.095 192.546C242.095 192.546 242.095 192.546 242.095 192.546L240.73 200.638L240.73 200.639C240.675 200.97 240.49 201.272 240.209 201.489C239.928 201.706 239.569 201.824 239.2 201.82L239.195 201.82H228.483V192.425ZM227.586 201.82V192.747H225.066C224.66 192.747 224.27 192.894 223.983 193.155C223.696 193.415 223.536 193.768 223.536 194.136V200.431C223.536 200.799 223.696 201.152 223.983 201.413C224.27 201.673 224.66 201.82 225.066 201.82H227.586Z" fill="white"/>
<defs>
<filter id="filter0_f_408_442" x="162.237" y="0" width="51.6084" height="51.6084" filterUnits="userSpaceOnUse" color-interpolation-filters="sRGB">
<feFlood flood-opacity="0" result="BackgroundImageFix"/>
<feBlend mode="normal" in="SourceGraphic" in2="BackgroundImageFix" result="shape"/>
<feGaussianBlur stdDeviation="3.5" result="effect1_foregroundBlur_408_442"/>
</filter>
<filter id="filter1_f_408_442" x="207.805" y="169" width="50.041" height="50.041" filterUnits="userSpaceOnUse" color-interpolation-filters="sRGB">
<feFlood flood-opacity="0" result="BackgroundImageFix"/>
<feBlend mode="normal" in="SourceGraphic" in2="BackgroundImageFix" result="shape"/>
<feGaussianBlur stdDeviation="3.5" result="effect1_foregroundBlur_408_442"/>
</filter>
</defs>
</svg>
