<svg width="744" height="211" viewBox="0 0 744 211" fill="none" xmlns="http://www.w3.org/2000/svg">
<rect width="744" height="211" fill="white"/>
<path fill-rule="evenodd" clip-rule="evenodd" d="M352.5 206.75C373.625 206.75 390.75 189.625 390.75 168.5C390.75 147.375 373.625 130.25 352.5 130.25C331.375 130.25 314.25 147.375 314.25 168.5C314.25 189.625 331.375 206.75 352.5 206.75ZM352.5 211C375.973 211 395 191.973 395 168.5C395 145.027 375.973 126 352.5 126C329.027 126 310 145.027 310 168.5C310 191.973 329.027 211 352.5 211Z" fill="#D7F2EF"/>
<path d="M327 193.522C327 191.353 328.64 189.52 330.825 189.28C347.219 187.487 357.855 187.649 374.213 189.32C375.03 189.405 375.804 189.723 376.441 190.236C377.078 190.748 377.55 191.433 377.8 192.206C378.05 192.979 378.066 193.808 377.847 194.59C377.628 195.372 377.184 196.075 376.567 196.611C357.262 213.241 346.229 213.012 328.36 196.628C327.489 195.83 327 194.696 327 193.525V193.522Z" fill="#D7F2EF"/>
<path fill-rule="evenodd" clip-rule="evenodd" d="M373.894 191.465C357.74 189.819 347.305 189.665 331.153 191.425C330.622 191.486 330.131 191.738 329.777 192.133C329.422 192.528 329.227 193.038 329.231 193.565C329.231 194.161 329.482 194.725 329.907 195.117C338.724 203.171 345.404 206.81 351.934 206.833C358.487 206.856 365.526 203.246 375.066 195.059C375.369 194.793 375.587 194.446 375.694 194.061C375.801 193.675 375.792 193.268 375.667 192.887C375.543 192.507 375.31 192.17 374.995 191.918C374.68 191.666 374.298 191.509 373.894 191.467V191.465ZM330.69 187.284C347.181 185.486 357.922 185.648 374.332 187.321C375.555 187.447 376.715 187.921 377.669 188.686C378.622 189.451 379.329 190.473 379.702 191.627C380.075 192.781 380.098 194.018 379.769 195.185C379.44 196.352 378.772 197.399 377.848 198.198C368.17 206.506 360.111 211.031 351.921 211C343.707 210.971 336.004 206.369 327.033 198.171C326.39 197.582 325.878 196.869 325.529 196.076C325.179 195.283 324.999 194.427 325 193.563C324.997 192.01 325.576 190.51 326.626 189.351C327.676 188.192 329.123 187.455 330.69 187.282V187.284Z" fill="#D7F2EF"/>
<path d="M370 160C370 164.509 368.156 168.833 364.874 172.021C361.592 175.209 357.141 177 352.5 177C347.859 177 343.408 175.209 340.126 172.021C336.844 168.833 335 164.509 335 160C335 155.491 336.844 151.167 340.126 147.979C343.408 144.791 347.859 143 352.5 143C357.141 143 361.592 144.791 364.874 147.979C368.156 151.167 370 155.491 370 160V160Z" fill="#D7F2EF"/>
<path fill-rule="evenodd" clip-rule="evenodd" d="M352.5 172.75C355.981 172.75 359.319 171.407 361.781 169.016C364.242 166.625 365.625 163.382 365.625 160C365.625 156.618 364.242 153.375 361.781 150.984C359.319 148.593 355.981 147.25 352.5 147.25C349.019 147.25 345.681 148.593 343.219 150.984C340.758 153.375 339.375 156.618 339.375 160C339.375 163.382 340.758 166.625 343.219 169.016C345.681 171.407 349.019 172.75 352.5 172.75V172.75ZM352.5 177C357.141 177 361.592 175.209 364.874 172.021C368.156 168.833 370 164.509 370 160C370 155.491 368.156 151.167 364.874 147.979C361.592 144.791 357.141 143 352.5 143C347.859 143 343.408 144.791 340.126 147.979C336.844 151.167 335 155.491 335 160C335 164.509 336.844 168.833 340.126 172.021C343.408 175.209 347.859 177 352.5 177V177Z" fill="#D7F2EF"/>
<rect x="419" y="131" width="124" height="32" fill="#D7F2EF"/>
<rect x="419" y="174" width="85" height="14" fill="#D7F2EF"/>
<rect x="419" y="192" width="85" height="14" fill="#D7F2EF"/>
<path d="M399.455 44.856V45.912H408.959V44.856H399.455ZM400.067 46.332V47.328H408.395V46.332H400.067ZM398.879 47.748V48.804H409.559V47.748H398.879ZM401.735 50.772V51.516H406.427V50.772H401.735ZM403.475 45.432V48.264H404.963V45.432H403.475ZM403.523 49.02V50.1H404.891V49.02H403.523ZM401.051 44.172C401.327 44.508 401.603 44.988 401.699 45.3L403.031 44.808C402.899 44.496 402.611 44.064 402.323 43.764L401.051 44.172ZM406.043 43.8C405.911 44.088 405.671 44.532 405.467 44.844L406.703 45.168C406.955 44.916 407.291 44.544 407.627 44.1L406.043 43.8ZM406.571 48.048L405.443 48.444C406.223 49.704 407.543 50.772 409.019 51.288C409.223 50.94 409.631 50.436 409.919 50.16C408.527 49.788 407.231 48.984 406.571 48.048ZM404.651 52.26L403.523 52.5C404.567 54.096 406.343 54.84 408.899 55.104C409.067 54.72 409.403 54.168 409.691 53.88C407.315 53.784 405.515 53.304 404.651 52.26ZM401.915 49.512V50.388H406.079V51.912H401.915V52.788H407.531V49.512H401.915ZM400.955 49.512V54.18H402.383V49.512H400.955ZM399.683 53.772L399.827 55.008C401.231 54.888 403.151 54.72 404.975 54.552V53.424C403.043 53.568 401.003 53.7 399.683 53.772ZM407.999 52.296C407.531 52.716 406.715 53.292 406.115 53.64L406.931 54.156C407.567 53.844 408.371 53.388 409.055 52.896L407.999 52.296ZM401.747 48.084C401.111 49.08 399.851 49.896 398.495 50.376C398.795 50.628 399.275 51.144 399.479 51.42C400.871 50.796 402.275 49.764 403.079 48.468L401.747 48.084ZM413.867 45.984V47.388H422.219V45.984H413.867ZM413.375 49.524V50.904H421.763V49.524H413.375ZM411.983 53.328V54.732H422.831V53.328H411.983ZM416.651 43.812V54.024H418.151V43.812H416.651ZM413.879 43.956C413.447 45.612 412.679 47.268 411.731 48.276C412.103 48.48 412.739 48.9 413.027 49.152C413.963 48 414.839 46.152 415.367 44.292L413.879 43.956ZM429.383 44.412V45.672H435.959V44.412H429.383ZM429.815 50.568V51.84H435.659V50.568H429.815ZM429.095 53.496V54.756H436.175V53.496H429.095ZM431.927 51.12V54.264H433.379V51.12H431.927ZM430.439 45.864C430.175 46.452 429.671 47.316 429.191 48.048C429.791 48.888 430.307 49.776 430.547 50.412L431.699 49.956C431.459 49.452 430.979 48.696 430.499 48.036C430.871 47.46 431.303 46.776 431.639 46.152L430.439 45.864ZM432.491 45.864C432.215 46.452 431.699 47.328 431.183 48.048C431.843 48.876 432.407 49.776 432.683 50.412L433.799 49.932C433.547 49.428 433.031 48.684 432.503 48.036C432.899 47.46 433.343 46.776 433.703 46.152L432.491 45.864ZM434.579 45.864C434.291 46.452 433.739 47.328 433.223 48.048C433.919 48.876 434.543 49.776 434.843 50.412L435.959 49.908C435.671 49.404 435.107 48.66 434.555 48.036C434.951 47.46 435.407 46.788 435.779 46.164L434.579 45.864ZM426.671 43.824C426.395 44.652 425.879 45.816 425.459 46.536L426.419 46.932C426.875 46.26 427.427 45.192 427.919 44.256L426.671 43.824ZM428.027 45.24C427.391 46.524 426.299 48.276 425.399 49.356L426.227 49.824C427.151 48.792 428.315 47.124 429.191 45.78L428.027 45.24ZM424.811 46.62C425.411 47.232 426.119 48.084 426.383 48.672L427.163 47.568C426.875 47.004 426.143 46.224 425.519 45.66L424.811 46.62ZM427.619 48.12C428.063 48.948 428.483 50.052 428.615 50.748L429.695 50.256C429.551 49.572 429.095 48.516 428.615 47.7L427.619 48.12ZM424.775 49.08L424.931 50.316C426.047 50.232 427.511 50.124 428.915 50.016L428.903 48.84C427.403 48.936 425.855 49.02 424.775 49.08ZM427.943 51.132C428.207 51.816 428.435 52.704 428.495 53.292L429.563 52.944C429.479 52.368 429.239 51.492 428.951 50.82L427.943 51.132ZM425.291 50.868C425.195 51.876 425.015 52.956 424.679 53.664C424.955 53.784 425.483 54.012 425.723 54.168C426.071 53.4 426.323 52.212 426.443 51.06L425.291 50.868ZM426.611 49.716V55.08H427.847V49.716H426.611ZM442.823 43.8V46.188H444.407V43.8H442.823ZM438.515 45.456V48.612H439.943V46.86H447.371V48.612H448.883V45.456H438.515ZM441.227 48.36C440.819 50.844 439.859 52.812 438.119 53.928C438.467 54.192 439.055 54.792 439.283 55.092C441.143 53.736 442.247 51.492 442.811 48.588L441.227 48.36ZM446.135 48.36L444.695 48.672C445.343 51.408 446.399 53.736 448.187 55.056C448.427 54.648 448.931 54.06 449.291 53.76C447.695 52.716 446.639 50.604 446.135 48.36ZM451.091 49.944L451.415 51.336C452.435 51 453.695 50.556 454.859 50.136L454.643 48.864C453.347 49.284 451.991 49.716 451.091 49.944ZM451.247 46.092V47.412H454.763V46.092H451.247ZM452.423 43.812V53.496C452.423 53.628 452.387 53.676 452.255 53.676C452.147 53.676 451.811 53.676 451.475 53.664C451.643 54.036 451.799 54.6 451.835 54.948C452.519 54.948 452.975 54.9 453.323 54.684C453.671 54.468 453.767 54.12 453.767 53.496V43.812H452.423ZM457.475 45.264H459.647V46.044H457.475V45.264ZM456.239 44.256V47.052H460.955V44.256H456.239ZM456.227 48.444H457.223V49.332H456.227V48.444ZM455.159 47.472V50.328H458.339V47.472H455.159ZM459.923 48.444H460.955V49.332H459.923V48.444ZM458.819 47.472V50.328H462.107V47.472H458.819ZM455.003 51.048V52.212H462.299V51.048H455.003ZM457.907 50.268V55.104H459.275V50.268H457.907ZM457.763 51.624C457.031 52.584 455.591 53.4 454.103 53.796C454.391 54.06 454.799 54.576 454.991 54.912C456.551 54.384 458.027 53.316 458.879 52.044L457.763 51.624ZM459.503 51.78L458.495 52.152C459.203 53.256 460.415 54.3 461.639 54.804C461.843 54.468 462.251 53.964 462.539 53.712C461.351 53.352 460.127 52.596 459.503 51.78Z" fill="#F57C00"/>
<path d="M417.329 75.0679H418.209V71.2279C418.209 70.4479 418.139 69.6779 418.089 68.9379H418.139L418.929 70.4479L421.589 75.0679H422.549V67.7379H421.659V71.5479C421.659 72.3079 421.729 73.1379 421.789 73.8779H421.739L420.949 72.3579L418.279 67.7379H417.329V75.0679ZM426.225 75.2079C426.895 75.2079 427.505 74.8579 428.015 74.4279H428.055L428.135 75.0679H428.885V71.7379C428.885 70.3879 428.325 69.5079 426.995 69.5079C426.125 69.5079 425.365 69.8879 424.865 70.2079L425.225 70.8479C425.645 70.5579 426.215 70.2579 426.855 70.2579C427.745 70.2579 427.965 70.9279 427.965 71.6279C425.655 71.8879 424.635 72.4779 424.635 73.6579C424.635 74.6379 425.315 75.2079 426.225 75.2079ZM426.475 74.4679C425.945 74.4679 425.525 74.2179 425.525 73.5979C425.525 72.8979 426.135 72.4479 427.965 72.2379V73.7479C427.445 74.2179 427.005 74.4679 426.475 74.4679ZM431.11 75.0679H432.02V71.1279C432.51 70.5779 432.97 70.2979 433.38 70.2979C434.08 70.2979 434.4 70.7279 434.4 71.7479V75.0679H435.31V71.1279C435.82 70.5779 436.25 70.2979 436.67 70.2979C437.37 70.2979 437.69 70.7279 437.69 71.7479V75.0679H438.6V71.6279C438.6 70.2479 438.06 69.5079 436.95 69.5079C436.29 69.5079 435.72 69.9379 435.15 70.5379C434.94 69.8979 434.49 69.5079 433.66 69.5079C433.01 69.5079 432.44 69.9179 431.97 70.4279H431.94L431.85 69.6379H431.11V75.0679ZM443.058 75.2079C443.798 75.2079 444.368 74.9579 444.848 74.6479L444.518 74.0379C444.118 74.3079 443.688 74.4779 443.168 74.4779C442.128 74.4779 441.428 73.7279 441.358 72.5779H445.018C445.048 72.4379 445.058 72.2479 445.058 72.0579C445.058 70.4979 444.278 69.5079 442.898 69.5079C441.648 69.5079 440.458 70.5979 440.458 72.3679C440.458 74.1479 441.608 75.2079 443.058 75.2079ZM441.348 71.9179C441.468 70.8479 442.148 70.2379 442.908 70.2379C443.768 70.2379 444.258 70.8279 444.258 71.9179H441.348Z" fill="#3D3D3D"/>
<path d="M628.526 93.1438H603.92C602.229 93.1438 600.845 91.7597 600.845 90.0681V70.0757C600.845 68.3841 602.229 67 603.92 67H628.526C630.218 67 631.602 68.3841 631.602 70.0757V90.0681C631.602 91.7597 630.218 93.1438 628.526 93.1438Z" fill="#F57C00"/>
<path d="M624.682 76.2271C625.956 76.2271 626.989 75.1943 626.989 73.9203C626.989 72.6463 625.956 71.6135 624.682 71.6135C623.408 71.6135 622.375 72.6463 622.375 73.9203C622.375 75.1943 623.408 76.2271 624.682 76.2271Z" fill="#FFF9C4"/>
<path d="M613.148 73.9204L604.69 86.2234H621.606L613.148 73.9204Z" fill="#942A09"/>
<path d="M621.606 78.5339L615.454 86.2233H627.757L621.606 78.5339Z" fill="#BF360C"/>
<path d="M602.575 107.144H603.675L604.765 102.724C604.885 102.154 605.015 101.624 605.135 101.054H605.175C605.285 101.624 605.405 102.154 605.535 102.724L606.635 107.144H607.755L609.275 99.8138H608.385L607.605 103.814C607.475 104.594 607.335 105.384 607.195 106.184H607.145C606.965 105.384 606.795 104.594 606.615 103.814L605.595 99.8138H604.755L603.745 103.814C603.565 104.594 603.385 105.384 603.215 106.184H603.175C603.025 105.384 602.885 104.594 602.735 103.814L601.965 99.8138H601.015L602.575 107.144ZM613.075 107.284C614.405 107.284 615.585 106.234 615.585 104.444C615.585 102.624 614.405 101.584 613.075 101.584C611.735 101.584 610.555 102.624 610.555 104.444C610.555 106.234 611.735 107.284 613.075 107.284ZM613.075 106.524C612.125 106.524 611.495 105.684 611.495 104.444C611.495 103.184 612.125 102.344 613.075 102.344C614.015 102.344 614.645 103.184 614.645 104.444C614.645 105.684 614.015 106.524 613.075 106.524ZM617.529 107.144H618.439V103.664C618.799 102.734 619.359 102.404 619.809 102.404C620.029 102.404 620.149 102.434 620.339 102.494L620.509 101.694C620.329 101.614 620.169 101.584 619.929 101.584C619.319 101.584 618.759 102.014 618.389 102.704H618.359L618.269 101.714H617.529V107.144ZM621.906 107.144H622.806V105.714L623.816 104.524L625.406 107.144H626.396L624.356 103.904L626.166 101.714H625.146L622.836 104.584H622.806V99.1938H621.906V107.144ZM629.344 107.284C630.624 107.284 631.314 106.554 631.314 105.664C631.314 104.634 630.454 104.314 629.664 104.014C629.044 103.794 628.494 103.594 628.494 103.074C628.494 102.654 628.804 102.294 629.494 102.294C629.974 102.294 630.364 102.504 630.734 102.774L631.174 102.194C630.754 101.854 630.154 101.584 629.484 101.584C628.304 101.584 627.614 102.254 627.614 103.114C627.614 104.044 628.444 104.404 629.194 104.694C629.794 104.914 630.444 105.164 630.444 105.714C630.444 106.194 630.084 106.574 629.364 106.574C628.714 106.574 628.234 106.304 627.764 105.924L627.314 106.534C627.824 106.954 628.574 107.284 629.344 107.284Z" fill="#3D3D3D"/>
<rect x="219" y="35.6892" width="49.2119" height="36.14" rx="8" fill="#F57C00"/>
<path d="M250.428 64.427V56.3762L248.999 57.1614V56.3235L251.542 55.1106H251.6V63.8997L250.487 64.427H250.428ZM255.229 61.7903C255.229 62.3137 255.37 62.7375 255.651 63.0618C255.998 63.4641 256.454 63.6653 257.016 63.6653C257.579 63.6653 258.034 63.4641 258.381 63.0618C258.663 62.7375 258.803 62.3137 258.803 61.7903V57.7473C258.803 57.2239 258.663 56.8 258.381 56.4758C258.034 56.0735 257.579 55.8723 257.016 55.8723C256.454 55.8723 255.998 56.0735 255.651 56.4758C255.37 56.8 255.229 57.2239 255.229 57.7473V61.7903ZM254.057 61.3801V58.1575C254.057 57.3098 254.321 56.6165 254.848 56.0774C255.403 55.511 256.125 55.2278 257.016 55.2278C257.907 55.2278 258.629 55.511 259.184 56.0774C259.711 56.6125 259.975 57.3059 259.975 58.1575V61.3801C259.975 62.2278 259.711 62.9211 259.184 63.4602C258.629 64.0266 257.907 64.3098 257.016 64.3098C256.125 64.3098 255.403 64.0266 254.848 63.4602C254.321 62.9211 254.057 62.2278 254.057 61.3801Z" fill="white"/>
<path d="M228.506 55.5947C228.506 56.1182 228.646 56.542 228.927 56.8662C229.275 57.2686 229.73 57.4697 230.293 57.4697C230.855 57.4697 231.31 57.2686 231.658 56.8662C231.939 56.542 232.08 56.1182 232.08 55.5947V51.5518C232.08 51.0283 231.939 50.6045 231.658 50.2803C231.31 49.8779 230.855 49.6768 230.293 49.6768C229.73 49.6768 229.275 49.8779 228.927 50.2803C228.646 50.6045 228.506 51.0283 228.506 51.5518V55.5947ZM227.334 55.1846V51.9619C227.334 51.1143 227.597 50.4209 228.125 49.8818C228.679 49.3154 229.402 49.0322 230.293 49.0322C231.183 49.0322 231.906 49.3154 232.461 49.8818C232.988 50.417 233.252 51.1104 233.252 51.9619V55.1846C233.252 56.0322 232.988 56.7256 232.461 57.2646C231.906 57.8311 231.183 58.1143 230.293 58.1143C229.402 58.1143 228.679 57.8311 228.125 57.2646C227.597 56.7256 227.334 56.0322 227.334 55.1846ZM239.986 55.4014V55.7705C239.986 56.415 239.744 56.9756 239.259 57.4521C238.806 57.8936 238.238 58.1143 237.554 58.1143C236.878 58.1143 236.31 57.8936 235.849 57.4521C235.365 56.9834 235.122 56.4229 235.122 55.7705V53.7783C235.122 53.1299 235.365 52.5693 235.849 52.0967C236.302 51.6553 236.871 51.4346 237.554 51.4346C238.222 51.4346 238.79 51.6553 239.259 52.0967C239.744 52.5537 239.986 53.0576 239.986 53.6084V53.6201L238.872 54.1475H238.814V53.3799C238.814 52.9346 238.693 52.6064 238.451 52.3955C238.205 52.1846 237.906 52.0791 237.554 52.0791C237.203 52.0791 236.904 52.1846 236.658 52.3955C236.415 52.5986 236.294 52.9268 236.294 53.3799V56.1689C236.294 56.6182 236.415 56.9482 236.658 57.1592C236.904 57.3662 237.203 57.4697 237.554 57.4697C237.906 57.4697 238.203 57.3643 238.445 57.1533C238.691 56.9424 238.814 56.5342 238.814 55.9287L239.927 55.4014H239.986ZM242.337 58.2314V52.1963H240.831V52.1377L241.107 51.5518H242.337V49.4424L243.45 48.915H243.509V51.5518H245.015V51.6104L244.739 52.1963H243.509V57.7041L242.396 58.2314H242.337Z" fill="white"/>
<rect x="229.765" y="28" width="3.84468" height="16.1476" rx="1.92234" fill="#942A09"/>
<rect x="253.602" y="28" width="3.84468" height="16.1476" rx="1.92234" fill="#942A09"/>
<path d="M233.503 88.9053H235.383C237.593 88.9053 238.793 87.5453 238.793 85.2153C238.793 82.8853 237.593 81.5753 235.333 81.5753H233.503V88.9053ZM234.433 88.1453V82.3353H235.263C236.983 82.3353 237.843 83.3553 237.843 85.2153C237.843 87.0753 236.983 88.1453 235.263 88.1453H234.433ZM242.058 89.0453C242.728 89.0453 243.338 88.6953 243.848 88.2653H243.888L243.968 88.9053H244.718V85.5753C244.718 84.2253 244.158 83.3453 242.828 83.3453C241.958 83.3453 241.198 83.7253 240.698 84.0453L241.058 84.6853C241.478 84.3953 242.048 84.0953 242.688 84.0953C243.578 84.0953 243.798 84.7653 243.798 85.4653C241.488 85.7253 240.468 86.3153 240.468 87.4953C240.468 88.4753 241.148 89.0453 242.058 89.0453ZM242.308 88.3053C241.778 88.3053 241.358 88.0553 241.358 87.4353C241.358 86.7353 241.968 86.2853 243.798 86.0753V87.5853C243.278 88.0553 242.838 88.3053 242.308 88.3053ZM248.467 89.0453C248.807 89.0453 249.167 88.9453 249.467 88.8353L249.287 88.1553C249.117 88.2253 248.867 88.3053 248.677 88.3053C248.047 88.3053 247.837 87.9153 247.837 87.2553V84.2153H249.307V83.4753H247.837V81.9453H247.067L246.967 83.4753L246.117 83.5353V84.2153H246.927V87.2353C246.927 88.3153 247.307 89.0453 248.467 89.0453ZM253.051 89.0453C253.791 89.0453 254.361 88.7953 254.841 88.4853L254.511 87.8753C254.111 88.1453 253.681 88.3153 253.161 88.3153C252.121 88.3153 251.421 87.5653 251.351 86.4153H255.011C255.041 86.2753 255.051 86.0853 255.051 85.8953C255.051 84.3353 254.271 83.3453 252.891 83.3453C251.641 83.3453 250.451 84.4353 250.451 86.2053C250.451 87.9853 251.601 89.0453 253.051 89.0453ZM251.341 85.7553C251.461 84.6853 252.141 84.0753 252.901 84.0753C253.761 84.0753 254.251 84.6653 254.251 85.7553H251.341Z" fill="#3D3D3D"/>
<path d="M93.2393 99.5965C93.1256 99.4416 93.4539 98.3426 93.5205 98.2638C95.2497 96.2507 95.3132 89.7738 95.2777 88.8508C95.191 86.7204 96.3202 84.5656 97.2728 85.0314C98.1927 85.4807 98.9137 89.9107 99.0908 90.7973C99.528 92.9652 99.3567 95.5603 98.6547 97.6157C97.9135 99.7921 95.0488 102.001 93.2393 99.5965ZM120.648 99.5965C120.761 99.4416 120.433 98.3426 120.366 98.2638C118.637 96.2507 118.574 89.7738 118.609 88.8508C118.696 86.7204 117.566 84.5656 116.614 85.0314C115.694 85.4807 114.973 89.9107 114.796 90.7973C114.359 92.9652 114.53 95.5603 115.232 97.6157C115.973 99.7921 118.838 102.001 120.648 99.5965Z" fill="#942A09"/>
<path d="M91.2799 76.1636C92.4218 77.306 95.1099 76.4665 97.289 74.2869C99.467 72.1089 100.306 69.4218 99.1646 68.2789C98.0254 67.1407 93.4478 66.0909 91.2688 68.2689C89.0908 70.4469 90.1407 75.0254 91.2799 76.1636ZM122.469 76.1636C121.328 77.306 118.64 76.4665 116.461 74.2869C114.283 72.1089 113.443 69.4218 114.585 68.2789C115.724 67.1407 120.301 66.0909 122.48 68.2689C124.658 70.4469 123.609 75.0254 122.469 76.1636Z" fill="#FBB041"/>
<path d="M122.146 84.4827C122.146 92.9299 115.3 99.7774 106.853 99.7774C98.4051 99.7774 91.5586 92.9304 91.5586 84.4827C91.5586 76.0371 98.4045 70.1565 106.852 70.1565C115.3 70.1565 122.146 76.0366 122.146 84.4827Z" fill="#F57C00"/>
<path d="M118.298 84.6041C118.298 90.9272 113.174 96.0524 106.85 96.0524C100.526 96.0524 95.4016 90.9272 95.4016 84.6041C95.4016 78.2825 100.527 73.8816 106.85 73.8816C113.173 73.8816 118.298 78.2825 118.298 84.6041Z" fill="#F57C00"/>
<path d="M108.268 85.5712C108.268 86.4995 107.53 87.2502 106.62 87.2502C105.71 87.2502 104.972 86.4995 104.972 85.5712V77.6807C104.972 76.7551 105.71 76.0044 106.62 76.0044C107.531 76.0044 108.268 76.7551 108.268 77.6807V85.5712Z" fill="white"/>
<path d="M106.718 87.2524C105.752 87.2524 104.971 86.7407 104.971 86.11C104.971 85.4809 105.752 84.9697 106.718 84.9697H114.942C115.908 84.9697 116.691 85.4809 116.691 86.11C116.691 86.7407 115.909 87.2524 114.942 87.2524H106.718Z" fill="white"/>
<path d="M97.3034 114.833H98.2434V108.283H100.453V107.503H95.0934V108.283H97.3034V114.833ZM102.19 114.833H103.1V109.403H102.19V114.833ZM102.65 108.283C103 108.283 103.26 108.053 103.26 107.673C103.26 107.323 103 107.093 102.65 107.093C102.29 107.093 102.04 107.323 102.04 107.673C102.04 108.053 102.29 108.283 102.65 108.283ZM105.444 114.833H106.354V110.893C106.844 110.343 107.304 110.063 107.714 110.063C108.414 110.063 108.734 110.493 108.734 111.513V114.833H109.644V110.893C110.154 110.343 110.584 110.063 111.004 110.063C111.704 110.063 112.024 110.493 112.024 111.513V114.833H112.934V111.393C112.934 110.013 112.394 109.273 111.284 109.273C110.624 109.273 110.054 109.703 109.484 110.303C109.274 109.663 108.824 109.273 107.994 109.273C107.344 109.273 106.774 109.683 106.304 110.193H106.274L106.184 109.403H105.444V114.833ZM117.391 114.973C118.131 114.973 118.701 114.723 119.181 114.413L118.851 113.803C118.451 114.073 118.021 114.243 117.501 114.243C116.461 114.243 115.761 113.493 115.691 112.343H119.351C119.381 112.203 119.391 112.013 119.391 111.823C119.391 110.263 118.611 109.273 117.231 109.273C115.981 109.273 114.791 110.363 114.791 112.133C114.791 113.913 115.941 114.973 117.391 114.973ZM115.681 111.683C115.801 110.613 116.481 110.003 117.241 110.003C118.101 110.003 118.591 110.593 118.591 111.683H115.681Z" fill="#3D3D3D"/>
<path fill-rule="evenodd" clip-rule="evenodd" d="M414.489 83.8661L415.166 84.1507C415.843 84.4352 415.843 84.4354 415.842 84.4356L415.841 84.4502L415.837 84.4916L415.822 84.6508C415.808 84.7902 415.787 84.9949 415.758 85.2585C415.7 85.7856 415.61 86.5483 415.481 87.4945C415.223 89.3865 414.809 92.0145 414.184 94.9615C412.938 100.842 410.844 108.048 407.447 113.196C403.277 119.516 394.707 126.623 389.345 130.74L391.663 133.882L384.101 133.594L386.073 126.305L388.377 129.428C393.744 125.305 402.191 118.284 406.265 112.11C409.557 107.12 411.617 100.075 412.854 94.2388C413.471 91.3275 413.88 88.7307 414.135 86.8626C414.262 85.9287 414.351 85.1774 414.408 84.6606C414.436 84.4022 414.457 84.2025 414.47 84.0679L414.485 83.9157L414.488 83.8778L414.489 83.8661Z" fill="#D9D9D9"/>
<path fill-rule="evenodd" clip-rule="evenodd" d="M271.003 87.4918L270.406 87.9185C269.809 88.3453 269.809 88.3455 269.809 88.3457L269.813 88.3597L269.826 88.3992L269.876 88.5511C269.92 88.684 269.986 88.8791 270.072 89.1298C270.245 89.6312 270.501 90.3552 270.836 91.2497C271.505 93.0382 272.488 95.5102 273.747 98.247C276.259 103.708 279.891 110.275 284.339 114.547C289.799 119.793 299.726 124.835 305.863 127.669L304.295 131.244L311.607 129.296L308.077 122.621L306.518 126.175C300.374 123.337 290.587 118.351 285.252 113.227C280.941 109.086 277.378 102.668 274.885 97.2487C273.642 94.545 272.67 92.1024 272.01 90.3364C271.679 89.4536 271.427 88.7404 271.258 88.2488C271.173 88.0031 271.109 87.8128 271.067 87.6844L271.019 87.5392L271.007 87.5029L271.003 87.4918Z" fill="#D9D9D9"/>
<path fill-rule="evenodd" clip-rule="evenodd" d="M562.737 140.875C575.161 127.892 584.039 113.791 588.421 104.744L586.953 104.033C582.641 112.937 573.859 126.895 561.559 139.747C549.256 152.603 533.492 164.292 515.225 168.769C483.848 176.459 451.039 173.67 432.915 170.31L433.749 166.534L424.77 169.372L431.717 175.729L432.563 171.904C450.813 175.293 483.905 178.125 515.613 170.354C534.294 165.775 550.317 153.854 562.737 140.875Z" fill="#D9D9D9"/>
<path fill-rule="evenodd" clip-rule="evenodd" d="M158.36 143.526C146.076 130.41 137.351 116.215 133.066 107.121L134.542 106.426C138.758 115.375 147.39 129.427 159.55 142.411C171.714 155.399 187.352 167.257 205.569 171.93C236.862 179.957 269.699 177.52 287.859 174.356L287.065 170.571L296.013 173.506L288.997 179.788L288.193 175.953C269.907 179.146 236.787 181.622 205.164 173.51C186.534 168.731 170.64 156.638 158.36 143.526Z" fill="#D9D9D9"/>
</svg>
