<svg width="744" height="287" viewBox="0 0 744 287" fill="none" xmlns="http://www.w3.org/2000/svg">
<g clip-path="url(#clip0_672_5881)">
<rect width="744" height="287" fill="white"/>
<rect x="597.743" y="58.8286" width="107.486" height="11.4" fill="#E0E0E0"/>
<rect x="597.743" y="86.5143" width="61.9259" height="35.1852" fill="#E0E0E0"/>
<rect x="664.026" y="86.5143" width="41.2029" height="9.77143" fill="#E0E0E0"/>
<rect x="664.026" y="99.5428" width="10.7486" height="3.25714" fill="#E0E0E0"/>
<rect x="597.743" y="73.4857" width="10.7486" height="3.25714" fill="#E0E0E0"/>
<rect x="612.074" y="73.4857" width="10.7486" height="3.25714" fill="#E0E0E0"/>
<rect x="626.406" y="73.4857" width="10.7486" height="3.25714" fill="#E0E0E0"/>
<rect x="678.357" y="99.5428" width="16.1229" height="3.25714" fill="#E0E0E0"/>
<rect x="664.026" y="104.429" width="10.7486" height="3.25714" fill="#E0E0E0"/>
<rect x="678.357" y="104.429" width="16.1229" height="3.25714" fill="#E0E0E0"/>
<rect x="664.026" y="109.314" width="10.7486" height="3.25714" fill="#E0E0E0"/>
<rect x="678.357" y="109.314" width="16.1229" height="3.25714" fill="#E0E0E0"/>
<rect x="690.897" y="115.829" width="14.3314" height="6.51429" rx="1" fill="#E0E0E0"/>
<path d="M697.086 32.7715L703.6 39.2858" stroke="#E0E0E0"/>
<path d="M697.086 39.2858L703.6 32.7715" stroke="#E0E0E0"/>
<path d="M591.229 46.6143H711.743" stroke="#E0E0E0"/>
<rect x="590.1" y="23.5" width="122.771" height="227" stroke="#D9D9D9"/>
<rect x="317.628" y="58.8286" width="107.486" height="11.4" fill="#C9F6F1"/>
<rect x="317.628" y="86.5143" width="61.9259" height="35.1852" fill="#C9F6F1"/>
<rect x="383.912" y="86.5143" width="41.2029" height="9.77143" fill="#C9F6F1"/>
<rect x="383.912" y="99.5428" width="10.7486" height="3.25714" fill="#C9F6F1"/>
<rect x="317.628" y="73.4857" width="10.7486" height="3.25714" fill="#C9F6F1"/>
<rect x="331.959" y="73.4857" width="10.7486" height="3.25714" fill="#C9F6F1"/>
<rect x="346.292" y="73.4857" width="10.7486" height="3.25714" fill="#C9F6F1"/>
<rect x="398.243" y="99.5428" width="16.1229" height="3.25714" fill="#C9F6F1"/>
<rect x="383.912" y="104.429" width="10.7486" height="3.25714" fill="#C9F6F1"/>
<rect x="398.243" y="104.429" width="16.1229" height="3.25714" fill="#C9F6F1"/>
<rect x="383.912" y="109.314" width="10.7486" height="3.25714" fill="#C9F6F1"/>
<rect x="398.243" y="109.314" width="16.1229" height="3.25714" fill="#C9F6F1"/>
<rect x="410.783" y="115.829" width="14.3314" height="6.51429" rx="1" fill="#C9F6F1"/>
<rect x="317.628" y="127.229" width="61.9259" height="35.1852" fill="#C9F6F1"/>
<rect x="383.912" y="127.229" width="41.2029" height="9.77143" fill="#C9F6F1"/>
<rect x="383.912" y="140.257" width="10.7486" height="3.25714" fill="#C9F6F1"/>
<rect x="398.243" y="140.257" width="16.1229" height="3.25714" fill="#C9F6F1"/>
<rect x="383.912" y="145.143" width="10.7486" height="3.25714" fill="#C9F6F1"/>
<rect x="398.243" y="145.143" width="16.1229" height="3.25714" fill="#C9F6F1"/>
<rect x="383.912" y="150.029" width="10.7486" height="3.25714" fill="#C9F6F1"/>
<rect x="398.243" y="150.029" width="16.1229" height="3.25714" fill="#C9F6F1"/>
<g filter="url(#filter0_d_672_5881)">
<rect x="411.033" y="156.793" width="13.8314" height="6.01429" rx="0.75" stroke="#C9F6F1" stroke-width="0.5" shape-rendering="crispEdges"/>
</g>
<rect x="317.628" y="167.943" width="61.9259" height="35.1852" fill="#C9F6F1"/>
<rect x="383.912" y="167.943" width="41.2029" height="9.77143" fill="#C9F6F1"/>
<rect x="383.912" y="180.971" width="10.7486" height="3.25714" fill="#C9F6F1"/>
<rect x="398.243" y="180.971" width="16.1229" height="3.25714" fill="#C9F6F1"/>
<rect x="383.912" y="185.857" width="10.7486" height="3.25714" fill="#C9F6F1"/>
<rect x="398.243" y="185.857" width="16.1229" height="3.25714" fill="#C9F6F1"/>
<rect x="383.912" y="190.743" width="10.7486" height="3.25714" fill="#C9F6F1"/>
<rect x="398.243" y="190.743" width="16.1229" height="3.25714" fill="#C9F6F1"/>
<rect x="410.783" y="197.257" width="14.3314" height="6.51429" rx="1" fill="#C9F6F1"/>
<rect x="317.628" y="208.657" width="61.9259" height="35.1852" fill="#C9F6F1"/>
<rect x="383.912" y="208.657" width="41.2029" height="9.77143" fill="#C9F6F1"/>
<rect x="383.912" y="221.686" width="10.7486" height="3.25714" fill="#C9F6F1"/>
<rect x="398.243" y="221.686" width="16.1229" height="3.25714" fill="#C9F6F1"/>
<rect x="383.912" y="226.571" width="10.7486" height="3.25714" fill="#C9F6F1"/>
<rect x="398.243" y="226.571" width="16.1229" height="3.25714" fill="#C9F6F1"/>
<rect x="383.912" y="231.457" width="10.7486" height="3.25714" fill="#C9F6F1"/>
<rect x="398.243" y="231.457" width="16.1229" height="3.25714" fill="#C9F6F1"/>
<rect x="410.783" y="237.971" width="14.3314" height="6.51429" rx="1" fill="#C9F6F1"/>
<g filter="url(#filter1_d_672_5881)">
<rect x="37.5144" y="163.057" width="112.371" height="35.8286" fill="white"/>
<rect x="38.0144" y="163.557" width="111.371" height="34.8286" stroke="#C9F6F1"/>
</g>
<rect x="50.543" y="31.1428" width="30.9429" height="8.14286" fill="#E0E0E0"/>
<rect x="141.743" y="31.1428" width="6.51429" height="8.14286" fill="#E0E0E0"/>
<rect x="133.6" y="31.1428" width="6.51429" height="8.14286" fill="#E0E0E0"/>
<rect x="125.457" y="31.1428" width="6.51429" height="8.14286" fill="#E0E0E0"/>
<rect x="36.7" y="204.556" width="35.1852" height="40.8148" fill="#E0E0E0"/>
<rect x="115.515" y="204.556" width="35.1852" height="40.8148" fill="#E0E0E0"/>
<rect x="76.1069" y="204.556" width="35.1852" height="40.8148" fill="#E0E0E0"/>
<path d="M44.0286 31.1428L40.7715 35.2143L44.0286 39.2857" stroke="#E0E0E0"/>
<path d="M32.6287 46.6143H153.143" stroke="#E0E0E0"/>
<rect x="31.5" y="23.5" width="122.771" height="227" stroke="#D9D9D9"/>
<path d="M416.971 32.7715L423.485 39.2858" stroke="#E0E0E0"/>
<path d="M416.971 39.2858L423.485 32.7715" stroke="#E0E0E0"/>
<path d="M311.114 46.6143H431.629" stroke="#E0E0E0"/>
<rect x="309.986" y="23.5" width="122.771" height="227" stroke="#D9D9D9"/>
<g filter="url(#filter2_d_672_5881)">
<rect x="589.6" y="78.3715" width="123.771" height="172.629" fill="white"/>
<rect x="590.1" y="78.8715" width="122.771" height="171.629" stroke="#C9F6F1"/>
</g>
<rect x="597.743" y="89.7715" width="105.857" height="50.4857" fill="#C9F6F1"/>
<rect x="597.743" y="148.4" width="74.9143" height="13.0286" fill="#C9F6F1"/>
<rect x="662.886" y="226.571" width="42.3429" height="16.2857" fill="#C9F6F1"/>
<rect x="641.714" y="226.571" width="17.9143" height="16.2857" fill="#C9F6F1"/>
<rect x="597.743" y="171.2" width="21.1714" height="8.14286" fill="#C9F6F1"/>
<rect x="622.171" y="171.2" width="42.3429" height="8.14286" fill="#C9F6F1"/>
<rect x="597.743" y="182.6" width="21.1714" height="8.14286" fill="#C9F6F1"/>
<rect x="597.743" y="194" width="17.9143" height="8.14286" fill="#C9F6F1"/>
<rect x="622.171" y="182.6" width="37.4571" height="8.14286" fill="#C9F6F1"/>
<rect x="618.914" y="194" width="35.8286" height="8.14286" fill="#C9F6F1"/>
<path d="M304.5 147.5L298.083 141.684L296.255 150.149L304.5 147.5ZM209 143L208.867 142.262L209 143ZM133.5 177.5C133.964 178.089 133.964 178.089 133.964 178.089C133.964 178.089 133.965 178.089 133.965 178.088C133.966 178.088 133.967 178.086 133.969 178.085C133.973 178.082 133.979 178.077 133.987 178.071C134.003 178.059 134.027 178.04 134.06 178.014C134.125 177.964 134.223 177.889 134.352 177.789C134.611 177.591 134.998 177.299 135.505 176.923C136.52 176.172 138.018 175.089 139.944 173.766C143.797 171.119 149.363 167.512 156.21 163.674C169.91 155.994 188.703 147.411 209.133 143.738L208.867 142.262C188.212 145.975 169.256 154.642 155.477 162.365C148.584 166.229 142.978 169.862 139.095 172.53C137.153 173.864 135.641 174.957 134.613 175.718C134.099 176.098 133.706 176.395 133.441 176.598C133.308 176.699 133.208 176.777 133.14 176.83C133.106 176.856 133.08 176.876 133.063 176.89C133.054 176.896 133.048 176.902 133.043 176.905C133.041 176.907 133.039 176.908 133.038 176.909C133.037 176.91 133.037 176.91 133.037 176.91C133.036 176.911 133.036 176.911 133.5 177.5ZM209.133 143.738C243.846 137.498 282.578 143.785 297.757 146.811L298.05 145.34C282.836 142.307 243.872 135.969 208.867 142.262L209.133 143.738Z" fill="#F57C00"/>
<path d="M606 168L597.789 165.246L599.509 173.733L606 168ZM514 178.5L513.968 179.249L514 178.5ZM420 159C419.774 159.715 419.774 159.715 419.774 159.715C419.775 159.715 419.776 159.716 419.776 159.716C419.778 159.716 419.781 159.717 419.784 159.718C419.791 159.721 419.802 159.724 419.816 159.728C419.843 159.737 419.884 159.75 419.939 159.767C420.048 159.801 420.209 159.852 420.422 159.918C420.846 160.05 421.473 160.243 422.284 160.49C423.907 160.984 426.265 161.69 429.212 162.543C435.105 164.249 443.353 166.539 452.773 168.88C471.599 173.557 495.16 178.448 513.968 179.249L514.032 177.751C495.383 176.957 471.944 172.097 453.135 167.424C443.737 165.089 435.508 162.804 429.629 161.102C426.689 160.251 424.337 159.547 422.721 159.055C421.913 158.809 421.289 158.616 420.867 158.485C420.656 158.42 420.495 158.37 420.388 158.336C420.334 158.319 420.294 158.306 420.267 158.298C420.253 158.293 420.243 158.29 420.236 158.288C420.233 158.287 420.23 158.286 420.229 158.286C420.228 158.285 420.227 158.285 420.227 158.285C420.227 158.285 420.226 158.285 420 159ZM513.968 179.249C542.656 180.471 583.687 173.169 599.528 170.077L599.241 168.605C583.383 171.7 542.518 178.964 514.032 177.751L513.968 179.249Z" fill="#F57C00"/>
<path d="M20.203 268.168C21.355 268.168 22.255 267.712 22.963 266.884L22.207 266.008C21.691 266.584 21.067 266.944 20.263 266.944C18.703 266.944 17.719 265.66 17.719 263.56C17.719 261.496 18.775 260.224 20.299 260.224C21.019 260.224 21.571 260.548 22.027 261.016L22.771 260.116C22.231 259.54 21.379 259.012 20.275 259.012C18.043 259.012 16.279 260.728 16.279 263.608C16.279 266.512 17.995 268.168 20.203 268.168ZM24.9968 268H26.3888V263.32C26.9648 262.744 27.3848 262.432 27.9968 262.432C28.7648 262.432 29.1008 262.876 29.1008 264.028V268H30.4928V263.848C30.4928 262.18 29.8688 261.232 28.4648 261.232C27.5648 261.232 26.8928 261.724 26.3288 262.276L26.3888 260.968V258.448H24.9968V268ZM35.702 268.168C37.334 268.168 38.81 266.896 38.81 264.712C38.81 262.504 37.334 261.232 35.702 261.232C34.058 261.232 32.594 262.504 32.594 264.712C32.594 266.896 34.058 268.168 35.702 268.168ZM35.702 267.028C34.658 267.028 34.022 266.104 34.022 264.712C34.022 263.308 34.658 262.384 35.702 262.384C36.734 262.384 37.394 263.308 37.394 264.712C37.394 266.104 36.734 267.028 35.702 267.028ZM43.6848 268.168C45.3168 268.168 46.7928 266.896 46.7928 264.712C46.7928 262.504 45.3168 261.232 43.6848 261.232C42.0408 261.232 40.5768 262.504 40.5768 264.712C40.5768 266.896 42.0408 268.168 43.6848 268.168ZM43.6848 267.028C42.6408 267.028 42.0048 266.104 42.0048 264.712C42.0048 263.308 42.6408 262.384 43.6848 262.384C44.7168 262.384 45.3768 263.308 45.3768 264.712C45.3768 266.104 44.7168 267.028 43.6848 267.028ZM50.7336 268.168C52.3536 268.168 53.2296 267.268 53.2296 266.152C53.2296 264.916 52.2216 264.496 51.2976 264.148C50.5656 263.884 49.9296 263.668 49.9296 263.104C49.9296 262.648 50.2656 262.288 50.9976 262.288C51.5376 262.288 52.0056 262.54 52.4616 262.864L53.1096 262.012C52.5816 261.592 51.8496 261.232 50.9736 261.232C49.4976 261.232 48.6096 262.06 48.6096 263.164C48.6096 264.292 49.5816 264.76 50.4696 265.096C51.1776 265.36 51.9216 265.636 51.9216 266.224C51.9216 266.728 51.5496 267.112 50.7696 267.112C50.0496 267.112 49.4856 266.812 48.8976 266.356L48.2496 267.256C48.8856 267.784 49.8216 268.168 50.7336 268.168ZM58.0592 268.168C58.9232 268.168 59.6792 267.88 60.2912 267.472L59.8112 266.584C59.3192 266.896 58.8272 267.076 58.2392 267.076C57.0992 267.076 56.3072 266.332 56.1992 265.072H60.4832C60.5192 264.904 60.5432 264.64 60.5432 264.364C60.5432 262.492 59.5952 261.232 57.8552 261.232C56.3192 261.232 54.8432 262.564 54.8432 264.712C54.8432 266.884 56.2592 268.168 58.0592 268.168ZM56.1752 264.112C56.3192 262.96 57.0512 262.324 57.8792 262.324C58.8392 262.324 59.3432 262.972 59.3432 264.112H56.1752ZM66.2194 268H67.5994V260.572C67.5994 259.768 67.8994 259.384 68.4754 259.384C68.7154 259.384 68.9674 259.432 69.2074 259.552L69.4834 258.496C69.1834 258.376 68.7634 258.28 68.3074 258.28C66.8434 258.28 66.2194 259.228 66.2194 260.572V268ZM65.3194 262.504H68.9434V261.4H66.2914L65.3194 261.472V262.504ZM73.3123 268.168C74.1763 268.168 74.9323 267.88 75.5443 267.472L75.0643 266.584C74.5723 266.896 74.0803 267.076 73.4923 267.076C72.3523 267.076 71.5603 266.332 71.4523 265.072H75.7363C75.7723 264.904 75.7963 264.64 75.7963 264.364C75.7963 262.492 74.8483 261.232 73.1083 261.232C71.5723 261.232 70.0963 262.564 70.0963 264.712C70.0963 266.884 71.5123 268.168 73.3123 268.168ZM71.4283 264.112C71.5723 262.96 72.3043 262.324 73.1323 262.324C74.0923 262.324 74.5963 262.972 74.5963 264.112H71.4283ZM79.2748 268.168C80.0668 268.168 80.7748 267.772 81.3748 267.256H81.4228L81.5308 268H82.6708V264.04C82.6708 262.276 81.9148 261.232 80.2708 261.232C79.2148 261.232 78.2788 261.676 77.6068 262.096L78.1228 263.044C78.6748 262.684 79.3348 262.36 80.0308 262.36C80.9908 262.36 81.2668 263.032 81.2788 263.8C78.5428 264.1 77.3428 264.832 77.3428 266.248C77.3428 267.412 78.1468 268.168 79.2748 268.168ZM79.7068 267.064C79.1188 267.064 78.6748 266.8 78.6748 266.152C78.6748 265.408 79.3228 264.916 81.2788 264.688V266.296C80.7388 266.8 80.2828 267.064 79.7068 267.064ZM87.1911 268.168C87.6831 268.168 88.1271 268.036 88.4991 267.916L88.2471 266.896C88.0431 266.98 87.7671 267.064 87.5391 267.064C86.8551 267.064 86.5671 266.644 86.5671 265.864V262.504H88.2951V261.4H86.5671V259.576H85.4151L85.2591 261.4L84.2271 261.472V262.504H85.1871V265.852C85.1871 267.232 85.7151 268.168 87.1911 268.168ZM92.2729 268.168C93.1849 268.168 93.8209 267.7 94.4209 267.004H94.4569L94.5649 268H95.7049V261.4H94.3249V265.984C93.7729 266.68 93.3529 266.968 92.7409 266.968C91.9609 266.968 91.6249 266.524 91.6249 265.384V261.4H90.2449V265.552C90.2449 267.232 90.8689 268.168 92.2729 268.168ZM98.3703 268H99.7623V263.896C100.17 262.852 100.818 262.468 101.346 262.468C101.622 262.468 101.79 262.504 102.018 262.576L102.258 261.376C102.054 261.28 101.85 261.232 101.526 261.232C100.818 261.232 100.122 261.736 99.6543 262.588H99.6183L99.4983 261.4H98.3703V268ZM106.453 268.168C107.317 268.168 108.073 267.88 108.685 267.472L108.205 266.584C107.713 266.896 107.221 267.076 106.633 267.076C105.493 267.076 104.701 266.332 104.593 265.072H108.877C108.913 264.904 108.937 264.64 108.937 264.364C108.937 262.492 107.989 261.232 106.249 261.232C104.713 261.232 103.237 262.564 103.237 264.712C103.237 266.884 104.653 268.168 106.453 268.168ZM104.569 264.112C104.713 262.96 105.445 262.324 106.273 262.324C107.233 262.324 107.737 262.972 107.737 264.112H104.569ZM114.697 270.76C116.089 270.76 116.785 269.812 117.301 268.408L119.725 261.4H118.381L117.313 264.796C117.145 265.408 116.965 266.056 116.809 266.668H116.749C116.533 266.044 116.341 265.384 116.137 264.796L114.925 261.4H113.509L116.125 267.952L115.993 268.408C115.753 269.116 115.321 269.644 114.613 269.644C114.445 269.644 114.253 269.596 114.133 269.548L113.869 270.628C114.097 270.712 114.361 270.76 114.697 270.76ZM124.047 268.168C125.679 268.168 127.155 266.896 127.155 264.712C127.155 262.504 125.679 261.232 124.047 261.232C122.403 261.232 120.939 262.504 120.939 264.712C120.939 266.896 122.403 268.168 124.047 268.168ZM124.047 267.028C123.003 267.028 122.367 266.104 122.367 264.712C122.367 263.308 123.003 262.384 124.047 262.384C125.079 262.384 125.739 263.308 125.739 264.712C125.739 266.104 125.079 267.028 124.047 267.028ZM131.322 268.168C132.234 268.168 132.87 267.7 133.47 267.004H133.506L133.614 268H134.754V261.4H133.374V265.984C132.822 266.68 132.402 266.968 131.79 266.968C131.01 266.968 130.674 266.524 130.674 265.384V261.4H129.294V265.552C129.294 267.232 129.918 268.168 131.322 268.168ZM141.783 268H143.379L144.195 264.76C144.351 264.136 144.471 263.524 144.603 262.828H144.663C144.807 263.524 144.927 264.124 145.083 264.748L145.923 268H147.579L149.295 261.4H147.987L147.147 264.976C147.003 265.612 146.895 266.224 146.763 266.848H146.715C146.559 266.224 146.427 265.612 146.271 264.976L145.323 261.4H144.039L143.115 264.976C142.947 265.6 142.815 266.224 142.683 266.848H142.623C142.503 266.224 142.395 265.612 142.275 264.976L141.399 261.4H140.007L141.783 268ZM152.637 268.168C153.429 268.168 154.137 267.772 154.737 267.256H154.785L154.893 268H156.033V264.04C156.033 262.276 155.277 261.232 153.633 261.232C152.577 261.232 151.641 261.676 150.969 262.096L151.485 263.044C152.037 262.684 152.697 262.36 153.393 262.36C154.353 262.36 154.629 263.032 154.641 263.8C151.905 264.1 150.705 264.832 150.705 266.248C150.705 267.412 151.509 268.168 152.637 268.168ZM153.069 267.064C152.481 267.064 152.037 266.8 152.037 266.152C152.037 265.408 152.685 264.916 154.641 264.688V266.296C154.101 266.8 153.645 267.064 153.069 267.064ZM158.579 268H159.971V263.32C160.547 262.744 160.967 262.432 161.579 262.432C162.347 262.432 162.683 262.876 162.683 264.028V268H164.075V263.848C164.075 262.18 163.451 261.232 162.047 261.232C161.147 261.232 160.463 261.724 159.863 262.324H159.827L159.707 261.4H158.579V268ZM168.887 268.168C169.379 268.168 169.823 268.036 170.195 267.916L169.943 266.896C169.739 266.98 169.463 267.064 169.235 267.064C168.551 267.064 168.263 266.644 168.263 265.864V262.504H169.991V261.4H168.263V259.576H167.111L166.955 261.4L165.923 261.472V262.504H166.883V265.852C166.883 267.232 167.411 268.168 168.887 268.168ZM73.96 283H78.09V282.22H74.89V275.67H73.96V283ZM79.8896 283H80.8196V275.67H79.8896V283ZM83.3193 283H84.1993V279.16C84.1993 278.38 84.1293 277.61 84.0793 276.87H84.1293L84.9193 278.38L87.5793 283H88.5393V275.67H87.6493V279.48C87.6493 280.24 87.7193 281.07 87.7793 281.81H87.7293L86.9393 280.29L84.2693 275.67H83.3193V283ZM91.0459 283H95.3759V282.22H91.9759V279.54H94.7459V278.75H91.9759V276.45H95.2659V275.67H91.0459V283ZM102.881 283.14C104.721 283.14 106.001 281.66 106.001 279.31C106.001 276.97 104.721 275.54 102.881 275.54C101.031 275.54 99.7509 276.96 99.7509 279.31C99.7509 281.66 101.031 283.14 102.881 283.14ZM102.881 282.32C101.561 282.32 100.701 281.14 100.701 279.31C100.701 277.48 101.561 276.35 102.881 276.35C104.191 276.35 105.061 277.48 105.061 279.31C105.061 281.14 104.191 282.32 102.881 282.32ZM106.986 283H107.926L109.216 278.9C109.486 278.08 109.716 277.28 109.956 276.43H109.996C110.236 277.28 110.466 278.08 110.726 278.9L112.016 283H112.986L110.506 275.67H109.466L106.986 283ZM108.286 280.76H111.666V280.03H108.286V280.76Z" fill="#7C7C7C"/>
<path d="M193.347 169H198.495V167.824H194.751V160.168H193.347V169ZM200.639 169H202.043V160.168H200.639V169ZM204.942 169H206.274V164.848C206.274 163.876 206.154 162.868 206.094 161.944H206.154L207.078 163.804L209.994 169H211.434V160.168H210.102V164.296C210.102 165.244 210.21 166.324 210.294 167.224H210.234L209.31 165.364L206.37 160.168H204.942V169ZM214.354 169H219.718V167.824H215.758V164.98H218.986V163.792H215.758V161.344H219.586V160.168H214.354V169ZM227.545 169.168C228.037 169.168 228.481 169.036 228.853 168.916L228.601 167.896C228.397 167.98 228.121 168.064 227.893 168.064C227.209 168.064 226.921 167.644 226.921 166.864V163.504H228.649V162.4H226.921V160.576H225.769L225.613 162.4L224.581 162.472V163.504H225.541V166.852C225.541 168.232 226.069 169.168 227.545 169.168ZM233.089 169.168C234.721 169.168 236.197 167.896 236.197 165.712C236.197 163.504 234.721 162.232 233.089 162.232C231.445 162.232 229.981 163.504 229.981 165.712C229.981 167.896 231.445 169.168 233.089 169.168ZM233.089 168.028C232.045 168.028 231.409 167.104 231.409 165.712C231.409 164.308 232.045 163.384 233.089 163.384C234.121 163.384 234.781 164.308 234.781 165.712C234.781 167.104 234.121 168.028 233.089 168.028ZM242.747 169H244.439L245.603 164.092C245.735 163.408 245.891 162.748 246.023 162.076H246.071C246.191 162.748 246.323 163.408 246.479 164.092L247.655 169H249.383L251.123 160.168H249.791L248.951 164.764C248.807 165.7 248.651 166.648 248.507 167.608H248.447C248.231 166.648 248.051 165.688 247.835 164.764L246.695 160.168H245.459L244.331 164.764C244.127 165.7 243.923 166.648 243.731 167.608H243.683C243.527 166.648 243.371 165.7 243.203 164.764L242.387 160.168H240.947L242.747 169ZM253.157 169H258.521V167.824H254.561V164.98H257.789V163.792H254.561V161.344H258.389V160.168H253.157V169ZM260.953 169H263.917C265.873 169 267.289 168.16 267.289 166.408C267.289 165.22 266.569 164.524 265.561 164.308V164.26C266.353 163.984 266.809 163.192 266.809 162.34C266.809 160.744 265.501 160.168 263.701 160.168H260.953V169ZM262.357 163.852V161.26H263.581C264.817 161.26 265.441 161.608 265.441 162.532C265.441 163.348 264.889 163.852 263.545 163.852H262.357ZM262.357 167.908V164.908H263.761C265.165 164.908 265.921 165.352 265.921 166.348C265.921 167.416 265.129 167.908 263.761 167.908H262.357Z" fill="#F57C00"/>
<path d="M293.127 268H294.459V263.848C294.459 262.876 294.339 261.868 294.279 260.944H294.339L295.263 262.804L298.179 268H299.619V259.168H298.287V263.296C298.287 264.244 298.395 265.324 298.479 266.224H298.419L297.495 264.364L294.555 259.168H293.127V268ZM305.179 268.168C306.043 268.168 306.799 267.88 307.411 267.472L306.931 266.584C306.439 266.896 305.947 267.076 305.359 267.076C304.219 267.076 303.427 266.332 303.319 265.072H307.603C307.639 264.904 307.663 264.64 307.663 264.364C307.663 262.492 306.715 261.232 304.975 261.232C303.439 261.232 301.963 262.564 301.963 264.712C301.963 266.884 303.379 268.168 305.179 268.168ZM303.295 264.112C303.439 262.96 304.171 262.324 304.999 262.324C305.959 262.324 306.463 262.972 306.463 264.112H303.295ZM308.788 268H310.24L310.996 266.608C311.212 266.212 311.404 265.816 311.62 265.444H311.68C311.908 265.816 312.148 266.212 312.364 266.608L313.228 268H314.728L312.604 264.712L314.572 261.4H313.132L312.448 262.72C312.256 263.104 312.076 263.464 311.896 263.836H311.848C311.632 263.464 311.416 263.104 311.224 262.72L310.432 261.4H308.944L310.912 264.568L308.788 268ZM318.39 268.168C318.882 268.168 319.326 268.036 319.698 267.916L319.446 266.896C319.242 266.98 318.966 267.064 318.738 267.064C318.054 267.064 317.766 266.644 317.766 265.864V262.504H319.494V261.4H317.766V259.576H316.614L316.458 261.4L315.426 261.472V262.504H316.386V265.852C316.386 267.232 316.914 268.168 318.39 268.168ZM326.623 268.168C328.243 268.168 329.119 267.268 329.119 266.152C329.119 264.916 328.111 264.496 327.187 264.148C326.455 263.884 325.819 263.668 325.819 263.104C325.819 262.648 326.155 262.288 326.887 262.288C327.427 262.288 327.895 262.54 328.351 262.864L328.999 262.012C328.471 261.592 327.739 261.232 326.863 261.232C325.387 261.232 324.499 262.06 324.499 263.164C324.499 264.292 325.471 264.76 326.359 265.096C327.067 265.36 327.811 265.636 327.811 266.224C327.811 266.728 327.439 267.112 326.659 267.112C325.939 267.112 325.375 266.812 324.787 266.356L324.139 267.256C324.775 267.784 325.711 268.168 326.623 268.168ZM333.081 268.168C333.573 268.168 334.017 268.036 334.389 267.916L334.137 266.896C333.933 266.98 333.657 267.064 333.429 267.064C332.745 267.064 332.457 266.644 332.457 265.864V262.504H334.185V261.4H332.457V259.576H331.305L331.149 261.4L330.117 261.472V262.504H331.077V265.852C331.077 267.232 331.605 268.168 333.081 268.168ZM338.732 268.168C339.596 268.168 340.352 267.88 340.964 267.472L340.484 266.584C339.992 266.896 339.5 267.076 338.912 267.076C337.772 267.076 336.98 266.332 336.872 265.072H341.156C341.192 264.904 341.216 264.64 341.216 264.364C341.216 262.492 340.268 261.232 338.528 261.232C336.992 261.232 335.516 262.564 335.516 264.712C335.516 266.884 336.932 268.168 338.732 268.168ZM336.848 264.112C336.992 262.96 337.724 262.324 338.552 262.324C339.512 262.324 340.016 262.972 340.016 264.112H336.848ZM343.369 270.676H344.761V268.54L344.713 267.424C345.265 267.904 345.865 268.168 346.453 268.168C347.941 268.168 349.297 266.86 349.297 264.604C349.297 262.564 348.349 261.232 346.681 261.232C345.937 261.232 345.229 261.64 344.653 262.132H344.617L344.497 261.4H343.369V270.676ZM346.189 267.016C345.781 267.016 345.277 266.86 344.761 266.416V263.188C345.313 262.66 345.805 262.384 346.309 262.384C347.413 262.384 347.869 263.236 347.869 264.616C347.869 266.164 347.137 267.016 346.189 267.016ZM353.246 268.168C354.866 268.168 355.742 267.268 355.742 266.152C355.742 264.916 354.734 264.496 353.81 264.148C353.078 263.884 352.442 263.668 352.442 263.104C352.442 262.648 352.778 262.288 353.51 262.288C354.05 262.288 354.518 262.54 354.974 262.864L355.622 262.012C355.094 261.592 354.362 261.232 353.486 261.232C352.01 261.232 351.122 262.06 351.122 263.164C351.122 264.292 352.094 264.76 352.982 265.096C353.69 265.36 354.434 265.636 354.434 266.224C354.434 266.728 354.062 267.112 353.282 267.112C352.562 267.112 351.998 266.812 351.41 266.356L350.762 267.256C351.398 267.784 352.334 268.168 353.246 268.168ZM361.335 268H362.715V260.572C362.715 259.768 363.015 259.384 363.591 259.384C363.831 259.384 364.083 259.432 364.323 259.552L364.599 258.496C364.299 258.376 363.879 258.28 363.423 258.28C361.959 258.28 361.335 259.228 361.335 260.572V268ZM360.435 262.504H364.059V261.4H361.407L360.435 261.472V262.504ZM368.32 268.168C369.952 268.168 371.428 266.896 371.428 264.712C371.428 262.504 369.952 261.232 368.32 261.232C366.676 261.232 365.212 262.504 365.212 264.712C365.212 266.896 366.676 268.168 368.32 268.168ZM368.32 267.028C367.276 267.028 366.64 266.104 366.64 264.712C366.64 263.308 367.276 262.384 368.32 262.384C369.352 262.384 370.012 263.308 370.012 264.712C370.012 266.104 369.352 267.028 368.32 267.028ZM373.65 268H375.042V263.896C375.45 262.852 376.098 262.468 376.626 262.468C376.902 262.468 377.07 262.504 377.298 262.576L377.538 261.376C377.334 261.28 377.13 261.232 376.806 261.232C376.098 261.232 375.402 261.736 374.934 262.588H374.898L374.778 261.4H373.65V268ZM384.676 268.168C385.168 268.168 385.612 268.036 385.984 267.916L385.732 266.896C385.528 266.98 385.252 267.064 385.024 267.064C384.34 267.064 384.052 266.644 384.052 265.864V262.504H385.78V261.4H384.052V259.576H382.9L382.744 261.4L381.712 261.472V262.504H382.672V265.852C382.672 267.232 383.2 268.168 384.676 268.168ZM387.814 268H389.206V263.32C389.782 262.744 390.202 262.432 390.814 262.432C391.582 262.432 391.918 262.876 391.918 264.028V268H393.31V263.848C393.31 262.18 392.686 261.232 391.282 261.232C390.382 261.232 389.71 261.724 389.146 262.276L389.206 260.968V258.448H387.814V268ZM398.627 268.168C399.491 268.168 400.247 267.88 400.859 267.472L400.379 266.584C399.887 266.896 399.395 267.076 398.807 267.076C397.667 267.076 396.875 266.332 396.767 265.072H401.051C401.087 264.904 401.111 264.64 401.111 264.364C401.111 262.492 400.163 261.232 398.423 261.232C396.887 261.232 395.411 262.564 395.411 264.712C395.411 266.884 396.827 268.168 398.627 268.168ZM396.743 264.112C396.887 262.96 397.619 262.324 398.447 262.324C399.407 262.324 399.911 262.972 399.911 264.112H396.743ZM406.787 268H408.167V260.572C408.167 259.768 408.467 259.384 409.043 259.384C409.283 259.384 409.535 259.432 409.775 259.552L410.051 258.496C409.751 258.376 409.331 258.28 408.875 258.28C407.411 258.28 406.787 259.228 406.787 260.572V268ZM405.887 262.504H409.511V261.4H406.859L405.887 261.472V262.504ZM413.88 268.168C414.744 268.168 415.5 267.88 416.112 267.472L415.632 266.584C415.14 266.896 414.648 267.076 414.06 267.076C412.92 267.076 412.128 266.332 412.02 265.072H416.304C416.34 264.904 416.364 264.64 416.364 264.364C416.364 262.492 415.416 261.232 413.676 261.232C412.14 261.232 410.664 262.564 410.664 264.712C410.664 266.884 412.08 268.168 413.88 268.168ZM411.996 264.112C412.14 262.96 412.872 262.324 413.7 262.324C414.66 262.324 415.164 262.972 415.164 264.112H411.996ZM419.842 268.168C420.634 268.168 421.342 267.772 421.942 267.256H421.99L422.098 268H423.238V264.04C423.238 262.276 422.482 261.232 420.838 261.232C419.782 261.232 418.846 261.676 418.174 262.096L418.69 263.044C419.242 262.684 419.902 262.36 420.598 262.36C421.558 262.36 421.834 263.032 421.846 263.8C419.11 264.1 417.91 264.832 417.91 266.248C417.91 267.412 418.714 268.168 419.842 268.168ZM420.274 267.064C419.686 267.064 419.242 266.8 419.242 266.152C419.242 265.408 419.89 264.916 421.846 264.688V266.296C421.306 266.8 420.85 267.064 420.274 267.064ZM427.759 268.168C428.251 268.168 428.695 268.036 429.067 267.916L428.815 266.896C428.611 266.98 428.335 267.064 428.107 267.064C427.423 267.064 427.135 266.644 427.135 265.864V262.504H428.863V261.4H427.135V259.576H425.983L425.827 261.4L424.795 261.472V262.504H425.755V265.852C425.755 267.232 426.283 268.168 427.759 268.168ZM432.84 268.168C433.752 268.168 434.388 267.7 434.988 267.004H435.024L435.132 268H436.272V261.4H434.892V265.984C434.34 266.68 433.92 266.968 433.308 266.968C432.528 266.968 432.192 266.524 432.192 265.384V261.4H430.812V265.552C430.812 267.232 431.436 268.168 432.84 268.168ZM438.938 268H440.33V263.896C440.738 262.852 441.386 262.468 441.914 262.468C442.19 262.468 442.358 262.504 442.586 262.576L442.826 261.376C442.622 261.28 442.418 261.232 442.094 261.232C441.386 261.232 440.69 261.736 440.222 262.588H440.186L440.066 261.4H438.938V268ZM447.021 268.168C447.885 268.168 448.641 267.88 449.253 267.472L448.773 266.584C448.281 266.896 447.789 267.076 447.201 267.076C446.061 267.076 445.269 266.332 445.161 265.072H449.445C449.481 264.904 449.505 264.64 449.505 264.364C449.505 262.492 448.557 261.232 446.817 261.232C445.281 261.232 443.805 262.564 443.805 264.712C443.805 266.884 445.221 268.168 447.021 268.168ZM445.137 264.112C445.281 262.96 446.013 262.324 446.841 262.324C447.801 262.324 448.305 262.972 448.305 264.112H445.137ZM316.562 283H320.692V282.22H317.492V275.67H316.562V283ZM322.491 283H323.421V275.67H322.491V283ZM325.921 283H326.801V279.16C326.801 278.38 326.731 277.61 326.681 276.87H326.731L327.521 278.38L330.181 283H331.141V275.67H330.251V279.48C330.251 280.24 330.321 281.07 330.381 281.81H330.331L329.541 280.29L326.871 275.67H325.921V283ZM333.647 283H337.977V282.22H334.577V279.54H337.347V278.75H334.577V276.45H337.867V275.67H333.647V283ZM342.772 283H345.112C346.742 283 347.882 282.29 347.882 280.86C347.882 279.86 347.272 279.27 346.392 279.1V279.06C347.082 278.83 347.462 278.19 347.462 277.47C347.462 276.18 346.432 275.67 344.942 275.67H342.772V283ZM343.702 278.79V276.4H344.832C345.972 276.4 346.552 276.72 346.552 277.58C346.552 278.33 346.042 278.79 344.782 278.79H343.702ZM343.702 282.27V279.5H344.982C346.262 279.5 346.982 279.92 346.982 280.83C346.982 281.82 346.232 282.27 344.982 282.27H343.702ZM349.765 283H350.675V279.52C351.035 278.59 351.595 278.26 352.045 278.26C352.265 278.26 352.385 278.29 352.575 278.35L352.745 277.55C352.565 277.47 352.405 277.44 352.165 277.44C351.555 277.44 350.995 277.87 350.625 278.56H350.595L350.505 277.57H349.765V283ZM356.115 283.14C357.445 283.14 358.625 282.09 358.625 280.3C358.625 278.48 357.445 277.44 356.115 277.44C354.775 277.44 353.595 278.48 353.595 280.3C353.595 282.09 354.775 283.14 356.115 283.14ZM356.115 282.38C355.165 282.38 354.535 281.54 354.535 280.3C354.535 279.04 355.165 278.2 356.115 278.2C357.055 278.2 357.685 279.04 357.685 280.3C357.685 281.54 357.055 282.38 356.115 282.38ZM361.361 283H362.421L363.181 280.09C363.331 279.57 363.441 279.07 363.551 278.51H363.601C363.731 279.07 363.831 279.56 363.971 280.08L364.761 283H365.871L367.331 277.57H366.461L365.671 280.72C365.541 281.24 365.441 281.72 365.331 282.23H365.291C365.161 281.72 365.041 281.24 364.911 280.72L364.051 277.57H363.161L362.321 280.72C362.181 281.23 362.071 281.72 361.951 282.23H361.901C361.801 281.72 361.701 281.24 361.591 280.72L360.771 277.57H359.841L361.361 283ZM370.439 283.14C371.719 283.14 372.409 282.41 372.409 281.52C372.409 280.49 371.549 280.17 370.759 279.87C370.139 279.65 369.589 279.45 369.589 278.93C369.589 278.51 369.899 278.15 370.589 278.15C371.069 278.15 371.459 278.36 371.829 278.63L372.269 278.05C371.849 277.71 371.249 277.44 370.579 277.44C369.399 277.44 368.709 278.11 368.709 278.97C368.709 279.9 369.539 280.26 370.289 280.55C370.889 280.77 371.539 281.02 371.539 281.57C371.539 282.05 371.179 282.43 370.459 282.43C369.809 282.43 369.329 282.16 368.859 281.78L368.409 282.39C368.919 282.81 369.669 283.14 370.439 283.14ZM376.386 283.14C377.126 283.14 377.696 282.89 378.176 282.58L377.846 281.97C377.446 282.24 377.016 282.41 376.496 282.41C375.456 282.41 374.756 281.66 374.686 280.51H378.346C378.376 280.37 378.386 280.18 378.386 279.99C378.386 278.43 377.606 277.44 376.226 277.44C374.976 277.44 373.786 278.53 373.786 280.3C373.786 282.08 374.936 283.14 376.386 283.14ZM374.676 279.85C374.796 278.78 375.476 278.17 376.236 278.17C377.096 278.17 377.586 278.76 377.586 279.85H374.676ZM380.233 283H381.143V279.52C381.503 278.59 382.063 278.26 382.513 278.26C382.733 278.26 382.853 278.29 383.043 278.35L383.213 277.55C383.033 277.47 382.873 277.44 382.633 277.44C382.023 277.44 381.463 277.87 381.093 278.56H381.063L380.973 277.57H380.233V283ZM388.237 283H389.337L390.427 278.58C390.547 278.01 390.677 277.48 390.797 276.91H390.837C390.947 277.48 391.067 278.01 391.197 278.58L392.297 283H393.417L394.937 275.67H394.047L393.267 279.67C393.137 280.45 392.997 281.24 392.857 282.04H392.807C392.627 281.24 392.457 280.45 392.277 279.67L391.257 275.67H390.417L389.407 279.67C389.227 280.45 389.047 281.24 388.877 282.04H388.837C388.687 281.24 388.547 280.45 388.397 279.67L387.627 275.67H386.677L388.237 283ZM398.816 283.14C399.556 283.14 400.126 282.89 400.606 282.58L400.276 281.97C399.876 282.24 399.446 282.41 398.926 282.41C397.886 282.41 397.186 281.66 397.116 280.51H400.776C400.806 280.37 400.816 280.18 400.816 279.99C400.816 278.43 400.036 277.44 398.656 277.44C397.406 277.44 396.216 278.53 396.216 280.3C396.216 282.08 397.366 283.14 398.816 283.14ZM397.106 279.85C397.226 278.78 397.906 278.17 398.666 278.17C399.526 278.17 400.016 278.76 400.016 279.85H397.106ZM405.043 283.14C406.293 283.14 407.403 282.06 407.403 280.2C407.403 278.53 406.643 277.44 405.243 277.44C404.633 277.44 404.033 277.77 403.533 278.2L403.573 277.22V275.05H402.663V283H403.383L403.473 282.44H403.503C403.973 282.88 404.543 283.14 405.043 283.14ZM404.903 282.37C404.543 282.37 404.043 282.22 403.573 281.81V278.95C404.083 278.46 404.563 278.2 405.023 278.2C406.053 278.2 406.463 279.01 406.463 280.22C406.463 281.56 405.793 282.37 404.903 282.37ZM410.716 283.14C411.996 283.14 412.686 282.41 412.686 281.52C412.686 280.49 411.826 280.17 411.036 279.87C410.416 279.65 409.866 279.45 409.866 278.93C409.866 278.51 410.176 278.15 410.866 278.15C411.346 278.15 411.736 278.36 412.106 278.63L412.546 278.05C412.126 277.71 411.526 277.44 410.856 277.44C409.676 277.44 408.986 278.11 408.986 278.97C408.986 279.9 409.816 280.26 410.566 280.55C411.166 280.77 411.816 281.02 411.816 281.57C411.816 282.05 411.456 282.43 410.736 282.43C410.086 282.43 409.606 282.16 409.136 281.78L408.686 282.39C409.196 282.81 409.946 283.14 410.716 283.14ZM414.474 283H415.384V277.57H414.474V283ZM414.934 276.45C415.284 276.45 415.544 276.22 415.544 275.84C415.544 275.49 415.284 275.26 414.934 275.26C414.574 275.26 414.324 275.49 414.324 275.84C414.324 276.22 414.574 276.45 414.934 276.45ZM419.428 283.14C419.768 283.14 420.128 283.04 420.428 282.93L420.248 282.25C420.078 282.32 419.828 282.4 419.638 282.4C419.008 282.4 418.798 282.01 418.798 281.35V278.31H420.268V277.57H418.798V276.04H418.028L417.928 277.57L417.078 277.63V278.31H417.888V281.33C417.888 282.41 418.268 283.14 419.428 283.14ZM424.011 283.14C424.751 283.14 425.321 282.89 425.801 282.58L425.471 281.97C425.071 282.24 424.641 282.41 424.121 282.41C423.081 282.41 422.381 281.66 422.311 280.51H425.971C426.001 280.37 426.011 280.18 426.011 279.99C426.011 278.43 425.231 277.44 423.851 277.44C422.601 277.44 421.411 278.53 421.411 280.3C421.411 282.08 422.561 283.14 424.011 283.14ZM422.301 279.85C422.421 278.78 423.101 278.17 423.861 278.17C424.721 278.17 425.211 278.76 425.211 279.85H422.301Z" fill="#7C7C7C"/>
<path d="M590.52 268H591.924V264.208H595.188V263.032H591.924V260.344H595.764V259.168H590.52V268ZM597.797 268H599.189V261.4H597.797V268ZM598.493 260.164C598.997 260.164 599.357 259.84 599.357 259.336C599.357 258.844 598.997 258.52 598.493 258.52C597.977 258.52 597.641 258.844 597.641 259.336C597.641 259.84 597.977 260.164 598.493 260.164ZM601.854 268H603.246V263.32C603.822 262.744 604.242 262.432 604.854 262.432C605.622 262.432 605.958 262.876 605.958 264.028V268H607.35V263.848C607.35 262.18 606.726 261.232 605.322 261.232C604.422 261.232 603.738 261.724 603.138 262.324H603.102L602.982 261.4H601.854V268ZM609.942 268H611.334V261.4H609.942V268ZM610.638 260.164C611.142 260.164 611.502 259.84 611.502 259.336C611.502 258.844 611.142 258.52 610.638 258.52C610.122 258.52 609.786 258.844 609.786 259.336C609.786 259.84 610.122 260.164 610.638 260.164ZM615.799 268.168C617.419 268.168 618.295 267.268 618.295 266.152C618.295 264.916 617.287 264.496 616.363 264.148C615.631 263.884 614.995 263.668 614.995 263.104C614.995 262.648 615.331 262.288 616.063 262.288C616.603 262.288 617.071 262.54 617.527 262.864L618.175 262.012C617.647 261.592 616.915 261.232 616.039 261.232C614.563 261.232 613.675 262.06 613.675 263.164C613.675 264.292 614.647 264.76 615.535 265.096C616.243 265.36 616.987 265.636 616.987 266.224C616.987 266.728 616.615 267.112 615.835 267.112C615.115 267.112 614.551 266.812 613.963 266.356L613.315 267.256C613.951 267.784 614.887 268.168 615.799 268.168ZM620.365 268H621.757V263.32C622.333 262.744 622.753 262.432 623.365 262.432C624.133 262.432 624.469 262.876 624.469 264.028V268H625.861V263.848C625.861 262.18 625.237 261.232 623.833 261.232C622.933 261.232 622.261 261.724 621.697 262.276L621.757 260.968V258.448H620.365V268ZM631.941 268H633.321V260.572C633.321 259.768 633.621 259.384 634.197 259.384C634.437 259.384 634.689 259.432 634.929 259.552L635.205 258.496C634.905 258.376 634.485 258.28 634.029 258.28C632.565 258.28 631.941 259.228 631.941 260.572V268ZM631.041 262.504H634.665V261.4H632.013L631.041 261.472V262.504ZM638.926 268.168C640.558 268.168 642.034 266.896 642.034 264.712C642.034 262.504 640.558 261.232 638.926 261.232C637.282 261.232 635.818 262.504 635.818 264.712C635.818 266.896 637.282 268.168 638.926 268.168ZM638.926 267.028C637.882 267.028 637.246 266.104 637.246 264.712C637.246 263.308 637.882 262.384 638.926 262.384C639.958 262.384 640.618 263.308 640.618 264.712C640.618 266.104 639.958 267.028 638.926 267.028ZM644.257 268H645.649V263.896C646.057 262.852 646.705 262.468 647.233 262.468C647.509 262.468 647.677 262.504 647.905 262.576L648.145 261.376C647.941 261.28 647.737 261.232 647.413 261.232C646.705 261.232 646.009 261.736 645.541 262.588H645.505L645.385 261.4H644.257V268ZM655.282 268.168C655.774 268.168 656.218 268.036 656.59 267.916L656.338 266.896C656.134 266.98 655.858 267.064 655.63 267.064C654.946 267.064 654.658 266.644 654.658 265.864V262.504H656.386V261.4H654.658V259.576H653.506L653.35 261.4L652.318 261.472V262.504H653.278V265.852C653.278 267.232 653.806 268.168 655.282 268.168ZM658.42 268H659.812V263.32C660.388 262.744 660.808 262.432 661.42 262.432C662.188 262.432 662.524 262.876 662.524 264.028V268H663.916V263.848C663.916 262.18 663.292 261.232 661.888 261.232C660.988 261.232 660.316 261.724 659.752 262.276L659.812 260.968V258.448H658.42V268ZM669.233 268.168C670.097 268.168 670.853 267.88 671.465 267.472L670.985 266.584C670.493 266.896 670.001 267.076 669.413 267.076C668.273 267.076 667.481 266.332 667.373 265.072H671.657C671.693 264.904 671.717 264.64 671.717 264.364C671.717 262.492 670.769 261.232 669.029 261.232C667.493 261.232 666.017 262.564 666.017 264.712C666.017 266.884 667.433 268.168 669.233 268.168ZM667.349 264.112C667.493 262.96 668.225 262.324 669.053 262.324C670.013 262.324 670.517 262.972 670.517 264.112H667.349ZM677.394 268H678.774V260.572C678.774 259.768 679.074 259.384 679.65 259.384C679.89 259.384 680.142 259.432 680.382 259.552L680.658 258.496C680.358 258.376 679.938 258.28 679.482 258.28C678.018 258.28 677.394 259.228 677.394 260.572V268ZM676.494 262.504H680.118V261.4H677.466L676.494 261.472V262.504ZM684.487 268.168C685.351 268.168 686.107 267.88 686.719 267.472L686.239 266.584C685.747 266.896 685.255 267.076 684.667 267.076C683.527 267.076 682.735 266.332 682.627 265.072H686.911C686.947 264.904 686.971 264.64 686.971 264.364C686.971 262.492 686.023 261.232 684.283 261.232C682.747 261.232 681.271 262.564 681.271 264.712C681.271 266.884 682.687 268.168 684.487 268.168ZM682.603 264.112C682.747 262.96 683.479 262.324 684.307 262.324C685.267 262.324 685.771 262.972 685.771 264.112H682.603ZM690.449 268.168C691.241 268.168 691.949 267.772 692.549 267.256H692.597L692.705 268H693.845V264.04C693.845 262.276 693.089 261.232 691.445 261.232C690.389 261.232 689.453 261.676 688.781 262.096L689.297 263.044C689.849 262.684 690.509 262.36 691.205 262.36C692.165 262.36 692.441 263.032 692.453 263.8C689.717 264.1 688.517 264.832 688.517 266.248C688.517 267.412 689.321 268.168 690.449 268.168ZM690.881 267.064C690.293 267.064 689.849 266.8 689.849 266.152C689.849 265.408 690.497 264.916 692.453 264.688V266.296C691.913 266.8 691.457 267.064 690.881 267.064ZM698.365 268.168C698.857 268.168 699.301 268.036 699.673 267.916L699.421 266.896C699.217 266.98 698.941 267.064 698.713 267.064C698.029 267.064 697.741 266.644 697.741 265.864V262.504H699.469V261.4H697.741V259.576H696.589L696.433 261.4L695.401 261.472V262.504H696.361V265.852C696.361 267.232 696.889 268.168 698.365 268.168ZM703.447 268.168C704.359 268.168 704.995 267.7 705.595 267.004H705.631L705.739 268H706.879V261.4H705.499V265.984C704.947 266.68 704.527 266.968 703.915 266.968C703.135 266.968 702.799 266.524 702.799 265.384V261.4H701.419V265.552C701.419 267.232 702.043 268.168 703.447 268.168ZM709.544 268H710.936V263.896C711.344 262.852 711.992 262.468 712.52 262.468C712.796 262.468 712.964 262.504 713.192 262.576L713.432 261.376C713.228 261.28 713.024 261.232 712.7 261.232C711.992 261.232 711.296 261.736 710.828 262.588H710.792L710.672 261.4H709.544V268ZM717.627 268.168C718.491 268.168 719.247 267.88 719.859 267.472L719.379 266.584C718.887 266.896 718.395 267.076 717.807 267.076C716.667 267.076 715.875 266.332 715.767 265.072H720.051C720.087 264.904 720.111 264.64 720.111 264.364C720.111 262.492 719.163 261.232 717.423 261.232C715.887 261.232 714.411 262.564 714.411 264.712C714.411 266.884 715.827 268.168 717.627 268.168ZM715.743 264.112C715.887 262.96 716.619 262.324 717.447 262.324C718.407 262.324 718.911 262.972 718.911 264.112H715.743ZM600.562 283H604.692V282.22H601.492V275.67H600.562V283ZM606.491 283H607.421V275.67H606.491V283ZM609.921 283H610.801V279.16C610.801 278.38 610.731 277.61 610.681 276.87H610.731L611.521 278.38L614.181 283H615.141V275.67H614.251V279.48C614.251 280.24 614.321 281.07 614.381 281.81H614.331L613.541 280.29L610.871 275.67H609.921V283ZM617.647 283H621.977V282.22H618.577V279.54H621.347V278.75H618.577V276.45H621.867V275.67H617.647V283ZM626.772 283H629.112C630.742 283 631.882 282.29 631.882 280.86C631.882 279.86 631.272 279.27 630.392 279.1V279.06C631.082 278.83 631.462 278.19 631.462 277.47C631.462 276.18 630.432 275.67 628.942 275.67H626.772V283ZM627.702 278.79V276.4H628.832C629.972 276.4 630.552 276.72 630.552 277.58C630.552 278.33 630.042 278.79 628.782 278.79H627.702ZM627.702 282.27V279.5H628.982C630.262 279.5 630.982 279.92 630.982 280.83C630.982 281.82 630.232 282.27 628.982 282.27H627.702ZM633.765 283H634.675V279.52C635.035 278.59 635.595 278.26 636.045 278.26C636.265 278.26 636.385 278.29 636.575 278.35L636.745 277.55C636.565 277.47 636.405 277.44 636.165 277.44C635.555 277.44 634.995 277.87 634.625 278.56H634.595L634.505 277.57H633.765V283ZM640.115 283.14C641.445 283.14 642.625 282.09 642.625 280.3C642.625 278.48 641.445 277.44 640.115 277.44C638.775 277.44 637.595 278.48 637.595 280.3C637.595 282.09 638.775 283.14 640.115 283.14ZM640.115 282.38C639.165 282.38 638.535 281.54 638.535 280.3C638.535 279.04 639.165 278.2 640.115 278.2C641.055 278.2 641.685 279.04 641.685 280.3C641.685 281.54 641.055 282.38 640.115 282.38ZM645.361 283H646.421L647.181 280.09C647.331 279.57 647.441 279.07 647.551 278.51H647.601C647.731 279.07 647.831 279.56 647.971 280.08L648.761 283H649.871L651.331 277.57H650.461L649.671 280.72C649.541 281.24 649.441 281.72 649.331 282.23H649.291C649.161 281.72 649.041 281.24 648.911 280.72L648.051 277.57H647.161L646.321 280.72C646.181 281.23 646.071 281.72 645.951 282.23H645.901C645.801 281.72 645.701 281.24 645.591 280.72L644.771 277.57H643.841L645.361 283ZM654.439 283.14C655.719 283.14 656.409 282.41 656.409 281.52C656.409 280.49 655.549 280.17 654.759 279.87C654.139 279.65 653.589 279.45 653.589 278.93C653.589 278.51 653.899 278.15 654.589 278.15C655.069 278.15 655.459 278.36 655.829 278.63L656.269 278.05C655.849 277.71 655.249 277.44 654.579 277.44C653.399 277.44 652.709 278.11 652.709 278.97C652.709 279.9 653.539 280.26 654.289 280.55C654.889 280.77 655.539 281.02 655.539 281.57C655.539 282.05 655.179 282.43 654.459 282.43C653.809 282.43 653.329 282.16 652.859 281.78L652.409 282.39C652.919 282.81 653.669 283.14 654.439 283.14ZM660.386 283.14C661.126 283.14 661.696 282.89 662.176 282.58L661.846 281.97C661.446 282.24 661.016 282.41 660.496 282.41C659.456 282.41 658.756 281.66 658.686 280.51H662.346C662.376 280.37 662.386 280.18 662.386 279.99C662.386 278.43 661.606 277.44 660.226 277.44C658.976 277.44 657.786 278.53 657.786 280.3C657.786 282.08 658.936 283.14 660.386 283.14ZM658.676 279.85C658.796 278.78 659.476 278.17 660.236 278.17C661.096 278.17 661.586 278.76 661.586 279.85H658.676ZM664.233 283H665.143V279.52C665.503 278.59 666.063 278.26 666.513 278.26C666.733 278.26 666.853 278.29 667.043 278.35L667.213 277.55C667.033 277.47 666.873 277.44 666.633 277.44C666.023 277.44 665.463 277.87 665.093 278.56H665.063L664.973 277.57H664.233V283ZM672.237 283H673.337L674.427 278.58C674.547 278.01 674.677 277.48 674.797 276.91H674.837C674.947 277.48 675.067 278.01 675.197 278.58L676.297 283H677.417L678.937 275.67H678.047L677.267 279.67C677.137 280.45 676.997 281.24 676.857 282.04H676.807C676.627 281.24 676.457 280.45 676.277 279.67L675.257 275.67H674.417L673.407 279.67C673.227 280.45 673.047 281.24 672.877 282.04H672.837C672.687 281.24 672.547 280.45 672.397 279.67L671.627 275.67H670.677L672.237 283ZM682.816 283.14C683.556 283.14 684.126 282.89 684.606 282.58L684.276 281.97C683.876 282.24 683.446 282.41 682.926 282.41C681.886 282.41 681.186 281.66 681.116 280.51H684.776C684.806 280.37 684.816 280.18 684.816 279.99C684.816 278.43 684.036 277.44 682.656 277.44C681.406 277.44 680.216 278.53 680.216 280.3C680.216 282.08 681.366 283.14 682.816 283.14ZM681.106 279.85C681.226 278.78 681.906 278.17 682.666 278.17C683.526 278.17 684.016 278.76 684.016 279.85H681.106ZM689.043 283.14C690.293 283.14 691.403 282.06 691.403 280.2C691.403 278.53 690.643 277.44 689.243 277.44C688.633 277.44 688.033 277.77 687.533 278.2L687.573 277.22V275.05H686.663V283H687.383L687.473 282.44H687.503C687.973 282.88 688.543 283.14 689.043 283.14ZM688.903 282.37C688.543 282.37 688.043 282.22 687.573 281.81V278.95C688.083 278.46 688.563 278.2 689.023 278.2C690.053 278.2 690.463 279.01 690.463 280.22C690.463 281.56 689.793 282.37 688.903 282.37ZM694.716 283.14C695.996 283.14 696.686 282.41 696.686 281.52C696.686 280.49 695.826 280.17 695.036 279.87C694.416 279.65 693.866 279.45 693.866 278.93C693.866 278.51 694.176 278.15 694.866 278.15C695.346 278.15 695.736 278.36 696.106 278.63L696.546 278.05C696.126 277.71 695.526 277.44 694.856 277.44C693.676 277.44 692.986 278.11 692.986 278.97C692.986 279.9 693.816 280.26 694.566 280.55C695.166 280.77 695.816 281.02 695.816 281.57C695.816 282.05 695.456 282.43 694.736 282.43C694.086 282.43 693.606 282.16 693.136 281.78L692.686 282.39C693.196 282.81 693.946 283.14 694.716 283.14ZM698.474 283H699.384V277.57H698.474V283ZM698.934 276.45C699.284 276.45 699.544 276.22 699.544 275.84C699.544 275.49 699.284 275.26 698.934 275.26C698.574 275.26 698.324 275.49 698.324 275.84C698.324 276.22 698.574 276.45 698.934 276.45ZM703.428 283.14C703.768 283.14 704.128 283.04 704.428 282.93L704.248 282.25C704.078 282.32 703.828 282.4 703.638 282.4C703.008 282.4 702.798 282.01 702.798 281.35V278.31H704.268V277.57H702.798V276.04H702.028L701.928 277.57L701.078 277.63V278.31H701.888V281.33C701.888 282.41 702.268 283.14 703.428 283.14ZM708.011 283.14C708.751 283.14 709.321 282.89 709.801 282.58L709.471 281.97C709.071 282.24 708.641 282.41 708.121 282.41C707.081 282.41 706.381 281.66 706.311 280.51H709.971C710.001 280.37 710.011 280.18 710.011 279.99C710.011 278.43 709.231 277.44 707.851 277.44C706.601 277.44 705.411 278.53 705.411 280.3C705.411 282.08 706.561 283.14 708.011 283.14ZM706.301 279.85C706.421 278.78 707.101 278.17 707.861 278.17C708.721 278.17 709.211 278.76 709.211 279.85H706.301Z" fill="#7C7C7C"/>
</g>
<defs>
<filter id="filter0_d_672_5881" x="406.783" y="152.543" width="22.3315" height="14.5143" filterUnits="userSpaceOnUse" color-interpolation-filters="sRGB">
<feFlood flood-opacity="0" result="BackgroundImageFix"/>
<feColorMatrix in="SourceAlpha" type="matrix" values="0 0 0 0 0 0 0 0 0 0 0 0 0 0 0 0 0 0 127 0" result="hardAlpha"/>
<feOffset/>
<feGaussianBlur stdDeviation="2"/>
<feComposite in2="hardAlpha" operator="out"/>
<feColorMatrix type="matrix" values="0 0 0 0 0.788235 0 0 0 0 0.964706 0 0 0 0 0.945098 0 0 0 1 0"/>
<feBlend mode="normal" in2="BackgroundImageFix" result="effect1_dropShadow_672_5881"/>
<feBlend mode="normal" in="SourceGraphic" in2="effect1_dropShadow_672_5881" result="shape"/>
</filter>
<filter id="filter1_d_672_5881" x="33.5144" y="159.057" width="120.371" height="43.8286" filterUnits="userSpaceOnUse" color-interpolation-filters="sRGB">
<feFlood flood-opacity="0" result="BackgroundImageFix"/>
<feColorMatrix in="SourceAlpha" type="matrix" values="0 0 0 0 0 0 0 0 0 0 0 0 0 0 0 0 0 0 127 0" result="hardAlpha"/>
<feOffset/>
<feGaussianBlur stdDeviation="2"/>
<feComposite in2="hardAlpha" operator="out"/>
<feColorMatrix type="matrix" values="0 0 0 0 0.788235 0 0 0 0 0.964706 0 0 0 0 0.945098 0 0 0 1 0"/>
<feBlend mode="normal" in2="BackgroundImageFix" result="effect1_dropShadow_672_5881"/>
<feBlend mode="normal" in="SourceGraphic" in2="effect1_dropShadow_672_5881" result="shape"/>
</filter>
<filter id="filter2_d_672_5881" x="585.6" y="74.3715" width="131.771" height="180.629" filterUnits="userSpaceOnUse" color-interpolation-filters="sRGB">
<feFlood flood-opacity="0" result="BackgroundImageFix"/>
<feColorMatrix in="SourceAlpha" type="matrix" values="0 0 0 0 0 0 0 0 0 0 0 0 0 0 0 0 0 0 127 0" result="hardAlpha"/>
<feOffset/>
<feGaussianBlur stdDeviation="2"/>
<feComposite in2="hardAlpha" operator="out"/>
<feColorMatrix type="matrix" values="0 0 0 0 0.788235 0 0 0 0 0.964706 0 0 0 0 0.945098 0 0 0 1 0"/>
<feBlend mode="normal" in2="BackgroundImageFix" result="effect1_dropShadow_672_5881"/>
<feBlend mode="normal" in="SourceGraphic" in2="effect1_dropShadow_672_5881" result="shape"/>
</filter>
<clipPath id="clip0_672_5881">
<rect width="744" height="287" fill="white"/>
</clipPath>
</defs>
</svg>
