<svg width="744" height="279" viewBox="0 0 744 279" fill="none" xmlns="http://www.w3.org/2000/svg">
<g clip-path="url(#clip0_672_5881)">
<rect width="744" height="279" fill="white"/>
<rect x="597.743" y="42.8286" width="107.486" height="11.4" fill="#E0E0E0"/>
<rect x="597.743" y="70.5143" width="61.9259" height="35.1852" fill="#E0E0E0"/>
<rect x="664.026" y="70.5143" width="41.2029" height="9.77143" fill="#E0E0E0"/>
<rect x="664.026" y="83.5428" width="10.7486" height="3.25714" fill="#E0E0E0"/>
<rect x="597.743" y="57.4857" width="10.7486" height="3.25714" fill="#E0E0E0"/>
<rect x="612.074" y="57.4857" width="10.7486" height="3.25714" fill="#E0E0E0"/>
<rect x="626.406" y="57.4857" width="10.7486" height="3.25714" fill="#E0E0E0"/>
<rect x="678.357" y="83.5428" width="16.1229" height="3.25714" fill="#E0E0E0"/>
<rect x="664.026" y="88.4286" width="10.7486" height="3.25714" fill="#E0E0E0"/>
<rect x="678.357" y="88.4286" width="16.1229" height="3.25714" fill="#E0E0E0"/>
<rect x="664.026" y="93.3143" width="10.7486" height="3.25714" fill="#E0E0E0"/>
<rect x="678.357" y="93.3143" width="16.1229" height="3.25714" fill="#E0E0E0"/>
<rect x="690.897" y="99.8286" width="14.3314" height="6.51429" rx="1" fill="#E0E0E0"/>
<path d="M697.086 16.7715L703.6 23.2858" stroke="#E0E0E0"/>
<path d="M697.086 23.2858L703.6 16.7715" stroke="#E0E0E0"/>
<path d="M591.229 30.6143H711.743" stroke="#E0E0E0"/>
<rect x="590.1" y="7.5" width="122.771" height="227" stroke="#D9D9D9"/>
<rect x="317.628" y="42.8286" width="107.486" height="11.4" fill="#C9F6F1"/>
<rect x="317.628" y="70.5143" width="61.9259" height="35.1852" fill="#C9F6F1"/>
<rect x="383.912" y="70.5143" width="41.2029" height="9.77143" fill="#C9F6F1"/>
<rect x="383.912" y="83.5428" width="10.7486" height="3.25714" fill="#C9F6F1"/>
<rect x="317.628" y="57.4857" width="10.7486" height="3.25714" fill="#C9F6F1"/>
<rect x="331.959" y="57.4857" width="10.7486" height="3.25714" fill="#C9F6F1"/>
<rect x="346.292" y="57.4857" width="10.7486" height="3.25714" fill="#C9F6F1"/>
<rect x="398.243" y="83.5428" width="16.1229" height="3.25714" fill="#C9F6F1"/>
<rect x="383.912" y="88.4286" width="10.7486" height="3.25714" fill="#C9F6F1"/>
<rect x="398.243" y="88.4286" width="16.1229" height="3.25714" fill="#C9F6F1"/>
<rect x="383.912" y="93.3143" width="10.7486" height="3.25714" fill="#C9F6F1"/>
<rect x="398.243" y="93.3143" width="16.1229" height="3.25714" fill="#C9F6F1"/>
<rect x="410.783" y="99.8286" width="14.3314" height="6.51429" rx="1" fill="#C9F6F1"/>
<rect x="317.628" y="111.229" width="61.9259" height="35.1852" fill="#C9F6F1"/>
<rect x="383.912" y="111.229" width="41.2029" height="9.77143" fill="#C9F6F1"/>
<rect x="383.912" y="124.257" width="10.7486" height="3.25714" fill="#C9F6F1"/>
<rect x="398.243" y="124.257" width="16.1229" height="3.25714" fill="#C9F6F1"/>
<rect x="383.912" y="129.143" width="10.7486" height="3.25714" fill="#C9F6F1"/>
<rect x="398.243" y="129.143" width="16.1229" height="3.25714" fill="#C9F6F1"/>
<rect x="383.912" y="134.029" width="10.7486" height="3.25714" fill="#C9F6F1"/>
<rect x="398.243" y="134.029" width="16.1229" height="3.25714" fill="#C9F6F1"/>
<g filter="url(#filter0_d_672_5881)">
<rect x="411.033" y="140.793" width="13.8314" height="6.01429" rx="0.75" stroke="#C9F6F1" stroke-width="0.5" shape-rendering="crispEdges"/>
</g>
<rect x="317.628" y="151.943" width="61.9259" height="35.1852" fill="#C9F6F1"/>
<rect x="383.912" y="151.943" width="41.2029" height="9.77143" fill="#C9F6F1"/>
<rect x="383.912" y="164.971" width="10.7486" height="3.25714" fill="#C9F6F1"/>
<rect x="398.243" y="164.971" width="16.1229" height="3.25714" fill="#C9F6F1"/>
<rect x="383.912" y="169.857" width="10.7486" height="3.25714" fill="#C9F6F1"/>
<rect x="398.243" y="169.857" width="16.1229" height="3.25714" fill="#C9F6F1"/>
<rect x="383.912" y="174.743" width="10.7486" height="3.25714" fill="#C9F6F1"/>
<rect x="398.243" y="174.743" width="16.1229" height="3.25714" fill="#C9F6F1"/>
<rect x="410.783" y="181.257" width="14.3314" height="6.51429" rx="1" fill="#C9F6F1"/>
<rect x="317.628" y="192.657" width="61.9259" height="35.1852" fill="#C9F6F1"/>
<rect x="383.912" y="192.657" width="41.2029" height="9.77143" fill="#C9F6F1"/>
<rect x="383.912" y="205.686" width="10.7486" height="3.25714" fill="#C9F6F1"/>
<rect x="398.243" y="205.686" width="16.1229" height="3.25714" fill="#C9F6F1"/>
<rect x="383.912" y="210.571" width="10.7486" height="3.25714" fill="#C9F6F1"/>
<rect x="398.243" y="210.571" width="16.1229" height="3.25714" fill="#C9F6F1"/>
<rect x="383.912" y="215.457" width="10.7486" height="3.25714" fill="#C9F6F1"/>
<rect x="398.243" y="215.457" width="16.1229" height="3.25714" fill="#C9F6F1"/>
<rect x="410.783" y="221.971" width="14.3314" height="6.51429" rx="1" fill="#C9F6F1"/>
<g filter="url(#filter1_d_672_5881)">
<rect x="37.5144" y="147.057" width="112.371" height="35.8286" fill="white"/>
<rect x="38.0144" y="147.557" width="111.371" height="34.8286" stroke="#C9F6F1"/>
</g>
<rect x="50.543" y="15.1428" width="30.9429" height="8.14286" fill="#E0E0E0"/>
<rect x="141.743" y="15.1428" width="6.51429" height="8.14286" fill="#E0E0E0"/>
<rect x="133.6" y="15.1428" width="6.51429" height="8.14286" fill="#E0E0E0"/>
<rect x="125.457" y="15.1428" width="6.51429" height="8.14286" fill="#E0E0E0"/>
<rect x="36.7" y="188.556" width="35.1852" height="40.8148" fill="#E0E0E0"/>
<rect x="115.515" y="188.556" width="35.1852" height="40.8148" fill="#E0E0E0"/>
<rect x="76.1069" y="188.556" width="35.1852" height="40.8148" fill="#E0E0E0"/>
<path d="M44.0286 15.1428L40.7715 19.2143L44.0286 23.2857" stroke="#E0E0E0"/>
<path d="M32.6287 30.6143H153.143" stroke="#E0E0E0"/>
<rect x="31.5" y="7.5" width="122.771" height="227" stroke="#D9D9D9"/>
<path d="M416.971 16.7715L423.485 23.2858" stroke="#E0E0E0"/>
<path d="M416.971 23.2858L423.485 16.7715" stroke="#E0E0E0"/>
<path d="M311.114 30.6143H431.629" stroke="#E0E0E0"/>
<rect x="309.986" y="7.5" width="122.771" height="227" stroke="#D9D9D9"/>
<g filter="url(#filter2_d_672_5881)">
<rect x="589.6" y="62.3715" width="123.771" height="172.629" fill="white"/>
<rect x="590.1" y="62.8715" width="122.771" height="171.629" stroke="#C9F6F1"/>
</g>
<rect x="597.743" y="73.7715" width="105.857" height="50.4857" fill="#C9F6F1"/>
<rect x="597.743" y="132.4" width="74.9143" height="13.0286" fill="#C9F6F1"/>
<rect x="662.886" y="210.571" width="42.3429" height="16.2857" fill="#C9F6F1"/>
<rect x="641.714" y="210.571" width="17.9143" height="16.2857" fill="#C9F6F1"/>
<rect x="597.743" y="155.2" width="21.1714" height="8.14286" fill="#C9F6F1"/>
<rect x="622.171" y="155.2" width="42.3429" height="8.14286" fill="#C9F6F1"/>
<rect x="597.743" y="166.6" width="21.1714" height="8.14286" fill="#C9F6F1"/>
<rect x="597.743" y="178" width="17.9143" height="8.14286" fill="#C9F6F1"/>
<rect x="622.171" y="166.6" width="37.4571" height="8.14286" fill="#C9F6F1"/>
<rect x="618.914" y="178" width="35.8286" height="8.14286" fill="#C9F6F1"/>
<path d="M304.5 131.5L298.083 125.684L296.255 134.149L304.5 131.5ZM209 127L208.867 126.262L209 127ZM133.5 161.5C133.964 162.089 133.964 162.089 133.964 162.089C133.964 162.089 133.965 162.089 133.965 162.088C133.966 162.088 133.967 162.086 133.969 162.085C133.973 162.082 133.979 162.077 133.987 162.071C134.003 162.059 134.027 162.04 134.06 162.014C134.125 161.964 134.223 161.889 134.352 161.789C134.611 161.591 134.998 161.299 135.505 160.923C136.52 160.172 138.018 159.089 139.944 157.766C143.797 155.119 149.363 151.512 156.21 147.674C169.91 139.994 188.703 131.411 209.133 127.738L208.867 126.262C188.212 129.975 169.256 138.642 155.477 146.365C148.584 150.229 142.978 153.862 139.095 156.53C137.153 157.864 135.641 158.957 134.613 159.718C134.099 160.098 133.706 160.395 133.441 160.598C133.308 160.699 133.208 160.777 133.14 160.83C133.106 160.856 133.08 160.876 133.063 160.89C133.054 160.896 133.048 160.902 133.043 160.905C133.041 160.907 133.039 160.908 133.038 160.909C133.037 160.91 133.037 160.91 133.037 160.91C133.036 160.911 133.036 160.911 133.5 161.5ZM209.133 127.738C243.846 121.498 282.578 127.785 297.757 130.811L298.05 129.34C282.836 126.307 243.872 119.969 208.867 126.262L209.133 127.738Z" fill="#F57C00"/>
<path d="M606 152L597.789 149.246L599.509 157.733L606 152ZM514 162.5L513.968 163.249L514 162.5ZM420 143C419.774 143.715 419.774 143.715 419.774 143.715C419.775 143.715 419.776 143.716 419.776 143.716C419.778 143.716 419.781 143.717 419.784 143.718C419.791 143.721 419.802 143.724 419.816 143.728C419.843 143.737 419.884 143.75 419.939 143.767C420.048 143.801 420.209 143.852 420.422 143.918C420.846 144.05 421.473 144.243 422.284 144.49C423.907 144.984 426.265 145.69 429.212 146.543C435.105 148.249 443.353 150.539 452.773 152.88C471.599 157.557 495.16 162.448 513.968 163.249L514.032 161.751C495.383 160.957 471.944 156.097 453.135 151.424C443.737 149.089 435.508 146.804 429.629 145.102C426.689 144.251 424.337 143.547 422.721 143.055C421.913 142.809 421.289 142.616 420.867 142.485C420.656 142.42 420.495 142.37 420.388 142.336C420.334 142.319 420.294 142.306 420.267 142.298C420.253 142.293 420.243 142.29 420.236 142.288C420.233 142.287 420.23 142.286 420.229 142.286C420.228 142.285 420.227 142.285 420.227 142.285C420.227 142.285 420.226 142.285 420 143ZM513.968 163.249C542.656 164.471 583.687 157.169 599.528 154.077L599.241 152.605C583.383 155.7 542.518 162.964 514.032 161.751L513.968 163.249Z" fill="#F57C00"/>
<path d="M20.203 252.168C21.355 252.168 22.255 251.712 22.963 250.884L22.207 250.008C21.691 250.584 21.067 250.944 20.263 250.944C18.703 250.944 17.719 249.66 17.719 247.56C17.719 245.496 18.775 244.224 20.299 244.224C21.019 244.224 21.571 244.548 22.027 245.016L22.771 244.116C22.231 243.54 21.379 243.012 20.275 243.012C18.043 243.012 16.279 244.728 16.279 247.608C16.279 250.512 17.995 252.168 20.203 252.168ZM24.9968 252H26.3888V247.32C26.9648 246.744 27.3848 246.432 27.9968 246.432C28.7648 246.432 29.1008 246.876 29.1008 248.028V252H30.4928V247.848C30.4928 246.18 29.8688 245.232 28.4648 245.232C27.5648 245.232 26.8928 245.724 26.3288 246.276L26.3888 244.968V242.448H24.9968V252ZM35.702 252.168C37.334 252.168 38.81 250.896 38.81 248.712C38.81 246.504 37.334 245.232 35.702 245.232C34.058 245.232 32.594 246.504 32.594 248.712C32.594 250.896 34.058 252.168 35.702 252.168ZM35.702 251.028C34.658 251.028 34.022 250.104 34.022 248.712C34.022 247.308 34.658 246.384 35.702 246.384C36.734 246.384 37.394 247.308 37.394 248.712C37.394 250.104 36.734 251.028 35.702 251.028ZM43.6848 252.168C45.3168 252.168 46.7928 250.896 46.7928 248.712C46.7928 246.504 45.3168 245.232 43.6848 245.232C42.0408 245.232 40.5768 246.504 40.5768 248.712C40.5768 250.896 42.0408 252.168 43.6848 252.168ZM43.6848 251.028C42.6408 251.028 42.0048 250.104 42.0048 248.712C42.0048 247.308 42.6408 246.384 43.6848 246.384C44.7168 246.384 45.3768 247.308 45.3768 248.712C45.3768 250.104 44.7168 251.028 43.6848 251.028ZM50.7336 252.168C52.3536 252.168 53.2296 251.268 53.2296 250.152C53.2296 248.916 52.2216 248.496 51.2976 248.148C50.5656 247.884 49.9296 247.668 49.9296 247.104C49.9296 246.648 50.2656 246.288 50.9976 246.288C51.5376 246.288 52.0056 246.54 52.4616 246.864L53.1096 246.012C52.5816 245.592 51.8496 245.232 50.9736 245.232C49.4976 245.232 48.6096 246.06 48.6096 247.164C48.6096 248.292 49.5816 248.76 50.4696 249.096C51.1776 249.36 51.9216 249.636 51.9216 250.224C51.9216 250.728 51.5496 251.112 50.7696 251.112C50.0496 251.112 49.4856 250.812 48.8976 250.356L48.2496 251.256C48.8856 251.784 49.8216 252.168 50.7336 252.168ZM58.0592 252.168C58.9232 252.168 59.6792 251.88 60.2912 251.472L59.8112 250.584C59.3192 250.896 58.8272 251.076 58.2392 251.076C57.0992 251.076 56.3072 250.332 56.1992 249.072H60.4832C60.5192 248.904 60.5432 248.64 60.5432 248.364C60.5432 246.492 59.5952 245.232 57.8552 245.232C56.3192 245.232 54.8432 246.564 54.8432 248.712C54.8432 250.884 56.2592 252.168 58.0592 252.168ZM56.1752 248.112C56.3192 246.96 57.0512 246.324 57.8792 246.324C58.8392 246.324 59.3432 246.972 59.3432 248.112H56.1752ZM66.2194 252H67.5994V244.572C67.5994 243.768 67.8994 243.384 68.4754 243.384C68.7154 243.384 68.9674 243.432 69.2074 243.552L69.4834 242.496C69.1834 242.376 68.7634 242.28 68.3074 242.28C66.8434 242.28 66.2194 243.228 66.2194 244.572V252ZM65.3194 246.504H68.9434V245.4H66.2914L65.3194 245.472V246.504ZM73.3123 252.168C74.1763 252.168 74.9323 251.88 75.5443 251.472L75.0643 250.584C74.5723 250.896 74.0803 251.076 73.4923 251.076C72.3523 251.076 71.5603 250.332 71.4523 249.072H75.7363C75.7723 248.904 75.7963 248.64 75.7963 248.364C75.7963 246.492 74.8483 245.232 73.1083 245.232C71.5723 245.232 70.0963 246.564 70.0963 248.712C70.0963 250.884 71.5123 252.168 73.3123 252.168ZM71.4283 248.112C71.5723 246.96 72.3043 246.324 73.1323 246.324C74.0923 246.324 74.5963 246.972 74.5963 248.112H71.4283ZM79.2748 252.168C80.0668 252.168 80.7748 251.772 81.3748 251.256H81.4228L81.5308 252H82.6708V248.04C82.6708 246.276 81.9148 245.232 80.2708 245.232C79.2148 245.232 78.2788 245.676 77.6068 246.096L78.1228 247.044C78.6748 246.684 79.3348 246.36 80.0308 246.36C80.9908 246.36 81.2668 247.032 81.2788 247.8C78.5428 248.1 77.3428 248.832 77.3428 250.248C77.3428 251.412 78.1468 252.168 79.2748 252.168ZM79.7068 251.064C79.1188 251.064 78.6748 250.8 78.6748 250.152C78.6748 249.408 79.3228 248.916 81.2788 248.688V250.296C80.7388 250.8 80.2828 251.064 79.7068 251.064ZM87.1911 252.168C87.6831 252.168 88.1271 252.036 88.4991 251.916L88.2471 250.896C88.0431 250.98 87.7671 251.064 87.5391 251.064C86.8551 251.064 86.5671 250.644 86.5671 249.864V246.504H88.2951V245.4H86.5671V243.576H85.4151L85.2591 245.4L84.2271 245.472V246.504H85.1871V249.852C85.1871 251.232 85.7151 252.168 87.1911 252.168ZM92.2729 252.168C93.1849 252.168 93.8209 251.7 94.4209 251.004H94.4569L94.5649 252H95.7049V245.4H94.3249V249.984C93.7729 250.68 93.3529 250.968 92.7409 250.968C91.9609 250.968 91.6249 250.524 91.6249 249.384V245.4H90.2449V249.552C90.2449 251.232 90.8689 252.168 92.2729 252.168ZM98.3703 252H99.7623V247.896C100.17 246.852 100.818 246.468 101.346 246.468C101.622 246.468 101.79 246.504 102.018 246.576L102.258 245.376C102.054 245.28 101.85 245.232 101.526 245.232C100.818 245.232 100.122 245.736 99.6543 246.588H99.6183L99.4983 245.4H98.3703V252ZM106.453 252.168C107.317 252.168 108.073 251.88 108.685 251.472L108.205 250.584C107.713 250.896 107.221 251.076 106.633 251.076C105.493 251.076 104.701 250.332 104.593 249.072H108.877C108.913 248.904 108.937 248.64 108.937 248.364C108.937 246.492 107.989 245.232 106.249 245.232C104.713 245.232 103.237 246.564 103.237 248.712C103.237 250.884 104.653 252.168 106.453 252.168ZM104.569 248.112C104.713 246.96 105.445 246.324 106.273 246.324C107.233 246.324 107.737 246.972 107.737 248.112H104.569ZM114.697 254.76C116.089 254.76 116.785 253.812 117.301 252.408L119.725 245.4H118.381L117.313 248.796C117.145 249.408 116.965 250.056 116.809 250.668H116.749C116.533 250.044 116.341 249.384 116.137 248.796L114.925 245.4H113.509L116.125 251.952L115.993 252.408C115.753 253.116 115.321 253.644 114.613 253.644C114.445 253.644 114.253 253.596 114.133 253.548L113.869 254.628C114.097 254.712 114.361 254.76 114.697 254.76ZM124.047 252.168C125.679 252.168 127.155 250.896 127.155 248.712C127.155 246.504 125.679 245.232 124.047 245.232C122.403 245.232 120.939 246.504 120.939 248.712C120.939 250.896 122.403 252.168 124.047 252.168ZM124.047 251.028C123.003 251.028 122.367 250.104 122.367 248.712C122.367 247.308 123.003 246.384 124.047 246.384C125.079 246.384 125.739 247.308 125.739 248.712C125.739 250.104 125.079 251.028 124.047 251.028ZM131.322 252.168C132.234 252.168 132.87 251.7 133.47 251.004H133.506L133.614 252H134.754V245.4H133.374V249.984C132.822 250.68 132.402 250.968 131.79 250.968C131.01 250.968 130.674 250.524 130.674 249.384V245.4H129.294V249.552C129.294 251.232 129.918 252.168 131.322 252.168ZM141.783 252H143.379L144.195 248.76C144.351 248.136 144.471 247.524 144.603 246.828H144.663C144.807 247.524 144.927 248.124 145.083 248.748L145.923 252H147.579L149.295 245.4H147.987L147.147 248.976C147.003 249.612 146.895 250.224 146.763 250.848H146.715C146.559 250.224 146.427 249.612 146.271 248.976L145.323 245.4H144.039L143.115 248.976C142.947 249.6 142.815 250.224 142.683 250.848H142.623C142.503 250.224 142.395 249.612 142.275 248.976L141.399 245.4H140.007L141.783 252ZM152.637 252.168C153.429 252.168 154.137 251.772 154.737 251.256H154.785L154.893 252H156.033V248.04C156.033 246.276 155.277 245.232 153.633 245.232C152.577 245.232 151.641 245.676 150.969 246.096L151.485 247.044C152.037 246.684 152.697 246.36 153.393 246.36C154.353 246.36 154.629 247.032 154.641 247.8C151.905 248.1 150.705 248.832 150.705 250.248C150.705 251.412 151.509 252.168 152.637 252.168ZM153.069 251.064C152.481 251.064 152.037 250.8 152.037 250.152C152.037 249.408 152.685 248.916 154.641 248.688V250.296C154.101 250.8 153.645 251.064 153.069 251.064ZM158.579 252H159.971V247.32C160.547 246.744 160.967 246.432 161.579 246.432C162.347 246.432 162.683 246.876 162.683 248.028V252H164.075V247.848C164.075 246.18 163.451 245.232 162.047 245.232C161.147 245.232 160.463 245.724 159.863 246.324H159.827L159.707 245.4H158.579V252ZM168.887 252.168C169.379 252.168 169.823 252.036 170.195 251.916L169.943 250.896C169.739 250.98 169.463 251.064 169.235 251.064C168.551 251.064 168.263 250.644 168.263 249.864V246.504H169.991V245.4H168.263V243.576H167.111L166.955 245.4L165.923 245.472V246.504H166.883V249.852C166.883 251.232 167.411 252.168 168.887 252.168ZM73.96 267H78.09V266.22H74.89V259.67H73.96V267ZM79.8896 267H80.8196V259.67H79.8896V267ZM83.3193 267H84.1993V263.16C84.1993 262.38 84.1293 261.61 84.0793 260.87H84.1293L84.9193 262.38L87.5793 267H88.5393V259.67H87.6493V263.48C87.6493 264.24 87.7193 265.07 87.7793 265.81H87.7293L86.9393 264.29L84.2693 259.67H83.3193V267ZM91.0459 267H95.3759V266.22H91.9759V263.54H94.7459V262.75H91.9759V260.45H95.2659V259.67H91.0459V267ZM102.881 267.14C104.721 267.14 106.001 265.66 106.001 263.31C106.001 260.97 104.721 259.54 102.881 259.54C101.031 259.54 99.7509 260.96 99.7509 263.31C99.7509 265.66 101.031 267.14 102.881 267.14ZM102.881 266.32C101.561 266.32 100.701 265.14 100.701 263.31C100.701 261.48 101.561 260.35 102.881 260.35C104.191 260.35 105.061 261.48 105.061 263.31C105.061 265.14 104.191 266.32 102.881 266.32ZM106.986 267H107.926L109.216 262.9C109.486 262.08 109.716 261.28 109.956 260.43H109.996C110.236 261.28 110.466 262.08 110.726 262.9L112.016 267H112.986L110.506 259.67H109.466L106.986 267ZM108.286 264.76H111.666V264.03H108.286V264.76Z" fill="#7C7C7C"/>
<path d="M293.127 252H294.459V247.848C294.459 246.876 294.339 245.868 294.279 244.944H294.339L295.263 246.804L298.179 252H299.619V243.168H298.287V247.296C298.287 248.244 298.395 249.324 298.479 250.224H298.419L297.495 248.364L294.555 243.168H293.127V252ZM305.179 252.168C306.043 252.168 306.799 251.88 307.411 251.472L306.931 250.584C306.439 250.896 305.947 251.076 305.359 251.076C304.219 251.076 303.427 250.332 303.319 249.072H307.603C307.639 248.904 307.663 248.64 307.663 248.364C307.663 246.492 306.715 245.232 304.975 245.232C303.439 245.232 301.963 246.564 301.963 248.712C301.963 250.884 303.379 252.168 305.179 252.168ZM303.295 248.112C303.439 246.96 304.171 246.324 304.999 246.324C305.959 246.324 306.463 246.972 306.463 248.112H303.295ZM308.788 252H310.24L310.996 250.608C311.212 250.212 311.404 249.816 311.62 249.444H311.68C311.908 249.816 312.148 250.212 312.364 250.608L313.228 252H314.728L312.604 248.712L314.572 245.4H313.132L312.448 246.72C312.256 247.104 312.076 247.464 311.896 247.836H311.848C311.632 247.464 311.416 247.104 311.224 246.72L310.432 245.4H308.944L310.912 248.568L308.788 252ZM318.39 252.168C318.882 252.168 319.326 252.036 319.698 251.916L319.446 250.896C319.242 250.98 318.966 251.064 318.738 251.064C318.054 251.064 317.766 250.644 317.766 249.864V246.504H319.494V245.4H317.766V243.576H316.614L316.458 245.4L315.426 245.472V246.504H316.386V249.852C316.386 251.232 316.914 252.168 318.39 252.168ZM326.623 252.168C328.243 252.168 329.119 251.268 329.119 250.152C329.119 248.916 328.111 248.496 327.187 248.148C326.455 247.884 325.819 247.668 325.819 247.104C325.819 246.648 326.155 246.288 326.887 246.288C327.427 246.288 327.895 246.54 328.351 246.864L328.999 246.012C328.471 245.592 327.739 245.232 326.863 245.232C325.387 245.232 324.499 246.06 324.499 247.164C324.499 248.292 325.471 248.76 326.359 249.096C327.067 249.36 327.811 249.636 327.811 250.224C327.811 250.728 327.439 251.112 326.659 251.112C325.939 251.112 325.375 250.812 324.787 250.356L324.139 251.256C324.775 251.784 325.711 252.168 326.623 252.168ZM333.081 252.168C333.573 252.168 334.017 252.036 334.389 251.916L334.137 250.896C333.933 250.98 333.657 251.064 333.429 251.064C332.745 251.064 332.457 250.644 332.457 249.864V246.504H334.185V245.4H332.457V243.576H331.305L331.149 245.4L330.117 245.472V246.504H331.077V249.852C331.077 251.232 331.605 252.168 333.081 252.168ZM338.732 252.168C339.596 252.168 340.352 251.88 340.964 251.472L340.484 250.584C339.992 250.896 339.5 251.076 338.912 251.076C337.772 251.076 336.98 250.332 336.872 249.072H341.156C341.192 248.904 341.216 248.64 341.216 248.364C341.216 246.492 340.268 245.232 338.528 245.232C336.992 245.232 335.516 246.564 335.516 248.712C335.516 250.884 336.932 252.168 338.732 252.168ZM336.848 248.112C336.992 246.96 337.724 246.324 338.552 246.324C339.512 246.324 340.016 246.972 340.016 248.112H336.848ZM343.369 254.676H344.761V252.54L344.713 251.424C345.265 251.904 345.865 252.168 346.453 252.168C347.941 252.168 349.297 250.86 349.297 248.604C349.297 246.564 348.349 245.232 346.681 245.232C345.937 245.232 345.229 245.64 344.653 246.132H344.617L344.497 245.4H343.369V254.676ZM346.189 251.016C345.781 251.016 345.277 250.86 344.761 250.416V247.188C345.313 246.66 345.805 246.384 346.309 246.384C347.413 246.384 347.869 247.236 347.869 248.616C347.869 250.164 347.137 251.016 346.189 251.016ZM353.246 252.168C354.866 252.168 355.742 251.268 355.742 250.152C355.742 248.916 354.734 248.496 353.81 248.148C353.078 247.884 352.442 247.668 352.442 247.104C352.442 246.648 352.778 246.288 353.51 246.288C354.05 246.288 354.518 246.54 354.974 246.864L355.622 246.012C355.094 245.592 354.362 245.232 353.486 245.232C352.01 245.232 351.122 246.06 351.122 247.164C351.122 248.292 352.094 248.76 352.982 249.096C353.69 249.36 354.434 249.636 354.434 250.224C354.434 250.728 354.062 251.112 353.282 251.112C352.562 251.112 351.998 250.812 351.41 250.356L350.762 251.256C351.398 251.784 352.334 252.168 353.246 252.168ZM361.335 252H362.715V244.572C362.715 243.768 363.015 243.384 363.591 243.384C363.831 243.384 364.083 243.432 364.323 243.552L364.599 242.496C364.299 242.376 363.879 242.28 363.423 242.28C361.959 242.28 361.335 243.228 361.335 244.572V252ZM360.435 246.504H364.059V245.4H361.407L360.435 245.472V246.504ZM368.32 252.168C369.952 252.168 371.428 250.896 371.428 248.712C371.428 246.504 369.952 245.232 368.32 245.232C366.676 245.232 365.212 246.504 365.212 248.712C365.212 250.896 366.676 252.168 368.32 252.168ZM368.32 251.028C367.276 251.028 366.64 250.104 366.64 248.712C366.64 247.308 367.276 246.384 368.32 246.384C369.352 246.384 370.012 247.308 370.012 248.712C370.012 250.104 369.352 251.028 368.32 251.028ZM373.65 252H375.042V247.896C375.45 246.852 376.098 246.468 376.626 246.468C376.902 246.468 377.07 246.504 377.298 246.576L377.538 245.376C377.334 245.28 377.13 245.232 376.806 245.232C376.098 245.232 375.402 245.736 374.934 246.588H374.898L374.778 245.4H373.65V252ZM384.676 252.168C385.168 252.168 385.612 252.036 385.984 251.916L385.732 250.896C385.528 250.98 385.252 251.064 385.024 251.064C384.34 251.064 384.052 250.644 384.052 249.864V246.504H385.78V245.4H384.052V243.576H382.9L382.744 245.4L381.712 245.472V246.504H382.672V249.852C382.672 251.232 383.2 252.168 384.676 252.168ZM387.814 252H389.206V247.32C389.782 246.744 390.202 246.432 390.814 246.432C391.582 246.432 391.918 246.876 391.918 248.028V252H393.31V247.848C393.31 246.18 392.686 245.232 391.282 245.232C390.382 245.232 389.71 245.724 389.146 246.276L389.206 244.968V242.448H387.814V252ZM398.627 252.168C399.491 252.168 400.247 251.88 400.859 251.472L400.379 250.584C399.887 250.896 399.395 251.076 398.807 251.076C397.667 251.076 396.875 250.332 396.767 249.072H401.051C401.087 248.904 401.111 248.64 401.111 248.364C401.111 246.492 400.163 245.232 398.423 245.232C396.887 245.232 395.411 246.564 395.411 248.712C395.411 250.884 396.827 252.168 398.627 252.168ZM396.743 248.112C396.887 246.96 397.619 246.324 398.447 246.324C399.407 246.324 399.911 246.972 399.911 248.112H396.743ZM406.787 252H408.167V244.572C408.167 243.768 408.467 243.384 409.043 243.384C409.283 243.384 409.535 243.432 409.775 243.552L410.051 242.496C409.751 242.376 409.331 242.28 408.875 242.28C407.411 242.28 406.787 243.228 406.787 244.572V252ZM405.887 246.504H409.511V245.4H406.859L405.887 245.472V246.504ZM413.88 252.168C414.744 252.168 415.5 251.88 416.112 251.472L415.632 250.584C415.14 250.896 414.648 251.076 414.06 251.076C412.92 251.076 412.128 250.332 412.02 249.072H416.304C416.34 248.904 416.364 248.64 416.364 248.364C416.364 246.492 415.416 245.232 413.676 245.232C412.14 245.232 410.664 246.564 410.664 248.712C410.664 250.884 412.08 252.168 413.88 252.168ZM411.996 248.112C412.14 246.96 412.872 246.324 413.7 246.324C414.66 246.324 415.164 246.972 415.164 248.112H411.996ZM419.842 252.168C420.634 252.168 421.342 251.772 421.942 251.256H421.99L422.098 252H423.238V248.04C423.238 246.276 422.482 245.232 420.838 245.232C419.782 245.232 418.846 245.676 418.174 246.096L418.69 247.044C419.242 246.684 419.902 246.36 420.598 246.36C421.558 246.36 421.834 247.032 421.846 247.8C419.11 248.1 417.91 248.832 417.91 250.248C417.91 251.412 418.714 252.168 419.842 252.168ZM420.274 251.064C419.686 251.064 419.242 250.8 419.242 250.152C419.242 249.408 419.89 248.916 421.846 248.688V250.296C421.306 250.8 420.85 251.064 420.274 251.064ZM427.759 252.168C428.251 252.168 428.695 252.036 429.067 251.916L428.815 250.896C428.611 250.98 428.335 251.064 428.107 251.064C427.423 251.064 427.135 250.644 427.135 249.864V246.504H428.863V245.4H427.135V243.576H425.983L425.827 245.4L424.795 245.472V246.504H425.755V249.852C425.755 251.232 426.283 252.168 427.759 252.168ZM432.84 252.168C433.752 252.168 434.388 251.7 434.988 251.004H435.024L435.132 252H436.272V245.4H434.892V249.984C434.34 250.68 433.92 250.968 433.308 250.968C432.528 250.968 432.192 250.524 432.192 249.384V245.4H430.812V249.552C430.812 251.232 431.436 252.168 432.84 252.168ZM438.938 252H440.33V247.896C440.738 246.852 441.386 246.468 441.914 246.468C442.19 246.468 442.358 246.504 442.586 246.576L442.826 245.376C442.622 245.28 442.418 245.232 442.094 245.232C441.386 245.232 440.69 245.736 440.222 246.588H440.186L440.066 245.4H438.938V252ZM447.021 252.168C447.885 252.168 448.641 251.88 449.253 251.472L448.773 250.584C448.281 250.896 447.789 251.076 447.201 251.076C446.061 251.076 445.269 250.332 445.161 249.072H449.445C449.481 248.904 449.505 248.64 449.505 248.364C449.505 246.492 448.557 245.232 446.817 245.232C445.281 245.232 443.805 246.564 443.805 248.712C443.805 250.884 445.221 252.168 447.021 252.168ZM445.137 248.112C445.281 246.96 446.013 246.324 446.841 246.324C447.801 246.324 448.305 246.972 448.305 248.112H445.137ZM316.562 267H320.692V266.22H317.492V259.67H316.562V267ZM322.491 267H323.421V259.67H322.491V267ZM325.921 267H326.801V263.16C326.801 262.38 326.731 261.61 326.681 260.87H326.731L327.521 262.38L330.181 267H331.141V259.67H330.251V263.48C330.251 264.24 330.321 265.07 330.381 265.81H330.331L329.541 264.29L326.871 259.67H325.921V267ZM333.647 267H337.977V266.22H334.577V263.54H337.347V262.75H334.577V260.45H337.867V259.67H333.647V267ZM342.772 267H345.112C346.742 267 347.882 266.29 347.882 264.86C347.882 263.86 347.272 263.27 346.392 263.1V263.06C347.082 262.83 347.462 262.19 347.462 261.47C347.462 260.18 346.432 259.67 344.942 259.67H342.772V267ZM343.702 262.79V260.4H344.832C345.972 260.4 346.552 260.72 346.552 261.58C346.552 262.33 346.042 262.79 344.782 262.79H343.702ZM343.702 266.27V263.5H344.982C346.262 263.5 346.982 263.92 346.982 264.83C346.982 265.82 346.232 266.27 344.982 266.27H343.702ZM349.765 267H350.675V263.52C351.035 262.59 351.595 262.26 352.045 262.26C352.265 262.26 352.385 262.29 352.575 262.35L352.745 261.55C352.565 261.47 352.405 261.44 352.165 261.44C351.555 261.44 350.995 261.87 350.625 262.56H350.595L350.505 261.57H349.765V267ZM356.115 267.14C357.445 267.14 358.625 266.09 358.625 264.3C358.625 262.48 357.445 261.44 356.115 261.44C354.775 261.44 353.595 262.48 353.595 264.3C353.595 266.09 354.775 267.14 356.115 267.14ZM356.115 266.38C355.165 266.38 354.535 265.54 354.535 264.3C354.535 263.04 355.165 262.2 356.115 262.2C357.055 262.2 357.685 263.04 357.685 264.3C357.685 265.54 357.055 266.38 356.115 266.38ZM361.361 267H362.421L363.181 264.09C363.331 263.57 363.441 263.07 363.551 262.51H363.601C363.731 263.07 363.831 263.56 363.971 264.08L364.761 267H365.871L367.331 261.57H366.461L365.671 264.72C365.541 265.24 365.441 265.72 365.331 266.23H365.291C365.161 265.72 365.041 265.24 364.911 264.72L364.051 261.57H363.161L362.321 264.72C362.181 265.23 362.071 265.72 361.951 266.23H361.901C361.801 265.72 361.701 265.24 361.591 264.72L360.771 261.57H359.841L361.361 267ZM370.439 267.14C371.719 267.14 372.409 266.41 372.409 265.52C372.409 264.49 371.549 264.17 370.759 263.87C370.139 263.65 369.589 263.45 369.589 262.93C369.589 262.51 369.899 262.15 370.589 262.15C371.069 262.15 371.459 262.36 371.829 262.63L372.269 262.05C371.849 261.71 371.249 261.44 370.579 261.44C369.399 261.44 368.709 262.11 368.709 262.97C368.709 263.9 369.539 264.26 370.289 264.55C370.889 264.77 371.539 265.02 371.539 265.57C371.539 266.05 371.179 266.43 370.459 266.43C369.809 266.43 369.329 266.16 368.859 265.78L368.409 266.39C368.919 266.81 369.669 267.14 370.439 267.14ZM376.386 267.14C377.126 267.14 377.696 266.89 378.176 266.58L377.846 265.97C377.446 266.24 377.016 266.41 376.496 266.41C375.456 266.41 374.756 265.66 374.686 264.51H378.346C378.376 264.37 378.386 264.18 378.386 263.99C378.386 262.43 377.606 261.44 376.226 261.44C374.976 261.44 373.786 262.53 373.786 264.3C373.786 266.08 374.936 267.14 376.386 267.14ZM374.676 263.85C374.796 262.78 375.476 262.17 376.236 262.17C377.096 262.17 377.586 262.76 377.586 263.85H374.676ZM380.233 267H381.143V263.52C381.503 262.59 382.063 262.26 382.513 262.26C382.733 262.26 382.853 262.29 383.043 262.35L383.213 261.55C383.033 261.47 382.873 261.44 382.633 261.44C382.023 261.44 381.463 261.87 381.093 262.56H381.063L380.973 261.57H380.233V267ZM388.237 267H389.337L390.427 262.58C390.547 262.01 390.677 261.48 390.797 260.91H390.837C390.947 261.48 391.067 262.01 391.197 262.58L392.297 267H393.417L394.937 259.67H394.047L393.267 263.67C393.137 264.45 392.997 265.24 392.857 266.04H392.807C392.627 265.24 392.457 264.45 392.277 263.67L391.257 259.67H390.417L389.407 263.67C389.227 264.45 389.047 265.24 388.877 266.04H388.837C388.687 265.24 388.547 264.45 388.397 263.67L387.627 259.67H386.677L388.237 267ZM398.816 267.14C399.556 267.14 400.126 266.89 400.606 266.58L400.276 265.97C399.876 266.24 399.446 266.41 398.926 266.41C397.886 266.41 397.186 265.66 397.116 264.51H400.776C400.806 264.37 400.816 264.18 400.816 263.99C400.816 262.43 400.036 261.44 398.656 261.44C397.406 261.44 396.216 262.53 396.216 264.3C396.216 266.08 397.366 267.14 398.816 267.14ZM397.106 263.85C397.226 262.78 397.906 262.17 398.666 262.17C399.526 262.17 400.016 262.76 400.016 263.85H397.106ZM405.043 267.14C406.293 267.14 407.403 266.06 407.403 264.2C407.403 262.53 406.643 261.44 405.243 261.44C404.633 261.44 404.033 261.77 403.533 262.2L403.573 261.22V259.05H402.663V267H403.383L403.473 266.44H403.503C403.973 266.88 404.543 267.14 405.043 267.14ZM404.903 266.37C404.543 266.37 404.043 266.22 403.573 265.81V262.95C404.083 262.46 404.563 262.2 405.023 262.2C406.053 262.2 406.463 263.01 406.463 264.22C406.463 265.56 405.793 266.37 404.903 266.37ZM410.716 267.14C411.996 267.14 412.686 266.41 412.686 265.52C412.686 264.49 411.826 264.17 411.036 263.87C410.416 263.65 409.866 263.45 409.866 262.93C409.866 262.51 410.176 262.15 410.866 262.15C411.346 262.15 411.736 262.36 412.106 262.63L412.546 262.05C412.126 261.71 411.526 261.44 410.856 261.44C409.676 261.44 408.986 262.11 408.986 262.97C408.986 263.9 409.816 264.26 410.566 264.55C411.166 264.77 411.816 265.02 411.816 265.57C411.816 266.05 411.456 266.43 410.736 266.43C410.086 266.43 409.606 266.16 409.136 265.78L408.686 266.39C409.196 266.81 409.946 267.14 410.716 267.14ZM414.474 267H415.384V261.57H414.474V267ZM414.934 260.45C415.284 260.45 415.544 260.22 415.544 259.84C415.544 259.49 415.284 259.26 414.934 259.26C414.574 259.26 414.324 259.49 414.324 259.84C414.324 260.22 414.574 260.45 414.934 260.45ZM419.428 267.14C419.768 267.14 420.128 267.04 420.428 266.93L420.248 266.25C420.078 266.32 419.828 266.4 419.638 266.4C419.008 266.4 418.798 266.01 418.798 265.35V262.31H420.268V261.57H418.798V260.04H418.028L417.928 261.57L417.078 261.63V262.31H417.888V265.33C417.888 266.41 418.268 267.14 419.428 267.14ZM424.011 267.14C424.751 267.14 425.321 266.89 425.801 266.58L425.471 265.97C425.071 266.24 424.641 266.41 424.121 266.41C423.081 266.41 422.381 265.66 422.311 264.51H425.971C426.001 264.37 426.011 264.18 426.011 263.99C426.011 262.43 425.231 261.44 423.851 261.44C422.601 261.44 421.411 262.53 421.411 264.3C421.411 266.08 422.561 267.14 424.011 267.14ZM422.301 263.85C422.421 262.78 423.101 262.17 423.861 262.17C424.721 262.17 425.211 262.76 425.211 263.85H422.301Z" fill="#7C7C7C"/>
<path d="M590.52 252H591.924V248.208H595.188V247.032H591.924V244.344H595.764V243.168H590.52V252ZM597.797 252H599.189V245.4H597.797V252ZM598.493 244.164C598.997 244.164 599.357 243.84 599.357 243.336C599.357 242.844 598.997 242.52 598.493 242.52C597.977 242.52 597.641 242.844 597.641 243.336C597.641 243.84 597.977 244.164 598.493 244.164ZM601.854 252H603.246V247.32C603.822 246.744 604.242 246.432 604.854 246.432C605.622 246.432 605.958 246.876 605.958 248.028V252H607.35V247.848C607.35 246.18 606.726 245.232 605.322 245.232C604.422 245.232 603.738 245.724 603.138 246.324H603.102L602.982 245.4H601.854V252ZM609.942 252H611.334V245.4H609.942V252ZM610.638 244.164C611.142 244.164 611.502 243.84 611.502 243.336C611.502 242.844 611.142 242.52 610.638 242.52C610.122 242.52 609.786 242.844 609.786 243.336C609.786 243.84 610.122 244.164 610.638 244.164ZM615.799 252.168C617.419 252.168 618.295 251.268 618.295 250.152C618.295 248.916 617.287 248.496 616.363 248.148C615.631 247.884 614.995 247.668 614.995 247.104C614.995 246.648 615.331 246.288 616.063 246.288C616.603 246.288 617.071 246.54 617.527 246.864L618.175 246.012C617.647 245.592 616.915 245.232 616.039 245.232C614.563 245.232 613.675 246.06 613.675 247.164C613.675 248.292 614.647 248.76 615.535 249.096C616.243 249.36 616.987 249.636 616.987 250.224C616.987 250.728 616.615 251.112 615.835 251.112C615.115 251.112 614.551 250.812 613.963 250.356L613.315 251.256C613.951 251.784 614.887 252.168 615.799 252.168ZM620.365 252H621.757V247.32C622.333 246.744 622.753 246.432 623.365 246.432C624.133 246.432 624.469 246.876 624.469 248.028V252H625.861V247.848C625.861 246.18 625.237 245.232 623.833 245.232C622.933 245.232 622.261 245.724 621.697 246.276L621.757 244.968V242.448H620.365V252ZM631.941 252H633.321V244.572C633.321 243.768 633.621 243.384 634.197 243.384C634.437 243.384 634.689 243.432 634.929 243.552L635.205 242.496C634.905 242.376 634.485 242.28 634.029 242.28C632.565 242.28 631.941 243.228 631.941 244.572V252ZM631.041 246.504H634.665V245.4H632.013L631.041 245.472V246.504ZM638.926 252.168C640.558 252.168 642.034 250.896 642.034 248.712C642.034 246.504 640.558 245.232 638.926 245.232C637.282 245.232 635.818 246.504 635.818 248.712C635.818 250.896 637.282 252.168 638.926 252.168ZM638.926 251.028C637.882 251.028 637.246 250.104 637.246 248.712C637.246 247.308 637.882 246.384 638.926 246.384C639.958 246.384 640.618 247.308 640.618 248.712C640.618 250.104 639.958 251.028 638.926 251.028ZM644.257 252H645.649V247.896C646.057 246.852 646.705 246.468 647.233 246.468C647.509 246.468 647.677 246.504 647.905 246.576L648.145 245.376C647.941 245.28 647.737 245.232 647.413 245.232C646.705 245.232 646.009 245.736 645.541 246.588H645.505L645.385 245.4H644.257V252ZM655.282 252.168C655.774 252.168 656.218 252.036 656.59 251.916L656.338 250.896C656.134 250.98 655.858 251.064 655.63 251.064C654.946 251.064 654.658 250.644 654.658 249.864V246.504H656.386V245.4H654.658V243.576H653.506L653.35 245.4L652.318 245.472V246.504H653.278V249.852C653.278 251.232 653.806 252.168 655.282 252.168ZM658.42 252H659.812V247.32C660.388 246.744 660.808 246.432 661.42 246.432C662.188 246.432 662.524 246.876 662.524 248.028V252H663.916V247.848C663.916 246.18 663.292 245.232 661.888 245.232C660.988 245.232 660.316 245.724 659.752 246.276L659.812 244.968V242.448H658.42V252ZM669.233 252.168C670.097 252.168 670.853 251.88 671.465 251.472L670.985 250.584C670.493 250.896 670.001 251.076 669.413 251.076C668.273 251.076 667.481 250.332 667.373 249.072H671.657C671.693 248.904 671.717 248.64 671.717 248.364C671.717 246.492 670.769 245.232 669.029 245.232C667.493 245.232 666.017 246.564 666.017 248.712C666.017 250.884 667.433 252.168 669.233 252.168ZM667.349 248.112C667.493 246.96 668.225 246.324 669.053 246.324C670.013 246.324 670.517 246.972 670.517 248.112H667.349ZM677.394 252H678.774V244.572C678.774 243.768 679.074 243.384 679.65 243.384C679.89 243.384 680.142 243.432 680.382 243.552L680.658 242.496C680.358 242.376 679.938 242.28 679.482 242.28C678.018 242.28 677.394 243.228 677.394 244.572V252ZM676.494 246.504H680.118V245.4H677.466L676.494 245.472V246.504ZM684.487 252.168C685.351 252.168 686.107 251.88 686.719 251.472L686.239 250.584C685.747 250.896 685.255 251.076 684.667 251.076C683.527 251.076 682.735 250.332 682.627 249.072H686.911C686.947 248.904 686.971 248.64 686.971 248.364C686.971 246.492 686.023 245.232 684.283 245.232C682.747 245.232 681.271 246.564 681.271 248.712C681.271 250.884 682.687 252.168 684.487 252.168ZM682.603 248.112C682.747 246.96 683.479 246.324 684.307 246.324C685.267 246.324 685.771 246.972 685.771 248.112H682.603ZM690.449 252.168C691.241 252.168 691.949 251.772 692.549 251.256H692.597L692.705 252H693.845V248.04C693.845 246.276 693.089 245.232 691.445 245.232C690.389 245.232 689.453 245.676 688.781 246.096L689.297 247.044C689.849 246.684 690.509 246.36 691.205 246.36C692.165 246.36 692.441 247.032 692.453 247.8C689.717 248.1 688.517 248.832 688.517 250.248C688.517 251.412 689.321 252.168 690.449 252.168ZM690.881 251.064C690.293 251.064 689.849 250.8 689.849 250.152C689.849 249.408 690.497 248.916 692.453 248.688V250.296C691.913 250.8 691.457 251.064 690.881 251.064ZM698.365 252.168C698.857 252.168 699.301 252.036 699.673 251.916L699.421 250.896C699.217 250.98 698.941 251.064 698.713 251.064C698.029 251.064 697.741 250.644 697.741 249.864V246.504H699.469V245.4H697.741V243.576H696.589L696.433 245.4L695.401 245.472V246.504H696.361V249.852C696.361 251.232 696.889 252.168 698.365 252.168ZM703.447 252.168C704.359 252.168 704.995 251.7 705.595 251.004H705.631L705.739 252H706.879V245.4H705.499V249.984C704.947 250.68 704.527 250.968 703.915 250.968C703.135 250.968 702.799 250.524 702.799 249.384V245.4H701.419V249.552C701.419 251.232 702.043 252.168 703.447 252.168ZM709.544 252H710.936V247.896C711.344 246.852 711.992 246.468 712.52 246.468C712.796 246.468 712.964 246.504 713.192 246.576L713.432 245.376C713.228 245.28 713.024 245.232 712.7 245.232C711.992 245.232 711.296 245.736 710.828 246.588H710.792L710.672 245.4H709.544V252ZM717.627 252.168C718.491 252.168 719.247 251.88 719.859 251.472L719.379 250.584C718.887 250.896 718.395 251.076 717.807 251.076C716.667 251.076 715.875 250.332 715.767 249.072H720.051C720.087 248.904 720.111 248.64 720.111 248.364C720.111 246.492 719.163 245.232 717.423 245.232C715.887 245.232 714.411 246.564 714.411 248.712C714.411 250.884 715.827 252.168 717.627 252.168ZM715.743 248.112C715.887 246.96 716.619 246.324 717.447 246.324C718.407 246.324 718.911 246.972 718.911 248.112H715.743ZM600.562 267H604.692V266.22H601.492V259.67H600.562V267ZM606.491 267H607.421V259.67H606.491V267ZM609.921 267H610.801V263.16C610.801 262.38 610.731 261.61 610.681 260.87H610.731L611.521 262.38L614.181 267H615.141V259.67H614.251V263.48C614.251 264.24 614.321 265.07 614.381 265.81H614.331L613.541 264.29L610.871 259.67H609.921V267ZM617.647 267H621.977V266.22H618.577V263.54H621.347V262.75H618.577V260.45H621.867V259.67H617.647V267ZM626.772 267H629.112C630.742 267 631.882 266.29 631.882 264.86C631.882 263.86 631.272 263.27 630.392 263.1V263.06C631.082 262.83 631.462 262.19 631.462 261.47C631.462 260.18 630.432 259.67 628.942 259.67H626.772V267ZM627.702 262.79V260.4H628.832C629.972 260.4 630.552 260.72 630.552 261.58C630.552 262.33 630.042 262.79 628.782 262.79H627.702ZM627.702 266.27V263.5H628.982C630.262 263.5 630.982 263.92 630.982 264.83C630.982 265.82 630.232 266.27 628.982 266.27H627.702ZM633.765 267H634.675V263.52C635.035 262.59 635.595 262.26 636.045 262.26C636.265 262.26 636.385 262.29 636.575 262.35L636.745 261.55C636.565 261.47 636.405 261.44 636.165 261.44C635.555 261.44 634.995 261.87 634.625 262.56H634.595L634.505 261.57H633.765V267ZM640.115 267.14C641.445 267.14 642.625 266.09 642.625 264.3C642.625 262.48 641.445 261.44 640.115 261.44C638.775 261.44 637.595 262.48 637.595 264.3C637.595 266.09 638.775 267.14 640.115 267.14ZM640.115 266.38C639.165 266.38 638.535 265.54 638.535 264.3C638.535 263.04 639.165 262.2 640.115 262.2C641.055 262.2 641.685 263.04 641.685 264.3C641.685 265.54 641.055 266.38 640.115 266.38ZM645.361 267H646.421L647.181 264.09C647.331 263.57 647.441 263.07 647.551 262.51H647.601C647.731 263.07 647.831 263.56 647.971 264.08L648.761 267H649.871L651.331 261.57H650.461L649.671 264.72C649.541 265.24 649.441 265.72 649.331 266.23H649.291C649.161 265.72 649.041 265.24 648.911 264.72L648.051 261.57H647.161L646.321 264.72C646.181 265.23 646.071 265.72 645.951 266.23H645.901C645.801 265.72 645.701 265.24 645.591 264.72L644.771 261.57H643.841L645.361 267ZM654.439 267.14C655.719 267.14 656.409 266.41 656.409 265.52C656.409 264.49 655.549 264.17 654.759 263.87C654.139 263.65 653.589 263.45 653.589 262.93C653.589 262.51 653.899 262.15 654.589 262.15C655.069 262.15 655.459 262.36 655.829 262.63L656.269 262.05C655.849 261.71 655.249 261.44 654.579 261.44C653.399 261.44 652.709 262.11 652.709 262.97C652.709 263.9 653.539 264.26 654.289 264.55C654.889 264.77 655.539 265.02 655.539 265.57C655.539 266.05 655.179 266.43 654.459 266.43C653.809 266.43 653.329 266.16 652.859 265.78L652.409 266.39C652.919 266.81 653.669 267.14 654.439 267.14ZM660.386 267.14C661.126 267.14 661.696 266.89 662.176 266.58L661.846 265.97C661.446 266.24 661.016 266.41 660.496 266.41C659.456 266.41 658.756 265.66 658.686 264.51H662.346C662.376 264.37 662.386 264.18 662.386 263.99C662.386 262.43 661.606 261.44 660.226 261.44C658.976 261.44 657.786 262.53 657.786 264.3C657.786 266.08 658.936 267.14 660.386 267.14ZM658.676 263.85C658.796 262.78 659.476 262.17 660.236 262.17C661.096 262.17 661.586 262.76 661.586 263.85H658.676ZM664.233 267H665.143V263.52C665.503 262.59 666.063 262.26 666.513 262.26C666.733 262.26 666.853 262.29 667.043 262.35L667.213 261.55C667.033 261.47 666.873 261.44 666.633 261.44C666.023 261.44 665.463 261.87 665.093 262.56H665.063L664.973 261.57H664.233V267ZM672.237 267H673.337L674.427 262.58C674.547 262.01 674.677 261.48 674.797 260.91H674.837C674.947 261.48 675.067 262.01 675.197 262.58L676.297 267H677.417L678.937 259.67H678.047L677.267 263.67C677.137 264.45 676.997 265.24 676.857 266.04H676.807C676.627 265.24 676.457 264.45 676.277 263.67L675.257 259.67H674.417L673.407 263.67C673.227 264.45 673.047 265.24 672.877 266.04H672.837C672.687 265.24 672.547 264.45 672.397 263.67L671.627 259.67H670.677L672.237 267ZM682.816 267.14C683.556 267.14 684.126 266.89 684.606 266.58L684.276 265.97C683.876 266.24 683.446 266.41 682.926 266.41C681.886 266.41 681.186 265.66 681.116 264.51H684.776C684.806 264.37 684.816 264.18 684.816 263.99C684.816 262.43 684.036 261.44 682.656 261.44C681.406 261.44 680.216 262.53 680.216 264.3C680.216 266.08 681.366 267.14 682.816 267.14ZM681.106 263.85C681.226 262.78 681.906 262.17 682.666 262.17C683.526 262.17 684.016 262.76 684.016 263.85H681.106ZM689.043 267.14C690.293 267.14 691.403 266.06 691.403 264.2C691.403 262.53 690.643 261.44 689.243 261.44C688.633 261.44 688.033 261.77 687.533 262.2L687.573 261.22V259.05H686.663V267H687.383L687.473 266.44H687.503C687.973 266.88 688.543 267.14 689.043 267.14ZM688.903 266.37C688.543 266.37 688.043 266.22 687.573 265.81V262.95C688.083 262.46 688.563 262.2 689.023 262.2C690.053 262.2 690.463 263.01 690.463 264.22C690.463 265.56 689.793 266.37 688.903 266.37ZM694.716 267.14C695.996 267.14 696.686 266.41 696.686 265.52C696.686 264.49 695.826 264.17 695.036 263.87C694.416 263.65 693.866 263.45 693.866 262.93C693.866 262.51 694.176 262.15 694.866 262.15C695.346 262.15 695.736 262.36 696.106 262.63L696.546 262.05C696.126 261.71 695.526 261.44 694.856 261.44C693.676 261.44 692.986 262.11 692.986 262.97C692.986 263.9 693.816 264.26 694.566 264.55C695.166 264.77 695.816 265.02 695.816 265.57C695.816 266.05 695.456 266.43 694.736 266.43C694.086 266.43 693.606 266.16 693.136 265.78L692.686 266.39C693.196 266.81 693.946 267.14 694.716 267.14ZM698.474 267H699.384V261.57H698.474V267ZM698.934 260.45C699.284 260.45 699.544 260.22 699.544 259.84C699.544 259.49 699.284 259.26 698.934 259.26C698.574 259.26 698.324 259.49 698.324 259.84C698.324 260.22 698.574 260.45 698.934 260.45ZM703.428 267.14C703.768 267.14 704.128 267.04 704.428 266.93L704.248 266.25C704.078 266.32 703.828 266.4 703.638 266.4C703.008 266.4 702.798 266.01 702.798 265.35V262.31H704.268V261.57H702.798V260.04H702.028L701.928 261.57L701.078 261.63V262.31H701.888V265.33C701.888 266.41 702.268 267.14 703.428 267.14ZM708.011 267.14C708.751 267.14 709.321 266.89 709.801 266.58L709.471 265.97C709.071 266.24 708.641 266.41 708.121 266.41C707.081 266.41 706.381 265.66 706.311 264.51H709.971C710.001 264.37 710.011 264.18 710.011 263.99C710.011 262.43 709.231 261.44 707.851 261.44C706.601 261.44 705.411 262.53 705.411 264.3C705.411 266.08 706.561 267.14 708.011 267.14ZM706.301 263.85C706.421 262.78 707.101 262.17 707.861 262.17C708.721 262.17 709.211 262.76 709.211 263.85H706.301Z" fill="#7C7C7C"/>
</g>
<defs>
<filter id="filter0_d_672_5881" x="406.783" y="136.543" width="22.3315" height="14.5143" filterUnits="userSpaceOnUse" color-interpolation-filters="sRGB">
<feFlood flood-opacity="0" result="BackgroundImageFix"/>
<feColorMatrix in="SourceAlpha" type="matrix" values="0 0 0 0 0 0 0 0 0 0 0 0 0 0 0 0 0 0 127 0" result="hardAlpha"/>
<feOffset/>
<feGaussianBlur stdDeviation="2"/>
<feComposite in2="hardAlpha" operator="out"/>
<feColorMatrix type="matrix" values="0 0 0 0 0.788235 0 0 0 0 0.964706 0 0 0 0 0.945098 0 0 0 1 0"/>
<feBlend mode="normal" in2="BackgroundImageFix" result="effect1_dropShadow_672_5881"/>
<feBlend mode="normal" in="SourceGraphic" in2="effect1_dropShadow_672_5881" result="shape"/>
</filter>
<filter id="filter1_d_672_5881" x="33.5144" y="143.057" width="120.371" height="43.8286" filterUnits="userSpaceOnUse" color-interpolation-filters="sRGB">
<feFlood flood-opacity="0" result="BackgroundImageFix"/>
<feColorMatrix in="SourceAlpha" type="matrix" values="0 0 0 0 0 0 0 0 0 0 0 0 0 0 0 0 0 0 127 0" result="hardAlpha"/>
<feOffset/>
<feGaussianBlur stdDeviation="2"/>
<feComposite in2="hardAlpha" operator="out"/>
<feColorMatrix type="matrix" values="0 0 0 0 0.788235 0 0 0 0 0.964706 0 0 0 0 0.945098 0 0 0 1 0"/>
<feBlend mode="normal" in2="BackgroundImageFix" result="effect1_dropShadow_672_5881"/>
<feBlend mode="normal" in="SourceGraphic" in2="effect1_dropShadow_672_5881" result="shape"/>
</filter>
<filter id="filter2_d_672_5881" x="585.6" y="58.3715" width="131.771" height="180.629" filterUnits="userSpaceOnUse" color-interpolation-filters="sRGB">
<feFlood flood-opacity="0" result="BackgroundImageFix"/>
<feColorMatrix in="SourceAlpha" type="matrix" values="0 0 0 0 0 0 0 0 0 0 0 0 0 0 0 0 0 0 127 0" result="hardAlpha"/>
<feOffset/>
<feGaussianBlur stdDeviation="2"/>
<feComposite in2="hardAlpha" operator="out"/>
<feColorMatrix type="matrix" values="0 0 0 0 0.788235 0 0 0 0 0.964706 0 0 0 0 0.945098 0 0 0 1 0"/>
<feBlend mode="normal" in2="BackgroundImageFix" result="effect1_dropShadow_672_5881"/>
<feBlend mode="normal" in="SourceGraphic" in2="effect1_dropShadow_672_5881" result="shape"/>
</filter>
<clipPath id="clip0_672_5881">
<rect width="744" height="279" fill="white"/>
</clipPath>
</defs>
</svg>
