<svg width="952" height="3795" viewBox="0 0 952 3795" fill="none" xmlns="http://www.w3.org/2000/svg">
<rect width="952" height="3795" fill="white"/>
<g clip-path="url(#clip0_498_900)">
<rect width="952" height="106" fill="#EFEFEF"/>
<path d="M420.314 5.95454V100.5H398.893L364.731 50.8267H364.177V100.5H338.51V5.95454H360.3L393.907 55.4432H394.646V5.95454H420.314ZM457.015 100.5H429.316L460.523 5.95454H495.608L526.816 100.5H499.117L478.435 31.9915H477.697L457.015 100.5ZM451.844 63.1989H503.918V82.4034H451.844V63.1989ZM548.063 5.95454L567.452 72.6165H568.191L587.58 5.95454H616.572L585.364 100.5H550.279L519.072 5.95454H548.063Z" fill="#060606"/>
</g>
<rect x="5" y="5" width="942" height="96" stroke="#03042F" stroke-width="10"/>
<rect x="29" y="131" width="878" height="158" fill="#A2A2A2"/>
<rect x="29" y="649" width="439" height="431" fill="#A2A2A2"/>
<rect x="39" y="1341" width="480" height="192" fill="#A2A2A2"/>
<rect x="39" y="1561" width="336" height="188" fill="#A2A2A2"/>
<rect x="41" y="2380" width="277" height="399" fill="#A2A2A2"/>
<rect x="41" y="3341" width="431" height="207" fill="#A2A2A2"/>
<rect x="491" y="3341" width="431" height="207" fill="#A2A2A2"/>
<rect x="336" y="2380" width="277" height="399" fill="#A2A2A2"/>
<rect x="639" y="2380" width="277" height="399" fill="#A2A2A2"/>
<rect x="178" y="2000" width="87" height="99" fill="#A2A2A2"/>
<rect x="257" y="2253" width="87" height="99" fill="#A2A2A2"/>
<rect x="143" y="3128" width="124" height="99" fill="#A2A2A2"/>
<rect x="336" y="3128" width="124" height="99" fill="#A2A2A2"/>
<rect x="515" y="3128" width="124" height="99" fill="#A2A2A2"/>
<rect x="688" y="3128" width="124" height="99" fill="#A2A2A2"/>
<rect x="351" y="2000" width="87" height="99" fill="#A2A2A2"/>
<rect x="526" y="2000" width="87" height="99" fill="#A2A2A2"/>
<rect x="691" y="2000" width="87" height="99" fill="#A2A2A2"/>
<rect x="502" y="649" width="439" height="431" fill="#A2A2A2"/>
<rect x="233" y="314" width="489" height="33" fill="#D9D9D9"/>
<rect x="97" y="1091" width="278" height="33" fill="#D9D9D9"/>
<rect x="67" y="1385" width="278" height="52" fill="#D9D9D9"/>
<rect x="67" y="1448" width="222" height="17" fill="#D9D9D9"/>
<rect x="583" y="1091" width="278" height="33" fill="#D9D9D9"/>
<rect x="331" y="578" width="293" height="33" fill="#D9D9D9"/>
<rect x="331" y="1284" width="293" height="33" fill="#D9D9D9"/>
<rect x="405" y="1592" width="456" height="33" fill="#D9D9D9"/>
<rect x="353" y="1837" width="230" height="33" fill="#D9D9D9"/>
<rect x="278" y="1894" width="388" height="33" fill="#D9D9D9"/>
<rect x="361" y="2286" width="330" height="33" fill="#D9D9D9"/>
<rect x="313" y="3039" width="330" height="33" fill="#D9D9D9"/>
<rect x="313" y="3654" width="330" height="33" fill="#D9D9D9"/>
<rect x="346" y="3701" width="264" height="15" fill="#D9D9D9"/>
<rect x="278" y="2147" width="388" height="33" fill="#D9D9D9"/>
<rect x="361" y="1939" width="222" height="33" fill="#D9D9D9"/>
<rect x="405" y="1635" width="330" height="33" fill="#D9D9D9"/>
<rect x="262" y="358" width="436" height="19" fill="#D9D9D9"/>
<rect x="262" y="358" width="436" height="19" fill="#D9D9D9"/>
<rect x="122" y="1132" width="222" height="19" fill="#D9D9D9"/>
<rect x="608" y="1132" width="222" height="19" fill="#D9D9D9"/>
<rect x="587" y="1369" width="222" height="19" fill="#D9D9D9"/>
<rect x="587" y="1429" width="307" height="19" fill="#D9D9D9"/>
<rect x="587" y="1485" width="222" height="19" fill="#D9D9D9"/>
<rect x="361" y="2190" width="222" height="19" fill="#D9D9D9"/>
<rect x="146" y="3235" width="117" height="14" fill="#D9D9D9"/>
<rect x="339" y="3235" width="117" height="14" fill="#D9D9D9"/>
<rect x="518" y="3235" width="117" height="14" fill="#D9D9D9"/>
<rect x="691" y="3235" width="117" height="14" fill="#D9D9D9"/>
<rect x="162" y="3254" width="85" height="14" fill="#D9D9D9"/>
<rect x="355" y="3254" width="85" height="14" fill="#D9D9D9"/>
<rect x="534" y="3254" width="85" height="14" fill="#D9D9D9"/>
<rect x="707" y="3254" width="85" height="14" fill="#D9D9D9"/>
<rect x="41" y="2794" width="222" height="19" fill="#D9D9D9"/>
<rect x="336" y="2794" width="222" height="19" fill="#D9D9D9"/>
<rect x="639" y="2794" width="222" height="19" fill="#D9D9D9"/>
<rect x="361" y="2219" width="222" height="19" fill="#D9D9D9"/>
<rect x="122" y="1159" width="222" height="19" fill="#D9D9D9"/>
<rect x="608" y="1159" width="222" height="19" fill="#D9D9D9"/>
<rect x="313" y="388" width="334" height="19" fill="#D9D9D9"/>
<rect x="186" y="483" width="588" height="19" fill="#D9D9D9"/>
<rect x="326.5" y="417.5" width="139" height="38" fill="#EFEFEF"/>
<path d="M364.485 433.5C364.448 433.027 364.27 432.657 363.953 432.392C363.64 432.127 363.164 431.994 362.525 431.994C362.118 431.994 361.784 432.044 361.524 432.143C361.268 432.238 361.079 432.368 360.956 432.534C360.833 432.7 360.769 432.889 360.764 433.102C360.754 433.277 360.785 433.436 360.856 433.578C360.932 433.715 361.05 433.841 361.211 433.955C361.372 434.063 361.578 434.163 361.829 434.253C362.08 434.343 362.378 434.423 362.724 434.494L363.917 434.75C364.722 434.92 365.411 435.145 365.984 435.425C366.557 435.704 367.026 436.033 367.39 436.412C367.755 436.786 368.022 437.207 368.193 437.676C368.368 438.145 368.458 438.656 368.463 439.21C368.458 440.167 368.219 440.976 367.745 441.639C367.272 442.302 366.595 442.806 365.714 443.152C364.838 443.498 363.785 443.67 362.554 443.67C361.289 443.67 360.186 443.483 359.244 443.109C358.306 442.735 357.577 442.16 357.056 441.384C356.54 440.602 356.28 439.603 356.275 438.386H360.025C360.049 438.831 360.16 439.205 360.359 439.509C360.558 439.812 360.837 440.041 361.197 440.197C361.562 440.354 361.995 440.432 362.497 440.432C362.918 440.432 363.271 440.38 363.555 440.276C363.839 440.171 364.055 440.027 364.201 439.842C364.348 439.658 364.424 439.447 364.429 439.21C364.424 438.988 364.35 438.794 364.208 438.628C364.071 438.457 363.844 438.306 363.527 438.173C363.209 438.036 362.781 437.908 362.241 437.79L360.792 437.477C359.504 437.198 358.489 436.732 357.745 436.078C357.007 435.42 356.64 434.523 356.645 433.386C356.64 432.463 356.886 431.656 357.383 430.964C357.885 430.268 358.579 429.726 359.464 429.338C360.354 428.95 361.375 428.756 362.525 428.756C363.699 428.756 364.715 428.952 365.572 429.345C366.429 429.738 367.09 430.292 367.554 431.007C368.022 431.717 368.259 432.548 368.264 433.5H364.485ZM373.914 428.955V443.5H369.965V428.955H373.914ZM385.231 433.756C385.17 433.505 385.073 433.285 384.94 433.095C384.807 432.901 384.642 432.738 384.443 432.605C384.249 432.468 384.021 432.366 383.761 432.3C383.505 432.229 383.224 432.193 382.916 432.193C382.253 432.193 381.687 432.352 381.218 432.669C380.754 432.986 380.399 433.443 380.153 434.04C379.912 434.636 379.791 435.356 379.791 436.199C379.791 437.051 379.907 437.78 380.139 438.386C380.371 438.992 380.717 439.456 381.176 439.778C381.635 440.1 382.206 440.261 382.887 440.261C383.489 440.261 383.988 440.174 384.386 439.999C384.788 439.823 385.089 439.575 385.288 439.253C385.487 438.931 385.586 438.552 385.586 438.116L386.268 438.188H382.944V435.375H389.393V437.392C389.393 438.718 389.111 439.852 388.548 440.794C387.989 441.732 387.217 442.451 386.233 442.953C385.252 443.45 384.128 443.699 382.859 443.699C381.443 443.699 380.2 443.398 379.13 442.797C378.06 442.196 377.225 441.339 376.623 440.226C376.027 439.113 375.728 437.79 375.728 436.256C375.728 435.053 375.911 433.988 376.275 433.06C376.645 432.132 377.156 431.348 377.809 430.709C378.463 430.065 379.218 429.58 380.075 429.253C380.932 428.921 381.85 428.756 382.831 428.756C383.692 428.756 384.493 428.879 385.231 429.125C385.975 429.366 386.63 429.712 387.199 430.162C387.771 430.607 388.233 431.135 388.583 431.746C388.934 432.357 389.147 433.027 389.223 433.756H385.231ZM403.82 428.955V443.5H400.524L395.268 435.858H395.183V443.5H391.234V428.955H394.587L399.757 436.568H399.871V428.955H403.82ZM418.28 428.955H422.229V438.273C422.229 439.381 421.964 440.339 421.433 441.149C420.908 441.954 420.174 442.577 419.232 443.017C418.289 443.453 417.196 443.67 415.95 443.67C414.696 443.67 413.597 443.453 412.655 443.017C411.713 442.577 410.979 441.954 410.453 441.149C409.932 440.339 409.672 439.381 409.672 438.273V428.955H413.621V437.932C413.621 438.382 413.72 438.784 413.919 439.139C414.118 439.49 414.393 439.764 414.743 439.963C415.098 440.162 415.5 440.261 415.95 440.261C416.405 440.261 416.807 440.162 417.158 439.963C417.508 439.764 417.783 439.49 417.982 439.139C418.18 438.784 418.28 438.382 418.28 437.932V428.955ZM424.105 443.5V428.955H430.384C431.463 428.955 432.408 429.168 433.218 429.594C434.027 430.02 434.657 430.619 435.107 431.391C435.557 432.162 435.782 433.064 435.782 434.097C435.782 435.138 435.55 436.04 435.086 436.803C434.626 437.565 433.98 438.152 433.147 438.564C432.318 438.976 431.35 439.182 430.242 439.182H426.492V436.114H429.446C429.91 436.114 430.306 436.033 430.632 435.872C430.964 435.706 431.217 435.472 431.392 435.169C431.572 434.866 431.662 434.509 431.662 434.097C431.662 433.68 431.572 433.325 431.392 433.031C431.217 432.733 430.964 432.506 430.632 432.349C430.306 432.188 429.91 432.108 429.446 432.108H428.054V443.5H424.105Z" fill="#060606"/>
<rect x="326.5" y="417.5" width="139" height="38" stroke="#03042F" stroke-width="5"/>
<rect x="69.5" y="1475.5" width="139" height="38" fill="#EFEFEF"/>
<path d="M107.485 1491.5C107.448 1491.03 107.27 1490.66 106.953 1490.39C106.64 1490.13 106.164 1489.99 105.525 1489.99C105.118 1489.99 104.784 1490.04 104.524 1490.14C104.268 1490.24 104.079 1490.37 103.956 1490.53C103.833 1490.7 103.769 1490.89 103.764 1491.1C103.754 1491.28 103.785 1491.44 103.856 1491.58C103.932 1491.72 104.05 1491.84 104.211 1491.95C104.372 1492.06 104.578 1492.16 104.829 1492.25C105.08 1492.34 105.378 1492.42 105.724 1492.49L106.917 1492.75C107.722 1492.92 108.411 1493.15 108.984 1493.42C109.557 1493.7 110.026 1494.03 110.39 1494.41C110.755 1494.79 111.022 1495.21 111.193 1495.68C111.368 1496.14 111.458 1496.66 111.463 1497.21C111.458 1498.17 111.219 1498.98 110.745 1499.64C110.272 1500.3 109.595 1500.81 108.714 1501.15C107.838 1501.5 106.785 1501.67 105.554 1501.67C104.289 1501.67 103.186 1501.48 102.244 1501.11C101.306 1500.74 100.577 1500.16 100.056 1499.38C99.5404 1498.6 99.2799 1497.6 99.2752 1496.39H103.025C103.049 1496.83 103.16 1497.21 103.359 1497.51C103.558 1497.81 103.837 1498.04 104.197 1498.2C104.562 1498.35 104.995 1498.43 105.497 1498.43C105.918 1498.43 106.271 1498.38 106.555 1498.28C106.839 1498.17 107.055 1498.03 107.201 1497.84C107.348 1497.66 107.424 1497.45 107.429 1497.21C107.424 1496.99 107.35 1496.79 107.208 1496.63C107.071 1496.46 106.844 1496.31 106.527 1496.17C106.209 1496.04 105.781 1495.91 105.241 1495.79L103.792 1495.48C102.504 1495.2 101.489 1494.73 100.745 1494.08C100.007 1493.42 99.6398 1492.52 99.6445 1491.39C99.6398 1490.46 99.886 1489.66 100.383 1488.96C100.885 1488.27 101.579 1487.73 102.464 1487.34C103.354 1486.95 104.375 1486.76 105.525 1486.76C106.699 1486.76 107.715 1486.95 108.572 1487.35C109.429 1487.74 110.09 1488.29 110.554 1489.01C111.022 1489.72 111.259 1490.55 111.264 1491.5H107.485ZM116.914 1486.95V1501.5H112.965V1486.95H116.914ZM128.231 1491.76C128.17 1491.5 128.073 1491.28 127.94 1491.1C127.807 1490.9 127.642 1490.74 127.443 1490.61C127.249 1490.47 127.021 1490.37 126.761 1490.3C126.505 1490.23 126.224 1490.19 125.916 1490.19C125.253 1490.19 124.687 1490.35 124.218 1490.67C123.754 1490.99 123.399 1491.44 123.153 1492.04C122.912 1492.64 122.791 1493.36 122.791 1494.2C122.791 1495.05 122.907 1495.78 123.139 1496.39C123.371 1496.99 123.717 1497.46 124.176 1497.78C124.635 1498.1 125.206 1498.26 125.887 1498.26C126.489 1498.26 126.988 1498.17 127.386 1498C127.788 1497.82 128.089 1497.57 128.288 1497.25C128.487 1496.93 128.586 1496.55 128.586 1496.12L129.268 1496.19H125.944V1493.38H132.393V1495.39C132.393 1496.72 132.111 1497.85 131.548 1498.79C130.989 1499.73 130.217 1500.45 129.233 1500.95C128.252 1501.45 127.128 1501.7 125.859 1501.7C124.443 1501.7 123.2 1501.4 122.13 1500.8C121.06 1500.2 120.225 1499.34 119.623 1498.23C119.027 1497.11 118.728 1495.79 118.728 1494.26C118.728 1493.05 118.911 1491.99 119.275 1491.06C119.645 1490.13 120.156 1489.35 120.809 1488.71C121.463 1488.06 122.218 1487.58 123.075 1487.25C123.932 1486.92 124.85 1486.76 125.831 1486.76C126.692 1486.76 127.493 1486.88 128.231 1487.12C128.975 1487.37 129.63 1487.71 130.199 1488.16C130.771 1488.61 131.233 1489.13 131.583 1489.75C131.934 1490.36 132.147 1491.03 132.223 1491.76H128.231ZM146.82 1486.95V1501.5H143.524L138.268 1493.86H138.183V1501.5H134.234V1486.95H137.587L142.757 1494.57H142.871V1486.95H146.82ZM161.28 1486.95H165.229V1496.27C165.229 1497.38 164.964 1498.34 164.433 1499.15C163.908 1499.95 163.174 1500.58 162.232 1501.02C161.289 1501.45 160.196 1501.67 158.95 1501.67C157.696 1501.67 156.597 1501.45 155.655 1501.02C154.713 1500.58 153.979 1499.95 153.453 1499.15C152.932 1498.34 152.672 1497.38 152.672 1496.27V1486.95H156.621V1495.93C156.621 1496.38 156.72 1496.78 156.919 1497.14C157.118 1497.49 157.393 1497.76 157.743 1497.96C158.098 1498.16 158.5 1498.26 158.95 1498.26C159.405 1498.26 159.807 1498.16 160.158 1497.96C160.508 1497.76 160.783 1497.49 160.982 1497.14C161.18 1496.78 161.28 1496.38 161.28 1495.93V1486.95ZM167.105 1501.5V1486.95H173.384C174.463 1486.95 175.408 1487.17 176.218 1487.59C177.027 1488.02 177.657 1488.62 178.107 1489.39C178.557 1490.16 178.782 1491.06 178.782 1492.1C178.782 1493.14 178.55 1494.04 178.086 1494.8C177.626 1495.56 176.98 1496.15 176.147 1496.56C175.318 1496.98 174.35 1497.18 173.242 1497.18H169.492V1494.11H172.446C172.91 1494.11 173.306 1494.03 173.632 1493.87C173.964 1493.71 174.217 1493.47 174.392 1493.17C174.572 1492.87 174.662 1492.51 174.662 1492.1C174.662 1491.68 174.572 1491.32 174.392 1491.03C174.217 1490.73 173.964 1490.51 173.632 1490.35C173.306 1490.19 172.91 1490.11 172.446 1490.11H171.054V1501.5H167.105Z" fill="#060606"/>
<rect x="69.5" y="1475.5" width="139" height="38" stroke="#03042F" stroke-width="5"/>
<rect x="408.5" y="1688.5" width="139" height="38" fill="#EFEFEF"/>
<path d="M446.485 1704.5C446.448 1704.03 446.27 1703.66 445.953 1703.39C445.64 1703.13 445.164 1702.99 444.525 1702.99C444.118 1702.99 443.784 1703.04 443.524 1703.14C443.268 1703.24 443.079 1703.37 442.956 1703.53C442.833 1703.7 442.769 1703.89 442.764 1704.1C442.754 1704.28 442.785 1704.44 442.856 1704.58C442.932 1704.72 443.05 1704.84 443.211 1704.95C443.372 1705.06 443.578 1705.16 443.829 1705.25C444.08 1705.34 444.378 1705.42 444.724 1705.49L445.917 1705.75C446.722 1705.92 447.411 1706.15 447.984 1706.42C448.557 1706.7 449.026 1707.03 449.39 1707.41C449.755 1707.79 450.022 1708.21 450.193 1708.68C450.368 1709.14 450.458 1709.66 450.463 1710.21C450.458 1711.17 450.219 1711.98 449.745 1712.64C449.272 1713.3 448.595 1713.81 447.714 1714.15C446.838 1714.5 445.785 1714.67 444.554 1714.67C443.289 1714.67 442.186 1714.48 441.244 1714.11C440.306 1713.74 439.577 1713.16 439.056 1712.38C438.54 1711.6 438.28 1710.6 438.275 1709.39H442.025C442.049 1709.83 442.16 1710.21 442.359 1710.51C442.558 1710.81 442.837 1711.04 443.197 1711.2C443.562 1711.35 443.995 1711.43 444.497 1711.43C444.918 1711.43 445.271 1711.38 445.555 1711.28C445.839 1711.17 446.055 1711.03 446.201 1710.84C446.348 1710.66 446.424 1710.45 446.429 1710.21C446.424 1709.99 446.35 1709.79 446.208 1709.63C446.071 1709.46 445.844 1709.31 445.527 1709.17C445.209 1709.04 444.781 1708.91 444.241 1708.79L442.792 1708.48C441.504 1708.2 440.489 1707.73 439.745 1707.08C439.007 1706.42 438.64 1705.52 438.645 1704.39C438.64 1703.46 438.886 1702.66 439.383 1701.96C439.885 1701.27 440.579 1700.73 441.464 1700.34C442.354 1699.95 443.375 1699.76 444.525 1699.76C445.699 1699.76 446.715 1699.95 447.572 1700.35C448.429 1700.74 449.09 1701.29 449.554 1702.01C450.022 1702.72 450.259 1703.55 450.264 1704.5H446.485ZM455.914 1699.95V1714.5H451.965V1699.95H455.914ZM467.231 1704.76C467.17 1704.5 467.073 1704.28 466.94 1704.1C466.807 1703.9 466.642 1703.74 466.443 1703.61C466.249 1703.47 466.021 1703.37 465.761 1703.3C465.505 1703.23 465.224 1703.19 464.916 1703.19C464.253 1703.19 463.687 1703.35 463.218 1703.67C462.754 1703.99 462.399 1704.44 462.153 1705.04C461.912 1705.64 461.791 1706.36 461.791 1707.2C461.791 1708.05 461.907 1708.78 462.139 1709.39C462.371 1709.99 462.717 1710.46 463.176 1710.78C463.635 1711.1 464.206 1711.26 464.887 1711.26C465.489 1711.26 465.988 1711.17 466.386 1711C466.788 1710.82 467.089 1710.57 467.288 1710.25C467.487 1709.93 467.586 1709.55 467.586 1709.12L468.268 1709.19H464.944V1706.38H471.393V1708.39C471.393 1709.72 471.111 1710.85 470.548 1711.79C469.989 1712.73 469.217 1713.45 468.233 1713.95C467.252 1714.45 466.128 1714.7 464.859 1714.7C463.443 1714.7 462.2 1714.4 461.13 1713.8C460.06 1713.2 459.225 1712.34 458.623 1711.23C458.027 1710.11 457.728 1708.79 457.728 1707.26C457.728 1706.05 457.911 1704.99 458.275 1704.06C458.645 1703.13 459.156 1702.35 459.809 1701.71C460.463 1701.06 461.218 1700.58 462.075 1700.25C462.932 1699.92 463.85 1699.76 464.831 1699.76C465.692 1699.76 466.493 1699.88 467.231 1700.12C467.975 1700.37 468.63 1700.71 469.199 1701.16C469.771 1701.61 470.233 1702.13 470.583 1702.75C470.934 1703.36 471.147 1704.03 471.223 1704.76H467.231ZM485.82 1699.95V1714.5H482.524L477.268 1706.86H477.183V1714.5H473.234V1699.95H476.587L481.757 1707.57H481.871V1699.95H485.82ZM500.28 1699.95H504.229V1709.27C504.229 1710.38 503.964 1711.34 503.433 1712.15C502.908 1712.95 502.174 1713.58 501.232 1714.02C500.289 1714.45 499.196 1714.67 497.95 1714.67C496.696 1714.67 495.597 1714.45 494.655 1714.02C493.713 1713.58 492.979 1712.95 492.453 1712.15C491.932 1711.34 491.672 1710.38 491.672 1709.27V1699.95H495.621V1708.93C495.621 1709.38 495.72 1709.78 495.919 1710.14C496.118 1710.49 496.393 1710.76 496.743 1710.96C497.098 1711.16 497.5 1711.26 497.95 1711.26C498.405 1711.26 498.807 1711.16 499.158 1710.96C499.508 1710.76 499.783 1710.49 499.982 1710.14C500.18 1709.78 500.28 1709.38 500.28 1708.93V1699.95ZM506.105 1714.5V1699.95H512.384C513.463 1699.95 514.408 1700.17 515.218 1700.59C516.027 1701.02 516.657 1701.62 517.107 1702.39C517.557 1703.16 517.782 1704.06 517.782 1705.1C517.782 1706.14 517.55 1707.04 517.086 1707.8C516.626 1708.56 515.98 1709.15 515.147 1709.56C514.318 1709.98 513.35 1710.18 512.242 1710.18H508.492V1707.11H511.446C511.91 1707.11 512.306 1707.03 512.632 1706.87C512.964 1706.71 513.217 1706.47 513.392 1706.17C513.572 1705.87 513.662 1705.51 513.662 1705.1C513.662 1704.68 513.572 1704.32 513.392 1704.03C513.217 1703.73 512.964 1703.51 512.632 1703.35C512.306 1703.19 511.91 1703.11 511.446 1703.11H510.054V1714.5H506.105Z" fill="#060606"/>
<rect x="408.5" y="1688.5" width="139" height="38" stroke="#03042F" stroke-width="5"/>
<rect x="320.5" y="2906.5" width="316" height="38" fill="#EFEFEF"/>
<path d="M446.985 2922.5C446.948 2922.03 446.77 2921.66 446.453 2921.39C446.14 2921.13 445.664 2920.99 445.025 2920.99C444.618 2920.99 444.284 2921.04 444.024 2921.14C443.768 2921.24 443.579 2921.37 443.456 2921.53C443.333 2921.7 443.269 2921.89 443.264 2922.1C443.254 2922.28 443.285 2922.44 443.356 2922.58C443.432 2922.72 443.55 2922.84 443.711 2922.95C443.872 2923.06 444.078 2923.16 444.329 2923.25C444.58 2923.34 444.878 2923.42 445.224 2923.49L446.417 2923.75C447.222 2923.92 447.911 2924.15 448.484 2924.42C449.057 2924.7 449.526 2925.03 449.89 2925.41C450.255 2925.79 450.522 2926.21 450.693 2926.68C450.868 2927.14 450.958 2927.66 450.963 2928.21C450.958 2929.17 450.719 2929.98 450.245 2930.64C449.772 2931.3 449.095 2931.81 448.214 2932.15C447.338 2932.5 446.285 2932.67 445.054 2932.67C443.789 2932.67 442.686 2932.48 441.744 2932.11C440.806 2931.74 440.077 2931.16 439.556 2930.38C439.04 2929.6 438.78 2928.6 438.775 2927.39H442.525C442.549 2927.83 442.66 2928.21 442.859 2928.51C443.058 2928.81 443.337 2929.04 443.697 2929.2C444.062 2929.35 444.495 2929.43 444.997 2929.43C445.418 2929.43 445.771 2929.38 446.055 2929.28C446.339 2929.17 446.555 2929.03 446.701 2928.84C446.848 2928.66 446.924 2928.45 446.929 2928.21C446.924 2927.99 446.85 2927.79 446.708 2927.63C446.571 2927.46 446.344 2927.31 446.027 2927.17C445.709 2927.04 445.281 2926.91 444.741 2926.79L443.292 2926.48C442.004 2926.2 440.989 2925.73 440.245 2925.08C439.507 2924.42 439.14 2923.52 439.145 2922.39C439.14 2921.46 439.386 2920.66 439.883 2919.96C440.385 2919.27 441.079 2918.73 441.964 2918.34C442.854 2917.95 443.875 2917.76 445.025 2917.76C446.199 2917.76 447.215 2917.95 448.072 2918.35C448.929 2918.74 449.59 2919.29 450.054 2920.01C450.522 2920.72 450.759 2921.55 450.764 2922.5H446.985ZM456.414 2917.95V2932.5H452.465V2917.95H456.414ZM467.731 2922.76C467.67 2922.5 467.573 2922.28 467.44 2922.1C467.307 2921.9 467.142 2921.74 466.943 2921.61C466.749 2921.47 466.521 2921.37 466.261 2921.3C466.005 2921.23 465.724 2921.19 465.416 2921.19C464.753 2921.19 464.187 2921.35 463.718 2921.67C463.254 2921.99 462.899 2922.44 462.653 2923.04C462.412 2923.64 462.291 2924.36 462.291 2925.2C462.291 2926.05 462.407 2926.78 462.639 2927.39C462.871 2927.99 463.217 2928.46 463.676 2928.78C464.135 2929.1 464.706 2929.26 465.387 2929.26C465.989 2929.26 466.488 2929.17 466.886 2929C467.288 2928.82 467.589 2928.57 467.788 2928.25C467.987 2927.93 468.086 2927.55 468.086 2927.12L468.768 2927.19H465.444V2924.38H471.893V2926.39C471.893 2927.72 471.611 2928.85 471.048 2929.79C470.489 2930.73 469.717 2931.45 468.733 2931.95C467.752 2932.45 466.628 2932.7 465.359 2932.7C463.943 2932.7 462.7 2932.4 461.63 2931.8C460.56 2931.2 459.725 2930.34 459.123 2929.23C458.527 2928.11 458.228 2926.79 458.228 2925.26C458.228 2924.05 458.411 2922.99 458.775 2922.06C459.145 2921.13 459.656 2920.35 460.309 2919.71C460.963 2919.06 461.718 2918.58 462.575 2918.25C463.432 2917.92 464.35 2917.76 465.331 2917.76C466.192 2917.76 466.993 2917.88 467.731 2918.12C468.475 2918.37 469.13 2918.71 469.699 2919.16C470.271 2919.61 470.733 2920.13 471.083 2920.75C471.434 2921.36 471.647 2922.03 471.723 2922.76H467.731ZM486.32 2917.95V2932.5H483.024L477.768 2924.86H477.683V2932.5H473.734V2917.95H477.087L482.257 2925.57H482.371V2917.95H486.32ZM500.78 2917.95H504.729V2927.27C504.729 2928.38 504.464 2929.34 503.933 2930.15C503.408 2930.95 502.674 2931.58 501.732 2932.02C500.789 2932.45 499.696 2932.67 498.45 2932.67C497.196 2932.67 496.097 2932.45 495.155 2932.02C494.213 2931.58 493.479 2930.95 492.953 2930.15C492.432 2929.34 492.172 2928.38 492.172 2927.27V2917.95H496.121V2926.93C496.121 2927.38 496.22 2927.78 496.419 2928.14C496.618 2928.49 496.893 2928.76 497.243 2928.96C497.598 2929.16 498 2929.26 498.45 2929.26C498.905 2929.26 499.307 2929.16 499.658 2928.96C500.008 2928.76 500.283 2928.49 500.482 2928.14C500.68 2927.78 500.78 2927.38 500.78 2926.93V2917.95ZM506.605 2932.5V2917.95H512.884C513.963 2917.95 514.908 2918.17 515.718 2918.59C516.527 2919.02 517.157 2919.62 517.607 2920.39C518.057 2921.16 518.282 2922.06 518.282 2923.1C518.282 2924.14 518.05 2925.04 517.586 2925.8C517.126 2926.56 516.48 2927.15 515.647 2927.56C514.818 2927.98 513.85 2928.18 512.742 2928.18H508.992V2925.11H511.946C512.41 2925.11 512.806 2925.03 513.132 2924.87C513.464 2924.71 513.717 2924.47 513.892 2924.17C514.072 2923.87 514.162 2923.51 514.162 2923.1C514.162 2922.68 514.072 2922.32 513.892 2922.03C513.717 2921.73 513.464 2921.51 513.132 2921.35C512.806 2921.19 512.41 2921.11 511.946 2921.11H510.554V2932.5H506.605Z" fill="#060606"/>
<rect x="320.5" y="2906.5" width="316" height="38" stroke="#03042F" stroke-width="5"/>
<rect x="372.5" y="3754.5" width="212" height="38" fill="#EFEFEF"/>
<path d="M413.412 3780.5V3765.95H423.895V3769.14H417.361V3771.64H423.355V3774.82H417.361V3777.32H423.867V3780.5H413.412ZM425.854 3765.95H430.768L434.149 3774.19H434.319L437.7 3765.95H442.615V3780.5H438.751V3772.09H438.638L435.399 3780.39H433.069L429.831 3772.03H429.717V3780.5H425.854V3765.95ZM448.265 3780.5H444.003L448.805 3765.95H454.202L459.003 3780.5H454.742L451.56 3769.96H451.447L448.265 3780.5ZM447.469 3774.76H455.481V3777.72H447.469V3774.76ZM464.353 3765.95V3780.5H460.404V3765.95H464.353ZM466.225 3780.5V3765.95H470.173V3777.32H476.054V3780.5H466.225ZM485.584 3765.95V3780.5H481.635V3765.95H485.584ZM500.04 3765.95V3780.5H496.745L491.489 3772.86H491.404V3780.5H487.455V3765.95H490.807L495.978 3773.57H496.091V3765.95H500.04ZM501.908 3780.5V3765.95H508.215C509.323 3765.95 510.253 3766.1 511.006 3766.4C511.764 3766.7 512.334 3767.12 512.718 3767.67C513.106 3768.21 513.3 3768.85 513.3 3769.59C513.3 3770.13 513.182 3770.61 512.945 3771.05C512.713 3771.49 512.386 3771.86 511.965 3772.16C511.544 3772.46 511.051 3772.66 510.488 3772.77V3772.91C511.113 3772.94 511.681 3773.1 512.192 3773.39C512.704 3773.68 513.111 3774.08 513.414 3774.59C513.717 3775.1 513.868 3775.69 513.868 3776.38C513.868 3777.18 513.66 3777.88 513.243 3778.5C512.831 3779.12 512.244 3779.61 511.482 3779.97C510.72 3780.32 509.811 3780.5 508.755 3780.5H501.908ZM505.857 3777.35H507.704C508.367 3777.35 508.864 3777.22 509.195 3776.98C509.527 3776.73 509.692 3776.36 509.692 3775.87C509.692 3775.53 509.614 3775.24 509.458 3775C509.302 3774.77 509.079 3774.59 508.79 3774.46C508.506 3774.34 508.163 3774.28 507.76 3774.28H505.857V3777.35ZM505.857 3771.84H507.476C507.822 3771.84 508.127 3771.78 508.393 3771.67C508.658 3771.56 508.864 3771.41 509.01 3771.2C509.162 3770.99 509.238 3770.74 509.238 3770.44C509.238 3769.99 509.077 3769.65 508.755 3769.41C508.433 3769.17 508.026 3769.05 507.533 3769.05H505.857V3771.84ZM529.358 3773.23C529.358 3774.85 529.044 3776.21 528.414 3777.33C527.784 3778.43 526.934 3779.27 525.864 3779.85C524.794 3780.41 523.601 3780.7 522.285 3780.7C520.959 3780.7 519.761 3780.41 518.691 3779.84C517.626 3779.26 516.778 3778.42 516.148 3777.31C515.523 3776.2 515.211 3774.84 515.211 3773.23C515.211 3771.61 515.523 3770.24 516.148 3769.14C516.778 3768.02 517.626 3767.18 518.691 3766.62C519.761 3766.04 520.959 3765.76 522.285 3765.76C523.601 3765.76 524.794 3766.04 525.864 3766.62C526.934 3767.18 527.784 3768.02 528.414 3769.14C529.044 3770.24 529.358 3771.61 529.358 3773.23ZM525.296 3773.23C525.296 3772.36 525.18 3771.62 524.948 3771.03C524.721 3770.42 524.382 3769.97 523.932 3769.66C523.487 3769.35 522.938 3769.19 522.285 3769.19C521.631 3769.19 521.08 3769.35 520.63 3769.66C520.185 3769.97 519.846 3770.42 519.614 3771.03C519.387 3771.62 519.273 3772.36 519.273 3773.23C519.273 3774.1 519.387 3774.83 519.614 3775.44C519.846 3776.03 520.185 3776.49 520.63 3776.8C521.08 3777.11 521.631 3777.26 522.285 3777.26C522.938 3777.26 523.487 3777.11 523.932 3776.8C524.382 3776.49 524.721 3776.03 524.948 3775.44C525.18 3774.83 525.296 3774.1 525.296 3773.23ZM534.442 3765.95L536.828 3770.19H536.942L539.357 3765.95H543.76L539.414 3773.23L543.931 3780.5H539.414L536.942 3776.18H536.828L534.357 3780.5H529.868L534.328 3773.23L530.01 3765.95H534.442Z" fill="#060606"/>
<rect x="372.5" y="3754.5" width="212" height="38" stroke="#03042F" stroke-width="5"/>
<rect x="482.5" y="417.5" width="139" height="38" fill="#EFEFEF"/>
<path d="M519.695 443.5V428.955H523.644V440.318H529.525V443.5H519.695ZM544.646 436.227C544.646 437.847 544.331 439.213 543.701 440.325C543.071 441.433 542.221 442.274 541.151 442.847C540.081 443.415 538.888 443.699 537.572 443.699C536.246 443.699 535.048 443.412 533.978 442.839C532.913 442.262 532.065 441.419 531.435 440.311C530.81 439.198 530.498 437.837 530.498 436.227C530.498 434.608 530.81 433.244 531.435 432.136C532.065 431.024 532.913 430.183 533.978 429.615C535.048 429.042 536.246 428.756 537.572 428.756C538.888 428.756 540.081 429.042 541.151 429.615C542.221 430.183 543.071 431.024 543.701 432.136C544.331 433.244 544.646 434.608 544.646 436.227ZM540.583 436.227C540.583 435.356 540.467 434.622 540.235 434.026C540.008 433.424 539.669 432.97 539.219 432.662C538.774 432.349 538.225 432.193 537.572 432.193C536.918 432.193 536.367 432.349 535.917 432.662C535.472 432.97 535.133 433.424 534.901 434.026C534.674 434.622 534.56 435.356 534.56 436.227C534.56 437.098 534.674 437.835 534.901 438.436C535.133 439.033 535.472 439.487 535.917 439.8C536.367 440.107 536.918 440.261 537.572 440.261C538.225 440.261 538.774 440.107 539.219 439.8C539.669 439.487 540.008 439.033 540.235 438.436C540.467 437.835 540.583 437.098 540.583 436.227ZM555.919 433.756C555.857 433.505 555.76 433.285 555.627 433.095C555.495 432.901 555.329 432.738 555.13 432.605C554.936 432.468 554.709 432.366 554.449 432.3C554.193 432.229 553.911 432.193 553.603 432.193C552.94 432.193 552.375 432.352 551.906 432.669C551.442 432.986 551.087 433.443 550.841 434.04C550.599 434.636 550.478 435.356 550.478 436.199C550.478 437.051 550.594 437.78 550.826 438.386C551.058 438.992 551.404 439.456 551.863 439.778C552.323 440.1 552.893 440.261 553.575 440.261C554.176 440.261 554.676 440.174 555.074 439.999C555.476 439.823 555.777 439.575 555.975 439.253C556.174 438.931 556.274 438.552 556.274 438.116L556.956 438.188H553.632V435.375H560.081V437.392C560.081 438.718 559.799 439.852 559.235 440.794C558.677 441.732 557.905 442.451 556.92 442.953C555.94 443.45 554.815 443.699 553.547 443.699C552.131 443.699 550.888 443.398 549.818 442.797C548.748 442.196 547.912 441.339 547.311 440.226C546.714 439.113 546.416 437.79 546.416 436.256C546.416 435.053 546.598 433.988 546.963 433.06C547.332 432.132 547.843 431.348 548.497 430.709C549.15 430.065 549.905 429.58 550.762 429.253C551.619 428.921 552.538 428.756 553.518 428.756C554.38 428.756 555.18 428.879 555.919 429.125C556.662 429.366 557.318 429.712 557.886 430.162C558.459 430.607 558.921 431.135 559.271 431.746C559.621 432.357 559.834 433.027 559.91 433.756H555.919ZM569.855 428.955V443.5H565.906V428.955H569.855ZM584.312 428.955V443.5H581.016L575.761 435.858H575.675V443.5H571.727V428.955H575.079L580.249 436.568H580.363V428.955H584.312Z" fill="#060606"/>
<rect x="482.5" y="417.5" width="139" height="38" stroke="#03042F" stroke-width="5"/>
<defs>
<clipPath id="clip0_498_900">
<rect width="952" height="106" fill="white"/>
</clipPath>
</defs>
</svg>
