<svg width="640" height="1235" viewBox="0 0 640 1235" fill="none" xmlns="http://www.w3.org/2000/svg">
<rect x="185.5" y="34.5" width="269" height="229" fill="#050505" fill-opacity="0.7"/>
<path d="M268.273 151.307H260.261C260.205 150.644 260.053 150.043 259.807 149.503C259.57 148.963 259.239 148.499 258.812 148.111C258.396 147.713 257.889 147.41 257.293 147.202C256.696 146.984 256.019 146.875 255.261 146.875C253.936 146.875 252.813 147.197 251.895 147.841C250.986 148.485 250.295 149.408 249.821 150.611C249.357 151.813 249.125 153.258 249.125 154.943C249.125 156.723 249.362 158.215 249.835 159.418C250.318 160.611 251.014 161.51 251.923 162.116C252.832 162.713 253.926 163.011 255.205 163.011C255.934 163.011 256.587 162.921 257.165 162.741C257.742 162.552 258.244 162.282 258.67 161.932C259.097 161.581 259.442 161.16 259.707 160.668C259.982 160.166 260.167 159.602 260.261 158.977L268.273 159.034C268.178 160.265 267.832 161.52 267.236 162.798C266.639 164.067 265.792 165.241 264.693 166.321C263.604 167.391 262.255 168.253 260.645 168.906C259.035 169.56 257.165 169.886 255.034 169.886C252.364 169.886 249.968 169.313 247.847 168.168C245.735 167.022 244.063 165.336 242.832 163.111C241.611 160.885 241 158.163 241 154.943C241 151.705 241.625 148.977 242.875 146.761C244.125 144.536 245.811 142.855 247.932 141.719C250.053 140.573 252.42 140 255.034 140C256.871 140 258.562 140.251 260.105 140.753C261.649 141.255 263.003 141.989 264.168 142.955C265.332 143.911 266.27 145.09 266.98 146.491C267.69 147.893 268.121 149.498 268.273 151.307Z" fill="#CA7F7F"/>
<path d="M271.06 146.761V140.398H296.344V146.761H287.594V169.489H279.81V146.761H271.06Z" fill="#CA7F7F"/>
<path d="M303.202 169.489H294.679L304.281 140.398H315.077L324.679 169.489H316.156L309.793 148.409H309.565L303.202 169.489ZM301.611 158.011H317.634V163.92H301.611V158.011Z" fill="#CA7F7F"/>
<path d="M237 117.091V88H249.614C251.83 88 253.69 88.2983 255.196 88.8949C256.711 89.4915 257.852 90.3343 258.619 91.4233C259.396 92.5123 259.784 93.7955 259.784 95.2727C259.784 96.3428 259.547 97.3182 259.074 98.1989C258.61 99.0795 257.956 99.8182 257.114 100.415C256.271 101.002 255.286 101.409 254.159 101.636V101.92C255.409 101.968 256.545 102.285 257.568 102.872C258.591 103.45 259.405 104.25 260.011 105.273C260.617 106.286 260.92 107.479 260.92 108.852C260.92 110.443 260.504 111.859 259.67 113.099C258.847 114.34 257.672 115.315 256.148 116.026C254.623 116.736 252.805 117.091 250.693 117.091H237ZM244.898 110.784H248.591C249.917 110.784 250.911 110.538 251.574 110.045C252.237 109.544 252.568 108.805 252.568 107.83C252.568 107.148 252.412 106.57 252.099 106.097C251.787 105.623 251.342 105.263 250.764 105.017C250.196 104.771 249.509 104.648 248.705 104.648H244.898V110.784ZM244.898 99.7614H248.136C248.828 99.7614 249.438 99.6525 249.969 99.4347C250.499 99.2169 250.911 98.9044 251.205 98.4972C251.508 98.0805 251.659 97.5739 251.659 96.9773C251.659 96.0777 251.337 95.3911 250.693 94.9176C250.049 94.4347 249.235 94.1932 248.25 94.1932H244.898V99.7614Z" fill="white"/>
<path d="M271.276 117.091H262.753L272.355 88H283.151L292.753 117.091H284.23L277.866 96.0114H277.639L271.276 117.091ZM269.685 105.614H285.707V111.523H269.685V105.614Z" fill="white"/>
<path d="M320.725 88V117.091H314.134L303.623 101.807H303.452V117.091H295.555V88H302.259L312.6 103.227H312.827V88H320.725Z" fill="white"/>
<path d="M349.631 88V117.091H343.04L332.529 101.807H332.359V117.091H324.461V88H331.165L341.506 103.227H341.734V88H349.631Z" fill="white"/>
<path d="M353.367 117.091V88H374.333V94.3636H361.265V99.3636H373.254V105.727H361.265V110.727H374.276V117.091H353.367Z" fill="white"/>
<path d="M378.25 117.091V88H390.807C392.966 88 394.855 88.393 396.474 89.179C398.094 89.965 399.353 91.0966 400.253 92.5739C401.152 94.0511 401.602 95.822 401.602 97.8864C401.602 99.9697 401.138 101.726 400.21 103.156C399.292 104.586 397.999 105.666 396.332 106.395C394.675 107.124 392.739 107.489 390.523 107.489H383.023V101.352H388.932C389.86 101.352 390.651 101.239 391.304 101.011C391.967 100.775 392.473 100.401 392.824 99.8892C393.184 99.3778 393.364 98.7102 393.364 97.8864C393.364 97.053 393.184 96.3759 392.824 95.8551C392.473 95.3248 391.967 94.9366 391.304 94.6903C390.651 94.4347 389.86 94.3068 388.932 94.3068H386.148V117.091H378.25ZM395.295 103.739L402.568 117.091H393.989L386.886 103.739H395.295Z" fill="white"/>
<rect x="185.5" y="34.5" width="269" height="229" stroke="#03042F" stroke-width="5"/>
<rect x="185.5" y="957.5" width="269" height="36" fill="#B84D4D" fill-opacity="0.7"/>
<path d="M305.433 971.863H297.422C297.365 971.201 297.213 970.599 296.967 970.059C296.73 969.52 296.399 969.056 295.973 968.667C295.556 968.27 295.049 967.967 294.453 967.758C293.856 967.541 293.179 967.432 292.422 967.432C291.096 967.432 289.974 967.754 289.055 968.398C288.146 969.041 287.455 969.965 286.981 971.167C286.517 972.37 286.285 973.814 286.285 975.5C286.285 977.28 286.522 978.772 286.995 979.974C287.478 981.167 288.174 982.067 289.083 982.673C289.993 983.27 291.086 983.568 292.365 983.568C293.094 983.568 293.747 983.478 294.325 983.298C294.903 983.109 295.404 982.839 295.831 982.488C296.257 982.138 296.602 981.717 296.868 981.224C297.142 980.722 297.327 980.159 297.422 979.534L305.433 979.591C305.338 980.822 304.993 982.077 304.396 983.355C303.799 984.624 302.952 985.798 301.853 986.878C300.764 987.948 299.415 988.809 297.805 989.463C296.195 990.116 294.325 990.443 292.194 990.443C289.524 990.443 287.128 989.87 285.007 988.724C282.895 987.578 281.224 985.893 279.993 983.667C278.771 981.442 278.16 978.72 278.16 975.5C278.16 972.261 278.785 969.534 280.035 967.318C281.285 965.093 282.971 963.412 285.092 962.275C287.213 961.13 289.581 960.557 292.194 960.557C294.031 960.557 295.722 960.808 297.265 961.309C298.809 961.811 300.163 962.545 301.328 963.511C302.493 964.468 303.43 965.647 304.14 967.048C304.85 968.45 305.281 970.055 305.433 971.863Z" fill="white"/>
<path d="M308.221 967.318V960.954H333.505V967.318H324.755V990.045H316.971V967.318H308.221Z" fill="white"/>
<path d="M340.362 990.045H331.839L341.441 960.954H352.237L361.839 990.045H353.316L346.953 968.966H346.726L340.362 990.045ZM338.771 978.568H354.794V984.477H338.771V978.568Z" fill="white"/>
<rect x="185.5" y="957.5" width="269" height="36" stroke="#03042F" stroke-width="5"/>
<rect x="185.5" y="268.5" width="269" height="687" fill="#6493CB" fill-opacity="0.7"/>
<path d="M230.877 626.574V597.483H243.491C245.706 597.483 247.567 597.781 249.073 598.378C250.588 598.975 251.729 599.817 252.496 600.906C253.273 601.995 253.661 603.279 253.661 604.756C253.661 605.826 253.424 606.801 252.951 607.682C252.487 608.563 251.833 609.301 250.991 609.898C250.148 610.485 249.163 610.892 248.036 611.12V611.404C249.286 611.451 250.422 611.768 251.445 612.355C252.468 612.933 253.282 613.733 253.888 614.756C254.494 615.769 254.797 616.962 254.797 618.335C254.797 619.926 254.381 621.342 253.547 622.583C252.724 623.823 251.549 624.799 250.025 625.509C248.5 626.219 246.682 626.574 244.57 626.574H230.877ZM238.775 620.267H242.468C243.794 620.267 244.788 620.021 245.451 619.529C246.114 619.027 246.445 618.288 246.445 617.313C246.445 616.631 246.289 616.053 245.976 615.58C245.664 615.106 245.219 614.746 244.641 614.5C244.073 614.254 243.386 614.131 242.581 614.131H238.775V620.267ZM238.775 609.245H242.013C242.705 609.245 243.315 609.136 243.846 608.918C244.376 608.7 244.788 608.388 245.081 607.98C245.385 607.564 245.536 607.057 245.536 606.46C245.536 605.561 245.214 604.874 244.57 604.401C243.926 603.918 243.112 603.676 242.127 603.676H238.775V609.245Z" fill="white"/>
<path d="M257.596 626.574V597.483H278.562V603.847H265.493V608.847H277.482V615.21H265.493V620.21H278.505V626.574H257.596Z" fill="white"/>
<path d="M307.649 597.483V626.574H301.058L290.547 611.29H290.376V626.574H282.479V597.483H289.183L299.524 612.71H299.751V597.483H307.649Z" fill="white"/>
<path d="M319.282 597.483V626.574H311.385V597.483H319.282Z" fill="white"/>
<path d="M323.025 626.574V597.483H343.48V603.847H330.923V608.847H342.23V615.21H330.923V626.574H323.025Z" fill="white"/>
<path d="M354.282 597.483V626.574H346.385V597.483H354.282Z" fill="white"/>
<path d="M357.23 603.847V597.483H382.514V603.847H373.764V626.574H365.98V603.847H357.23Z" fill="white"/>
<path d="M401.168 606.574C401.092 605.627 400.737 604.888 400.103 604.358C399.478 603.828 398.526 603.563 397.248 603.563C396.433 603.563 395.766 603.662 395.245 603.861C394.733 604.05 394.355 604.311 394.108 604.642C393.862 604.974 393.734 605.352 393.725 605.779C393.706 606.129 393.768 606.446 393.91 606.73C394.061 607.005 394.298 607.256 394.62 607.483C394.942 607.701 395.354 607.9 395.856 608.08C396.358 608.26 396.954 608.421 397.645 608.563L400.032 609.074C401.642 609.415 403.019 609.865 404.165 610.424C405.311 610.982 406.249 611.64 406.978 612.398C407.707 613.146 408.242 613.989 408.583 614.926C408.933 615.864 409.113 616.887 409.123 617.995C409.113 619.907 408.635 621.527 407.688 622.852C406.741 624.178 405.387 625.187 403.626 625.878C401.874 626.569 399.767 626.915 397.305 626.915C394.776 626.915 392.57 626.541 390.685 625.793C388.81 625.045 387.352 623.894 386.31 622.341C385.278 620.779 384.757 618.781 384.748 616.347H392.248C392.295 617.237 392.518 617.985 392.915 618.591C393.313 619.197 393.872 619.656 394.591 619.969C395.321 620.281 396.187 620.438 397.191 620.438C398.034 620.438 398.739 620.334 399.307 620.125C399.876 619.917 400.306 619.628 400.6 619.259C400.894 618.889 401.045 618.468 401.055 617.995C401.045 617.549 400.898 617.161 400.614 616.83C400.34 616.489 399.885 616.186 399.251 615.921C398.616 615.646 397.759 615.39 396.68 615.154L393.782 614.529C391.206 613.97 389.175 613.037 387.688 611.73C386.211 610.414 385.477 608.62 385.486 606.347C385.477 604.5 385.969 602.886 386.964 601.503C387.967 600.111 389.355 599.027 391.126 598.25C392.906 597.474 394.947 597.085 397.248 597.085C399.596 597.085 401.627 597.478 403.341 598.264C405.055 599.05 406.376 600.158 407.305 601.588C408.242 603.009 408.715 604.671 408.725 606.574H401.168Z" fill="white"/>
<rect x="185.5" y="268.5" width="269" height="687" stroke="#03042F" stroke-width="5"/>
<rect x="185.5" y="998.5" width="269" height="81" fill="#64CBAC" fill-opacity="0.7"/>
<path d="M296.46 1033.57C296.384 1032.63 296.029 1031.89 295.394 1031.36C294.769 1030.83 293.817 1030.56 292.539 1030.56C291.725 1030.56 291.057 1030.66 290.536 1030.86C290.025 1031.05 289.646 1031.31 289.4 1031.64C289.154 1031.97 289.026 1032.35 289.016 1032.78C288.997 1033.13 289.059 1033.45 289.201 1033.73C289.353 1034 289.589 1034.26 289.911 1034.48C290.233 1034.7 290.645 1034.9 291.147 1035.08C291.649 1035.26 292.246 1035.42 292.937 1035.56L295.323 1036.07C296.933 1036.41 298.311 1036.86 299.457 1037.42C300.603 1037.98 301.54 1038.64 302.269 1039.4C302.998 1040.15 303.533 1040.99 303.874 1041.93C304.225 1042.86 304.405 1043.89 304.414 1044.99C304.405 1046.91 303.926 1048.53 302.979 1049.85C302.032 1051.18 300.678 1052.19 298.917 1052.88C297.165 1053.57 295.058 1053.91 292.596 1053.91C290.067 1053.91 287.861 1053.54 285.977 1052.79C284.102 1052.04 282.643 1050.89 281.602 1049.34C280.569 1047.78 280.049 1045.78 280.039 1043.35H287.539C287.586 1044.24 287.809 1044.99 288.207 1045.59C288.604 1046.2 289.163 1046.66 289.883 1046.97C290.612 1047.28 291.478 1047.44 292.482 1047.44C293.325 1047.44 294.031 1047.33 294.599 1047.13C295.167 1046.92 295.598 1046.63 295.891 1046.26C296.185 1045.89 296.336 1045.47 296.346 1044.99C296.336 1044.55 296.19 1044.16 295.906 1043.83C295.631 1043.49 295.176 1043.19 294.542 1042.92C293.907 1042.65 293.05 1042.39 291.971 1042.15L289.073 1041.53C286.497 1040.97 284.466 1040.04 282.979 1038.73C281.502 1037.41 280.768 1035.62 280.778 1033.35C280.768 1031.5 281.261 1029.89 282.255 1028.5C283.259 1027.11 284.646 1026.03 286.417 1025.25C288.197 1024.47 290.238 1024.09 292.539 1024.09C294.888 1024.09 296.919 1024.48 298.633 1025.26C300.347 1026.05 301.668 1027.16 302.596 1028.59C303.533 1030.01 304.007 1031.67 304.016 1033.57H296.46Z" fill="white"/>
<path d="M332.589 1024.48V1053.57H325.998L315.487 1038.29H315.316V1053.57H307.418V1024.48H314.123L324.464 1039.71H324.691V1024.48H332.589Z" fill="white"/>
<path d="M352.006 1033.57C351.931 1032.63 351.576 1031.89 350.941 1031.36C350.316 1030.83 349.364 1030.56 348.086 1030.56C347.272 1030.56 346.604 1030.66 346.083 1030.86C345.572 1031.05 345.193 1031.31 344.947 1031.64C344.701 1031.97 344.573 1032.35 344.563 1032.78C344.544 1033.13 344.606 1033.45 344.748 1033.73C344.899 1034 345.136 1034.26 345.458 1034.48C345.78 1034.7 346.192 1034.9 346.694 1035.08C347.196 1035.26 347.792 1035.42 348.484 1035.56L350.87 1036.07C352.48 1036.41 353.858 1036.86 355.004 1037.42C356.149 1037.98 357.087 1038.64 357.816 1039.4C358.545 1040.15 359.08 1040.99 359.421 1041.93C359.772 1042.86 359.951 1043.89 359.961 1044.99C359.951 1046.91 359.473 1048.53 358.526 1049.85C357.579 1051.18 356.225 1052.19 354.464 1052.88C352.712 1053.57 350.605 1053.91 348.143 1053.91C345.614 1053.91 343.408 1053.54 341.523 1052.79C339.648 1052.04 338.19 1050.89 337.148 1049.34C336.116 1047.78 335.595 1045.78 335.586 1043.35H343.086C343.133 1044.24 343.356 1044.99 343.754 1045.59C344.151 1046.2 344.71 1046.66 345.43 1046.97C346.159 1047.28 347.025 1047.44 348.029 1047.44C348.872 1047.44 349.577 1047.33 350.146 1047.13C350.714 1046.92 351.145 1046.63 351.438 1046.26C351.732 1045.89 351.883 1045.47 351.893 1044.99C351.883 1044.55 351.737 1044.16 351.452 1043.83C351.178 1043.49 350.723 1043.19 350.089 1042.92C349.454 1042.65 348.597 1042.39 347.518 1042.15L344.62 1041.53C342.044 1040.97 340.013 1040.04 338.526 1038.73C337.049 1037.41 336.315 1035.62 336.325 1033.35C336.315 1031.5 336.808 1029.89 337.802 1028.5C338.806 1027.11 340.193 1026.03 341.964 1025.25C343.744 1024.47 345.785 1024.09 348.086 1024.09C350.434 1024.09 352.466 1024.48 354.18 1025.26C355.894 1026.05 357.215 1027.16 358.143 1028.59C359.08 1030.01 359.554 1031.67 359.563 1033.57H352.006Z" fill="white"/>
<rect x="185.5" y="998.5" width="269" height="81" stroke="#03042F" stroke-width="5"/>
<rect x="185.5" y="1084.5" width="269" height="117" fill="#CBBB64" fill-opacity="0.7"/>
<path d="M280.783 1156.66V1127.57H301.238V1133.94H288.681V1138.94H299.988V1145.3H288.681V1156.66H280.783Z" fill="white"/>
<path d="M308.067 1156.66H299.544L309.146 1127.57H319.942L329.544 1156.66H321.021L314.657 1135.59H314.43L308.067 1156.66ZM306.476 1145.19H322.498V1151.1H306.476V1145.19Z" fill="white"/>
<path d="M342.229 1145.87H348.365L350.581 1148.65L354.331 1152.91L359.217 1158.82H352.229L348.763 1154.79L346.433 1151.44L342.229 1145.87ZM359.16 1142.12C359.16 1145.36 358.531 1148.09 357.271 1150.32C356.012 1152.53 354.312 1154.21 352.172 1155.36C350.032 1156.49 347.645 1157.06 345.013 1157.06C342.361 1157.06 339.965 1156.49 337.825 1155.34C335.694 1154.19 333.999 1152.5 332.74 1150.29C331.49 1148.06 330.865 1145.34 330.865 1142.12C330.865 1138.88 331.49 1136.15 332.74 1133.94C333.999 1131.71 335.694 1130.03 337.825 1128.9C339.965 1127.75 342.361 1127.18 345.013 1127.18C347.645 1127.18 350.032 1127.75 352.172 1128.9C354.312 1130.03 356.012 1131.71 357.271 1133.94C358.531 1136.15 359.16 1138.88 359.16 1142.12ZM351.035 1142.12C351.035 1140.38 350.803 1138.91 350.339 1137.72C349.885 1136.51 349.208 1135.6 348.308 1134.99C347.418 1134.36 346.319 1134.05 345.013 1134.05C343.706 1134.05 342.603 1134.36 341.703 1134.99C340.813 1135.6 340.136 1136.51 339.672 1137.72C339.217 1138.91 338.99 1140.38 338.99 1142.12C338.99 1143.86 339.217 1145.33 339.672 1146.54C340.136 1147.73 340.813 1148.64 341.703 1149.26C342.603 1149.88 343.706 1150.19 345.013 1150.19C346.319 1150.19 347.418 1149.88 348.308 1149.26C349.208 1148.64 349.885 1147.73 350.339 1146.54C350.803 1145.33 351.035 1143.86 351.035 1142.12Z" fill="white"/>
<rect x="185.5" y="1084.5" width="269" height="117" stroke="#03042F" stroke-width="5"/>
</svg>
