<svg width="1616" height="3834" viewBox="0 0 1616 3834" fill="none" xmlns="http://www.w3.org/2000/svg">
<rect width="1616" height="3834" fill="white"/>
<g clip-path="url(#clip0_498_808)">
<rect width="1616" height="106" fill="#EFEFEF"/>
<path d="M752.314 5.95454V100.5H730.893L696.731 50.8267H696.177V100.5H670.51V5.95454H692.3L725.907 55.4432H726.646V5.95454H752.314ZM789.015 100.5H761.316L792.523 5.95454H827.608L858.816 100.5H831.117L810.435 31.9915H809.697L789.015 100.5ZM783.844 63.1989H835.918V82.4034H783.844V63.1989ZM880.063 5.95454L899.452 72.6165H900.191L919.58 5.95454H948.572L917.364 100.5H882.279L851.072 5.95454H880.063Z" fill="#060606"/>
</g>
<rect x="5" y="5" width="1606" height="96" stroke="#03042F" stroke-width="10"/>
<rect y="106" width="1616" height="616" fill="#A2A2A2"/>
<rect x="536" y="1122" width="1080" height="513" fill="#A2A2A2"/>
<rect x="10" y="1643" width="800" height="566" fill="#A2A2A2"/>
<rect x="45" y="2388" width="469" height="506" fill="#A2A2A2"/>
<rect x="264" y="3394" width="250" height="440" fill="#A2A2A2"/>
<rect x="683" y="3394" width="250" height="440" fill="#A2A2A2"/>
<rect x="1111" y="3394" width="250" height="440" fill="#A2A2A2"/>
<rect x="573" y="2388" width="469" height="506" fill="#A2A2A2"/>
<rect x="1091" y="2388" width="469" height="506" fill="#A2A2A2"/>
<rect x="536" y="355" width="543" height="118" fill="#D9D9D9"/>
<rect x="264" y="767" width="1053" height="71" fill="#D9D9D9"/>
<rect x="54" y="1176" width="302" height="36" fill="#D9D9D9"/>
<rect x="857" y="1680" width="375" height="36" fill="#D9D9D9"/>
<rect x="246" y="2287" width="1137" height="36" fill="#D9D9D9"/>
<rect x="246" y="3169" width="1137" height="36" fill="#D9D9D9"/>
<rect x="246" y="3230" width="1137" height="36" fill="#D9D9D9"/>
<rect x="556" y="3279" width="517" height="36" fill="#D9D9D9"/>
<rect x="54" y="1220" width="425" height="36" fill="#D9D9D9"/>
<rect x="54" y="1264" width="338" height="36" fill="#D9D9D9"/>
<rect x="54" y="1385" width="425" height="19" fill="#D9D9D9"/>
<rect x="854" y="1772" width="237" height="19" fill="#D9D9D9"/>
<rect x="854" y="1819" width="342" height="19" fill="#D9D9D9"/>
<rect x="854" y="1882" width="342" height="19" fill="#D9D9D9"/>
<rect x="857" y="1926" width="233" height="19" fill="#D9D9D9"/>
<rect x="857" y="2104" width="326" height="19" fill="#D9D9D9"/>
<rect x="858" y="2136" width="165" height="19" fill="#D9D9D9"/>
<rect x="1246" y="1772" width="156" height="19" fill="#D9D9D9"/>
<rect x="1246" y="1819" width="248" height="19" fill="#D9D9D9"/>
<rect x="1246" y="1882" width="248" height="19" fill="#D9D9D9"/>
<rect x="1248" y="1926" width="135" height="19" fill="#D9D9D9"/>
<rect x="54" y="1412" width="425" height="19" fill="#D9D9D9"/>
<rect x="54" y="1439" width="425" height="19" fill="#D9D9D9"/>
<rect x="54" y="1466" width="425" height="19" fill="#D9D9D9"/>
<rect x="54" y="1493" width="425" height="19" fill="#D9D9D9"/>
<rect x="54" y="1520" width="147" height="19" fill="#D9D9D9"/>
<rect x="54" y="1308" width="302" height="36" fill="#D9D9D9"/>
<rect x="215" y="862" width="1168" height="120" fill="#D9D9D9"/>
<rect x="717" y="1014" width="212" height="76" fill="#EFEFEF"/>
<path d="M759.971 1047C759.895 1046.05 759.54 1045.31 758.906 1044.78C758.281 1044.25 757.329 1043.99 756.05 1043.99C755.236 1043.99 754.568 1044.09 754.048 1044.29C753.536 1044.48 753.157 1044.74 752.911 1045.07C752.665 1045.4 752.537 1045.78 752.528 1046.2C752.509 1046.55 752.57 1046.87 752.712 1047.16C752.864 1047.43 753.101 1047.68 753.423 1047.91C753.745 1048.13 754.156 1048.33 754.658 1048.51C755.16 1048.69 755.757 1048.85 756.448 1048.99L758.835 1049.5C760.444 1049.84 761.822 1050.29 762.968 1050.85C764.114 1051.41 765.051 1052.07 765.781 1052.82C766.51 1053.57 767.045 1054.41 767.386 1055.35C767.736 1056.29 767.916 1057.31 767.925 1058.42C767.916 1060.33 767.438 1061.95 766.491 1063.28C765.544 1064.6 764.19 1065.61 762.428 1066.3C760.676 1067 758.569 1067.34 756.107 1067.34C753.579 1067.34 751.372 1066.97 749.488 1066.22C747.613 1065.47 746.155 1064.32 745.113 1062.77C744.081 1061.2 743.56 1059.21 743.55 1056.77H751.05C751.098 1057.66 751.32 1058.41 751.718 1059.02C752.116 1059.62 752.674 1060.08 753.394 1060.39C754.123 1060.71 754.99 1060.86 755.994 1060.86C756.836 1060.86 757.542 1060.76 758.11 1060.55C758.678 1060.34 759.109 1060.05 759.403 1059.68C759.696 1059.32 759.848 1058.89 759.857 1058.42C759.848 1057.98 759.701 1057.59 759.417 1057.26C759.142 1056.91 758.688 1056.61 758.053 1056.35C757.419 1056.07 756.562 1055.82 755.482 1055.58L752.585 1054.95C750.009 1054.4 747.978 1053.46 746.491 1052.16C745.013 1050.84 744.28 1049.05 744.289 1046.77C744.28 1044.93 744.772 1043.31 745.766 1041.93C746.77 1040.54 748.157 1039.45 749.928 1038.68C751.709 1037.9 753.749 1037.51 756.05 1037.51C758.399 1037.51 760.43 1037.9 762.144 1038.69C763.858 1039.48 765.179 1040.58 766.107 1042.01C767.045 1043.43 767.518 1045.1 767.528 1047H759.971ZM778.827 1037.91V1067H770.93V1037.91H778.827ZM801.462 1047.51C801.339 1047.01 801.145 1046.57 800.88 1046.19C800.615 1045.8 800.283 1045.48 799.886 1045.21C799.497 1044.94 799.043 1044.73 798.522 1044.6C798.011 1044.46 797.447 1044.39 796.832 1044.39C795.506 1044.39 794.374 1044.7 793.437 1045.34C792.509 1045.97 791.799 1046.89 791.306 1048.08C790.823 1049.27 790.582 1050.71 790.582 1052.4C790.582 1054.1 790.814 1055.56 791.278 1056.77C791.742 1057.98 792.433 1058.91 793.352 1059.56C794.27 1060.2 795.411 1060.52 796.775 1060.52C797.978 1060.52 798.977 1060.35 799.772 1060C800.577 1059.65 801.178 1059.15 801.576 1058.51C801.974 1057.86 802.173 1057.1 802.173 1056.23L803.536 1056.38H796.888V1050.75H809.786V1054.78C809.786 1057.44 809.223 1059.7 808.096 1061.59C806.978 1063.46 805.435 1064.9 803.465 1065.91C801.505 1066.9 799.256 1067.4 796.718 1067.4C793.887 1067.4 791.401 1066.8 789.261 1065.59C787.121 1064.39 785.449 1062.68 784.246 1060.45C783.053 1058.23 782.457 1055.58 782.457 1052.51C782.457 1050.11 782.821 1047.98 783.55 1046.12C784.289 1044.26 785.312 1042.7 786.619 1041.42C787.925 1040.13 789.436 1039.16 791.15 1038.51C792.864 1037.84 794.701 1037.51 796.661 1037.51C798.385 1037.51 799.985 1037.76 801.462 1038.25C802.949 1038.73 804.261 1039.42 805.397 1040.32C806.543 1041.21 807.466 1042.27 808.167 1043.49C808.868 1044.71 809.294 1046.05 809.445 1047.51H801.462ZM838.639 1037.91V1067H832.048L821.537 1051.72H821.366V1067H813.469V1037.91H820.173L830.514 1053.14H830.741V1037.91H838.639ZM867.56 1037.91H875.457V1056.55C875.457 1058.76 874.927 1060.68 873.866 1062.3C872.815 1063.91 871.348 1065.15 869.463 1066.03C867.579 1066.91 865.391 1067.34 862.901 1067.34C860.391 1067.34 858.194 1066.91 856.31 1066.03C854.425 1065.15 852.957 1063.91 851.906 1062.3C850.865 1060.68 850.344 1058.76 850.344 1056.55V1037.91H858.241V1055.86C858.241 1056.76 858.44 1057.57 858.838 1058.28C859.236 1058.98 859.785 1059.53 860.486 1059.93C861.196 1060.32 862.001 1060.52 862.901 1060.52C863.81 1060.52 864.615 1060.32 865.315 1059.93C866.016 1059.53 866.565 1058.98 866.963 1058.28C867.361 1057.57 867.56 1056.76 867.56 1055.86V1037.91ZM879.211 1067V1037.91H891.768C893.927 1037.91 895.816 1038.34 897.435 1039.19C899.055 1040.04 900.314 1041.24 901.214 1042.78C902.113 1044.32 902.563 1046.13 902.563 1048.19C902.563 1050.28 902.099 1052.08 901.171 1053.61C900.253 1055.13 898.96 1056.3 897.293 1057.13C895.636 1057.95 893.7 1058.36 891.484 1058.36H883.984V1052.23H889.893C890.821 1052.23 891.612 1052.07 892.265 1051.74C892.928 1051.41 893.434 1050.94 893.785 1050.34C894.145 1049.73 894.325 1049.02 894.325 1048.19C894.325 1047.36 894.145 1046.65 893.785 1046.06C893.434 1045.47 892.928 1045.01 892.265 1044.7C891.612 1044.38 890.821 1044.22 889.893 1044.22H887.109V1067H879.211Z" fill="#060606"/>
<rect x="717" y="1014" width="212" height="76" stroke="#03042F" stroke-width="10"/>
<rect x="50" y="1562" width="191" height="49" fill="#EFEFEF"/>
<path d="M82.4709 1581.5C82.3951 1580.55 82.04 1579.81 81.4055 1579.28C80.7805 1578.75 79.8288 1578.49 78.5504 1578.49C77.736 1578.49 77.0684 1578.59 76.5476 1578.79C76.0362 1578.98 75.6574 1579.24 75.4112 1579.57C75.165 1579.9 75.0372 1580.28 75.0277 1580.7C75.0088 1581.05 75.0703 1581.37 75.2124 1581.66C75.3639 1581.93 75.6006 1582.18 75.9226 1582.41C76.2446 1582.63 76.6565 1582.83 77.1584 1583.01C77.6603 1583.19 78.2569 1583.35 78.9482 1583.49L81.3345 1584C82.9444 1584.34 84.3222 1584.79 85.468 1585.35C86.6139 1585.91 87.5514 1586.57 88.2805 1587.32C89.0097 1588.07 89.5447 1588.91 89.8857 1589.85C90.236 1590.79 90.416 1591.81 90.4254 1592.92C90.416 1594.83 89.9377 1596.45 88.9908 1597.78C88.0438 1599.1 86.6896 1600.11 84.9283 1600.8C83.1764 1601.5 81.0694 1601.84 78.6072 1601.84C76.0788 1601.84 73.8724 1601.47 71.9879 1600.72C70.1129 1599.97 68.6546 1598.82 67.6129 1597.27C66.5807 1595.7 66.0599 1593.71 66.0504 1591.27H73.5504C73.5978 1592.16 73.8203 1592.91 74.218 1593.52C74.6158 1594.12 75.1745 1594.58 75.8942 1594.89C76.6233 1595.21 77.4898 1595.36 78.4936 1595.36C79.3364 1595.36 80.0419 1595.26 80.6101 1595.05C81.1783 1594.84 81.6091 1594.55 81.9027 1594.18C82.1963 1593.82 82.3478 1593.39 82.3572 1592.92C82.3478 1592.48 82.201 1592.09 81.9169 1591.76C81.6423 1591.41 81.1877 1591.11 80.5533 1590.85C79.9188 1590.57 79.0618 1590.32 77.9822 1590.08L75.0845 1589.45C72.5088 1588.9 70.4775 1587.96 68.9908 1586.66C67.5135 1585.34 66.7796 1583.55 66.7891 1581.27C66.7796 1579.43 67.272 1577.81 68.2663 1576.43C69.2701 1575.04 70.6574 1573.95 72.4283 1573.18C74.2086 1572.4 76.2493 1572.01 78.5504 1572.01C80.8989 1572.01 82.9302 1572.4 84.6442 1573.19C86.3582 1573.98 87.6792 1575.08 88.6072 1576.51C89.5447 1577.93 90.0182 1579.6 90.0277 1581.5H82.4709ZM101.327 1572.41V1601.5H93.4297V1572.41H101.327ZM123.962 1582.01C123.839 1581.51 123.645 1581.07 123.38 1580.69C123.115 1580.3 122.783 1579.98 122.386 1579.71C121.997 1579.44 121.543 1579.23 121.022 1579.1C120.511 1578.96 119.947 1578.89 119.332 1578.89C118.006 1578.89 116.874 1579.2 115.937 1579.84C115.009 1580.47 114.299 1581.39 113.806 1582.58C113.323 1583.77 113.082 1585.21 113.082 1586.9C113.082 1588.6 113.314 1590.06 113.778 1591.27C114.242 1592.48 114.933 1593.41 115.852 1594.06C116.77 1594.7 117.911 1595.02 119.275 1595.02C120.478 1595.02 121.477 1594.85 122.272 1594.5C123.077 1594.15 123.678 1593.65 124.076 1593.01C124.474 1592.36 124.673 1591.6 124.673 1590.73L126.036 1590.88H119.388V1585.25H132.286V1589.28C132.286 1591.94 131.723 1594.2 130.596 1596.09C129.478 1597.96 127.935 1599.4 125.965 1600.41C124.005 1601.4 121.756 1601.9 119.218 1601.9C116.387 1601.9 113.901 1601.3 111.761 1600.09C109.621 1598.89 107.949 1597.18 106.746 1594.95C105.553 1592.73 104.957 1590.08 104.957 1587.01C104.957 1584.61 105.321 1582.48 106.05 1580.62C106.789 1578.76 107.812 1577.2 109.119 1575.92C110.425 1574.63 111.936 1573.66 113.65 1573.01C115.364 1572.34 117.201 1572.01 119.161 1572.01C120.885 1572.01 122.485 1572.26 123.962 1572.75C125.449 1573.23 126.761 1573.92 127.897 1574.82C129.043 1575.71 129.966 1576.77 130.667 1577.99C131.368 1579.21 131.794 1580.55 131.945 1582.01H123.962ZM161.139 1572.41V1601.5H154.548L144.037 1586.22H143.866V1601.5H135.969V1572.41H142.673L153.014 1587.64H153.241V1572.41H161.139ZM190.06 1572.41H197.957V1591.05C197.957 1593.26 197.427 1595.18 196.366 1596.8C195.315 1598.41 193.848 1599.65 191.963 1600.53C190.079 1601.41 187.891 1601.84 185.401 1601.84C182.891 1601.84 180.694 1601.41 178.81 1600.53C176.925 1599.65 175.457 1598.41 174.406 1596.8C173.365 1595.18 172.844 1593.26 172.844 1591.05V1572.41H180.741V1590.36C180.741 1591.26 180.94 1592.07 181.338 1592.78C181.736 1593.48 182.285 1594.03 182.986 1594.43C183.696 1594.82 184.501 1595.02 185.401 1595.02C186.31 1595.02 187.115 1594.82 187.815 1594.43C188.516 1594.03 189.065 1593.48 189.463 1592.78C189.861 1592.07 190.06 1591.26 190.06 1590.36V1572.41ZM201.711 1601.5V1572.41H214.268C216.427 1572.41 218.316 1572.84 219.935 1573.69C221.555 1574.54 222.814 1575.74 223.714 1577.28C224.613 1578.82 225.063 1580.63 225.063 1582.69C225.063 1584.78 224.599 1586.58 223.671 1588.11C222.753 1589.63 221.46 1590.8 219.793 1591.63C218.136 1592.45 216.2 1592.86 213.984 1592.86H206.484V1586.73H212.393C213.321 1586.73 214.112 1586.57 214.765 1586.24C215.428 1585.91 215.934 1585.44 216.285 1584.84C216.645 1584.23 216.825 1583.52 216.825 1582.69C216.825 1581.86 216.645 1581.15 216.285 1580.56C215.934 1579.97 215.428 1579.51 214.765 1579.2C214.112 1578.88 213.321 1578.72 212.393 1578.72H209.609V1601.5H201.711Z" fill="#060606"/>
<rect x="50" y="1562" width="191" height="49" stroke="#03042F" stroke-width="10"/>
<rect x="862" y="1994" width="191" height="49" fill="#EFEFEF"/>
<path d="M894.471 2013.5C894.395 2012.55 894.04 2011.81 893.406 2011.28C892.781 2010.75 891.829 2010.49 890.55 2010.49C889.736 2010.49 889.068 2010.59 888.548 2010.79C888.036 2010.98 887.657 2011.24 887.411 2011.57C887.165 2011.9 887.037 2012.28 887.028 2012.7C887.009 2013.05 887.07 2013.37 887.212 2013.66C887.364 2013.93 887.601 2014.18 887.923 2014.41C888.245 2014.63 888.656 2014.83 889.158 2015.01C889.66 2015.19 890.257 2015.35 890.948 2015.49L893.335 2016C894.944 2016.34 896.322 2016.79 897.468 2017.35C898.614 2017.91 899.551 2018.57 900.281 2019.32C901.01 2020.07 901.545 2020.91 901.886 2021.85C902.236 2022.79 902.416 2023.81 902.425 2024.92C902.416 2026.83 901.938 2028.45 900.991 2029.78C900.044 2031.1 898.69 2032.11 896.928 2032.8C895.176 2033.5 893.069 2033.84 890.607 2033.84C888.079 2033.84 885.872 2033.47 883.988 2032.72C882.113 2031.97 880.655 2030.82 879.613 2029.27C878.581 2027.7 878.06 2025.71 878.05 2023.27H885.55C885.598 2024.16 885.82 2024.91 886.218 2025.52C886.616 2026.12 887.174 2026.58 887.894 2026.89C888.623 2027.21 889.49 2027.36 890.494 2027.36C891.336 2027.36 892.042 2027.26 892.61 2027.05C893.178 2026.84 893.609 2026.55 893.903 2026.18C894.196 2025.82 894.348 2025.39 894.357 2024.92C894.348 2024.48 894.201 2024.09 893.917 2023.76C893.642 2023.41 893.188 2023.11 892.553 2022.85C891.919 2022.57 891.062 2022.32 889.982 2022.08L887.085 2021.45C884.509 2020.9 882.478 2019.96 880.991 2018.66C879.513 2017.34 878.78 2015.55 878.789 2013.27C878.78 2011.43 879.272 2009.81 880.266 2008.43C881.27 2007.04 882.657 2005.95 884.428 2005.18C886.209 2004.4 888.249 2004.01 890.55 2004.01C892.899 2004.01 894.93 2004.4 896.644 2005.19C898.358 2005.98 899.679 2007.08 900.607 2008.51C901.545 2009.93 902.018 2011.6 902.028 2013.5H894.471ZM913.327 2004.41V2033.5H905.43V2004.41H913.327ZM935.962 2014.01C935.839 2013.51 935.645 2013.07 935.38 2012.69C935.115 2012.3 934.783 2011.98 934.386 2011.71C933.997 2011.44 933.543 2011.23 933.022 2011.1C932.511 2010.96 931.947 2010.89 931.332 2010.89C930.006 2010.89 928.874 2011.2 927.937 2011.84C927.009 2012.47 926.299 2013.39 925.806 2014.58C925.323 2015.77 925.082 2017.21 925.082 2018.9C925.082 2020.6 925.314 2022.06 925.778 2023.27C926.242 2024.48 926.933 2025.41 927.852 2026.06C928.77 2026.7 929.911 2027.02 931.275 2027.02C932.478 2027.02 933.477 2026.85 934.272 2026.5C935.077 2026.15 935.678 2025.65 936.076 2025.01C936.474 2024.36 936.673 2023.6 936.673 2022.73L938.036 2022.88H931.388V2017.25H944.286V2021.28C944.286 2023.94 943.723 2026.2 942.596 2028.09C941.478 2029.96 939.935 2031.4 937.965 2032.41C936.005 2033.4 933.756 2033.9 931.218 2033.9C928.387 2033.9 925.901 2033.3 923.761 2032.09C921.621 2030.89 919.949 2029.18 918.746 2026.95C917.553 2024.73 916.957 2022.08 916.957 2019.01C916.957 2016.61 917.321 2014.48 918.05 2012.62C918.789 2010.76 919.812 2009.2 921.119 2007.92C922.425 2006.63 923.936 2005.66 925.65 2005.01C927.364 2004.34 929.201 2004.01 931.161 2004.01C932.885 2004.01 934.485 2004.26 935.962 2004.75C937.449 2005.23 938.761 2005.92 939.897 2006.82C941.043 2007.71 941.966 2008.77 942.667 2009.99C943.368 2011.21 943.794 2012.55 943.945 2014.01H935.962ZM973.139 2004.41V2033.5H966.548L956.037 2018.22H955.866V2033.5H947.969V2004.41H954.673L965.014 2019.64H965.241V2004.41H973.139ZM1002.06 2004.41H1009.96V2023.05C1009.96 2025.26 1009.43 2027.18 1008.37 2028.8C1007.32 2030.41 1005.85 2031.65 1003.96 2032.53C1002.08 2033.41 999.891 2033.84 997.401 2033.84C994.891 2033.84 992.694 2033.41 990.81 2032.53C988.925 2031.65 987.457 2030.41 986.406 2028.8C985.365 2027.18 984.844 2025.26 984.844 2023.05V2004.41H992.741V2022.36C992.741 2023.26 992.94 2024.07 993.338 2024.78C993.736 2025.48 994.285 2026.03 994.986 2026.43C995.696 2026.82 996.501 2027.02 997.401 2027.02C998.31 2027.02 999.115 2026.82 999.815 2026.43C1000.52 2026.03 1001.07 2025.48 1001.46 2024.78C1001.86 2024.07 1002.06 2023.26 1002.06 2022.36V2004.41ZM1013.71 2033.5V2004.41H1026.27C1028.43 2004.41 1030.32 2004.84 1031.94 2005.69C1033.55 2006.54 1034.81 2007.74 1035.71 2009.28C1036.61 2010.82 1037.06 2012.63 1037.06 2014.69C1037.06 2016.78 1036.6 2018.58 1035.67 2020.11C1034.75 2021.63 1033.46 2022.8 1031.79 2023.63C1030.14 2024.45 1028.2 2024.86 1025.98 2024.86H1018.48V2018.73H1024.39C1025.32 2018.73 1026.11 2018.57 1026.76 2018.24C1027.43 2017.91 1027.93 2017.44 1028.28 2016.84C1028.64 2016.23 1028.82 2015.52 1028.82 2014.69C1028.82 2013.86 1028.64 2013.15 1028.28 2012.56C1027.93 2011.97 1027.43 2011.51 1026.76 2011.2C1026.11 2010.88 1025.32 2010.72 1024.39 2010.72H1021.61V2033.5H1013.71Z" fill="#060606"/>
<rect x="862" y="1994" width="191" height="49" stroke="#03042F" stroke-width="10"/>
<rect x="648" y="2964" width="302" height="49" fill="#EFEFEF"/>
<path d="M735.971 2983.5C735.895 2982.55 735.54 2981.81 734.906 2981.28C734.281 2980.75 733.329 2980.49 732.05 2980.49C731.236 2980.49 730.568 2980.59 730.048 2980.79C729.536 2980.98 729.157 2981.24 728.911 2981.57C728.665 2981.9 728.537 2982.28 728.528 2982.7C728.509 2983.05 728.57 2983.37 728.712 2983.66C728.864 2983.93 729.101 2984.18 729.423 2984.41C729.745 2984.63 730.156 2984.83 730.658 2985.01C731.16 2985.19 731.757 2985.35 732.448 2985.49L734.835 2986C736.444 2986.34 737.822 2986.79 738.968 2987.35C740.114 2987.91 741.051 2988.57 741.781 2989.32C742.51 2990.07 743.045 2990.91 743.386 2991.85C743.736 2992.79 743.916 2993.81 743.925 2994.92C743.916 2996.83 743.438 2998.45 742.491 2999.78C741.544 3001.1 740.19 3002.11 738.428 3002.8C736.676 3003.5 734.569 3003.84 732.107 3003.84C729.579 3003.84 727.372 3003.47 725.488 3002.72C723.613 3001.97 722.155 3000.82 721.113 2999.27C720.081 2997.7 719.56 2995.71 719.55 2993.27H727.05C727.098 2994.16 727.32 2994.91 727.718 2995.52C728.116 2996.12 728.674 2996.58 729.394 2996.89C730.123 2997.21 730.99 2997.36 731.994 2997.36C732.836 2997.36 733.542 2997.26 734.11 2997.05C734.678 2996.84 735.109 2996.55 735.403 2996.18C735.696 2995.82 735.848 2995.39 735.857 2994.92C735.848 2994.48 735.701 2994.09 735.417 2993.76C735.142 2993.41 734.688 2993.11 734.053 2992.85C733.419 2992.57 732.562 2992.32 731.482 2992.08L728.585 2991.45C726.009 2990.9 723.978 2989.96 722.491 2988.66C721.013 2987.34 720.28 2985.55 720.289 2983.27C720.28 2981.43 720.772 2979.81 721.766 2978.43C722.77 2977.04 724.157 2975.95 725.928 2975.18C727.709 2974.4 729.749 2974.01 732.05 2974.01C734.399 2974.01 736.43 2974.4 738.144 2975.19C739.858 2975.98 741.179 2977.08 742.107 2978.51C743.045 2979.93 743.518 2981.6 743.528 2983.5H735.971ZM754.827 2974.41V3003.5H746.93V2974.41H754.827ZM777.462 2984.01C777.339 2983.51 777.145 2983.07 776.88 2982.69C776.615 2982.3 776.283 2981.98 775.886 2981.71C775.497 2981.44 775.043 2981.23 774.522 2981.1C774.011 2980.96 773.447 2980.89 772.832 2980.89C771.506 2980.89 770.374 2981.2 769.437 2981.84C768.509 2982.47 767.799 2983.39 767.306 2984.58C766.823 2985.77 766.582 2987.21 766.582 2988.9C766.582 2990.6 766.814 2992.06 767.278 2993.27C767.742 2994.48 768.433 2995.41 769.352 2996.06C770.27 2996.7 771.411 2997.02 772.775 2997.02C773.978 2997.02 774.977 2996.85 775.772 2996.5C776.577 2996.15 777.178 2995.65 777.576 2995.01C777.974 2994.36 778.173 2993.6 778.173 2992.73L779.536 2992.88H772.888V2987.25H785.786V2991.28C785.786 2993.94 785.223 2996.2 784.096 2998.09C782.978 2999.96 781.435 3001.4 779.465 3002.41C777.505 3003.4 775.256 3003.9 772.718 3003.9C769.887 3003.9 767.401 3003.3 765.261 3002.09C763.121 3000.89 761.449 2999.18 760.246 2996.95C759.053 2994.73 758.457 2992.08 758.457 2989.01C758.457 2986.61 758.821 2984.48 759.55 2982.62C760.289 2980.76 761.312 2979.2 762.619 2977.92C763.925 2976.63 765.436 2975.66 767.15 2975.01C768.864 2974.34 770.701 2974.01 772.661 2974.01C774.385 2974.01 775.985 2974.26 777.462 2974.75C778.949 2975.23 780.261 2975.92 781.397 2976.82C782.543 2977.71 783.466 2978.77 784.167 2979.99C784.868 2981.21 785.294 2982.55 785.445 2984.01H777.462ZM814.639 2974.41V3003.5H808.048L797.537 2988.22H797.366V3003.5H789.469V2974.41H796.173L806.514 2989.64H806.741V2974.41H814.639ZM843.56 2974.41H851.457V2993.05C851.457 2995.26 850.927 2997.18 849.866 2998.8C848.815 3000.41 847.348 3001.65 845.463 3002.53C843.579 3003.41 841.391 3003.84 838.901 3003.84C836.391 3003.84 834.194 3003.41 832.31 3002.53C830.425 3001.65 828.957 3000.41 827.906 2998.8C826.865 2997.18 826.344 2995.26 826.344 2993.05V2974.41H834.241V2992.36C834.241 2993.26 834.44 2994.07 834.838 2994.78C835.236 2995.48 835.785 2996.03 836.486 2996.43C837.196 2996.82 838.001 2997.02 838.901 2997.02C839.81 2997.02 840.615 2996.82 841.315 2996.43C842.016 2996.03 842.565 2995.48 842.963 2994.78C843.361 2994.07 843.56 2993.26 843.56 2992.36V2974.41ZM855.211 3003.5V2974.41H867.768C869.927 2974.41 871.816 2974.84 873.435 2975.69C875.055 2976.54 876.314 2977.74 877.214 2979.28C878.113 2980.82 878.563 2982.63 878.563 2984.69C878.563 2986.78 878.099 2988.58 877.171 2990.11C876.253 2991.63 874.96 2992.8 873.293 2993.63C871.636 2994.45 869.7 2994.86 867.484 2994.86H859.984V2988.73H865.893C866.821 2988.73 867.612 2988.57 868.265 2988.24C868.928 2987.91 869.434 2987.44 869.785 2986.84C870.145 2986.23 870.325 2985.52 870.325 2984.69C870.325 2983.86 870.145 2983.15 869.785 2982.56C869.434 2981.97 868.928 2981.51 868.265 2981.2C867.612 2980.88 866.821 2980.72 865.893 2980.72H863.109V3003.5H855.211Z" fill="#060606"/>
<rect x="648" y="2964" width="302" height="49" stroke="#03042F" stroke-width="10"/>
<rect x="291" y="3761" width="195" height="49" fill="#EFEFEF"/>
<path d="M325.471 3780.5C325.395 3779.55 325.04 3778.81 324.406 3778.28C323.781 3777.75 322.829 3777.49 321.55 3777.49C320.736 3777.49 320.068 3777.59 319.548 3777.79C319.036 3777.98 318.657 3778.24 318.411 3778.57C318.165 3778.9 318.037 3779.28 318.028 3779.7C318.009 3780.05 318.07 3780.37 318.212 3780.66C318.364 3780.93 318.601 3781.18 318.923 3781.41C319.245 3781.63 319.656 3781.83 320.158 3782.01C320.66 3782.19 321.257 3782.35 321.948 3782.49L324.335 3783C325.944 3783.34 327.322 3783.79 328.468 3784.35C329.614 3784.91 330.551 3785.57 331.281 3786.32C332.01 3787.07 332.545 3787.91 332.886 3788.85C333.236 3789.79 333.416 3790.81 333.425 3791.92C333.416 3793.83 332.938 3795.45 331.991 3796.78C331.044 3798.1 329.69 3799.11 327.928 3799.8C326.176 3800.5 324.069 3800.84 321.607 3800.84C319.079 3800.84 316.872 3800.47 314.988 3799.72C313.113 3798.97 311.655 3797.82 310.613 3796.27C309.581 3794.7 309.06 3792.71 309.05 3790.27H316.55C316.598 3791.16 316.82 3791.91 317.218 3792.52C317.616 3793.12 318.174 3793.58 318.894 3793.89C319.623 3794.21 320.49 3794.36 321.494 3794.36C322.336 3794.36 323.042 3794.26 323.61 3794.05C324.178 3793.84 324.609 3793.55 324.903 3793.18C325.196 3792.82 325.348 3792.39 325.357 3791.92C325.348 3791.48 325.201 3791.09 324.917 3790.76C324.642 3790.41 324.188 3790.11 323.553 3789.85C322.919 3789.57 322.062 3789.32 320.982 3789.08L318.085 3788.45C315.509 3787.9 313.478 3786.96 311.991 3785.66C310.513 3784.34 309.78 3782.55 309.789 3780.27C309.78 3778.43 310.272 3776.81 311.266 3775.43C312.27 3774.04 313.657 3772.95 315.428 3772.18C317.209 3771.4 319.249 3771.01 321.55 3771.01C323.899 3771.01 325.93 3771.4 327.644 3772.19C329.358 3772.98 330.679 3774.08 331.607 3775.51C332.545 3776.93 333.018 3778.6 333.028 3780.5H325.471ZM344.327 3771.41V3800.5H336.43V3771.41H344.327ZM366.962 3781.01C366.839 3780.51 366.645 3780.07 366.38 3779.69C366.115 3779.3 365.783 3778.98 365.386 3778.71C364.997 3778.44 364.543 3778.23 364.022 3778.1C363.511 3777.96 362.947 3777.89 362.332 3777.89C361.006 3777.89 359.874 3778.2 358.937 3778.84C358.009 3779.47 357.299 3780.39 356.806 3781.58C356.323 3782.77 356.082 3784.21 356.082 3785.9C356.082 3787.6 356.314 3789.06 356.778 3790.27C357.242 3791.48 357.933 3792.41 358.852 3793.06C359.77 3793.7 360.911 3794.02 362.275 3794.02C363.478 3794.02 364.477 3793.85 365.272 3793.5C366.077 3793.15 366.678 3792.65 367.076 3792.01C367.474 3791.36 367.673 3790.6 367.673 3789.73L369.036 3789.88H362.388V3784.25H375.286V3788.28C375.286 3790.94 374.723 3793.2 373.596 3795.09C372.478 3796.96 370.935 3798.4 368.965 3799.41C367.005 3800.4 364.756 3800.9 362.218 3800.9C359.387 3800.9 356.901 3800.3 354.761 3799.09C352.621 3797.89 350.949 3796.18 349.746 3793.95C348.553 3791.73 347.957 3789.08 347.957 3786.01C347.957 3783.61 348.321 3781.48 349.05 3779.62C349.789 3777.76 350.812 3776.2 352.119 3774.92C353.425 3773.63 354.936 3772.66 356.65 3772.01C358.364 3771.34 360.201 3771.01 362.161 3771.01C363.885 3771.01 365.485 3771.26 366.962 3771.75C368.449 3772.23 369.761 3772.92 370.897 3773.82C372.043 3774.71 372.966 3775.77 373.667 3776.99C374.368 3778.21 374.794 3779.55 374.945 3781.01H366.962ZM404.139 3771.41V3800.5H397.548L387.037 3785.22H386.866V3800.5H378.969V3771.41H385.673L396.014 3786.64H396.241V3771.41H404.139ZM433.06 3771.41H440.957V3790.05C440.957 3792.26 440.427 3794.18 439.366 3795.8C438.315 3797.41 436.848 3798.65 434.963 3799.53C433.079 3800.41 430.891 3800.84 428.401 3800.84C425.891 3800.84 423.694 3800.41 421.81 3799.53C419.925 3798.65 418.457 3797.41 417.406 3795.8C416.365 3794.18 415.844 3792.26 415.844 3790.05V3771.41H423.741V3789.36C423.741 3790.26 423.94 3791.07 424.338 3791.78C424.736 3792.48 425.285 3793.03 425.986 3793.43C426.696 3793.82 427.501 3794.02 428.401 3794.02C429.31 3794.02 430.115 3793.82 430.815 3793.43C431.516 3793.03 432.065 3792.48 432.463 3791.78C432.861 3791.07 433.06 3790.26 433.06 3789.36V3771.41ZM444.711 3800.5V3771.41H457.268C459.427 3771.41 461.316 3771.84 462.935 3772.69C464.555 3773.54 465.814 3774.74 466.714 3776.28C467.613 3777.82 468.063 3779.63 468.063 3781.69C468.063 3783.78 467.599 3785.58 466.671 3787.11C465.753 3788.63 464.46 3789.8 462.793 3790.63C461.136 3791.45 459.2 3791.86 456.984 3791.86H449.484V3785.73H455.393C456.321 3785.73 457.112 3785.57 457.765 3785.24C458.428 3784.91 458.934 3784.44 459.285 3783.84C459.645 3783.23 459.825 3782.52 459.825 3781.69C459.825 3780.86 459.645 3780.15 459.285 3779.56C458.934 3778.97 458.428 3778.51 457.765 3778.2C457.112 3777.88 456.321 3777.72 455.393 3777.72H452.609V3800.5H444.711Z" fill="#060606"/>
<rect x="291" y="3761" width="195" height="49" stroke="#03042F" stroke-width="10"/>
<rect x="710" y="3761" width="195" height="49" fill="#EFEFEF"/>
<path d="M744.471 3780.5C744.395 3779.55 744.04 3778.81 743.406 3778.28C742.781 3777.75 741.829 3777.49 740.55 3777.49C739.736 3777.49 739.068 3777.59 738.548 3777.79C738.036 3777.98 737.657 3778.24 737.411 3778.57C737.165 3778.9 737.037 3779.28 737.028 3779.7C737.009 3780.05 737.07 3780.37 737.212 3780.66C737.364 3780.93 737.601 3781.18 737.923 3781.41C738.245 3781.63 738.656 3781.83 739.158 3782.01C739.66 3782.19 740.257 3782.35 740.948 3782.49L743.335 3783C744.944 3783.34 746.322 3783.79 747.468 3784.35C748.614 3784.91 749.551 3785.57 750.281 3786.32C751.01 3787.07 751.545 3787.91 751.886 3788.85C752.236 3789.79 752.416 3790.81 752.425 3791.92C752.416 3793.83 751.938 3795.45 750.991 3796.78C750.044 3798.1 748.69 3799.11 746.928 3799.8C745.176 3800.5 743.069 3800.84 740.607 3800.84C738.079 3800.84 735.872 3800.47 733.988 3799.72C732.113 3798.97 730.655 3797.82 729.613 3796.27C728.581 3794.7 728.06 3792.71 728.05 3790.27H735.55C735.598 3791.16 735.82 3791.91 736.218 3792.52C736.616 3793.12 737.174 3793.58 737.894 3793.89C738.623 3794.21 739.49 3794.36 740.494 3794.36C741.336 3794.36 742.042 3794.26 742.61 3794.05C743.178 3793.84 743.609 3793.55 743.903 3793.18C744.196 3792.82 744.348 3792.39 744.357 3791.92C744.348 3791.48 744.201 3791.09 743.917 3790.76C743.642 3790.41 743.188 3790.11 742.553 3789.85C741.919 3789.57 741.062 3789.32 739.982 3789.08L737.085 3788.45C734.509 3787.9 732.478 3786.96 730.991 3785.66C729.513 3784.34 728.78 3782.55 728.789 3780.27C728.78 3778.43 729.272 3776.81 730.266 3775.43C731.27 3774.04 732.657 3772.95 734.428 3772.18C736.209 3771.4 738.249 3771.01 740.55 3771.01C742.899 3771.01 744.93 3771.4 746.644 3772.19C748.358 3772.98 749.679 3774.08 750.607 3775.51C751.545 3776.93 752.018 3778.6 752.028 3780.5H744.471ZM763.327 3771.41V3800.5H755.43V3771.41H763.327ZM785.962 3781.01C785.839 3780.51 785.645 3780.07 785.38 3779.69C785.115 3779.3 784.783 3778.98 784.386 3778.71C783.997 3778.44 783.543 3778.23 783.022 3778.1C782.511 3777.96 781.947 3777.89 781.332 3777.89C780.006 3777.89 778.874 3778.2 777.937 3778.84C777.009 3779.47 776.299 3780.39 775.806 3781.58C775.323 3782.77 775.082 3784.21 775.082 3785.9C775.082 3787.6 775.314 3789.06 775.778 3790.27C776.242 3791.48 776.933 3792.41 777.852 3793.06C778.77 3793.7 779.911 3794.02 781.275 3794.02C782.478 3794.02 783.477 3793.85 784.272 3793.5C785.077 3793.15 785.678 3792.65 786.076 3792.01C786.474 3791.36 786.673 3790.6 786.673 3789.73L788.036 3789.88H781.388V3784.25H794.286V3788.28C794.286 3790.94 793.723 3793.2 792.596 3795.09C791.478 3796.96 789.935 3798.4 787.965 3799.41C786.005 3800.4 783.756 3800.9 781.218 3800.9C778.387 3800.9 775.901 3800.3 773.761 3799.09C771.621 3797.89 769.949 3796.18 768.746 3793.95C767.553 3791.73 766.957 3789.08 766.957 3786.01C766.957 3783.61 767.321 3781.48 768.05 3779.62C768.789 3777.76 769.812 3776.2 771.119 3774.92C772.425 3773.63 773.936 3772.66 775.65 3772.01C777.364 3771.34 779.201 3771.01 781.161 3771.01C782.885 3771.01 784.485 3771.26 785.962 3771.75C787.449 3772.23 788.761 3772.92 789.897 3773.82C791.043 3774.71 791.966 3775.77 792.667 3776.99C793.368 3778.21 793.794 3779.55 793.945 3781.01H785.962ZM823.139 3771.41V3800.5H816.548L806.037 3785.22H805.866V3800.5H797.969V3771.41H804.673L815.014 3786.64H815.241V3771.41H823.139ZM852.06 3771.41H859.957V3790.05C859.957 3792.26 859.427 3794.18 858.366 3795.8C857.315 3797.41 855.848 3798.65 853.963 3799.53C852.079 3800.41 849.891 3800.84 847.401 3800.84C844.891 3800.84 842.694 3800.41 840.81 3799.53C838.925 3798.65 837.457 3797.41 836.406 3795.8C835.365 3794.18 834.844 3792.26 834.844 3790.05V3771.41H842.741V3789.36C842.741 3790.26 842.94 3791.07 843.338 3791.78C843.736 3792.48 844.285 3793.03 844.986 3793.43C845.696 3793.82 846.501 3794.02 847.401 3794.02C848.31 3794.02 849.115 3793.82 849.815 3793.43C850.516 3793.03 851.065 3792.48 851.463 3791.78C851.861 3791.07 852.06 3790.26 852.06 3789.36V3771.41ZM863.711 3800.5V3771.41H876.268C878.427 3771.41 880.316 3771.84 881.935 3772.69C883.555 3773.54 884.814 3774.74 885.714 3776.28C886.613 3777.82 887.063 3779.63 887.063 3781.69C887.063 3783.78 886.599 3785.58 885.671 3787.11C884.753 3788.63 883.46 3789.8 881.793 3790.63C880.136 3791.45 878.2 3791.86 875.984 3791.86H868.484V3785.73H874.393C875.321 3785.73 876.112 3785.57 876.765 3785.24C877.428 3784.91 877.934 3784.44 878.285 3783.84C878.645 3783.23 878.825 3782.52 878.825 3781.69C878.825 3780.86 878.645 3780.15 878.285 3779.56C877.934 3778.97 877.428 3778.51 876.765 3778.2C876.112 3777.88 875.321 3777.72 874.393 3777.72H871.609V3800.5H863.711Z" fill="#060606"/>
<rect x="710" y="3761" width="195" height="49" stroke="#03042F" stroke-width="10"/>
<rect x="1138" y="3761" width="195" height="49" fill="#EFEFEF"/>
<path d="M1172.47 3780.5C1172.4 3779.55 1172.04 3778.81 1171.41 3778.28C1170.78 3777.75 1169.83 3777.49 1168.55 3777.49C1167.74 3777.49 1167.07 3777.59 1166.55 3777.79C1166.04 3777.98 1165.66 3778.24 1165.41 3778.57C1165.17 3778.9 1165.04 3779.28 1165.03 3779.7C1165.01 3780.05 1165.07 3780.37 1165.21 3780.66C1165.36 3780.93 1165.6 3781.18 1165.92 3781.41C1166.24 3781.63 1166.66 3781.83 1167.16 3782.01C1167.66 3782.19 1168.26 3782.35 1168.95 3782.49L1171.33 3783C1172.94 3783.34 1174.32 3783.79 1175.47 3784.35C1176.61 3784.91 1177.55 3785.57 1178.28 3786.32C1179.01 3787.07 1179.54 3787.91 1179.89 3788.85C1180.24 3789.79 1180.42 3790.81 1180.43 3791.92C1180.42 3793.83 1179.94 3795.45 1178.99 3796.78C1178.04 3798.1 1176.69 3799.11 1174.93 3799.8C1173.18 3800.5 1171.07 3800.84 1168.61 3800.84C1166.08 3800.84 1163.87 3800.47 1161.99 3799.72C1160.11 3798.97 1158.65 3797.82 1157.61 3796.27C1156.58 3794.7 1156.06 3792.71 1156.05 3790.27H1163.55C1163.6 3791.16 1163.82 3791.91 1164.22 3792.52C1164.62 3793.12 1165.17 3793.58 1165.89 3793.89C1166.62 3794.21 1167.49 3794.36 1168.49 3794.36C1169.34 3794.36 1170.04 3794.26 1170.61 3794.05C1171.18 3793.84 1171.61 3793.55 1171.9 3793.18C1172.2 3792.82 1172.35 3792.39 1172.36 3791.92C1172.35 3791.48 1172.2 3791.09 1171.92 3790.76C1171.64 3790.41 1171.19 3790.11 1170.55 3789.85C1169.92 3789.57 1169.06 3789.32 1167.98 3789.08L1165.08 3788.45C1162.51 3787.9 1160.48 3786.96 1158.99 3785.66C1157.51 3784.34 1156.78 3782.55 1156.79 3780.27C1156.78 3778.43 1157.27 3776.81 1158.27 3775.43C1159.27 3774.04 1160.66 3772.95 1162.43 3772.18C1164.21 3771.4 1166.25 3771.01 1168.55 3771.01C1170.9 3771.01 1172.93 3771.4 1174.64 3772.19C1176.36 3772.98 1177.68 3774.08 1178.61 3775.51C1179.54 3776.93 1180.02 3778.6 1180.03 3780.5H1172.47ZM1191.33 3771.41V3800.5H1183.43V3771.41H1191.33ZM1213.96 3781.01C1213.84 3780.51 1213.65 3780.07 1213.38 3779.69C1213.11 3779.3 1212.78 3778.98 1212.39 3778.71C1212 3778.44 1211.54 3778.23 1211.02 3778.1C1210.51 3777.96 1209.95 3777.89 1209.33 3777.89C1208.01 3777.89 1206.87 3778.2 1205.94 3778.84C1205.01 3779.47 1204.3 3780.39 1203.81 3781.58C1203.32 3782.77 1203.08 3784.21 1203.08 3785.9C1203.08 3787.6 1203.31 3789.06 1203.78 3790.27C1204.24 3791.48 1204.93 3792.41 1205.85 3793.06C1206.77 3793.7 1207.91 3794.02 1209.27 3794.02C1210.48 3794.02 1211.48 3793.85 1212.27 3793.5C1213.08 3793.15 1213.68 3792.65 1214.08 3792.01C1214.47 3791.36 1214.67 3790.6 1214.67 3789.73L1216.04 3789.88H1209.39V3784.25H1222.29V3788.28C1222.29 3790.94 1221.72 3793.2 1220.6 3795.09C1219.48 3796.96 1217.93 3798.4 1215.97 3799.41C1214 3800.4 1211.76 3800.9 1209.22 3800.9C1206.39 3800.9 1203.9 3800.3 1201.76 3799.09C1199.62 3797.89 1197.95 3796.18 1196.75 3793.95C1195.55 3791.73 1194.96 3789.08 1194.96 3786.01C1194.96 3783.61 1195.32 3781.48 1196.05 3779.62C1196.79 3777.76 1197.81 3776.2 1199.12 3774.92C1200.43 3773.63 1201.94 3772.66 1203.65 3772.01C1205.36 3771.34 1207.2 3771.01 1209.16 3771.01C1210.88 3771.01 1212.49 3771.26 1213.96 3771.75C1215.45 3772.23 1216.76 3772.92 1217.9 3773.82C1219.04 3774.71 1219.97 3775.77 1220.67 3776.99C1221.37 3778.21 1221.79 3779.55 1221.95 3781.01H1213.96ZM1251.14 3771.41V3800.5H1244.55L1234.04 3785.22H1233.87V3800.5H1225.97V3771.41H1232.67L1243.01 3786.64H1243.24V3771.41H1251.14ZM1280.06 3771.41H1287.96V3790.05C1287.96 3792.26 1287.43 3794.18 1286.37 3795.8C1285.32 3797.41 1283.85 3798.65 1281.96 3799.53C1280.08 3800.41 1277.89 3800.84 1275.4 3800.84C1272.89 3800.84 1270.69 3800.41 1268.81 3799.53C1266.93 3798.65 1265.46 3797.41 1264.41 3795.8C1263.36 3794.18 1262.84 3792.26 1262.84 3790.05V3771.41H1270.74V3789.36C1270.74 3790.26 1270.94 3791.07 1271.34 3791.78C1271.74 3792.48 1272.29 3793.03 1272.99 3793.43C1273.7 3793.82 1274.5 3794.02 1275.4 3794.02C1276.31 3794.02 1277.11 3793.82 1277.82 3793.43C1278.52 3793.03 1279.07 3792.48 1279.46 3791.78C1279.86 3791.07 1280.06 3790.26 1280.06 3789.36V3771.41ZM1291.71 3800.5V3771.41H1304.27C1306.43 3771.41 1308.32 3771.84 1309.94 3772.69C1311.55 3773.54 1312.81 3774.74 1313.71 3776.28C1314.61 3777.82 1315.06 3779.63 1315.06 3781.69C1315.06 3783.78 1314.6 3785.58 1313.67 3787.11C1312.75 3788.63 1311.46 3789.8 1309.79 3790.63C1308.14 3791.45 1306.2 3791.86 1303.98 3791.86H1296.48V3785.73H1302.39C1303.32 3785.73 1304.11 3785.57 1304.76 3785.24C1305.43 3784.91 1305.93 3784.44 1306.28 3783.84C1306.64 3783.23 1306.82 3782.52 1306.82 3781.69C1306.82 3780.86 1306.64 3780.15 1306.28 3779.56C1305.93 3778.97 1305.43 3778.51 1304.76 3778.2C1304.11 3777.88 1303.32 3777.72 1302.39 3777.72H1299.61V3800.5H1291.71Z" fill="#060606"/>
<rect x="1138" y="3761" width="195" height="49" stroke="#03042F" stroke-width="10"/>
<defs>
<clipPath id="clip0_498_808">
<rect width="1616" height="106" fill="white"/>
</clipPath>
</defs>
</svg>
