<svg width="860" height="3875" viewBox="0 0 860 3875" fill="none" xmlns="http://www.w3.org/2000/svg">
<rect width="860" height="3875" fill="white"/>
<g clip-path="url(#clip0_498_985)">
<rect width="860" height="94" fill="#EFEFEF"/>
<path d="M374.314 -0.0454574V94.5H352.893L318.731 44.8267H318.177V94.5H292.51V-0.0454574H314.3L347.907 49.4432H348.646V-0.0454574H374.314ZM411.015 94.5H383.316L414.523 -0.0454574H449.608L480.816 94.5H453.117L432.435 25.9915H431.697L411.015 94.5ZM405.844 57.1989H457.918V76.4034H405.844V57.1989ZM502.063 -0.0454574L521.452 66.6165H522.191L541.58 -0.0454574H570.572L539.364 94.5H504.279L473.072 -0.0454574H502.063Z" fill="#060606"/>
</g>
<rect x="5" y="5" width="850" height="84" stroke="#03042F" stroke-width="10"/>
<rect x="3" y="308" width="857" height="476" fill="#A2A2A2"/>
<rect x="29" y="1020" width="802" height="296" fill="#A2A2A2"/>
<rect x="43" y="1416" width="255" height="180" fill="#A2A2A2"/>
<rect x="43" y="2090" width="255" height="345" fill="#A2A2A2"/>
<rect x="29" y="2587" width="805" height="191" fill="#A2A2A2"/>
<rect x="29" y="3483" width="805" height="392" fill="#A2A2A2"/>
<rect x="131" y="1817" width="63" height="52" fill="#A2A2A2"/>
<rect x="404" y="1817" width="63" height="52" fill="#A2A2A2"/>
<rect x="672" y="1817" width="63" height="52" fill="#A2A2A2"/>
<rect x="311" y="1416" width="255" height="180" fill="#A2A2A2"/>
<rect x="311" y="2090" width="255" height="345" fill="#A2A2A2"/>
<rect x="579" y="1416" width="255" height="180" fill="#A2A2A2"/>
<rect x="579" y="2090" width="255" height="345" fill="#A2A2A2"/>
<rect x="357" y="117" width="150" height="16" fill="#D9D9D9"/>
<rect x="339" y="147" width="186" height="16" fill="#D9D9D9"/>
<rect x="317" y="171" width="226" height="16" fill="#D9D9D9"/>
<rect x="335" y="807" width="190" height="40" fill="#D9D9D9"/>
<rect x="286" y="856" width="288" height="40" fill="#D9D9D9"/>
<rect x="311" y="913" width="238" height="10" fill="#D9D9D9"/>
<rect x="29" y="989" width="185" height="14" fill="#D9D9D9"/>
<rect x="29" y="1379" width="185" height="14" fill="#D9D9D9"/>
<rect x="29" y="2049" width="227" height="14" fill="#D9D9D9"/>
<rect x="43" y="1629" width="185" height="14" fill="#D9D9D9"/>
<rect x="43" y="2468" width="185" height="14" fill="#D9D9D9"/>
<rect x="256" y="2795" width="360" height="47" fill="#D9D9D9"/>
<rect x="299" y="2857" width="267" height="14" fill="#D9D9D9"/>
<rect x="29" y="3065" width="791" height="14" fill="#D9D9D9"/>
<rect x="29" y="3186" width="791" height="14" fill="#D9D9D9"/>
<rect x="29" y="3310" width="791" height="14" fill="#D9D9D9"/>
<rect x="29" y="3405" width="791" height="14" fill="#D9D9D9"/>
<rect x="29" y="3084" width="288" height="14" fill="#D9D9D9"/>
<rect x="29" y="3205" width="288" height="14" fill="#D9D9D9"/>
<rect x="29" y="3329" width="288" height="14" fill="#D9D9D9"/>
<rect x="29" y="3424" width="288" height="14" fill="#D9D9D9"/>
<rect x="105" y="1881" width="115" height="14" fill="#D9D9D9"/>
<rect x="378" y="1881" width="115" height="14" fill="#D9D9D9"/>
<rect x="646" y="1881" width="115" height="14" fill="#D9D9D9"/>
<rect x="130" y="1907" width="65" height="14" fill="#D9D9D9"/>
<rect x="403" y="1907" width="65" height="14" fill="#D9D9D9"/>
<rect x="671" y="1907" width="65" height="14" fill="#D9D9D9"/>
<rect x="311" y="1629" width="185" height="14" fill="#D9D9D9"/>
<rect x="311" y="2468" width="185" height="14" fill="#D9D9D9"/>
<rect x="579" y="1629" width="185" height="14" fill="#D9D9D9"/>
<rect x="579" y="2468" width="185" height="14" fill="#D9D9D9"/>
<rect x="29" y="1363" width="27" height="11" fill="#D9D9D9"/>
<rect x="29" y="2033" width="76" height="11" fill="#D9D9D9"/>
<rect x="43" y="1613" width="27" height="11" fill="#D9D9D9"/>
<rect x="43" y="2452" width="65" height="11" fill="#D9D9D9"/>
<rect x="29" y="2961" width="79" height="21" fill="#D9D9D9"/>
<rect x="29" y="3027" width="199" height="21" fill="#D9D9D9"/>
<rect x="29" y="3153" width="199" height="21" fill="#D9D9D9"/>
<rect x="29" y="3266" width="199" height="21" fill="#D9D9D9"/>
<rect x="29" y="3367" width="199" height="21" fill="#D9D9D9"/>
<rect x="311" y="1613" width="27" height="11" fill="#D9D9D9"/>
<rect x="312" y="2452" width="67" height="11" fill="#D9D9D9"/>
<rect x="579" y="1613" width="27" height="11" fill="#D9D9D9"/>
<rect x="583" y="2452" width="65" height="11" fill="#D9D9D9"/>
<rect x="375" y="929" width="110" height="10" fill="#D9D9D9"/>
<rect x="355" y="195" width="150" height="16" fill="#D9D9D9"/>
<rect x="387.5" y="227.5" width="89" height="29" fill="#EFEFEF"/>
<path d="M400.485 239C400.448 238.527 400.27 238.157 399.953 237.892C399.64 237.627 399.164 237.494 398.525 237.494C398.118 237.494 397.784 237.544 397.524 237.643C397.268 237.738 397.079 237.868 396.956 238.034C396.833 238.2 396.769 238.389 396.764 238.602C396.754 238.777 396.785 238.936 396.856 239.078C396.932 239.215 397.05 239.341 397.211 239.455C397.372 239.563 397.578 239.663 397.829 239.753C398.08 239.843 398.378 239.923 398.724 239.994L399.917 240.25C400.722 240.42 401.411 240.645 401.984 240.925C402.557 241.204 403.026 241.533 403.39 241.912C403.755 242.286 404.022 242.707 404.193 243.176C404.368 243.645 404.458 244.156 404.463 244.71C404.458 245.667 404.219 246.476 403.745 247.139C403.272 247.802 402.595 248.306 401.714 248.652C400.838 248.998 399.785 249.17 398.554 249.17C397.289 249.17 396.186 248.983 395.244 248.609C394.306 248.235 393.577 247.66 393.056 246.884C392.54 246.102 392.28 245.103 392.275 243.886H396.025C396.049 244.331 396.16 244.705 396.359 245.009C396.558 245.312 396.837 245.541 397.197 245.697C397.562 245.854 397.995 245.932 398.497 245.932C398.918 245.932 399.271 245.88 399.555 245.776C399.839 245.671 400.055 245.527 400.201 245.342C400.348 245.158 400.424 244.947 400.429 244.71C400.424 244.488 400.35 244.294 400.208 244.128C400.071 243.957 399.844 243.806 399.527 243.673C399.209 243.536 398.781 243.408 398.241 243.29L396.792 242.977C395.504 242.698 394.489 242.232 393.745 241.578C393.007 240.92 392.64 240.023 392.645 238.886C392.64 237.963 392.886 237.156 393.383 236.464C393.885 235.768 394.579 235.226 395.464 234.838C396.354 234.45 397.375 234.256 398.525 234.256C399.699 234.256 400.715 234.452 401.572 234.845C402.429 235.238 403.09 235.792 403.554 236.507C404.022 237.217 404.259 238.048 404.264 239H400.485ZM409.914 234.455V249H405.965V234.455H409.914ZM421.231 239.256C421.17 239.005 421.073 238.785 420.94 238.595C420.807 238.401 420.642 238.238 420.443 238.105C420.249 237.968 420.021 237.866 419.761 237.8C419.505 237.729 419.224 237.693 418.916 237.693C418.253 237.693 417.687 237.852 417.218 238.169C416.754 238.486 416.399 238.943 416.153 239.54C415.912 240.136 415.791 240.856 415.791 241.699C415.791 242.551 415.907 243.28 416.139 243.886C416.371 244.492 416.717 244.956 417.176 245.278C417.635 245.6 418.206 245.761 418.887 245.761C419.489 245.761 419.988 245.674 420.386 245.499C420.788 245.323 421.089 245.075 421.288 244.753C421.487 244.431 421.586 244.052 421.586 243.616L422.268 243.688H418.944V240.875H425.393V242.892C425.393 244.218 425.111 245.352 424.548 246.294C423.989 247.232 423.217 247.951 422.233 248.453C421.252 248.95 420.128 249.199 418.859 249.199C417.443 249.199 416.2 248.898 415.13 248.297C414.06 247.696 413.225 246.839 412.623 245.726C412.027 244.613 411.728 243.29 411.728 241.756C411.728 240.553 411.911 239.488 412.275 238.56C412.645 237.632 413.156 236.848 413.809 236.209C414.463 235.565 415.218 235.08 416.075 234.753C416.932 234.421 417.85 234.256 418.831 234.256C419.692 234.256 420.493 234.379 421.231 234.625C421.975 234.866 422.63 235.212 423.199 235.662C423.771 236.107 424.233 236.635 424.583 237.246C424.934 237.857 425.147 238.527 425.223 239.256H421.231ZM439.82 234.455V249H436.524L431.268 241.358H431.183V249H427.234V234.455H430.587L435.757 242.068H435.871V234.455H439.82ZM454.28 234.455H458.229V243.773C458.229 244.881 457.964 245.839 457.433 246.649C456.908 247.454 456.174 248.077 455.232 248.517C454.289 248.953 453.196 249.17 451.95 249.17C450.696 249.17 449.597 248.953 448.655 248.517C447.713 248.077 446.979 247.454 446.453 246.649C445.932 245.839 445.672 244.881 445.672 243.773V234.455H449.621V243.432C449.621 243.882 449.72 244.284 449.919 244.639C450.118 244.99 450.393 245.264 450.743 245.463C451.098 245.662 451.5 245.761 451.95 245.761C452.405 245.761 452.807 245.662 453.158 245.463C453.508 245.264 453.783 244.99 453.982 244.639C454.18 244.284 454.28 243.882 454.28 243.432V234.455ZM460.105 249V234.455H466.384C467.463 234.455 468.408 234.668 469.218 235.094C470.027 235.52 470.657 236.119 471.107 236.891C471.557 237.662 471.782 238.564 471.782 239.597C471.782 240.638 471.55 241.54 471.086 242.303C470.626 243.065 469.98 243.652 469.147 244.064C468.318 244.476 467.35 244.682 466.242 244.682H462.492V241.614H465.446C465.91 241.614 466.306 241.533 466.632 241.372C466.964 241.206 467.217 240.972 467.392 240.669C467.572 240.366 467.662 240.009 467.662 239.597C467.662 239.18 467.572 238.825 467.392 238.531C467.217 238.233 466.964 238.006 466.632 237.849C466.306 237.688 465.91 237.608 465.446 237.608H464.054V249H460.105Z" fill="#060606"/>
<rect x="387.5" y="227.5" width="89" height="29" stroke="#03042F" stroke-width="5"/>
<rect x="45.5" y="1657.5" width="89" height="29" fill="#EFEFEF"/>
<path d="M58.4854 1669C58.4476 1668.53 58.27 1668.16 57.9528 1667.89C57.6403 1667.63 57.1644 1667.49 56.5252 1667.49C56.118 1667.49 55.7842 1667.54 55.5238 1667.64C55.2681 1667.74 55.0787 1667.87 54.9556 1668.03C54.8325 1668.2 54.7686 1668.39 54.7638 1668.6C54.7544 1668.78 54.7852 1668.94 54.8562 1669.08C54.9319 1669.22 55.0503 1669.34 55.2113 1669.45C55.3723 1669.56 55.5782 1669.66 55.8292 1669.75C56.0801 1669.84 56.3784 1669.92 56.7241 1669.99L57.9173 1670.25C58.7222 1670.42 59.4111 1670.65 59.984 1670.92C60.5569 1671.2 61.0257 1671.53 61.3903 1671.91C61.7549 1672.29 62.0224 1672.71 62.1928 1673.18C62.368 1673.64 62.458 1674.16 62.4627 1674.71C62.458 1675.67 62.2189 1676.48 61.7454 1677.14C61.2719 1677.8 60.5948 1678.31 59.7141 1678.65C58.8382 1679 57.7847 1679.17 56.5536 1679.17C55.2894 1679.17 54.1862 1678.98 53.244 1678.61C52.3065 1678.24 51.5773 1677.66 51.0565 1676.88C50.5404 1676.1 50.2799 1675.1 50.2752 1673.89H54.0252C54.0489 1674.33 54.1602 1674.71 54.359 1675.01C54.5579 1675.31 54.8372 1675.54 55.1971 1675.7C55.5617 1675.85 55.9949 1675.93 56.4968 1675.93C56.9182 1675.93 57.271 1675.88 57.555 1675.78C57.8391 1675.67 58.0546 1675.53 58.2013 1675.34C58.3481 1675.16 58.4239 1674.95 58.4286 1674.71C58.4239 1674.49 58.3505 1674.29 58.2085 1674.13C58.0711 1673.96 57.8439 1673.81 57.5266 1673.67C57.2094 1673.54 56.7809 1673.41 56.2411 1673.29L54.7923 1672.98C53.5044 1672.7 52.4888 1672.23 51.7454 1671.58C51.0067 1670.92 50.6398 1670.02 50.6445 1668.89C50.6398 1667.96 50.886 1667.16 51.3832 1666.46C51.8851 1665.77 52.5787 1665.23 53.4641 1664.84C54.3543 1664.45 55.3746 1664.26 56.5252 1664.26C57.6995 1664.26 58.7151 1664.45 59.5721 1664.85C60.4291 1665.24 61.0896 1665.79 61.5536 1666.51C62.0224 1667.22 62.2591 1668.05 62.2638 1669H58.4854ZM67.9137 1664.45V1679H63.9648V1664.45H67.9137ZM79.2312 1669.26C79.1696 1669 79.0726 1668.78 78.94 1668.6C78.8074 1668.4 78.6417 1668.24 78.4428 1668.11C78.2487 1667.97 78.0214 1667.87 77.761 1667.8C77.5053 1667.73 77.2236 1667.69 76.9158 1667.69C76.253 1667.69 75.6871 1667.85 75.2184 1668.17C74.7544 1668.49 74.3993 1668.94 74.1531 1669.54C73.9116 1670.14 73.7908 1670.86 73.7908 1671.7C73.7908 1672.55 73.9068 1673.28 74.1388 1673.89C74.3709 1674.49 74.7165 1674.96 75.1758 1675.28C75.6351 1675.6 76.2056 1675.76 76.8874 1675.76C77.4888 1675.76 77.9883 1675.67 78.386 1675.5C78.7885 1675.32 79.0891 1675.07 79.288 1674.75C79.4869 1674.43 79.5863 1674.05 79.5863 1673.62L80.2681 1673.69H76.9442V1670.88H83.3931V1672.89C83.3931 1674.22 83.1114 1675.35 82.5479 1676.29C81.9892 1677.23 81.2174 1677.95 80.2326 1678.45C79.2525 1678.95 78.128 1679.2 76.859 1679.2C75.4433 1679.2 74.2004 1678.9 73.1303 1678.3C72.0603 1677.7 71.2246 1676.84 70.6232 1675.73C70.0266 1674.61 69.7283 1673.29 69.7283 1671.76C69.7283 1670.55 69.9106 1669.49 70.2752 1668.56C70.6445 1667.63 71.1559 1666.85 71.8093 1666.21C72.4627 1665.56 73.2179 1665.08 74.0749 1664.75C74.9319 1664.42 75.8505 1664.26 76.8306 1664.26C77.6924 1664.26 78.4925 1664.38 79.2312 1664.62C79.9746 1664.87 80.6303 1665.21 81.1985 1665.66C81.7714 1666.11 82.2331 1666.63 82.5835 1667.25C82.9338 1667.86 83.1469 1668.53 83.2227 1669.26H79.2312ZM97.8196 1664.45V1679H94.5241L89.2685 1671.36H89.1832V1679H85.2344V1664.45H88.5866L93.7571 1672.07H93.8707V1664.45H97.8196ZM112.28 1664.45H116.229V1673.77C116.229 1674.88 115.964 1675.84 115.433 1676.65C114.908 1677.45 114.174 1678.08 113.232 1678.52C112.289 1678.95 111.196 1679.17 109.95 1679.17C108.696 1679.17 107.597 1678.95 106.655 1678.52C105.713 1678.08 104.979 1677.45 104.453 1676.65C103.932 1675.84 103.672 1674.88 103.672 1673.77V1664.45H107.621V1673.43C107.621 1673.88 107.72 1674.28 107.919 1674.64C108.118 1674.99 108.393 1675.26 108.743 1675.46C109.098 1675.66 109.5 1675.76 109.95 1675.76C110.405 1675.76 110.807 1675.66 111.158 1675.46C111.508 1675.26 111.783 1674.99 111.982 1674.64C112.18 1674.28 112.28 1673.88 112.28 1673.43V1664.45ZM118.105 1679V1664.45H124.384C125.463 1664.45 126.408 1664.67 127.218 1665.09C128.027 1665.52 128.657 1666.12 129.107 1666.89C129.557 1667.66 129.782 1668.56 129.782 1669.6C129.782 1670.64 129.55 1671.54 129.086 1672.3C128.626 1673.06 127.98 1673.65 127.147 1674.06C126.318 1674.48 125.35 1674.68 124.242 1674.68H120.492V1671.61H123.446C123.91 1671.61 124.306 1671.53 124.632 1671.37C124.964 1671.21 125.217 1670.97 125.392 1670.67C125.572 1670.37 125.662 1670.01 125.662 1669.6C125.662 1669.18 125.572 1668.82 125.392 1668.53C125.217 1668.23 124.964 1668.01 124.632 1667.85C124.306 1667.69 123.91 1667.61 123.446 1667.61H122.054V1679H118.105Z" fill="#060606"/>
<rect x="45.5" y="1657.5" width="89" height="29" stroke="#03042F" stroke-width="5"/>
<rect x="45.5" y="2496.5" width="89" height="29" fill="#EFEFEF"/>
<path d="M58.4854 2508C58.4476 2507.53 58.27 2507.16 57.9528 2506.89C57.6403 2506.63 57.1644 2506.49 56.5252 2506.49C56.118 2506.49 55.7842 2506.54 55.5238 2506.64C55.2681 2506.74 55.0787 2506.87 54.9556 2507.03C54.8325 2507.2 54.7686 2507.39 54.7638 2507.6C54.7544 2507.78 54.7852 2507.94 54.8562 2508.08C54.9319 2508.22 55.0503 2508.34 55.2113 2508.45C55.3723 2508.56 55.5782 2508.66 55.8292 2508.75C56.0801 2508.84 56.3784 2508.92 56.7241 2508.99L57.9173 2509.25C58.7222 2509.42 59.4111 2509.65 59.984 2509.92C60.5569 2510.2 61.0257 2510.53 61.3903 2510.91C61.7549 2511.29 62.0224 2511.71 62.1928 2512.18C62.368 2512.64 62.458 2513.16 62.4627 2513.71C62.458 2514.67 62.2189 2515.48 61.7454 2516.14C61.2719 2516.8 60.5948 2517.31 59.7141 2517.65C58.8382 2518 57.7847 2518.17 56.5536 2518.17C55.2894 2518.17 54.1862 2517.98 53.244 2517.61C52.3065 2517.24 51.5773 2516.66 51.0565 2515.88C50.5404 2515.1 50.2799 2514.1 50.2752 2512.89H54.0252C54.0489 2513.33 54.1602 2513.71 54.359 2514.01C54.5579 2514.31 54.8372 2514.54 55.1971 2514.7C55.5617 2514.85 55.9949 2514.93 56.4968 2514.93C56.9182 2514.93 57.271 2514.88 57.555 2514.78C57.8391 2514.67 58.0546 2514.53 58.2013 2514.34C58.3481 2514.16 58.4239 2513.95 58.4286 2513.71C58.4239 2513.49 58.3505 2513.29 58.2085 2513.13C58.0711 2512.96 57.8439 2512.81 57.5266 2512.67C57.2094 2512.54 56.7809 2512.41 56.2411 2512.29L54.7923 2511.98C53.5044 2511.7 52.4888 2511.23 51.7454 2510.58C51.0067 2509.92 50.6398 2509.02 50.6445 2507.89C50.6398 2506.96 50.886 2506.16 51.3832 2505.46C51.8851 2504.77 52.5787 2504.23 53.4641 2503.84C54.3543 2503.45 55.3746 2503.26 56.5252 2503.26C57.6995 2503.26 58.7151 2503.45 59.5721 2503.85C60.4291 2504.24 61.0896 2504.79 61.5536 2505.51C62.0224 2506.22 62.2591 2507.05 62.2638 2508H58.4854ZM67.9137 2503.45V2518H63.9648V2503.45H67.9137ZM79.2312 2508.26C79.1696 2508 79.0726 2507.78 78.94 2507.6C78.8074 2507.4 78.6417 2507.24 78.4428 2507.11C78.2487 2506.97 78.0214 2506.87 77.761 2506.8C77.5053 2506.73 77.2236 2506.69 76.9158 2506.69C76.253 2506.69 75.6871 2506.85 75.2184 2507.17C74.7544 2507.49 74.3993 2507.94 74.1531 2508.54C73.9116 2509.14 73.7908 2509.86 73.7908 2510.7C73.7908 2511.55 73.9068 2512.28 74.1388 2512.89C74.3709 2513.49 74.7165 2513.96 75.1758 2514.28C75.6351 2514.6 76.2056 2514.76 76.8874 2514.76C77.4888 2514.76 77.9883 2514.67 78.386 2514.5C78.7885 2514.32 79.0891 2514.07 79.288 2513.75C79.4869 2513.43 79.5863 2513.05 79.5863 2512.62L80.2681 2512.69H76.9442V2509.88H83.3931V2511.89C83.3931 2513.22 83.1114 2514.35 82.5479 2515.29C81.9892 2516.23 81.2174 2516.95 80.2326 2517.45C79.2525 2517.95 78.128 2518.2 76.859 2518.2C75.4433 2518.2 74.2004 2517.9 73.1303 2517.3C72.0603 2516.7 71.2246 2515.84 70.6232 2514.73C70.0266 2513.61 69.7283 2512.29 69.7283 2510.76C69.7283 2509.55 69.9106 2508.49 70.2752 2507.56C70.6445 2506.63 71.1559 2505.85 71.8093 2505.21C72.4627 2504.56 73.2179 2504.08 74.0749 2503.75C74.9319 2503.42 75.8505 2503.26 76.8306 2503.26C77.6924 2503.26 78.4925 2503.38 79.2312 2503.62C79.9746 2503.87 80.6303 2504.21 81.1985 2504.66C81.7714 2505.11 82.2331 2505.63 82.5835 2506.25C82.9338 2506.86 83.1469 2507.53 83.2227 2508.26H79.2312ZM97.8196 2503.45V2518H94.5241L89.2685 2510.36H89.1832V2518H85.2344V2503.45H88.5866L93.7571 2511.07H93.8707V2503.45H97.8196ZM112.28 2503.45H116.229V2512.77C116.229 2513.88 115.964 2514.84 115.433 2515.65C114.908 2516.45 114.174 2517.08 113.232 2517.52C112.289 2517.95 111.196 2518.17 109.95 2518.17C108.696 2518.17 107.597 2517.95 106.655 2517.52C105.713 2517.08 104.979 2516.45 104.453 2515.65C103.932 2514.84 103.672 2513.88 103.672 2512.77V2503.45H107.621V2512.43C107.621 2512.88 107.72 2513.28 107.919 2513.64C108.118 2513.99 108.393 2514.26 108.743 2514.46C109.098 2514.66 109.5 2514.76 109.95 2514.76C110.405 2514.76 110.807 2514.66 111.158 2514.46C111.508 2514.26 111.783 2513.99 111.982 2513.64C112.18 2513.28 112.28 2512.88 112.28 2512.43V2503.45ZM118.105 2518V2503.45H124.384C125.463 2503.45 126.408 2503.67 127.218 2504.09C128.027 2504.52 128.657 2505.12 129.107 2505.89C129.557 2506.66 129.782 2507.56 129.782 2508.6C129.782 2509.64 129.55 2510.54 129.086 2511.3C128.626 2512.06 127.98 2512.65 127.147 2513.06C126.318 2513.48 125.35 2513.68 124.242 2513.68H120.492V2510.61H123.446C123.91 2510.61 124.306 2510.53 124.632 2510.37C124.964 2510.21 125.217 2509.97 125.392 2509.67C125.572 2509.37 125.662 2509.01 125.662 2508.6C125.662 2508.18 125.572 2507.82 125.392 2507.53C125.217 2507.23 124.964 2507.01 124.632 2506.85C124.306 2506.69 123.91 2506.61 123.446 2506.61H122.054V2518H118.105Z" fill="#060606"/>
<rect x="45.5" y="2496.5" width="89" height="29" stroke="#03042F" stroke-width="5"/>
<rect x="312.5" y="1657.5" width="89" height="29" fill="#EFEFEF"/>
<path d="M325.485 1669C325.448 1668.53 325.27 1668.16 324.953 1667.89C324.64 1667.63 324.164 1667.49 323.525 1667.49C323.118 1667.49 322.784 1667.54 322.524 1667.64C322.268 1667.74 322.079 1667.87 321.956 1668.03C321.833 1668.2 321.769 1668.39 321.764 1668.6C321.754 1668.78 321.785 1668.94 321.856 1669.08C321.932 1669.22 322.05 1669.34 322.211 1669.45C322.372 1669.56 322.578 1669.66 322.829 1669.75C323.08 1669.84 323.378 1669.92 323.724 1669.99L324.917 1670.25C325.722 1670.42 326.411 1670.65 326.984 1670.92C327.557 1671.2 328.026 1671.53 328.39 1671.91C328.755 1672.29 329.022 1672.71 329.193 1673.18C329.368 1673.64 329.458 1674.16 329.463 1674.71C329.458 1675.67 329.219 1676.48 328.745 1677.14C328.272 1677.8 327.595 1678.31 326.714 1678.65C325.838 1679 324.785 1679.17 323.554 1679.17C322.289 1679.17 321.186 1678.98 320.244 1678.61C319.306 1678.24 318.577 1677.66 318.056 1676.88C317.54 1676.1 317.28 1675.1 317.275 1673.89H321.025C321.049 1674.33 321.16 1674.71 321.359 1675.01C321.558 1675.31 321.837 1675.54 322.197 1675.7C322.562 1675.85 322.995 1675.93 323.497 1675.93C323.918 1675.93 324.271 1675.88 324.555 1675.78C324.839 1675.67 325.055 1675.53 325.201 1675.34C325.348 1675.16 325.424 1674.95 325.429 1674.71C325.424 1674.49 325.35 1674.29 325.208 1674.13C325.071 1673.96 324.844 1673.81 324.527 1673.67C324.209 1673.54 323.781 1673.41 323.241 1673.29L321.792 1672.98C320.504 1672.7 319.489 1672.23 318.745 1671.58C318.007 1670.92 317.64 1670.02 317.645 1668.89C317.64 1667.96 317.886 1667.16 318.383 1666.46C318.885 1665.77 319.579 1665.23 320.464 1664.84C321.354 1664.45 322.375 1664.26 323.525 1664.26C324.699 1664.26 325.715 1664.45 326.572 1664.85C327.429 1665.24 328.09 1665.79 328.554 1666.51C329.022 1667.22 329.259 1668.05 329.264 1669H325.485ZM334.914 1664.45V1679H330.965V1664.45H334.914ZM346.231 1669.26C346.17 1669 346.073 1668.78 345.94 1668.6C345.807 1668.4 345.642 1668.24 345.443 1668.11C345.249 1667.97 345.021 1667.87 344.761 1667.8C344.505 1667.73 344.224 1667.69 343.916 1667.69C343.253 1667.69 342.687 1667.85 342.218 1668.17C341.754 1668.49 341.399 1668.94 341.153 1669.54C340.912 1670.14 340.791 1670.86 340.791 1671.7C340.791 1672.55 340.907 1673.28 341.139 1673.89C341.371 1674.49 341.717 1674.96 342.176 1675.28C342.635 1675.6 343.206 1675.76 343.887 1675.76C344.489 1675.76 344.988 1675.67 345.386 1675.5C345.788 1675.32 346.089 1675.07 346.288 1674.75C346.487 1674.43 346.586 1674.05 346.586 1673.62L347.268 1673.69H343.944V1670.88H350.393V1672.89C350.393 1674.22 350.111 1675.35 349.548 1676.29C348.989 1677.23 348.217 1677.95 347.233 1678.45C346.252 1678.95 345.128 1679.2 343.859 1679.2C342.443 1679.2 341.2 1678.9 340.13 1678.3C339.06 1677.7 338.225 1676.84 337.623 1675.73C337.027 1674.61 336.728 1673.29 336.728 1671.76C336.728 1670.55 336.911 1669.49 337.275 1668.56C337.645 1667.63 338.156 1666.85 338.809 1666.21C339.463 1665.56 340.218 1665.08 341.075 1664.75C341.932 1664.42 342.85 1664.26 343.831 1664.26C344.692 1664.26 345.493 1664.38 346.231 1664.62C346.975 1664.87 347.63 1665.21 348.199 1665.66C348.771 1666.11 349.233 1666.63 349.583 1667.25C349.934 1667.86 350.147 1668.53 350.223 1669.26H346.231ZM364.82 1664.45V1679H361.524L356.268 1671.36H356.183V1679H352.234V1664.45H355.587L360.757 1672.07H360.871V1664.45H364.82ZM379.28 1664.45H383.229V1673.77C383.229 1674.88 382.964 1675.84 382.433 1676.65C381.908 1677.45 381.174 1678.08 380.232 1678.52C379.289 1678.95 378.196 1679.17 376.95 1679.17C375.696 1679.17 374.597 1678.95 373.655 1678.52C372.713 1678.08 371.979 1677.45 371.453 1676.65C370.932 1675.84 370.672 1674.88 370.672 1673.77V1664.45H374.621V1673.43C374.621 1673.88 374.72 1674.28 374.919 1674.64C375.118 1674.99 375.393 1675.26 375.743 1675.46C376.098 1675.66 376.5 1675.76 376.95 1675.76C377.405 1675.76 377.807 1675.66 378.158 1675.46C378.508 1675.26 378.783 1674.99 378.982 1674.64C379.18 1674.28 379.28 1673.88 379.28 1673.43V1664.45ZM385.105 1679V1664.45H391.384C392.463 1664.45 393.408 1664.67 394.218 1665.09C395.027 1665.52 395.657 1666.12 396.107 1666.89C396.557 1667.66 396.782 1668.56 396.782 1669.6C396.782 1670.64 396.55 1671.54 396.086 1672.3C395.626 1673.06 394.98 1673.65 394.147 1674.06C393.318 1674.48 392.35 1674.68 391.242 1674.68H387.492V1671.61H390.446C390.91 1671.61 391.306 1671.53 391.632 1671.37C391.964 1671.21 392.217 1670.97 392.392 1670.67C392.572 1670.37 392.662 1670.01 392.662 1669.6C392.662 1669.18 392.572 1668.82 392.392 1668.53C392.217 1668.23 391.964 1668.01 391.632 1667.85C391.306 1667.69 390.91 1667.61 390.446 1667.61H389.054V1679H385.105Z" fill="#060606"/>
<rect x="312.5" y="1657.5" width="89" height="29" stroke="#03042F" stroke-width="5"/>
<rect x="312.5" y="2496.5" width="89" height="29" fill="#EFEFEF"/>
<path d="M325.485 2508C325.448 2507.53 325.27 2507.16 324.953 2506.89C324.64 2506.63 324.164 2506.49 323.525 2506.49C323.118 2506.49 322.784 2506.54 322.524 2506.64C322.268 2506.74 322.079 2506.87 321.956 2507.03C321.833 2507.2 321.769 2507.39 321.764 2507.6C321.754 2507.78 321.785 2507.94 321.856 2508.08C321.932 2508.22 322.05 2508.34 322.211 2508.45C322.372 2508.56 322.578 2508.66 322.829 2508.75C323.08 2508.84 323.378 2508.92 323.724 2508.99L324.917 2509.25C325.722 2509.42 326.411 2509.65 326.984 2509.92C327.557 2510.2 328.026 2510.53 328.39 2510.91C328.755 2511.29 329.022 2511.71 329.193 2512.18C329.368 2512.64 329.458 2513.16 329.463 2513.71C329.458 2514.67 329.219 2515.48 328.745 2516.14C328.272 2516.8 327.595 2517.31 326.714 2517.65C325.838 2518 324.785 2518.17 323.554 2518.17C322.289 2518.17 321.186 2517.98 320.244 2517.61C319.306 2517.24 318.577 2516.66 318.056 2515.88C317.54 2515.1 317.28 2514.1 317.275 2512.89H321.025C321.049 2513.33 321.16 2513.71 321.359 2514.01C321.558 2514.31 321.837 2514.54 322.197 2514.7C322.562 2514.85 322.995 2514.93 323.497 2514.93C323.918 2514.93 324.271 2514.88 324.555 2514.78C324.839 2514.67 325.055 2514.53 325.201 2514.34C325.348 2514.16 325.424 2513.95 325.429 2513.71C325.424 2513.49 325.35 2513.29 325.208 2513.13C325.071 2512.96 324.844 2512.81 324.527 2512.67C324.209 2512.54 323.781 2512.41 323.241 2512.29L321.792 2511.98C320.504 2511.7 319.489 2511.23 318.745 2510.58C318.007 2509.92 317.64 2509.02 317.645 2507.89C317.64 2506.96 317.886 2506.16 318.383 2505.46C318.885 2504.77 319.579 2504.23 320.464 2503.84C321.354 2503.45 322.375 2503.26 323.525 2503.26C324.699 2503.26 325.715 2503.45 326.572 2503.85C327.429 2504.24 328.09 2504.79 328.554 2505.51C329.022 2506.22 329.259 2507.05 329.264 2508H325.485ZM334.914 2503.45V2518H330.965V2503.45H334.914ZM346.231 2508.26C346.17 2508 346.073 2507.78 345.94 2507.6C345.807 2507.4 345.642 2507.24 345.443 2507.11C345.249 2506.97 345.021 2506.87 344.761 2506.8C344.505 2506.73 344.224 2506.69 343.916 2506.69C343.253 2506.69 342.687 2506.85 342.218 2507.17C341.754 2507.49 341.399 2507.94 341.153 2508.54C340.912 2509.14 340.791 2509.86 340.791 2510.7C340.791 2511.55 340.907 2512.28 341.139 2512.89C341.371 2513.49 341.717 2513.96 342.176 2514.28C342.635 2514.6 343.206 2514.76 343.887 2514.76C344.489 2514.76 344.988 2514.67 345.386 2514.5C345.788 2514.32 346.089 2514.07 346.288 2513.75C346.487 2513.43 346.586 2513.05 346.586 2512.62L347.268 2512.69H343.944V2509.88H350.393V2511.89C350.393 2513.22 350.111 2514.35 349.548 2515.29C348.989 2516.23 348.217 2516.95 347.233 2517.45C346.252 2517.95 345.128 2518.2 343.859 2518.2C342.443 2518.2 341.2 2517.9 340.13 2517.3C339.06 2516.7 338.225 2515.84 337.623 2514.73C337.027 2513.61 336.728 2512.29 336.728 2510.76C336.728 2509.55 336.911 2508.49 337.275 2507.56C337.645 2506.63 338.156 2505.85 338.809 2505.21C339.463 2504.56 340.218 2504.08 341.075 2503.75C341.932 2503.42 342.85 2503.26 343.831 2503.26C344.692 2503.26 345.493 2503.38 346.231 2503.62C346.975 2503.87 347.63 2504.21 348.199 2504.66C348.771 2505.11 349.233 2505.63 349.583 2506.25C349.934 2506.86 350.147 2507.53 350.223 2508.26H346.231ZM364.82 2503.45V2518H361.524L356.268 2510.36H356.183V2518H352.234V2503.45H355.587L360.757 2511.07H360.871V2503.45H364.82ZM379.28 2503.45H383.229V2512.77C383.229 2513.88 382.964 2514.84 382.433 2515.65C381.908 2516.45 381.174 2517.08 380.232 2517.52C379.289 2517.95 378.196 2518.17 376.95 2518.17C375.696 2518.17 374.597 2517.95 373.655 2517.52C372.713 2517.08 371.979 2516.45 371.453 2515.65C370.932 2514.84 370.672 2513.88 370.672 2512.77V2503.45H374.621V2512.43C374.621 2512.88 374.72 2513.28 374.919 2513.64C375.118 2513.99 375.393 2514.26 375.743 2514.46C376.098 2514.66 376.5 2514.76 376.95 2514.76C377.405 2514.76 377.807 2514.66 378.158 2514.46C378.508 2514.26 378.783 2513.99 378.982 2513.64C379.18 2513.28 379.28 2512.88 379.28 2512.43V2503.45ZM385.105 2518V2503.45H391.384C392.463 2503.45 393.408 2503.67 394.218 2504.09C395.027 2504.52 395.657 2505.12 396.107 2505.89C396.557 2506.66 396.782 2507.56 396.782 2508.6C396.782 2509.64 396.55 2510.54 396.086 2511.3C395.626 2512.06 394.98 2512.65 394.147 2513.06C393.318 2513.48 392.35 2513.68 391.242 2513.68H387.492V2510.61H390.446C390.91 2510.61 391.306 2510.53 391.632 2510.37C391.964 2510.21 392.217 2509.97 392.392 2509.67C392.572 2509.37 392.662 2509.01 392.662 2508.6C392.662 2508.18 392.572 2507.82 392.392 2507.53C392.217 2507.23 391.964 2507.01 391.632 2506.85C391.306 2506.69 390.91 2506.61 390.446 2506.61H389.054V2518H385.105Z" fill="#060606"/>
<rect x="312.5" y="2496.5" width="89" height="29" stroke="#03042F" stroke-width="5"/>
<rect x="387.5" y="2885.5" width="89" height="29" fill="#EFEFEF"/>
<path d="M400.485 2897C400.448 2896.53 400.27 2896.16 399.953 2895.89C399.64 2895.63 399.164 2895.49 398.525 2895.49C398.118 2895.49 397.784 2895.54 397.524 2895.64C397.268 2895.74 397.079 2895.87 396.956 2896.03C396.833 2896.2 396.769 2896.39 396.764 2896.6C396.754 2896.78 396.785 2896.94 396.856 2897.08C396.932 2897.22 397.05 2897.34 397.211 2897.45C397.372 2897.56 397.578 2897.66 397.829 2897.75C398.08 2897.84 398.378 2897.92 398.724 2897.99L399.917 2898.25C400.722 2898.42 401.411 2898.65 401.984 2898.92C402.557 2899.2 403.026 2899.53 403.39 2899.91C403.755 2900.29 404.022 2900.71 404.193 2901.18C404.368 2901.64 404.458 2902.16 404.463 2902.71C404.458 2903.67 404.219 2904.48 403.745 2905.14C403.272 2905.8 402.595 2906.31 401.714 2906.65C400.838 2907 399.785 2907.17 398.554 2907.17C397.289 2907.17 396.186 2906.98 395.244 2906.61C394.306 2906.24 393.577 2905.66 393.056 2904.88C392.54 2904.1 392.28 2903.1 392.275 2901.89H396.025C396.049 2902.33 396.16 2902.71 396.359 2903.01C396.558 2903.31 396.837 2903.54 397.197 2903.7C397.562 2903.85 397.995 2903.93 398.497 2903.93C398.918 2903.93 399.271 2903.88 399.555 2903.78C399.839 2903.67 400.055 2903.53 400.201 2903.34C400.348 2903.16 400.424 2902.95 400.429 2902.71C400.424 2902.49 400.35 2902.29 400.208 2902.13C400.071 2901.96 399.844 2901.81 399.527 2901.67C399.209 2901.54 398.781 2901.41 398.241 2901.29L396.792 2900.98C395.504 2900.7 394.489 2900.23 393.745 2899.58C393.007 2898.92 392.64 2898.02 392.645 2896.89C392.64 2895.96 392.886 2895.16 393.383 2894.46C393.885 2893.77 394.579 2893.23 395.464 2892.84C396.354 2892.45 397.375 2892.26 398.525 2892.26C399.699 2892.26 400.715 2892.45 401.572 2892.85C402.429 2893.24 403.09 2893.79 403.554 2894.51C404.022 2895.22 404.259 2896.05 404.264 2897H400.485ZM409.914 2892.45V2907H405.965V2892.45H409.914ZM421.231 2897.26C421.17 2897 421.073 2896.78 420.94 2896.6C420.807 2896.4 420.642 2896.24 420.443 2896.11C420.249 2895.97 420.021 2895.87 419.761 2895.8C419.505 2895.73 419.224 2895.69 418.916 2895.69C418.253 2895.69 417.687 2895.85 417.218 2896.17C416.754 2896.49 416.399 2896.94 416.153 2897.54C415.912 2898.14 415.791 2898.86 415.791 2899.7C415.791 2900.55 415.907 2901.28 416.139 2901.89C416.371 2902.49 416.717 2902.96 417.176 2903.28C417.635 2903.6 418.206 2903.76 418.887 2903.76C419.489 2903.76 419.988 2903.67 420.386 2903.5C420.788 2903.32 421.089 2903.07 421.288 2902.75C421.487 2902.43 421.586 2902.05 421.586 2901.62L422.268 2901.69H418.944V2898.88H425.393V2900.89C425.393 2902.22 425.111 2903.35 424.548 2904.29C423.989 2905.23 423.217 2905.95 422.233 2906.45C421.252 2906.95 420.128 2907.2 418.859 2907.2C417.443 2907.2 416.2 2906.9 415.13 2906.3C414.06 2905.7 413.225 2904.84 412.623 2903.73C412.027 2902.61 411.728 2901.29 411.728 2899.76C411.728 2898.55 411.911 2897.49 412.275 2896.56C412.645 2895.63 413.156 2894.85 413.809 2894.21C414.463 2893.56 415.218 2893.08 416.075 2892.75C416.932 2892.42 417.85 2892.26 418.831 2892.26C419.692 2892.26 420.493 2892.38 421.231 2892.62C421.975 2892.87 422.63 2893.21 423.199 2893.66C423.771 2894.11 424.233 2894.63 424.583 2895.25C424.934 2895.86 425.147 2896.53 425.223 2897.26H421.231ZM439.82 2892.45V2907H436.524L431.268 2899.36H431.183V2907H427.234V2892.45H430.587L435.757 2900.07H435.871V2892.45H439.82ZM454.28 2892.45H458.229V2901.77C458.229 2902.88 457.964 2903.84 457.433 2904.65C456.908 2905.45 456.174 2906.08 455.232 2906.52C454.289 2906.95 453.196 2907.17 451.95 2907.17C450.696 2907.17 449.597 2906.95 448.655 2906.52C447.713 2906.08 446.979 2905.45 446.453 2904.65C445.932 2903.84 445.672 2902.88 445.672 2901.77V2892.45H449.621V2901.43C449.621 2901.88 449.72 2902.28 449.919 2902.64C450.118 2902.99 450.393 2903.26 450.743 2903.46C451.098 2903.66 451.5 2903.76 451.95 2903.76C452.405 2903.76 452.807 2903.66 453.158 2903.46C453.508 2903.26 453.783 2902.99 453.982 2902.64C454.18 2902.28 454.28 2901.88 454.28 2901.43V2892.45ZM460.105 2907V2892.45H466.384C467.463 2892.45 468.408 2892.67 469.218 2893.09C470.027 2893.52 470.657 2894.12 471.107 2894.89C471.557 2895.66 471.782 2896.56 471.782 2897.6C471.782 2898.64 471.55 2899.54 471.086 2900.3C470.626 2901.06 469.98 2901.65 469.147 2902.06C468.318 2902.48 467.35 2902.68 466.242 2902.68H462.492V2899.61H465.446C465.91 2899.61 466.306 2899.53 466.632 2899.37C466.964 2899.21 467.217 2898.97 467.392 2898.67C467.572 2898.37 467.662 2898.01 467.662 2897.6C467.662 2897.18 467.572 2896.82 467.392 2896.53C467.217 2896.23 466.964 2896.01 466.632 2895.85C466.306 2895.69 465.91 2895.61 465.446 2895.61H464.054V2907H460.105Z" fill="#060606"/>
<rect x="387.5" y="2885.5" width="89" height="29" stroke="#03042F" stroke-width="5"/>
<rect x="387.5" y="3814.5" width="89" height="29" fill="#EFEFEF"/>
<path d="M400.485 3826C400.448 3825.53 400.27 3825.16 399.953 3824.89C399.64 3824.63 399.164 3824.49 398.525 3824.49C398.118 3824.49 397.784 3824.54 397.524 3824.64C397.268 3824.74 397.079 3824.87 396.956 3825.03C396.833 3825.2 396.769 3825.39 396.764 3825.6C396.754 3825.78 396.785 3825.94 396.856 3826.08C396.932 3826.22 397.05 3826.34 397.211 3826.45C397.372 3826.56 397.578 3826.66 397.829 3826.75C398.08 3826.84 398.378 3826.92 398.724 3826.99L399.917 3827.25C400.722 3827.42 401.411 3827.65 401.984 3827.92C402.557 3828.2 403.026 3828.53 403.39 3828.91C403.755 3829.29 404.022 3829.71 404.193 3830.18C404.368 3830.64 404.458 3831.16 404.463 3831.71C404.458 3832.67 404.219 3833.48 403.745 3834.14C403.272 3834.8 402.595 3835.31 401.714 3835.65C400.838 3836 399.785 3836.17 398.554 3836.17C397.289 3836.17 396.186 3835.98 395.244 3835.61C394.306 3835.24 393.577 3834.66 393.056 3833.88C392.54 3833.1 392.28 3832.1 392.275 3830.89H396.025C396.049 3831.33 396.16 3831.71 396.359 3832.01C396.558 3832.31 396.837 3832.54 397.197 3832.7C397.562 3832.85 397.995 3832.93 398.497 3832.93C398.918 3832.93 399.271 3832.88 399.555 3832.78C399.839 3832.67 400.055 3832.53 400.201 3832.34C400.348 3832.16 400.424 3831.95 400.429 3831.71C400.424 3831.49 400.35 3831.29 400.208 3831.13C400.071 3830.96 399.844 3830.81 399.527 3830.67C399.209 3830.54 398.781 3830.41 398.241 3830.29L396.792 3829.98C395.504 3829.7 394.489 3829.23 393.745 3828.58C393.007 3827.92 392.64 3827.02 392.645 3825.89C392.64 3824.96 392.886 3824.16 393.383 3823.46C393.885 3822.77 394.579 3822.23 395.464 3821.84C396.354 3821.45 397.375 3821.26 398.525 3821.26C399.699 3821.26 400.715 3821.45 401.572 3821.85C402.429 3822.24 403.09 3822.79 403.554 3823.51C404.022 3824.22 404.259 3825.05 404.264 3826H400.485ZM409.914 3821.45V3836H405.965V3821.45H409.914ZM421.231 3826.26C421.17 3826 421.073 3825.78 420.94 3825.6C420.807 3825.4 420.642 3825.24 420.443 3825.11C420.249 3824.97 420.021 3824.87 419.761 3824.8C419.505 3824.73 419.224 3824.69 418.916 3824.69C418.253 3824.69 417.687 3824.85 417.218 3825.17C416.754 3825.49 416.399 3825.94 416.153 3826.54C415.912 3827.14 415.791 3827.86 415.791 3828.7C415.791 3829.55 415.907 3830.28 416.139 3830.89C416.371 3831.49 416.717 3831.96 417.176 3832.28C417.635 3832.6 418.206 3832.76 418.887 3832.76C419.489 3832.76 419.988 3832.67 420.386 3832.5C420.788 3832.32 421.089 3832.07 421.288 3831.75C421.487 3831.43 421.586 3831.05 421.586 3830.62L422.268 3830.69H418.944V3827.88H425.393V3829.89C425.393 3831.22 425.111 3832.35 424.548 3833.29C423.989 3834.23 423.217 3834.95 422.233 3835.45C421.252 3835.95 420.128 3836.2 418.859 3836.2C417.443 3836.2 416.2 3835.9 415.13 3835.3C414.06 3834.7 413.225 3833.84 412.623 3832.73C412.027 3831.61 411.728 3830.29 411.728 3828.76C411.728 3827.55 411.911 3826.49 412.275 3825.56C412.645 3824.63 413.156 3823.85 413.809 3823.21C414.463 3822.56 415.218 3822.08 416.075 3821.75C416.932 3821.42 417.85 3821.26 418.831 3821.26C419.692 3821.26 420.493 3821.38 421.231 3821.62C421.975 3821.87 422.63 3822.21 423.199 3822.66C423.771 3823.11 424.233 3823.63 424.583 3824.25C424.934 3824.86 425.147 3825.53 425.223 3826.26H421.231ZM439.82 3821.45V3836H436.524L431.268 3828.36H431.183V3836H427.234V3821.45H430.587L435.757 3829.07H435.871V3821.45H439.82ZM454.28 3821.45H458.229V3830.77C458.229 3831.88 457.964 3832.84 457.433 3833.65C456.908 3834.45 456.174 3835.08 455.232 3835.52C454.289 3835.95 453.196 3836.17 451.95 3836.17C450.696 3836.17 449.597 3835.95 448.655 3835.52C447.713 3835.08 446.979 3834.45 446.453 3833.65C445.932 3832.84 445.672 3831.88 445.672 3830.77V3821.45H449.621V3830.43C449.621 3830.88 449.72 3831.28 449.919 3831.64C450.118 3831.99 450.393 3832.26 450.743 3832.46C451.098 3832.66 451.5 3832.76 451.95 3832.76C452.405 3832.76 452.807 3832.66 453.158 3832.46C453.508 3832.26 453.783 3831.99 453.982 3831.64C454.18 3831.28 454.28 3830.88 454.28 3830.43V3821.45ZM460.105 3836V3821.45H466.384C467.463 3821.45 468.408 3821.67 469.218 3822.09C470.027 3822.52 470.657 3823.12 471.107 3823.89C471.557 3824.66 471.782 3825.56 471.782 3826.6C471.782 3827.64 471.55 3828.54 471.086 3829.3C470.626 3830.06 469.98 3830.65 469.147 3831.06C468.318 3831.48 467.35 3831.68 466.242 3831.68H462.492V3828.61H465.446C465.91 3828.61 466.306 3828.53 466.632 3828.37C466.964 3828.21 467.217 3827.97 467.392 3827.67C467.572 3827.37 467.662 3827.01 467.662 3826.6C467.662 3826.18 467.572 3825.82 467.392 3825.53C467.217 3825.23 466.964 3825.01 466.632 3824.85C466.306 3824.69 465.91 3824.61 465.446 3824.61H464.054V3836H460.105Z" fill="#060606"/>
<rect x="387.5" y="3814.5" width="89" height="29" stroke="#03042F" stroke-width="5"/>
<rect x="581.5" y="1657.5" width="89" height="29" fill="#EFEFEF"/>
<path d="M594.485 1669C594.448 1668.53 594.27 1668.16 593.953 1667.89C593.64 1667.63 593.164 1667.49 592.525 1667.49C592.118 1667.49 591.784 1667.54 591.524 1667.64C591.268 1667.74 591.079 1667.87 590.956 1668.03C590.833 1668.2 590.769 1668.39 590.764 1668.6C590.754 1668.78 590.785 1668.94 590.856 1669.08C590.932 1669.22 591.05 1669.34 591.211 1669.45C591.372 1669.56 591.578 1669.66 591.829 1669.75C592.08 1669.84 592.378 1669.92 592.724 1669.99L593.917 1670.25C594.722 1670.42 595.411 1670.65 595.984 1670.92C596.557 1671.2 597.026 1671.53 597.39 1671.91C597.755 1672.29 598.022 1672.71 598.193 1673.18C598.368 1673.64 598.458 1674.16 598.463 1674.71C598.458 1675.67 598.219 1676.48 597.745 1677.14C597.272 1677.8 596.595 1678.31 595.714 1678.65C594.838 1679 593.785 1679.17 592.554 1679.17C591.289 1679.17 590.186 1678.98 589.244 1678.61C588.306 1678.24 587.577 1677.66 587.056 1676.88C586.54 1676.1 586.28 1675.1 586.275 1673.89H590.025C590.049 1674.33 590.16 1674.71 590.359 1675.01C590.558 1675.31 590.837 1675.54 591.197 1675.7C591.562 1675.85 591.995 1675.93 592.497 1675.93C592.918 1675.93 593.271 1675.88 593.555 1675.78C593.839 1675.67 594.055 1675.53 594.201 1675.34C594.348 1675.16 594.424 1674.95 594.429 1674.71C594.424 1674.49 594.35 1674.29 594.208 1674.13C594.071 1673.96 593.844 1673.81 593.527 1673.67C593.209 1673.54 592.781 1673.41 592.241 1673.29L590.792 1672.98C589.504 1672.7 588.489 1672.23 587.745 1671.58C587.007 1670.92 586.64 1670.02 586.645 1668.89C586.64 1667.96 586.886 1667.16 587.383 1666.46C587.885 1665.77 588.579 1665.23 589.464 1664.84C590.354 1664.45 591.375 1664.26 592.525 1664.26C593.699 1664.26 594.715 1664.45 595.572 1664.85C596.429 1665.24 597.09 1665.79 597.554 1666.51C598.022 1667.22 598.259 1668.05 598.264 1669H594.485ZM603.914 1664.45V1679H599.965V1664.45H603.914ZM615.231 1669.26C615.17 1669 615.073 1668.78 614.94 1668.6C614.807 1668.4 614.642 1668.24 614.443 1668.11C614.249 1667.97 614.021 1667.87 613.761 1667.8C613.505 1667.73 613.224 1667.69 612.916 1667.69C612.253 1667.69 611.687 1667.85 611.218 1668.17C610.754 1668.49 610.399 1668.94 610.153 1669.54C609.912 1670.14 609.791 1670.86 609.791 1671.7C609.791 1672.55 609.907 1673.28 610.139 1673.89C610.371 1674.49 610.717 1674.96 611.176 1675.28C611.635 1675.6 612.206 1675.76 612.887 1675.76C613.489 1675.76 613.988 1675.67 614.386 1675.5C614.788 1675.32 615.089 1675.07 615.288 1674.75C615.487 1674.43 615.586 1674.05 615.586 1673.62L616.268 1673.69H612.944V1670.88H619.393V1672.89C619.393 1674.22 619.111 1675.35 618.548 1676.29C617.989 1677.23 617.217 1677.95 616.233 1678.45C615.252 1678.95 614.128 1679.2 612.859 1679.2C611.443 1679.2 610.2 1678.9 609.13 1678.3C608.06 1677.7 607.225 1676.84 606.623 1675.73C606.027 1674.61 605.728 1673.29 605.728 1671.76C605.728 1670.55 605.911 1669.49 606.275 1668.56C606.645 1667.63 607.156 1666.85 607.809 1666.21C608.463 1665.56 609.218 1665.08 610.075 1664.75C610.932 1664.42 611.85 1664.26 612.831 1664.26C613.692 1664.26 614.493 1664.38 615.231 1664.62C615.975 1664.87 616.63 1665.21 617.199 1665.66C617.771 1666.11 618.233 1666.63 618.583 1667.25C618.934 1667.86 619.147 1668.53 619.223 1669.26H615.231ZM633.82 1664.45V1679H630.524L625.268 1671.36H625.183V1679H621.234V1664.45H624.587L629.757 1672.07H629.871V1664.45H633.82ZM648.28 1664.45H652.229V1673.77C652.229 1674.88 651.964 1675.84 651.433 1676.65C650.908 1677.45 650.174 1678.08 649.232 1678.52C648.289 1678.95 647.196 1679.17 645.95 1679.17C644.696 1679.17 643.597 1678.95 642.655 1678.52C641.713 1678.08 640.979 1677.45 640.453 1676.65C639.932 1675.84 639.672 1674.88 639.672 1673.77V1664.45H643.621V1673.43C643.621 1673.88 643.72 1674.28 643.919 1674.64C644.118 1674.99 644.393 1675.26 644.743 1675.46C645.098 1675.66 645.5 1675.76 645.95 1675.76C646.405 1675.76 646.807 1675.66 647.158 1675.46C647.508 1675.26 647.783 1674.99 647.982 1674.64C648.18 1674.28 648.28 1673.88 648.28 1673.43V1664.45ZM654.105 1679V1664.45H660.384C661.463 1664.45 662.408 1664.67 663.218 1665.09C664.027 1665.52 664.657 1666.12 665.107 1666.89C665.557 1667.66 665.782 1668.56 665.782 1669.6C665.782 1670.64 665.55 1671.54 665.086 1672.3C664.626 1673.06 663.98 1673.65 663.147 1674.06C662.318 1674.48 661.35 1674.68 660.242 1674.68H656.492V1671.61H659.446C659.91 1671.61 660.306 1671.53 660.632 1671.37C660.964 1671.21 661.217 1670.97 661.392 1670.67C661.572 1670.37 661.662 1670.01 661.662 1669.6C661.662 1669.18 661.572 1668.82 661.392 1668.53C661.217 1668.23 660.964 1668.01 660.632 1667.85C660.306 1667.69 659.91 1667.61 659.446 1667.61H658.054V1679H654.105Z" fill="#060606"/>
<rect x="581.5" y="1657.5" width="89" height="29" stroke="#03042F" stroke-width="5"/>
<rect x="581.5" y="2496.5" width="89" height="29" fill="#EFEFEF"/>
<path d="M594.485 2508C594.448 2507.53 594.27 2507.16 593.953 2506.89C593.64 2506.63 593.164 2506.49 592.525 2506.49C592.118 2506.49 591.784 2506.54 591.524 2506.64C591.268 2506.74 591.079 2506.87 590.956 2507.03C590.833 2507.2 590.769 2507.39 590.764 2507.6C590.754 2507.78 590.785 2507.94 590.856 2508.08C590.932 2508.22 591.05 2508.34 591.211 2508.45C591.372 2508.56 591.578 2508.66 591.829 2508.75C592.08 2508.84 592.378 2508.92 592.724 2508.99L593.917 2509.25C594.722 2509.42 595.411 2509.65 595.984 2509.92C596.557 2510.2 597.026 2510.53 597.39 2510.91C597.755 2511.29 598.022 2511.71 598.193 2512.18C598.368 2512.64 598.458 2513.16 598.463 2513.71C598.458 2514.67 598.219 2515.48 597.745 2516.14C597.272 2516.8 596.595 2517.31 595.714 2517.65C594.838 2518 593.785 2518.17 592.554 2518.17C591.289 2518.17 590.186 2517.98 589.244 2517.61C588.306 2517.24 587.577 2516.66 587.056 2515.88C586.54 2515.1 586.28 2514.1 586.275 2512.89H590.025C590.049 2513.33 590.16 2513.71 590.359 2514.01C590.558 2514.31 590.837 2514.54 591.197 2514.7C591.562 2514.85 591.995 2514.93 592.497 2514.93C592.918 2514.93 593.271 2514.88 593.555 2514.78C593.839 2514.67 594.055 2514.53 594.201 2514.34C594.348 2514.16 594.424 2513.95 594.429 2513.71C594.424 2513.49 594.35 2513.29 594.208 2513.13C594.071 2512.96 593.844 2512.81 593.527 2512.67C593.209 2512.54 592.781 2512.41 592.241 2512.29L590.792 2511.98C589.504 2511.7 588.489 2511.23 587.745 2510.58C587.007 2509.92 586.64 2509.02 586.645 2507.89C586.64 2506.96 586.886 2506.16 587.383 2505.46C587.885 2504.77 588.579 2504.23 589.464 2503.84C590.354 2503.45 591.375 2503.26 592.525 2503.26C593.699 2503.26 594.715 2503.45 595.572 2503.85C596.429 2504.24 597.09 2504.79 597.554 2505.51C598.022 2506.22 598.259 2507.05 598.264 2508H594.485ZM603.914 2503.45V2518H599.965V2503.45H603.914ZM615.231 2508.26C615.17 2508 615.073 2507.78 614.94 2507.6C614.807 2507.4 614.642 2507.24 614.443 2507.11C614.249 2506.97 614.021 2506.87 613.761 2506.8C613.505 2506.73 613.224 2506.69 612.916 2506.69C612.253 2506.69 611.687 2506.85 611.218 2507.17C610.754 2507.49 610.399 2507.94 610.153 2508.54C609.912 2509.14 609.791 2509.86 609.791 2510.7C609.791 2511.55 609.907 2512.28 610.139 2512.89C610.371 2513.49 610.717 2513.96 611.176 2514.28C611.635 2514.6 612.206 2514.76 612.887 2514.76C613.489 2514.76 613.988 2514.67 614.386 2514.5C614.788 2514.32 615.089 2514.07 615.288 2513.75C615.487 2513.43 615.586 2513.05 615.586 2512.62L616.268 2512.69H612.944V2509.88H619.393V2511.89C619.393 2513.22 619.111 2514.35 618.548 2515.29C617.989 2516.23 617.217 2516.95 616.233 2517.45C615.252 2517.95 614.128 2518.2 612.859 2518.2C611.443 2518.2 610.2 2517.9 609.13 2517.3C608.06 2516.7 607.225 2515.84 606.623 2514.73C606.027 2513.61 605.728 2512.29 605.728 2510.76C605.728 2509.55 605.911 2508.49 606.275 2507.56C606.645 2506.63 607.156 2505.85 607.809 2505.21C608.463 2504.56 609.218 2504.08 610.075 2503.75C610.932 2503.42 611.85 2503.26 612.831 2503.26C613.692 2503.26 614.493 2503.38 615.231 2503.62C615.975 2503.87 616.63 2504.21 617.199 2504.66C617.771 2505.11 618.233 2505.63 618.583 2506.25C618.934 2506.86 619.147 2507.53 619.223 2508.26H615.231ZM633.82 2503.45V2518H630.524L625.268 2510.36H625.183V2518H621.234V2503.45H624.587L629.757 2511.07H629.871V2503.45H633.82ZM648.28 2503.45H652.229V2512.77C652.229 2513.88 651.964 2514.84 651.433 2515.65C650.908 2516.45 650.174 2517.08 649.232 2517.52C648.289 2517.95 647.196 2518.17 645.95 2518.17C644.696 2518.17 643.597 2517.95 642.655 2517.52C641.713 2517.08 640.979 2516.45 640.453 2515.65C639.932 2514.84 639.672 2513.88 639.672 2512.77V2503.45H643.621V2512.43C643.621 2512.88 643.72 2513.28 643.919 2513.64C644.118 2513.99 644.393 2514.26 644.743 2514.46C645.098 2514.66 645.5 2514.76 645.95 2514.76C646.405 2514.76 646.807 2514.66 647.158 2514.46C647.508 2514.26 647.783 2513.99 647.982 2513.64C648.18 2513.28 648.28 2512.88 648.28 2512.43V2503.45ZM654.105 2518V2503.45H660.384C661.463 2503.45 662.408 2503.67 663.218 2504.09C664.027 2504.52 664.657 2505.12 665.107 2505.89C665.557 2506.66 665.782 2507.56 665.782 2508.6C665.782 2509.64 665.55 2510.54 665.086 2511.3C664.626 2512.06 663.98 2512.65 663.147 2513.06C662.318 2513.48 661.35 2513.68 660.242 2513.68H656.492V2510.61H659.446C659.91 2510.61 660.306 2510.53 660.632 2510.37C660.964 2510.21 661.217 2509.97 661.392 2509.67C661.572 2509.37 661.662 2509.01 661.662 2508.6C661.662 2508.18 661.572 2507.82 661.392 2507.53C661.217 2507.23 660.964 2507.01 660.632 2506.85C660.306 2506.69 659.91 2506.61 659.446 2506.61H658.054V2518H654.105Z" fill="#060606"/>
<rect x="581.5" y="2496.5" width="89" height="29" stroke="#03042F" stroke-width="5"/>
<defs>
<clipPath id="clip0_498_985">
<rect width="860" height="94" fill="white"/>
</clipPath>
</defs>
</svg>
