<svg width="1280" height="294" viewBox="0 0 1280 294" fill="none" xmlns="http://www.w3.org/2000/svg">
<g clip-path="url(#clip0_611_1327)">
<path d="M1276 178.5C1276 178.5 1180.55 175.285 1092 161.162C999.056 146.338 955.325 156.768 852 118.662C781.5 92.662 706.161 62.1994 642.5 60.1617C572.761 57.9296 456.615 68.5012 321.5 161.162C190.5 251 0.5 221.662 0.5 221.662" stroke="#F5F5F5" stroke-width="14"/>
<rect x="115" y="172" width="278" height="85" fill="#F5F5F5"/>
<path d="M145.164 229V199.909H157.721C159.88 199.909 161.769 200.302 163.388 201.088C165.008 201.874 166.267 203.006 167.167 204.483C168.067 205.96 168.516 207.731 168.516 209.795C168.516 211.879 168.052 213.635 167.124 215.065C166.206 216.495 164.913 217.575 163.246 218.304C161.589 219.033 159.653 219.398 157.437 219.398H149.937V213.261H155.846C156.774 213.261 157.565 213.148 158.218 212.92C158.881 212.684 159.388 212.31 159.738 211.798C160.098 211.287 160.278 210.619 160.278 209.795C160.278 208.962 160.098 208.285 159.738 207.764C159.388 207.234 158.881 206.846 158.218 206.599C157.565 206.344 156.774 206.216 155.846 206.216H153.062V229H145.164ZM162.21 215.648L169.482 229H160.903L153.8 215.648H162.21ZM171.883 229V199.909H192.849V206.273H179.781V211.273H191.769V217.636H179.781V222.636H192.792V229H171.883ZM212.447 209C212.372 208.053 212.017 207.314 211.382 206.784C210.757 206.254 209.805 205.989 208.527 205.989C207.713 205.989 207.045 206.088 206.524 206.287C206.013 206.476 205.634 206.737 205.388 207.068C205.142 207.4 205.014 207.778 205.004 208.205C204.985 208.555 205.047 208.872 205.189 209.156C205.34 209.431 205.577 209.682 205.899 209.909C206.221 210.127 206.633 210.326 207.135 210.506C207.637 210.686 208.233 210.847 208.925 210.989L211.311 211.5C212.921 211.841 214.299 212.291 215.445 212.849C216.59 213.408 217.528 214.066 218.257 214.824C218.986 215.572 219.521 216.415 219.862 217.352C220.213 218.29 220.393 219.312 220.402 220.42C220.393 222.333 219.914 223.953 218.967 225.278C218.02 226.604 216.666 227.613 214.905 228.304C213.153 228.995 211.046 229.341 208.584 229.341C206.055 229.341 203.849 228.967 201.964 228.219C200.089 227.471 198.631 226.32 197.589 224.767C196.557 223.205 196.036 221.206 196.027 218.773H203.527C203.574 219.663 203.797 220.411 204.195 221.017C204.592 221.623 205.151 222.082 205.871 222.395C206.6 222.707 207.466 222.864 208.47 222.864C209.313 222.864 210.018 222.759 210.587 222.551C211.155 222.343 211.586 222.054 211.879 221.685C212.173 221.315 212.324 220.894 212.334 220.42C212.324 219.975 212.178 219.587 211.893 219.256C211.619 218.915 211.164 218.612 210.53 218.347C209.895 218.072 209.038 217.816 207.959 217.58L205.061 216.955C202.485 216.396 200.454 215.463 198.967 214.156C197.49 212.84 196.756 211.045 196.766 208.773C196.756 206.926 197.249 205.312 198.243 203.929C199.247 202.537 200.634 201.453 202.405 200.676C204.185 199.9 206.226 199.511 208.527 199.511C210.875 199.511 212.907 199.904 214.621 200.69C216.335 201.476 217.656 202.584 218.584 204.014C219.521 205.435 219.995 207.097 220.004 209H212.447ZM223.406 229V199.909H244.372V206.273H231.304V211.273H243.293V217.636H231.304V222.636H244.315V229H223.406ZM255.846 229H247.323L256.925 199.909H267.721L277.323 229H268.8L262.437 207.92H262.21L255.846 229ZM254.255 217.523H270.278V223.432H254.255V217.523ZM280.125 229V199.909H292.682C294.841 199.909 296.73 200.302 298.349 201.088C299.969 201.874 301.228 203.006 302.128 204.483C303.027 205.96 303.477 207.731 303.477 209.795C303.477 211.879 303.013 213.635 302.085 215.065C301.167 216.495 299.874 217.575 298.207 218.304C296.55 219.033 294.614 219.398 292.398 219.398H284.898V213.261H290.807C291.735 213.261 292.526 213.148 293.179 212.92C293.842 212.684 294.348 212.31 294.699 211.798C295.059 211.287 295.239 210.619 295.239 209.795C295.239 208.962 295.059 208.285 294.699 207.764C294.348 207.234 293.842 206.846 293.179 206.599C292.526 206.344 291.735 206.216 290.807 206.216H288.023V229H280.125ZM297.17 215.648L304.443 229H295.864L288.761 215.648H297.17ZM334.003 210.818H325.991C325.935 210.155 325.783 209.554 325.537 209.014C325.3 208.474 324.969 208.01 324.543 207.622C324.126 207.224 323.619 206.921 323.023 206.713C322.426 206.495 321.749 206.386 320.991 206.386C319.666 206.386 318.544 206.708 317.625 207.352C316.716 207.996 316.025 208.92 315.551 210.122C315.087 211.325 314.855 212.769 314.855 214.455C314.855 216.235 315.092 217.726 315.565 218.929C316.048 220.122 316.744 221.022 317.653 221.628C318.563 222.224 319.656 222.523 320.935 222.523C321.664 222.523 322.317 222.433 322.895 222.253C323.473 222.063 323.974 221.794 324.401 221.443C324.827 221.093 325.172 220.671 325.438 220.179C325.712 219.677 325.897 219.114 325.991 218.489L334.003 218.545C333.908 219.777 333.563 221.031 332.966 222.31C332.369 223.579 331.522 224.753 330.423 225.832C329.334 226.902 327.985 227.764 326.375 228.418C324.765 229.071 322.895 229.398 320.764 229.398C318.094 229.398 315.698 228.825 313.577 227.679C311.465 226.533 309.794 224.848 308.562 222.622C307.341 220.397 306.73 217.674 306.73 214.455C306.73 211.216 307.355 208.489 308.605 206.273C309.855 204.047 311.541 202.366 313.662 201.23C315.783 200.084 318.151 199.511 320.764 199.511C322.601 199.511 324.292 199.762 325.835 200.264C327.379 200.766 328.733 201.5 329.898 202.466C331.063 203.422 332 204.601 332.71 206.003C333.42 207.404 333.851 209.009 334.003 210.818ZM337.586 229V199.909H345.484V211.273H355.938V199.909H363.836V229H355.938V217.636H345.484V229H337.586Z" fill="black"/>
<rect x="501" y="37" width="278" height="85" fill="#F5F5F5"/>
<path d="M576.416 94H565.223V64.9091H576.302C579.295 64.9091 581.88 65.4915 584.058 66.6562C586.245 67.8116 587.931 69.4782 589.115 71.6562C590.308 73.8248 590.904 76.4242 590.904 79.4545C590.904 82.4848 590.313 85.089 589.129 87.267C587.945 89.4356 586.269 91.1023 584.1 92.267C581.932 93.4223 579.37 94 576.416 94ZM573.12 87.2955H576.132C577.571 87.2955 578.797 87.0634 579.811 86.5994C580.833 86.1354 581.61 85.3352 582.14 84.1989C582.68 83.0625 582.95 81.4811 582.95 79.4545C582.95 77.428 582.675 75.8466 582.126 74.7102C581.586 73.5739 580.791 72.7737 579.74 72.3097C578.698 71.8456 577.42 71.6136 575.904 71.6136H573.12V87.2955ZM594.559 94V64.9091H615.525V71.2727H602.456V76.2727H614.445V82.6364H602.456V87.6364H615.468V94H594.559ZM635.123 74C635.047 73.053 634.692 72.3144 634.058 71.7841C633.433 71.2538 632.481 70.9886 631.203 70.9886C630.388 70.9886 629.721 71.0881 629.2 71.2869C628.689 71.4763 628.31 71.7367 628.064 72.0682C627.817 72.3996 627.69 72.7784 627.68 73.2045C627.661 73.5549 627.723 73.8722 627.865 74.1562C628.016 74.4309 628.253 74.6818 628.575 74.9091C628.897 75.1269 629.309 75.3258 629.811 75.5057C630.313 75.6856 630.909 75.8466 631.6 75.9886L633.987 76.5C635.597 76.8409 636.975 77.2907 638.12 77.8494C639.266 78.4081 640.204 79.0663 640.933 79.8239C641.662 80.572 642.197 81.4148 642.538 82.3523C642.888 83.2898 643.068 84.3125 643.078 85.4205C643.068 87.3333 642.59 88.9527 641.643 90.2784C640.696 91.6042 639.342 92.6127 637.581 93.304C635.829 93.9953 633.722 94.3409 631.26 94.3409C628.731 94.3409 626.525 93.9669 624.64 93.2188C622.765 92.4706 621.307 91.3201 620.265 89.767C619.233 88.2045 618.712 86.2064 618.703 83.7727H626.203C626.25 84.6629 626.473 85.411 626.87 86.017C627.268 86.6231 627.827 87.0824 628.547 87.3949C629.276 87.7074 630.142 87.8636 631.146 87.8636C631.989 87.8636 632.694 87.7595 633.262 87.5511C633.831 87.3428 634.261 87.054 634.555 86.6847C634.849 86.3153 635 85.8939 635.01 85.4205C635 84.9754 634.853 84.5871 634.569 84.2557C634.295 83.9148 633.84 83.6117 633.206 83.3466C632.571 83.072 631.714 82.8163 630.635 82.5795L627.737 81.9545C625.161 81.3958 623.13 80.4631 621.643 79.1562C620.166 77.84 619.432 76.0455 619.441 73.7727C619.432 71.9261 619.924 70.3116 620.919 68.929C621.922 67.5369 623.31 66.4527 625.081 65.6761C626.861 64.8996 628.902 64.5114 631.203 64.5114C633.551 64.5114 635.583 64.9044 637.297 65.6903C639.011 66.4763 640.332 67.5843 641.26 69.0142C642.197 70.4347 642.671 72.0966 642.68 74H635.123ZM653.98 64.9091V94H646.082V64.9091H653.98ZM676.615 74.5114C676.492 74.0095 676.297 73.5691 676.032 73.1903C675.767 72.8021 675.436 72.4754 675.038 72.2102C674.65 71.9356 674.195 71.732 673.674 71.5994C673.163 71.4574 672.6 71.3864 671.984 71.3864C670.658 71.3864 669.527 71.7036 668.589 72.3381C667.661 72.9725 666.951 73.8864 666.458 75.0795C665.975 76.2727 665.734 77.7121 665.734 79.3977C665.734 81.1023 665.966 82.5606 666.43 83.7727C666.894 84.9848 667.585 85.9129 668.504 86.5568C669.422 87.2008 670.564 87.5227 671.927 87.5227C673.13 87.5227 674.129 87.3475 674.924 86.9972C675.729 86.6468 676.331 86.1496 676.728 85.5057C677.126 84.8617 677.325 84.1042 677.325 83.233L678.689 83.375H672.041V77.75H684.939V81.7841C684.939 84.4356 684.375 86.7036 683.248 88.5881C682.131 90.4631 680.587 91.9025 678.618 92.9062C676.657 93.9006 674.408 94.3977 671.87 94.3977C669.039 94.3977 666.553 93.7964 664.413 92.5938C662.273 91.3911 660.601 89.6771 659.399 87.4517C658.206 85.2263 657.609 82.5795 657.609 79.5114C657.609 77.1061 657.974 74.9754 658.703 73.1193C659.441 71.2633 660.464 69.696 661.771 68.4176C663.078 67.1297 664.588 66.1591 666.302 65.5057C668.016 64.8428 669.853 64.5114 671.814 64.5114C673.537 64.5114 675.137 64.7576 676.615 65.25C678.101 65.733 679.413 66.4242 680.549 67.3239C681.695 68.214 682.618 69.2699 683.319 70.4915C684.02 71.7131 684.446 73.053 684.598 74.5114H676.615ZM713.792 64.9091V94H707.201L696.689 78.7159H696.519V94H688.621V64.9091H695.326L705.667 80.1364H705.894V64.9091H713.792Z" fill="#020202"/>
<rect x="887" y="101" width="278" height="85" fill="#F5F5F5"/>
<path d="M973.354 139.818H965.343C965.286 139.155 965.135 138.554 964.888 138.014C964.652 137.474 964.32 137.01 963.894 136.622C963.478 136.224 962.971 135.921 962.374 135.713C961.778 135.495 961.101 135.386 960.343 135.386C959.017 135.386 957.895 135.708 956.977 136.352C956.067 136.996 955.376 137.92 954.903 139.122C954.439 140.325 954.207 141.769 954.207 143.455C954.207 145.235 954.443 146.726 954.917 147.929C955.4 149.122 956.096 150.022 957.005 150.628C957.914 151.224 959.008 151.523 960.286 151.523C961.015 151.523 961.669 151.433 962.246 151.253C962.824 151.063 963.326 150.794 963.752 150.443C964.178 150.093 964.524 149.671 964.789 149.179C965.064 148.677 965.248 148.114 965.343 147.489L973.354 147.545C973.26 148.777 972.914 150.031 972.317 151.31C971.721 152.579 970.873 153.753 969.775 154.832C968.686 155.902 967.336 156.764 965.727 157.418C964.117 158.071 962.246 158.398 960.116 158.398C957.445 158.398 955.049 157.825 952.928 156.679C950.817 155.533 949.145 153.848 947.914 151.622C946.692 149.397 946.082 146.674 946.082 143.455C946.082 140.216 946.707 137.489 947.957 135.273C949.207 133.047 950.892 131.366 953.013 130.23C955.135 129.084 957.502 128.511 960.116 128.511C961.953 128.511 963.643 128.762 965.187 129.264C966.73 129.766 968.085 130.5 969.249 131.466C970.414 132.422 971.352 133.601 972.062 135.003C972.772 136.404 973.203 138.009 973.354 139.818ZM1005.12 143.455C1005.12 146.693 1004.49 149.425 1003.23 151.651C1001.97 153.866 1000.27 155.547 998.131 156.693C995.991 157.83 993.604 158.398 990.972 158.398C988.32 158.398 985.924 157.825 983.784 156.679C981.653 155.524 979.958 153.838 978.699 151.622C977.449 149.397 976.824 146.674 976.824 143.455C976.824 140.216 977.449 137.489 978.699 135.273C979.958 133.047 981.653 131.366 983.784 130.23C985.924 129.084 988.32 128.511 990.972 128.511C993.604 128.511 995.991 129.084 998.131 130.23C1000.27 131.366 1001.97 133.047 1003.23 135.273C1004.49 137.489 1005.12 140.216 1005.12 143.455ZM996.994 143.455C996.994 141.712 996.762 140.244 996.298 139.051C995.844 137.848 995.167 136.939 994.267 136.324C993.377 135.699 992.278 135.386 990.972 135.386C989.665 135.386 988.562 135.699 987.662 136.324C986.772 136.939 986.095 137.848 985.631 139.051C985.176 140.244 984.949 141.712 984.949 143.455C984.949 145.197 985.176 146.67 985.631 147.872C986.095 149.065 986.772 149.974 987.662 150.599C988.562 151.215 989.665 151.523 990.972 151.523C992.278 151.523 993.377 151.215 994.267 150.599C995.167 149.974 995.844 149.065 996.298 147.872C996.762 146.67 996.994 145.197 996.994 143.455ZM1019.97 158H1008.77V128.909H1019.85C1022.85 128.909 1025.43 129.491 1027.61 130.656C1029.8 131.812 1031.48 133.478 1032.67 135.656C1033.86 137.825 1034.46 140.424 1034.46 143.455C1034.46 146.485 1033.86 149.089 1032.68 151.267C1031.5 153.436 1029.82 155.102 1027.65 156.267C1025.48 157.422 1022.92 158 1019.97 158ZM1016.67 151.295H1019.68C1021.12 151.295 1022.35 151.063 1023.36 150.599C1024.38 150.135 1025.16 149.335 1025.69 148.199C1026.23 147.062 1026.5 145.481 1026.5 143.455C1026.5 141.428 1026.23 139.847 1025.68 138.71C1025.14 137.574 1024.34 136.774 1023.29 136.31C1022.25 135.846 1020.97 135.614 1019.46 135.614H1016.67V151.295ZM1046.01 128.909V158H1038.11V128.909H1046.01ZM1074.92 128.909V158H1068.33L1057.82 142.716H1057.65V158H1049.75V128.909H1056.45L1066.8 144.136H1067.02V128.909H1074.92ZM1097.55 138.511C1097.43 138.009 1097.23 137.569 1096.97 137.19C1096.7 136.802 1096.37 136.475 1095.97 136.21C1095.58 135.936 1095.13 135.732 1094.61 135.599C1094.1 135.457 1093.53 135.386 1092.92 135.386C1091.59 135.386 1090.46 135.704 1089.52 136.338C1088.59 136.973 1087.88 137.886 1087.39 139.08C1086.91 140.273 1086.67 141.712 1086.67 143.398C1086.67 145.102 1086.9 146.561 1087.36 147.773C1087.83 148.985 1088.52 149.913 1089.44 150.557C1090.36 151.201 1091.5 151.523 1092.86 151.523C1094.06 151.523 1095.06 151.348 1095.86 150.997C1096.66 150.647 1097.26 150.15 1097.66 149.506C1098.06 148.862 1098.26 148.104 1098.26 147.233L1099.62 147.375H1092.97V141.75H1105.87V145.784C1105.87 148.436 1105.31 150.704 1104.18 152.588C1103.06 154.463 1101.52 155.902 1099.55 156.906C1097.59 157.901 1095.34 158.398 1092.8 158.398C1089.97 158.398 1087.49 157.796 1085.35 156.594C1083.21 155.391 1081.54 153.677 1080.33 151.452C1079.14 149.226 1078.54 146.58 1078.54 143.511C1078.54 141.106 1078.91 138.975 1079.64 137.119C1080.38 135.263 1081.4 133.696 1082.7 132.418C1084.01 131.13 1085.52 130.159 1087.24 129.506C1088.95 128.843 1090.79 128.511 1092.75 128.511C1094.47 128.511 1096.07 128.758 1097.55 129.25C1099.04 129.733 1100.35 130.424 1101.48 131.324C1102.63 132.214 1103.55 133.27 1104.25 134.491C1104.95 135.713 1105.38 137.053 1105.53 138.511H1097.55Z" fill="black"/>
</g>
<defs>
<clipPath id="clip0_611_1327">
<rect width="1280" height="294" fill="white"/>
</clipPath>
</defs>
</svg>
