<svg width="1512" height="5120" viewBox="0 0 1512 5120" fill="none" xmlns="http://www.w3.org/2000/svg">
<g clip-path="url(#clip0_503_1221)">
<rect width="1512" height="5120" fill="white"/>
<rect x="3.83594" y="147.003" width="1508.16" height="834.996" fill="#A5A5A5"/>
<path d="M1506.24 155.032L7.67578 969.957" stroke="white"/>
<path d="M0 146L1490.89 978.989" stroke="white"/>
<rect width="1512" height="146" fill="#D9D9D9"/>
<rect x="632" y="742" width="251" height="78" fill="#D9D9D9"/>
<path d="M713.36 799.576C703.136 799.576 695.408 793.192 695.408 781.384C695.408 769.72 702.944 762.76 713.504 762.76C718.688 762.76 722.624 764.968 725.312 767.416L721.424 771.976C719.312 770.2 716.72 768.856 713.6 768.856C706.976 768.856 702.656 773.56 702.656 781.144C702.656 788.872 707.024 793.384 713.696 793.384C717.152 793.384 720.128 791.8 722.288 789.736L726.128 794.392C722.672 797.8 718.736 799.576 713.36 799.576ZM754.4 799V769.24H742.496V763.336H773.456V769.24H761.504V799H754.4ZM788.576 799L801.296 763.336H810.32L823.232 799H815.408L812.48 789.928H799.04L796.112 799H788.576ZM800.576 784.456H810.944L809.6 780.472C808.4 776.728 807.056 772.552 805.808 768.712H805.616C804.464 772.6 803.12 776.728 801.92 780.472L800.576 784.456Z" fill="#050505"/>
<rect x="65" y="1973" width="205" height="24" fill="#D9D9D9"/>
<rect x="65" y="2054" width="354" height="24" fill="#D9D9D9"/>
<rect x="65" y="2006" width="499" height="39" fill="#D9D9D9"/>
<rect x="580" y="3074" width="354" height="24" fill="#D9D9D9"/>
<rect x="293" y="2969" width="927" height="81" fill="#D9D9D9"/>
<rect x="59" y="1607.88" width="194" height="31" fill="#D9D9D9"/>
<rect x="59" y="1654.88" width="311" height="31" fill="#D9D9D9"/>
<rect x="59" y="1701.88" width="452" height="13" fill="#D9D9D9"/>
<rect x="59" y="1721.88" width="283" height="14" fill="#D9D9D9"/>
<rect x="63.7461" y="1209.57" width="438.087" height="370.977" fill="#A5A5A5"/>
<path d="M500.159 1213.14L64.8594 1575.2" stroke="white"/>
<path d="M62.6328 1209.12L495.703 1579.21" stroke="white"/>
<rect x="535" y="1607.88" width="195" height="31" fill="#D9D9D9"/>
<rect x="535" y="1654.88" width="311" height="31" fill="#D9D9D9"/>
<rect x="535" y="1701.88" width="453" height="13" fill="#D9D9D9"/>
<rect x="535" y="1721.88" width="284" height="14" fill="#D9D9D9"/>
<rect x="540.02" y="1209.57" width="438.087" height="370.977" fill="#A5A5A5"/>
<path d="M976.433 1213.14L541.133 1575.2" stroke="white"/>
<path d="M538.906 1209.12L971.976 1579.21" stroke="white"/>
<rect x="1012" y="1607.88" width="194" height="31" fill="#D9D9D9"/>
<rect x="1012" y="1654.88" width="310" height="31" fill="#D9D9D9"/>
<rect x="1012" y="1701.88" width="452" height="13" fill="#D9D9D9"/>
<rect x="1012" y="1721.88" width="283" height="14" fill="#D9D9D9"/>
<rect x="1016.29" y="1209.57" width="438.087" height="370.977" fill="#A5A5A5"/>
<path d="M1452.7 1213.14L1017.4 1575.2" stroke="white"/>
<path d="M1015.18 1209.12L1448.25 1579.21" stroke="white"/>
<rect x="59.9375" y="2280.18" width="324.285" height="390.818" fill="#D9D9D9"/>
<rect x="147.32" y="2407.2" width="145.192" height="25.124" fill="#A5A5A5"/>
<rect x="147.32" y="2481.17" width="145.192" height="25.124" fill="#A5A5A5"/>
<rect x="103.629" y="2444.88" width="232.037" height="25.124" fill="#A5A5A5"/>
<rect x="87.125" y="2546.78" width="236.903" height="11.1662" fill="#A5A5A5"/>
<rect x="87.125" y="2563.52" width="211.682" height="11.1662" fill="#A5A5A5"/>
<rect x="87.125" y="2581.67" width="179.619" height="11.1662" fill="#A5A5A5"/>
<rect x="58.8281" y="2142.27" width="327.281" height="225.845" fill="#A5A5A5"/>
<path d="M384.859 2144.44L59.6602 2364.86" stroke="white"/>
<path d="M57.9961 2142L381.529 2367.3" stroke="white"/>
<rect x="416.051" y="2280.18" width="324.285" height="390.818" fill="#D9D9D9"/>
<rect x="503.434" y="2407.2" width="145.192" height="25.124" fill="#A5A5A5"/>
<rect x="503.434" y="2481.17" width="145.192" height="25.124" fill="#A5A5A5"/>
<rect x="459.742" y="2444.88" width="232.037" height="25.124" fill="#A5A5A5"/>
<rect x="443.234" y="2546.78" width="236.903" height="11.1662" fill="#A5A5A5"/>
<rect x="443.234" y="2563.52" width="211.682" height="11.1662" fill="#A5A5A5"/>
<rect x="443.234" y="2581.67" width="179.619" height="11.1662" fill="#A5A5A5"/>
<rect x="414.941" y="2142.27" width="327.281" height="225.845" fill="#A5A5A5"/>
<path d="M740.972 2144.44L415.773 2364.86" stroke="white"/>
<path d="M414.109 2142L737.642 2367.3" stroke="white"/>
<rect x="772.164" y="2280.18" width="324.285" height="390.818" fill="#D9D9D9"/>
<rect x="859.547" y="2407.2" width="145.192" height="25.124" fill="#A5A5A5"/>
<rect x="859.547" y="2481.17" width="145.192" height="25.124" fill="#A5A5A5"/>
<rect x="815.855" y="2444.88" width="232.037" height="25.124" fill="#A5A5A5"/>
<rect x="799.348" y="2546.78" width="236.903" height="11.1662" fill="#A5A5A5"/>
<rect x="799.348" y="2563.52" width="211.682" height="11.1662" fill="#A5A5A5"/>
<rect x="799.348" y="2581.67" width="179.619" height="11.1662" fill="#A5A5A5"/>
<rect x="771.055" y="2142.27" width="327.281" height="225.845" fill="#A5A5A5"/>
<path d="M1097.09 2144.44L771.887 2364.86" stroke="white"/>
<path d="M770.223 2142L1093.76 2367.3" stroke="white"/>
<rect x="1128.27" y="2280.18" width="324.285" height="390.818" fill="#D9D9D9"/>
<rect x="1215.66" y="2407.2" width="145.192" height="25.124" fill="#A5A5A5"/>
<rect x="1215.66" y="2481.17" width="145.192" height="25.124" fill="#A5A5A5"/>
<rect x="1171.96" y="2444.88" width="232.037" height="25.124" fill="#A5A5A5"/>
<rect x="1155.46" y="2546.78" width="236.903" height="11.1662" fill="#A5A5A5"/>
<rect x="1155.46" y="2563.52" width="211.682" height="11.1662" fill="#A5A5A5"/>
<rect x="1155.46" y="2581.67" width="179.619" height="11.1662" fill="#A5A5A5"/>
<rect x="1127.16" y="2142.27" width="327.281" height="225.845" fill="#A5A5A5"/>
<path d="M1453.19 2144.44L1128 2364.86" stroke="white"/>
<path d="M1126.33 2142L1449.87 2367.3" stroke="white"/>
<rect x="63" y="2707" width="244" height="11" fill="#D9D9D9"/>
<rect x="63" y="2723" width="218" height="11" fill="#D9D9D9"/>
<rect x="63" y="2740" width="185" height="11" fill="#D9D9D9"/>
<rect x="624" y="3162" width="265" height="63" fill="#D9D9D9"/>
<path d="M718.3 3211.48C709.78 3211.48 703.34 3206.16 703.34 3196.32C703.34 3186.6 709.62 3180.8 718.42 3180.8C722.74 3180.8 726.02 3182.64 728.26 3184.68L725.02 3188.48C723.26 3187 721.1 3185.88 718.5 3185.88C712.98 3185.88 709.38 3189.8 709.38 3196.12C709.38 3202.56 713.02 3206.32 718.58 3206.32C721.46 3206.32 723.94 3205 725.74 3203.28L728.94 3207.16C726.06 3210 722.78 3211.48 718.3 3211.48ZM752.5 3211V3186.2H742.58V3181.28H768.38V3186.2H758.42V3211H752.5ZM780.98 3211L791.58 3181.28H799.1L809.86 3211H803.34L800.9 3203.44H789.7L787.26 3211H780.98ZM790.98 3198.88H799.62L798.5 3195.56C797.5 3192.44 796.38 3188.96 795.34 3185.76H795.18C794.22 3189 793.1 3192.44 792.1 3195.56L790.98 3198.88Z" fill="#050505"/>
<rect x="149.102" y="3443.8" width="1217.9" height="667.198" fill="#A5A5A5"/>
<path d="M1362.35 3450.22L152.203 4101.38" stroke="white"/>
<path d="M146.004 3443L1349.96 4108.59" stroke="white"/>
<rect x="624" y="3950" width="265" height="63" fill="#D9D9D9"/>
<path d="M718.3 3999.48C709.78 3999.48 703.34 3994.16 703.34 3984.32C703.34 3974.6 709.62 3968.8 718.42 3968.8C722.74 3968.8 726.02 3970.64 728.26 3972.68L725.02 3976.48C723.26 3975 721.1 3973.88 718.5 3973.88C712.98 3973.88 709.38 3977.8 709.38 3984.12C709.38 3990.56 713.02 3994.32 718.58 3994.32C721.46 3994.32 723.94 3993 725.74 3991.28L728.94 3995.16C726.06 3998 722.78 3999.48 718.3 3999.48ZM752.5 3999V3974.2H742.58V3969.28H768.38V3974.2H758.42V3999H752.5ZM780.98 3999L791.58 3969.28H799.1L809.86 3999H803.34L800.9 3991.44H789.7L787.26 3999H780.98ZM790.98 3986.88H799.62L798.5 3983.56C797.5 3980.44 796.38 3976.96 795.34 3973.76H795.18C794.22 3977 793.1 3980.44 792.1 3983.56L790.98 3986.88Z" fill="#050505"/>
<rect x="58" y="4271" width="568" height="83" fill="#D9D9D9"/>
<rect x="58" y="4418" width="425" height="28" fill="#D9D9D9"/>
<rect x="58" y="4590" width="425" height="28" fill="#D9D9D9"/>
<rect x="58" y="4762" width="425" height="28" fill="#D9D9D9"/>
<rect x="58" y="4514" width="738" height="28" fill="#D9D9D9"/>
<rect x="58" y="4686" width="738" height="28" fill="#D9D9D9"/>
<rect x="58" y="4858" width="738" height="28" fill="#D9D9D9"/>
<rect x="58" y="4457" width="1040" height="46" fill="#D9D9D9"/>
<rect x="58" y="4629" width="1040" height="46" fill="#D9D9D9"/>
<rect x="58" y="4801" width="1040" height="46" fill="#D9D9D9"/>
<path d="M302.34 4329V4299.91H322.794V4306.27H310.238V4311.27H321.544V4317.64H310.238V4329H302.34ZM329.623 4329H321.1L330.703 4299.91H341.498L351.1 4329H342.578L336.214 4307.92H335.987L329.623 4329ZM328.032 4317.52H344.055V4323.43H328.032V4317.52ZM363.785 4318.2H369.922L372.137 4320.99L375.887 4325.25L380.774 4331.16H373.785L370.319 4327.12L367.99 4323.77L363.785 4318.2ZM380.717 4314.45C380.717 4317.69 380.087 4320.43 378.828 4322.65C377.568 4324.87 375.868 4326.55 373.728 4327.69C371.588 4328.83 369.202 4329.4 366.569 4329.4C363.918 4329.4 361.522 4328.82 359.382 4327.68C357.251 4326.52 355.556 4324.84 354.297 4322.62C353.047 4320.4 352.422 4317.67 352.422 4314.45C352.422 4311.22 353.047 4308.49 354.297 4306.27C355.556 4304.05 357.251 4302.37 359.382 4301.23C361.522 4300.08 363.918 4299.51 366.569 4299.51C369.202 4299.51 371.588 4300.08 373.728 4301.23C375.868 4302.37 377.568 4304.05 378.828 4306.27C380.087 4308.49 380.717 4311.22 380.717 4314.45ZM372.592 4314.45C372.592 4312.71 372.36 4311.24 371.896 4310.05C371.441 4308.85 370.764 4307.94 369.865 4307.32C368.975 4306.7 367.876 4306.39 366.569 4306.39C365.262 4306.39 364.159 4306.7 363.26 4307.32C362.369 4307.94 361.692 4308.85 361.228 4310.05C360.774 4311.24 360.547 4312.71 360.547 4314.45C360.547 4316.2 360.774 4317.67 361.228 4318.87C361.692 4320.07 362.369 4320.97 363.26 4321.6C364.159 4322.21 365.262 4322.52 366.569 4322.52C367.876 4322.52 368.975 4322.21 369.865 4321.6C370.764 4320.97 371.441 4320.07 371.896 4318.87C372.36 4317.67 372.592 4316.2 372.592 4314.45Z" fill="#050505"/>
</g>
<defs>
<clipPath id="clip0_503_1221">
<rect width="1512" height="5120" fill="white"/>
</clipPath>
</defs>
</svg>
