<svg width="393" height="4130" viewBox="0 0 393 4130" fill="none" xmlns="http://www.w3.org/2000/svg">
<g clip-path="url(#clip0_503_988)">
<rect width="393" height="4130" fill="white"/>
<rect x="1" y="63.6133" width="393" height="510.387" fill="#A5A5A5"/>
<path d="M392.5 68.521L2 566.639" stroke="white"/>
<path d="M0 63L388.5 572.16" stroke="white"/>
<rect x="1" y="3187.61" width="393" height="510.387" fill="#A5A5A5"/>
<path d="M392.5 3192.52L2 3690.64" stroke="white"/>
<path d="M0 3187L388.5 3696.16" stroke="white"/>
<rect width="393" height="63" fill="#D9D9D9"/>
<rect x="24" y="3062" width="171" height="45" fill="#D9D9D9"/>
<path d="M98.84 3089.14C96.284 3089.14 94.352 3087.55 94.352 3084.6C94.352 3081.68 96.236 3079.94 98.876 3079.94C100.172 3079.94 101.156 3080.49 101.828 3081.1L100.856 3082.24C100.328 3081.8 99.68 3081.46 98.9 3081.46C97.244 3081.46 96.164 3082.64 96.164 3084.54C96.164 3086.47 97.256 3087.6 98.924 3087.6C99.788 3087.6 100.532 3087.2 101.072 3086.68L102.032 3087.85C101.168 3088.7 100.184 3089.14 98.84 3089.14ZM109.1 3089V3081.56H106.124V3080.08H113.864V3081.56H110.876V3089H109.1ZM117.644 3089L120.824 3080.08H123.08L126.308 3089H124.352L123.62 3086.73H120.26L119.528 3089H117.644ZM120.644 3085.36H123.236L122.9 3084.37C122.6 3083.43 122.264 3082.39 121.952 3081.43H121.904C121.616 3082.4 121.28 3083.43 120.98 3084.37L120.644 3085.36Z" fill="#050505"/>
<rect x="24" y="3748" width="171" height="45" fill="#D9D9D9"/>
<rect x="112" y="3604" width="171" height="45" fill="#D9D9D9"/>
<rect x="24" y="1125" width="89" height="14" fill="#D9D9D9"/>
<rect x="24" y="2946" width="128" height="20" fill="#D9D9D9"/>
<rect x="24" y="3817" width="128" height="15" fill="#D9D9D9"/>
<rect x="24" y="3900" width="128" height="15" fill="#D9D9D9"/>
<rect x="24" y="3983" width="128" height="15" fill="#D9D9D9"/>
<rect x="24" y="1172" width="154" height="14" fill="#D9D9D9"/>
<rect x="24" y="3014" width="222" height="20" fill="#D9D9D9"/>
<rect x="24" y="3869" width="222" height="15" fill="#D9D9D9"/>
<rect x="24" y="3952" width="222" height="15" fill="#D9D9D9"/>
<rect x="24" y="4035" width="222" height="15" fill="#D9D9D9"/>
<rect x="24" y="984" width="107" height="18" fill="#D9D9D9"/>
<rect x="24" y="1011" width="171" height="18" fill="#D9D9D9"/>
<rect x="24" y="1038" width="249" height="8" fill="#D9D9D9"/>
<rect x="24" y="1050" width="156" height="8" fill="#D9D9D9"/>
<rect x="26.6133" y="638.386" width="241.19" height="321.59" fill="#A5A5A5"/>
<path d="M266.883 641.479L27.2266 955.339" stroke="white"/>
<path d="M26 638L264.429 958.817" stroke="white"/>
<rect x="297" y="984" width="107" height="18" fill="#D9D9D9"/>
<rect x="297" y="1011" width="171" height="18" fill="#D9D9D9"/>
<rect x="297" y="1038" width="249" height="8" fill="#D9D9D9"/>
<rect x="297" y="1050" width="156" height="8" fill="#D9D9D9"/>
<rect x="299.613" y="638.386" width="241.19" height="321.59" fill="#A5A5A5"/>
<path d="M539.883 641.479L300.227 955.339" stroke="white"/>
<path d="M299 638L537.429 958.817" stroke="white"/>
<rect x="28" y="1317" width="334" height="280" fill="#D9D9D9"/>
<rect x="118" y="1408" width="149.542" height="18" fill="#A5A5A5"/>
<rect x="118" y="1461" width="149.542" height="18" fill="#A5A5A5"/>
<rect x="73" y="1435" width="238.988" height="18" fill="#A5A5A5"/>
<rect x="56" y="1508" width="244" height="8" fill="#A5A5A5"/>
<rect x="56" y="1520" width="218.024" height="8" fill="#A5A5A5"/>
<rect x="56" y="1533" width="185" height="8" fill="#A5A5A5"/>
<rect x="26.8555" y="1218.19" width="337.085" height="161.806" fill="#A5A5A5"/>
<path d="M362.656 1219.75L27.7148 1377.67" stroke="white"/>
<path d="M26 1218L359.225 1379.42" stroke="white"/>
<rect x="28" y="1724" width="334" height="280" fill="#D9D9D9"/>
<rect x="118" y="1815" width="149.542" height="18" fill="#A5A5A5"/>
<rect x="118" y="1868" width="149.542" height="18" fill="#A5A5A5"/>
<rect x="73" y="1842" width="238.988" height="18" fill="#A5A5A5"/>
<rect x="56" y="1915" width="244" height="8" fill="#A5A5A5"/>
<rect x="56" y="1927" width="218.024" height="8" fill="#A5A5A5"/>
<rect x="56" y="1940" width="185" height="8" fill="#A5A5A5"/>
<rect x="26.8555" y="1625.19" width="337.085" height="161.806" fill="#A5A5A5"/>
<path d="M362.656 1626.75L27.7148 1784.67" stroke="white"/>
<path d="M26 1625L359.225 1786.42" stroke="white"/>
<rect x="28" y="2131" width="334" height="280" fill="#D9D9D9"/>
<rect x="118" y="2222" width="149.542" height="18" fill="#A5A5A5"/>
<rect x="118" y="2275" width="149.542" height="18" fill="#A5A5A5"/>
<rect x="73" y="2249" width="238.988" height="18" fill="#A5A5A5"/>
<rect x="56" y="2322" width="244" height="8" fill="#A5A5A5"/>
<rect x="56" y="2334" width="218.024" height="8" fill="#A5A5A5"/>
<rect x="56" y="2347" width="185" height="8" fill="#A5A5A5"/>
<rect x="26.8555" y="2032.19" width="337.085" height="161.806" fill="#A5A5A5"/>
<path d="M362.656 2033.75L27.7148 2191.67" stroke="white"/>
<path d="M26 2032L359.225 2193.42" stroke="white"/>
<rect x="28" y="2538" width="334" height="280" fill="#D9D9D9"/>
<rect x="118" y="2629" width="149.542" height="18" fill="#A5A5A5"/>
<rect x="118" y="2682" width="149.542" height="18" fill="#A5A5A5"/>
<rect x="73" y="2656" width="238.988" height="18" fill="#A5A5A5"/>
<rect x="56" y="2729" width="244" height="8" fill="#A5A5A5"/>
<rect x="56" y="2741" width="218.024" height="8" fill="#A5A5A5"/>
<rect x="56" y="2754" width="185" height="8" fill="#A5A5A5"/>
<rect x="26.8555" y="2439.19" width="337.085" height="161.806" fill="#A5A5A5"/>
<path d="M362.656 2440.75L27.7148 2598.67" stroke="white"/>
<path d="M26 2439L359.225 2600.42" stroke="white"/>
<rect x="28" y="2834" width="244" height="8" fill="#D9D9D9"/>
<rect x="28" y="2846" width="218.024" height="8" fill="#D9D9D9"/>
<rect x="28" y="2858" width="185" height="8" fill="#D9D9D9"/>
<rect x="24" y="1144" width="217" height="23" fill="#D9D9D9"/>
<rect x="24" y="2973" width="313" height="34" fill="#D9D9D9"/>
<rect x="24" y="3838" width="313" height="25" fill="#D9D9D9"/>
<rect x="24" y="3921" width="313" height="25" fill="#D9D9D9"/>
<rect x="24" y="4004" width="313" height="25" fill="#D9D9D9"/>
<rect x="111" y="477" width="171" height="45" fill="#D9D9D9"/>
<path d="M186.84 504.144C184.284 504.144 182.352 502.548 182.352 499.596C182.352 496.68 184.236 494.94 186.876 494.94C188.172 494.94 189.156 495.492 189.828 496.104L188.856 497.244C188.328 496.8 187.68 496.464 186.9 496.464C185.244 496.464 184.164 497.64 184.164 499.536C184.164 501.468 185.256 502.596 186.924 502.596C187.788 502.596 188.532 502.2 189.072 501.684L190.032 502.848C189.168 503.7 188.184 504.144 186.84 504.144ZM197.1 504V496.56H194.124V495.084H201.864V496.56H198.876V504H197.1ZM205.644 504L208.824 495.084H211.08L214.308 504H212.352L211.62 501.732H208.26L207.528 504H205.644ZM208.644 500.364H211.236L210.9 499.368C210.6 498.432 210.264 497.388 209.952 496.428H209.904C209.616 497.4 209.28 498.432 208.98 499.368L208.644 500.364Z" fill="#050505"/>
<path d="M174.204 3622.27H176.539V3628.26C176.536 3628.82 176.393 3629.32 176.109 3629.76C175.828 3630.18 175.438 3630.52 174.941 3630.76C174.447 3631 173.877 3631.12 173.232 3631.12C172.673 3631.12 172.161 3631.02 171.698 3630.83C171.235 3630.63 170.866 3630.33 170.59 3629.91C170.315 3629.49 170.178 3628.94 170.181 3628.27H172.551C172.559 3628.49 172.596 3628.68 172.661 3628.83C172.73 3628.98 172.823 3629.09 172.943 3629.17C173.065 3629.24 173.213 3629.28 173.386 3629.28C173.562 3629.28 173.71 3629.24 173.829 3629.16C173.951 3629.09 174.044 3628.97 174.106 3628.82C174.169 3628.67 174.201 3628.48 174.204 3628.26V3622.27ZM180.85 3631.12C180.139 3631.12 179.531 3630.98 179.026 3630.7C178.52 3630.41 178.132 3630.02 177.862 3629.51C177.593 3629 177.458 3628.41 177.458 3627.74C177.458 3627.07 177.593 3626.49 177.862 3625.98C178.132 3625.47 178.52 3625.08 179.026 3624.8C179.531 3624.51 180.139 3624.37 180.85 3624.37C181.56 3624.37 182.168 3624.51 182.673 3624.8C183.179 3625.08 183.567 3625.47 183.837 3625.98C184.107 3626.49 184.242 3627.07 184.242 3627.74C184.242 3628.41 184.107 3629 183.837 3629.51C183.567 3630.02 183.179 3630.41 182.673 3630.7C182.168 3630.98 181.56 3631.12 180.85 3631.12ZM180.867 3629.38C181.066 3629.38 181.237 3629.31 181.382 3629.18C181.527 3629.05 181.639 3628.86 181.719 3628.61C181.798 3628.36 181.838 3628.07 181.838 3627.73C181.838 3627.38 181.798 3627.09 181.719 3626.85C181.639 3626.6 181.527 3626.41 181.382 3626.27C181.237 3626.14 181.066 3626.07 180.867 3626.07C180.656 3626.07 180.476 3626.14 180.325 3626.27C180.175 3626.41 180.06 3626.6 179.98 3626.85C179.901 3627.09 179.861 3627.38 179.861 3627.73C179.861 3628.07 179.901 3628.36 179.98 3628.61C180.06 3628.86 180.175 3629.05 180.325 3629.18C180.476 3629.31 180.656 3629.38 180.867 3629.38ZM185.196 3631V3624.45H187.548V3631H185.196ZM186.372 3623.77C186.054 3623.77 185.781 3623.67 185.554 3623.46C185.327 3623.25 185.213 3622.99 185.213 3622.7C185.213 3622.4 185.327 3622.15 185.554 3621.94C185.781 3621.73 186.054 3621.62 186.372 3621.62C186.693 3621.62 186.966 3621.73 187.191 3621.94C187.418 3622.15 187.531 3622.4 187.531 3622.7C187.531 3622.99 187.418 3623.25 187.191 3623.46C186.966 3623.67 186.693 3623.77 186.372 3623.77ZM191.099 3627.32V3631H188.747V3624.45H190.98V3625.7H191.048C191.19 3625.28 191.44 3624.96 191.798 3624.72C192.159 3624.49 192.579 3624.37 193.059 3624.37C193.523 3624.37 193.925 3624.48 194.265 3624.69C194.609 3624.9 194.875 3625.19 195.062 3625.56C195.253 3625.93 195.346 3626.35 195.344 3626.82V3631H192.991V3627.32C192.994 3626.99 192.912 3626.74 192.744 3626.56C192.579 3626.37 192.349 3626.28 192.054 3626.28C191.861 3626.28 191.692 3626.32 191.547 3626.41C191.405 3626.49 191.295 3626.61 191.219 3626.76C191.142 3626.92 191.102 3627.1 191.099 3627.32ZM203.566 3625C203.543 3624.72 203.437 3624.49 203.246 3624.34C203.059 3624.18 202.773 3624.1 202.39 3624.1C202.145 3624.1 201.945 3624.13 201.789 3624.19C201.635 3624.24 201.522 3624.32 201.448 3624.42C201.374 3624.52 201.336 3624.63 201.333 3624.76C201.327 3624.87 201.346 3624.96 201.388 3625.05C201.434 3625.13 201.505 3625.2 201.601 3625.27C201.698 3625.34 201.822 3625.4 201.972 3625.45C202.123 3625.51 202.302 3625.55 202.509 3625.6L203.225 3625.75C203.708 3625.85 204.121 3625.99 204.465 3626.15C204.809 3626.32 205.09 3626.52 205.309 3626.75C205.528 3626.97 205.688 3627.22 205.79 3627.51C205.895 3627.79 205.949 3628.09 205.952 3628.43C205.949 3629 205.806 3629.49 205.522 3629.88C205.238 3630.28 204.831 3630.58 204.303 3630.79C203.778 3631 203.145 3631.1 202.407 3631.1C201.648 3631.1 200.986 3630.99 200.421 3630.77C199.858 3630.54 199.421 3630.2 199.108 3629.73C198.799 3629.26 198.643 3628.66 198.64 3627.93H200.89C200.904 3628.2 200.971 3628.42 201.09 3628.61C201.209 3628.79 201.377 3628.92 201.593 3629.02C201.812 3629.11 202.072 3629.16 202.373 3629.16C202.626 3629.16 202.837 3629.13 203.008 3629.07C203.178 3629 203.307 3628.92 203.395 3628.81C203.483 3628.69 203.529 3628.57 203.532 3628.43C203.529 3628.29 203.485 3628.18 203.4 3628.08C203.317 3627.97 203.181 3627.88 202.991 3627.8C202.8 3627.72 202.543 3627.64 202.219 3627.57L201.35 3627.39C200.577 3627.22 199.968 3626.94 199.522 3626.55C199.079 3626.15 198.858 3625.61 198.861 3624.93C198.858 3624.38 199.006 3623.89 199.305 3623.48C199.606 3623.06 200.022 3622.74 200.553 3622.5C201.087 3622.27 201.699 3622.15 202.39 3622.15C203.094 3622.15 203.704 3622.27 204.218 3622.51C204.732 3622.74 205.128 3623.08 205.407 3623.5C205.688 3623.93 205.83 3624.43 205.833 3625H203.566ZM214.405 3622.27V3631H212.427L209.274 3626.41H209.223V3631H206.854V3622.27H208.865L211.967 3626.84H212.035V3622.27H214.405ZM220.23 3625C220.207 3624.72 220.101 3624.49 219.91 3624.34C219.723 3624.18 219.437 3624.1 219.054 3624.1C218.809 3624.1 218.609 3624.13 218.453 3624.19C218.3 3624.24 218.186 3624.32 218.112 3624.42C218.038 3624.52 218 3624.63 217.997 3624.76C217.991 3624.87 218.01 3624.96 218.052 3625.05C218.098 3625.13 218.169 3625.2 218.265 3625.27C218.362 3625.34 218.486 3625.4 218.636 3625.45C218.787 3625.51 218.966 3625.55 219.173 3625.6L219.889 3625.75C220.372 3625.85 220.785 3625.99 221.129 3626.15C221.473 3626.32 221.754 3626.52 221.973 3626.75C222.192 3626.97 222.352 3627.22 222.454 3627.51C222.559 3627.79 222.613 3628.09 222.616 3628.43C222.613 3629 222.47 3629.49 222.186 3629.88C221.902 3630.28 221.496 3630.58 220.967 3630.79C220.442 3631 219.809 3631.1 219.071 3631.1C218.312 3631.1 217.65 3630.99 217.085 3630.77C216.523 3630.54 216.085 3630.2 215.773 3629.73C215.463 3629.26 215.307 3628.66 215.304 3627.93H217.554C217.568 3628.2 217.635 3628.42 217.754 3628.61C217.873 3628.79 218.041 3628.92 218.257 3629.02C218.476 3629.11 218.736 3629.16 219.037 3629.16C219.29 3629.16 219.501 3629.13 219.672 3629.07C219.842 3629 219.971 3628.92 220.059 3628.81C220.148 3628.69 220.193 3628.57 220.196 3628.43C220.193 3628.29 220.149 3628.18 220.064 3628.08C219.981 3627.97 219.845 3627.88 219.655 3627.8C219.464 3627.72 219.207 3627.64 218.883 3627.57L218.014 3627.39C217.241 3627.22 216.632 3626.94 216.186 3626.55C215.743 3626.15 215.523 3625.61 215.525 3624.93C215.523 3624.38 215.67 3623.89 215.969 3623.48C216.27 3623.06 216.686 3622.74 217.217 3622.5C217.751 3622.27 218.363 3622.15 219.054 3622.15C219.758 3622.15 220.368 3622.27 220.882 3622.51C221.396 3622.74 221.792 3623.08 222.071 3623.5C222.352 3623.93 222.494 3624.43 222.497 3625H220.23Z" fill="#050505"/>
<path d="M57.752 3775V3766.27H63.8883V3768.18H60.1213V3769.68H63.5133V3771.59H60.1213V3775H57.752ZM65.937 3775H63.3801L66.2608 3766.27H69.4995L72.3801 3775H69.8233L67.9142 3768.68H67.8461L65.937 3775ZM65.4597 3771.56H70.2665V3773.33H65.4597V3771.56ZM76.1855 3771.76H78.0265L78.6912 3772.6L79.8162 3773.88L81.2821 3775.65H79.1855L78.1458 3774.44L77.4469 3773.43L76.1855 3771.76ZM81.2651 3770.64C81.2651 3771.61 81.0762 3772.43 80.6983 3773.1C80.3205 3773.76 79.8105 3774.26 79.1685 3774.61C78.5265 3774.95 77.8105 3775.12 77.0208 3775.12C76.2253 3775.12 75.5066 3774.95 74.8645 3774.6C74.2253 3774.26 73.7168 3773.75 73.339 3773.09C72.964 3772.42 72.7765 3771.6 72.7765 3770.64C72.7765 3769.66 72.964 3768.85 73.339 3768.18C73.7168 3767.51 74.2253 3767.01 74.8645 3766.67C75.5066 3766.33 76.2253 3766.15 77.0208 3766.15C77.8105 3766.15 78.5265 3766.33 79.1685 3766.67C79.8105 3767.01 80.3205 3767.51 80.6983 3768.18C81.0762 3768.85 81.2651 3769.66 81.2651 3770.64ZM78.8276 3770.64C78.8276 3770.11 78.758 3769.67 78.6188 3769.32C78.4824 3768.95 78.2793 3768.68 78.0094 3768.5C77.7424 3768.31 77.4128 3768.22 77.0208 3768.22C76.6287 3768.22 76.2978 3768.31 76.0279 3768.5C75.7608 3768.68 75.5577 3768.95 75.4185 3769.32C75.2821 3769.67 75.214 3770.11 75.214 3770.64C75.214 3771.16 75.2821 3771.6 75.4185 3771.96C75.5577 3772.32 75.7608 3772.59 76.0279 3772.78C76.2978 3772.96 76.6287 3773.06 77.0208 3773.06C77.4128 3773.06 77.7424 3772.96 78.0094 3772.78C78.2793 3772.59 78.4824 3772.32 78.6188 3771.96C78.758 3771.6 78.8276 3771.16 78.8276 3770.64Z" fill="#050505"/>
</g>
<defs>
<clipPath id="clip0_503_988">
<rect width="393" height="4130" fill="white"/>
</clipPath>
</defs>
</svg>
