<svg width="744" height="287" viewBox="0 0 744 287" fill="none" xmlns="http://www.w3.org/2000/svg">
<g clip-path="url(#clip0_673_6740)">
<rect width="744" height="287" fill="white"/>
<rect x="316.515" y="163.057" width="112.371" height="35.8286" fill="#E0E0E0"/>
<rect x="599.515" y="163.057" width="112.371" height="35.8286" fill="#E0E0E0"/>
<rect x="329.543" y="31.1428" width="30.9429" height="8.14286" fill="#E0E0E0"/>
<rect x="50.543" y="31.1428" width="30.9429" height="8.14286" fill="#E0E0E0"/>
<rect x="420.743" y="31.1428" width="6.51429" height="8.14286" fill="#E0E0E0"/>
<rect x="612.543" y="31.1428" width="30.9429" height="8.14286" fill="#E0E0E0"/>
<rect x="412.6" y="31.1428" width="6.51429" height="8.14286" fill="#E0E0E0"/>
<rect x="141.743" y="31.1428" width="6.51429" height="8.14286" fill="#E0E0E0"/>
<rect x="404.457" y="31.1428" width="6.51429" height="8.14286" fill="#E0E0E0"/>
<rect x="703.743" y="31.1428" width="6.51429" height="8.14286" fill="#E0E0E0"/>
<rect x="315.7" y="204.556" width="35.1852" height="40.8148" fill="#E0E0E0"/>
<rect x="133.6" y="31.1428" width="6.51429" height="8.14286" fill="#E0E0E0"/>
<rect x="394.515" y="204.556" width="35.1852" height="40.8148" fill="#E0E0E0"/>
<rect x="695.6" y="31.1428" width="6.51429" height="8.14286" fill="#E0E0E0"/>
<rect x="355.107" y="204.556" width="35.1852" height="40.8148" fill="#E0E0E0"/>
<rect x="125.457" y="31.1428" width="6.51429" height="8.14286" fill="#E0E0E0"/>
<path d="M323.029 31.1428L319.771 35.2143L323.029 39.2857" stroke="#E0E0E0"/>
<rect x="687.457" y="31.1428" width="6.51429" height="8.14286" fill="#E0E0E0"/>
<path d="M311.628 46.6143H432.143" stroke="#E0E0E0"/>
<rect x="310.5" y="23.5" width="122.771" height="227" stroke="#D9D9D9"/>
<rect x="36.7" y="204.556" width="35.1852" height="40.8148" fill="#E0E0E0"/>
<rect x="598.7" y="204.556" width="35.1852" height="40.8148" fill="#E0E0E0"/>
<rect x="115.515" y="204.556" width="35.1852" height="40.8148" fill="#E0E0E0"/>
<rect x="677.515" y="204.556" width="35.1852" height="40.8148" fill="#E0E0E0"/>
<g filter="url(#filter0_d_673_6740)">
<path d="M321.169 74.332C321.087 73.343 322.32 72.9385 322.892 73.7496C323.669 74.851 324.603 76.1435 325.535 77.3519C326.872 79.0861 329.034 81.0006 329.794 81.6549C329.972 81.8073 330.198 81.8889 330.431 81.8889H385C385.552 81.8889 386 82.3366 386 82.8889V119C386 119.552 385.552 120 385 120H324.519C323.967 120 323.519 119.552 323.519 119V85.6717C323.519 85.5702 323.504 85.4695 323.474 85.3725C323.271 84.7178 322.441 81.9998 322.008 80.0741C321.556 78.0643 321.307 75.9895 321.169 74.332Z" fill="white"/>
<path d="M385.5 82.8889V119C385.5 119.276 385.276 119.5 385 119.5H324.519C324.243 119.5 324.019 119.276 324.019 119V85.6717C324.019 85.5195 323.996 85.3691 323.952 85.2247C323.748 84.5681 322.923 81.8681 322.496 79.9644C322.051 77.9852 321.804 75.9352 321.667 74.2907C321.647 74.042 321.777 73.8956 321.944 73.84C322.116 73.7825 322.331 73.8227 322.483 74.0377C323.262 75.1424 324.201 76.4411 325.139 77.6571C326.511 79.4363 328.708 81.3802 329.468 82.0339C329.739 82.2665 330.081 82.3889 330.431 82.3889H385C385.276 82.3889 385.5 82.6127 385.5 82.8889Z" stroke="#C9F6F1"/>
</g>
<rect x="329" y="88" width="52" height="5" fill="#C9F6F1"/>
<rect x="329" y="95" width="52" height="5" fill="#C9F6F1"/>
<rect x="329" y="102" width="52" height="5" fill="#C9F6F1"/>
<rect x="329" y="109" width="52" height="5" fill="#C9F6F1"/>
<g filter="url(#filter1_d_673_6740)">
<path d="M423.802 125.398C423.922 124.516 422.907 124.053 422.255 124.659C421.451 125.407 420.456 126.309 419.465 127.148C418.095 128.309 415.857 129.594 415.151 129.989C415.006 130.07 414.843 130.111 414.676 130.111H360C359.448 130.111 359 130.559 359 131.111V154C359 154.552 359.448 155 360 155H420.481C421.033 155 421.481 154.552 421.481 154V132.709C421.481 132.559 421.514 132.411 421.578 132.276C421.844 131.71 422.59 130.095 422.992 128.926C423.414 127.702 423.659 126.441 423.802 125.398Z" fill="white"/>
<path d="M359.5 131.111V154C359.5 154.276 359.724 154.5 360 154.5H420.481C420.757 154.5 420.981 154.276 420.981 154V132.709C420.981 132.484 421.031 132.264 421.126 132.063C421.393 131.495 422.127 129.903 422.519 128.763C422.927 127.58 423.166 126.353 423.306 125.33C423.336 125.116 423.237 124.985 423.106 124.924C422.967 124.858 422.769 124.864 422.595 125.026C421.788 125.776 420.787 126.683 419.788 127.53C418.376 128.726 416.098 130.032 415.395 130.425C415.172 130.55 414.925 130.611 414.676 130.611H360C359.724 130.611 359.5 130.835 359.5 131.111Z" stroke="#C9F6F1"/>
</g>
<rect width="52" height="5" transform="matrix(-1 0 0 1 416 137)" fill="#C9F6F1"/>
<rect width="52" height="5" transform="matrix(-1 0 0 1 416 144)" fill="#C9F6F1"/>
<rect x="76.1069" y="204.556" width="35.1852" height="40.8148" fill="#E0E0E0"/>
<rect x="638.107" y="204.556" width="35.1852" height="40.8148" fill="#E0E0E0"/>
<path d="M44.0286 31.1428L40.7715 35.2143L44.0286 39.2857" stroke="#E0E0E0"/>
<path d="M606.029 31.1428L602.771 35.2143L606.029 39.2857" stroke="#E0E0E0"/>
<path d="M32.6287 46.6143H153.143" stroke="#E0E0E0"/>
<rect x="31.5" y="23.5" width="122.771" height="227" stroke="#D9D9D9"/>
<path d="M594.628 46.6143H715.143" stroke="#E0E0E0"/>
<rect x="593.5" y="23.5" width="122.771" height="227" stroke="#D9D9D9"/>
<path d="M20.203 268.168C21.355 268.168 22.255 267.712 22.963 266.884L22.207 266.008C21.691 266.584 21.067 266.944 20.263 266.944C18.703 266.944 17.719 265.66 17.719 263.56C17.719 261.496 18.775 260.224 20.299 260.224C21.019 260.224 21.571 260.548 22.027 261.016L22.771 260.116C22.231 259.54 21.379 259.012 20.275 259.012C18.043 259.012 16.279 260.728 16.279 263.608C16.279 266.512 17.995 268.168 20.203 268.168ZM24.9968 268H26.3888V263.32C26.9648 262.744 27.3848 262.432 27.9968 262.432C28.7648 262.432 29.1008 262.876 29.1008 264.028V268H30.4928V263.848C30.4928 262.18 29.8688 261.232 28.4648 261.232C27.5648 261.232 26.8928 261.724 26.3288 262.276L26.3888 260.968V258.448H24.9968V268ZM35.702 268.168C37.334 268.168 38.81 266.896 38.81 264.712C38.81 262.504 37.334 261.232 35.702 261.232C34.058 261.232 32.594 262.504 32.594 264.712C32.594 266.896 34.058 268.168 35.702 268.168ZM35.702 267.028C34.658 267.028 34.022 266.104 34.022 264.712C34.022 263.308 34.658 262.384 35.702 262.384C36.734 262.384 37.394 263.308 37.394 264.712C37.394 266.104 36.734 267.028 35.702 267.028ZM43.6848 268.168C45.3168 268.168 46.7928 266.896 46.7928 264.712C46.7928 262.504 45.3168 261.232 43.6848 261.232C42.0408 261.232 40.5768 262.504 40.5768 264.712C40.5768 266.896 42.0408 268.168 43.6848 268.168ZM43.6848 267.028C42.6408 267.028 42.0048 266.104 42.0048 264.712C42.0048 263.308 42.6408 262.384 43.6848 262.384C44.7168 262.384 45.3768 263.308 45.3768 264.712C45.3768 266.104 44.7168 267.028 43.6848 267.028ZM50.7336 268.168C52.3536 268.168 53.2296 267.268 53.2296 266.152C53.2296 264.916 52.2216 264.496 51.2976 264.148C50.5656 263.884 49.9296 263.668 49.9296 263.104C49.9296 262.648 50.2656 262.288 50.9976 262.288C51.5376 262.288 52.0056 262.54 52.4616 262.864L53.1096 262.012C52.5816 261.592 51.8496 261.232 50.9736 261.232C49.4976 261.232 48.6096 262.06 48.6096 263.164C48.6096 264.292 49.5816 264.76 50.4696 265.096C51.1776 265.36 51.9216 265.636 51.9216 266.224C51.9216 266.728 51.5496 267.112 50.7696 267.112C50.0496 267.112 49.4856 266.812 48.8976 266.356L48.2496 267.256C48.8856 267.784 49.8216 268.168 50.7336 268.168ZM58.0592 268.168C58.9232 268.168 59.6792 267.88 60.2912 267.472L59.8112 266.584C59.3192 266.896 58.8272 267.076 58.2392 267.076C57.0992 267.076 56.3072 266.332 56.1992 265.072H60.4832C60.5192 264.904 60.5432 264.64 60.5432 264.364C60.5432 262.492 59.5952 261.232 57.8552 261.232C56.3192 261.232 54.8432 262.564 54.8432 264.712C54.8432 266.884 56.2592 268.168 58.0592 268.168ZM56.1752 264.112C56.3192 262.96 57.0512 262.324 57.8792 262.324C58.8392 262.324 59.3432 262.972 59.3432 264.112H56.1752ZM66.2194 268H67.5994V260.572C67.5994 259.768 67.8994 259.384 68.4754 259.384C68.7154 259.384 68.9674 259.432 69.2074 259.552L69.4834 258.496C69.1834 258.376 68.7634 258.28 68.3074 258.28C66.8434 258.28 66.2194 259.228 66.2194 260.572V268ZM65.3194 262.504H68.9434V261.4H66.2914L65.3194 261.472V262.504ZM73.3123 268.168C74.1763 268.168 74.9323 267.88 75.5443 267.472L75.0643 266.584C74.5723 266.896 74.0803 267.076 73.4923 267.076C72.3523 267.076 71.5603 266.332 71.4523 265.072H75.7363C75.7723 264.904 75.7963 264.64 75.7963 264.364C75.7963 262.492 74.8483 261.232 73.1083 261.232C71.5723 261.232 70.0963 262.564 70.0963 264.712C70.0963 266.884 71.5123 268.168 73.3123 268.168ZM71.4283 264.112C71.5723 262.96 72.3043 262.324 73.1323 262.324C74.0923 262.324 74.5963 262.972 74.5963 264.112H71.4283ZM79.2748 268.168C80.0668 268.168 80.7748 267.772 81.3748 267.256H81.4228L81.5308 268H82.6708V264.04C82.6708 262.276 81.9148 261.232 80.2708 261.232C79.2148 261.232 78.2788 261.676 77.6068 262.096L78.1228 263.044C78.6748 262.684 79.3348 262.36 80.0308 262.36C80.9908 262.36 81.2668 263.032 81.2788 263.8C78.5428 264.1 77.3428 264.832 77.3428 266.248C77.3428 267.412 78.1468 268.168 79.2748 268.168ZM79.7068 267.064C79.1188 267.064 78.6748 266.8 78.6748 266.152C78.6748 265.408 79.3228 264.916 81.2788 264.688V266.296C80.7388 266.8 80.2828 267.064 79.7068 267.064ZM87.1911 268.168C87.6831 268.168 88.1271 268.036 88.4991 267.916L88.2471 266.896C88.0431 266.98 87.7671 267.064 87.5391 267.064C86.8551 267.064 86.5671 266.644 86.5671 265.864V262.504H88.2951V261.4H86.5671V259.576H85.4151L85.2591 261.4L84.2271 261.472V262.504H85.1871V265.852C85.1871 267.232 85.7151 268.168 87.1911 268.168ZM92.2729 268.168C93.1849 268.168 93.8209 267.7 94.4209 267.004H94.4569L94.5649 268H95.7049V261.4H94.3249V265.984C93.7729 266.68 93.3529 266.968 92.7409 266.968C91.9609 266.968 91.6249 266.524 91.6249 265.384V261.4H90.2449V265.552C90.2449 267.232 90.8689 268.168 92.2729 268.168ZM98.3703 268H99.7623V263.896C100.17 262.852 100.818 262.468 101.346 262.468C101.622 262.468 101.79 262.504 102.018 262.576L102.258 261.376C102.054 261.28 101.85 261.232 101.526 261.232C100.818 261.232 100.122 261.736 99.6543 262.588H99.6183L99.4983 261.4H98.3703V268ZM106.453 268.168C107.317 268.168 108.073 267.88 108.685 267.472L108.205 266.584C107.713 266.896 107.221 267.076 106.633 267.076C105.493 267.076 104.701 266.332 104.593 265.072H108.877C108.913 264.904 108.937 264.64 108.937 264.364C108.937 262.492 107.989 261.232 106.249 261.232C104.713 261.232 103.237 262.564 103.237 264.712C103.237 266.884 104.653 268.168 106.453 268.168ZM104.569 264.112C104.713 262.96 105.445 262.324 106.273 262.324C107.233 262.324 107.737 262.972 107.737 264.112H104.569ZM114.697 270.76C116.089 270.76 116.785 269.812 117.301 268.408L119.725 261.4H118.381L117.313 264.796C117.145 265.408 116.965 266.056 116.809 266.668H116.749C116.533 266.044 116.341 265.384 116.137 264.796L114.925 261.4H113.509L116.125 267.952L115.993 268.408C115.753 269.116 115.321 269.644 114.613 269.644C114.445 269.644 114.253 269.596 114.133 269.548L113.869 270.628C114.097 270.712 114.361 270.76 114.697 270.76ZM124.047 268.168C125.679 268.168 127.155 266.896 127.155 264.712C127.155 262.504 125.679 261.232 124.047 261.232C122.403 261.232 120.939 262.504 120.939 264.712C120.939 266.896 122.403 268.168 124.047 268.168ZM124.047 267.028C123.003 267.028 122.367 266.104 122.367 264.712C122.367 263.308 123.003 262.384 124.047 262.384C125.079 262.384 125.739 263.308 125.739 264.712C125.739 266.104 125.079 267.028 124.047 267.028ZM131.322 268.168C132.234 268.168 132.87 267.7 133.47 267.004H133.506L133.614 268H134.754V261.4H133.374V265.984C132.822 266.68 132.402 266.968 131.79 266.968C131.01 266.968 130.674 266.524 130.674 265.384V261.4H129.294V265.552C129.294 267.232 129.918 268.168 131.322 268.168ZM141.783 268H143.379L144.195 264.76C144.351 264.136 144.471 263.524 144.603 262.828H144.663C144.807 263.524 144.927 264.124 145.083 264.748L145.923 268H147.579L149.295 261.4H147.987L147.147 264.976C147.003 265.612 146.895 266.224 146.763 266.848H146.715C146.559 266.224 146.427 265.612 146.271 264.976L145.323 261.4H144.039L143.115 264.976C142.947 265.6 142.815 266.224 142.683 266.848H142.623C142.503 266.224 142.395 265.612 142.275 264.976L141.399 261.4H140.007L141.783 268ZM152.637 268.168C153.429 268.168 154.137 267.772 154.737 267.256H154.785L154.893 268H156.033V264.04C156.033 262.276 155.277 261.232 153.633 261.232C152.577 261.232 151.641 261.676 150.969 262.096L151.485 263.044C152.037 262.684 152.697 262.36 153.393 262.36C154.353 262.36 154.629 263.032 154.641 263.8C151.905 264.1 150.705 264.832 150.705 266.248C150.705 267.412 151.509 268.168 152.637 268.168ZM153.069 267.064C152.481 267.064 152.037 266.8 152.037 266.152C152.037 265.408 152.685 264.916 154.641 264.688V266.296C154.101 266.8 153.645 267.064 153.069 267.064ZM158.579 268H159.971V263.32C160.547 262.744 160.967 262.432 161.579 262.432C162.347 262.432 162.683 262.876 162.683 264.028V268H164.075V263.848C164.075 262.18 163.451 261.232 162.047 261.232C161.147 261.232 160.463 261.724 159.863 262.324H159.827L159.707 261.4H158.579V268ZM168.887 268.168C169.379 268.168 169.823 268.036 170.195 267.916L169.943 266.896C169.739 266.98 169.463 267.064 169.235 267.064C168.551 267.064 168.263 266.644 168.263 265.864V262.504H169.991V261.4H168.263V259.576H167.111L166.955 261.4L165.923 261.472V262.504H166.883V265.852C166.883 267.232 167.411 268.168 168.887 268.168ZM73.96 283H78.09V282.22H74.89V275.67H73.96V283ZM79.8896 283H80.8196V275.67H79.8896V283ZM83.3193 283H84.1993V279.16C84.1993 278.38 84.1293 277.61 84.0793 276.87H84.1293L84.9193 278.38L87.5793 283H88.5393V275.67H87.6493V279.48C87.6493 280.24 87.7193 281.07 87.7793 281.81H87.7293L86.9393 280.29L84.2693 275.67H83.3193V283ZM91.0459 283H95.3759V282.22H91.9759V279.54H94.7459V278.75H91.9759V276.45H95.2659V275.67H91.0459V283ZM102.881 283.14C104.721 283.14 106.001 281.66 106.001 279.31C106.001 276.97 104.721 275.54 102.881 275.54C101.031 275.54 99.7509 276.96 99.7509 279.31C99.7509 281.66 101.031 283.14 102.881 283.14ZM102.881 282.32C101.561 282.32 100.701 281.14 100.701 279.31C100.701 277.48 101.561 276.35 102.881 276.35C104.191 276.35 105.061 277.48 105.061 279.31C105.061 281.14 104.191 282.32 102.881 282.32ZM106.986 283H107.926L109.216 278.9C109.486 278.08 109.716 277.28 109.956 276.43H109.996C110.236 277.28 110.466 278.08 110.726 278.9L112.016 283H112.986L110.506 275.67H109.466L106.986 283ZM108.286 280.76H111.666V280.03H108.286V280.76Z" fill="#7C7C7C"/>
<path d="M323.72 268H326.096C328.736 268 330.272 266.428 330.272 263.548C330.272 260.668 328.736 259.168 326.024 259.168H323.72V268ZM325.124 266.86V260.296H325.916C327.812 260.296 328.844 261.352 328.844 263.548C328.844 265.744 327.812 266.86 325.916 266.86H325.124ZM332.59 268H333.982V261.4H332.59V268ZM333.286 260.164C333.79 260.164 334.15 259.84 334.15 259.336C334.15 258.844 333.79 258.52 333.286 258.52C332.77 258.52 332.434 258.844 332.434 259.336C332.434 259.84 332.77 260.164 333.286 260.164ZM338.207 268.168C338.999 268.168 339.707 267.772 340.307 267.256H340.355L340.463 268H341.603V264.04C341.603 262.276 340.847 261.232 339.203 261.232C338.147 261.232 337.211 261.676 336.539 262.096L337.055 263.044C337.607 262.684 338.267 262.36 338.963 262.36C339.923 262.36 340.199 263.032 340.211 263.8C337.475 264.1 336.275 264.832 336.275 266.248C336.275 267.412 337.079 268.168 338.207 268.168ZM338.639 267.064C338.051 267.064 337.607 266.8 337.607 266.152C337.607 265.408 338.255 264.916 340.211 264.688V266.296C339.671 266.8 339.215 267.064 338.639 267.064ZM345.53 268.168C345.878 268.168 346.094 268.108 346.274 268.048L346.094 267.004C345.974 267.028 345.926 267.028 345.866 267.028C345.698 267.028 345.542 266.896 345.542 266.524V258.448H344.15V266.452C344.15 267.52 344.522 268.168 345.53 268.168ZM350.976 268.168C352.608 268.168 354.084 266.896 354.084 264.712C354.084 262.504 352.608 261.232 350.976 261.232C349.332 261.232 347.868 262.504 347.868 264.712C347.868 266.896 349.332 268.168 350.976 268.168ZM350.976 267.028C349.932 267.028 349.296 266.104 349.296 264.712C349.296 263.308 349.932 262.384 350.976 262.384C352.008 262.384 352.668 263.308 352.668 264.712C352.668 266.104 352.008 267.028 350.976 267.028ZM358.575 270.964C360.687 270.964 362.031 269.932 362.031 268.66C362.031 267.532 361.215 267.052 359.655 267.052H358.431C357.603 267.052 357.327 266.8 357.327 266.416C357.327 266.092 357.483 265.9 357.687 265.72C357.987 265.852 358.323 265.912 358.611 265.912C360.003 265.912 361.095 265.096 361.095 263.644C361.095 263.14 360.915 262.708 360.663 262.444H361.911V261.4H359.583C359.331 261.304 358.995 261.232 358.611 261.232C357.255 261.232 356.055 262.108 356.055 263.608C356.055 264.388 356.487 265.024 356.931 265.36V265.408C356.559 265.672 356.199 266.116 356.199 266.632C356.199 267.172 356.451 267.52 356.799 267.736V267.796C356.187 268.156 355.839 268.672 355.839 269.236C355.839 270.376 356.991 270.964 358.575 270.964ZM358.611 265.024C357.939 265.024 357.375 264.484 357.375 263.608C357.375 262.72 357.927 262.216 358.611 262.216C359.307 262.216 359.859 262.72 359.859 263.608C359.859 264.484 359.295 265.024 358.611 265.024ZM358.779 270.052C357.687 270.052 357.015 269.668 357.015 269.032C357.015 268.696 357.183 268.36 357.579 268.06C357.855 268.132 358.143 268.156 358.455 268.156H359.451C360.255 268.156 360.687 268.336 360.687 268.888C360.687 269.488 359.931 270.052 358.779 270.052ZM365.788 268.168C366.7 268.168 367.336 267.7 367.936 267.004H367.972L368.08 268H369.22V261.4H367.84V265.984C367.288 266.68 366.868 266.968 366.256 266.968C365.476 266.968 365.14 266.524 365.14 265.384V261.4H363.76V265.552C363.76 267.232 364.384 268.168 365.788 268.168ZM374.646 268.168C375.51 268.168 376.266 267.88 376.878 267.472L376.398 266.584C375.906 266.896 375.414 267.076 374.826 267.076C373.686 267.076 372.894 266.332 372.786 265.072H377.07C377.106 264.904 377.13 264.64 377.13 264.364C377.13 262.492 376.182 261.232 374.442 261.232C372.906 261.232 371.43 262.564 371.43 264.712C371.43 266.884 372.846 268.168 374.646 268.168ZM372.762 264.112C372.906 262.96 373.638 262.324 374.466 262.324C375.426 262.324 375.93 262.972 375.93 264.112H372.762ZM384.846 270.964C386.958 270.964 388.302 269.932 388.302 268.66C388.302 267.532 387.486 267.052 385.926 267.052H384.702C383.874 267.052 383.598 266.8 383.598 266.416C383.598 266.092 383.754 265.9 383.958 265.72C384.258 265.852 384.594 265.912 384.882 265.912C386.274 265.912 387.366 265.096 387.366 263.644C387.366 263.14 387.186 262.708 386.934 262.444H388.182V261.4H385.854C385.602 261.304 385.266 261.232 384.882 261.232C383.526 261.232 382.326 262.108 382.326 263.608C382.326 264.388 382.758 265.024 383.202 265.36V265.408C382.83 265.672 382.47 266.116 382.47 266.632C382.47 267.172 382.722 267.52 383.07 267.736V267.796C382.458 268.156 382.11 268.672 382.11 269.236C382.11 270.376 383.262 270.964 384.846 270.964ZM384.882 265.024C384.21 265.024 383.646 264.484 383.646 263.608C383.646 262.72 384.198 262.216 384.882 262.216C385.578 262.216 386.13 262.72 386.13 263.608C386.13 264.484 385.566 265.024 384.882 265.024ZM385.05 270.052C383.958 270.052 383.286 269.668 383.286 269.032C383.286 268.696 383.454 268.36 383.85 268.06C384.126 268.132 384.414 268.156 384.726 268.156H385.722C386.526 268.156 386.958 268.336 386.958 268.888C386.958 269.488 386.202 270.052 385.05 270.052ZM392.059 268.168C392.971 268.168 393.607 267.7 394.207 267.004H394.243L394.351 268H395.491V261.4H394.111V265.984C393.559 266.68 393.139 266.968 392.527 266.968C391.747 266.968 391.411 266.524 391.411 265.384V261.4H390.031V265.552C390.031 267.232 390.655 268.168 392.059 268.168ZM398.157 268H399.549V261.4H398.157V268ZM398.853 260.164C399.357 260.164 399.717 259.84 399.717 259.336C399.717 258.844 399.357 258.52 398.853 258.52C398.337 258.52 398.001 258.844 398.001 259.336C398.001 259.84 398.337 260.164 398.853 260.164ZM404.494 268.168C405.238 268.168 405.922 267.772 406.426 267.268H406.462L406.57 268H407.71V258.448H406.318V260.884L406.378 261.976C405.85 261.52 405.358 261.232 404.602 261.232C403.138 261.232 401.782 262.564 401.782 264.712C401.782 266.896 402.838 268.168 404.494 268.168ZM404.83 267.016C403.798 267.016 403.21 266.188 403.21 264.688C403.21 263.272 403.954 262.384 404.878 262.384C405.37 262.384 405.838 262.552 406.318 262.996V266.212C405.85 266.764 405.37 267.016 404.83 267.016ZM413.132 268.168C413.996 268.168 414.752 267.88 415.364 267.472L414.884 266.584C414.392 266.896 413.9 267.076 413.312 267.076C412.172 267.076 411.38 266.332 411.272 265.072H415.556C415.592 264.904 415.616 264.64 415.616 264.364C415.616 262.492 414.668 261.232 412.928 261.232C411.392 261.232 409.916 262.564 409.916 264.712C409.916 266.884 411.332 268.168 413.132 268.168ZM411.248 264.112C411.392 262.96 412.124 262.324 412.952 262.324C413.912 262.324 414.416 262.972 414.416 264.112H411.248ZM351.96 283H356.09V282.22H352.89V275.67H351.96V283ZM357.89 283H358.82V275.67H357.89V283ZM361.319 283H362.199V279.16C362.199 278.38 362.129 277.61 362.079 276.87H362.129L362.919 278.38L365.579 283H366.539V275.67H365.649V279.48C365.649 280.24 365.719 281.07 365.779 281.81H365.729L364.939 280.29L362.269 275.67H361.319V283ZM369.046 283H373.376V282.22H369.976V279.54H372.746V278.75H369.976V276.45H373.266V275.67H369.046V283ZM380.881 283.14C382.721 283.14 384.001 281.66 384.001 279.31C384.001 276.97 382.721 275.54 380.881 275.54C379.031 275.54 377.751 276.96 377.751 279.31C377.751 281.66 379.031 283.14 380.881 283.14ZM380.881 282.32C379.561 282.32 378.701 281.14 378.701 279.31C378.701 277.48 379.561 276.35 380.881 276.35C382.191 276.35 383.061 277.48 383.061 279.31C383.061 281.14 382.191 282.32 380.881 282.32ZM384.986 283H385.926L387.216 278.9C387.486 278.08 387.716 277.28 387.956 276.43H387.996C388.236 277.28 388.466 278.08 388.726 278.9L390.016 283H390.986L388.506 275.67H387.466L384.986 283ZM386.286 280.76H389.666V280.03H386.286V280.76Z" fill="#7C7C7C"/>
<path d="M590.52 268H591.924V264.208H595.188V263.032H591.924V260.344H595.764V259.168H590.52V268ZM597.797 268H599.189V261.4H597.797V268ZM598.493 260.164C598.997 260.164 599.357 259.84 599.357 259.336C599.357 258.844 598.997 258.52 598.493 258.52C597.977 258.52 597.641 258.844 597.641 259.336C597.641 259.84 597.977 260.164 598.493 260.164ZM601.854 268H603.246V263.32C603.822 262.744 604.242 262.432 604.854 262.432C605.622 262.432 605.958 262.876 605.958 264.028V268H607.35V263.848C607.35 262.18 606.726 261.232 605.322 261.232C604.422 261.232 603.738 261.724 603.138 262.324H603.102L602.982 261.4H601.854V268ZM609.942 268H611.334V261.4H609.942V268ZM610.638 260.164C611.142 260.164 611.502 259.84 611.502 259.336C611.502 258.844 611.142 258.52 610.638 258.52C610.122 258.52 609.786 258.844 609.786 259.336C609.786 259.84 610.122 260.164 610.638 260.164ZM615.799 268.168C617.419 268.168 618.295 267.268 618.295 266.152C618.295 264.916 617.287 264.496 616.363 264.148C615.631 263.884 614.995 263.668 614.995 263.104C614.995 262.648 615.331 262.288 616.063 262.288C616.603 262.288 617.071 262.54 617.527 262.864L618.175 262.012C617.647 261.592 616.915 261.232 616.039 261.232C614.563 261.232 613.675 262.06 613.675 263.164C613.675 264.292 614.647 264.76 615.535 265.096C616.243 265.36 616.987 265.636 616.987 266.224C616.987 266.728 616.615 267.112 615.835 267.112C615.115 267.112 614.551 266.812 613.963 266.356L613.315 267.256C613.951 267.784 614.887 268.168 615.799 268.168ZM620.365 268H621.757V263.32C622.333 262.744 622.753 262.432 623.365 262.432C624.133 262.432 624.469 262.876 624.469 264.028V268H625.861V263.848C625.861 262.18 625.237 261.232 623.833 261.232C622.933 261.232 622.261 261.724 621.697 262.276L621.757 260.968V258.448H620.365V268ZM631.941 268H633.321V260.572C633.321 259.768 633.621 259.384 634.197 259.384C634.437 259.384 634.689 259.432 634.929 259.552L635.205 258.496C634.905 258.376 634.485 258.28 634.029 258.28C632.565 258.28 631.941 259.228 631.941 260.572V268ZM631.041 262.504H634.665V261.4H632.013L631.041 261.472V262.504ZM638.926 268.168C640.558 268.168 642.034 266.896 642.034 264.712C642.034 262.504 640.558 261.232 638.926 261.232C637.282 261.232 635.818 262.504 635.818 264.712C635.818 266.896 637.282 268.168 638.926 268.168ZM638.926 267.028C637.882 267.028 637.246 266.104 637.246 264.712C637.246 263.308 637.882 262.384 638.926 262.384C639.958 262.384 640.618 263.308 640.618 264.712C640.618 266.104 639.958 267.028 638.926 267.028ZM644.257 268H645.649V263.896C646.057 262.852 646.705 262.468 647.233 262.468C647.509 262.468 647.677 262.504 647.905 262.576L648.145 261.376C647.941 261.28 647.737 261.232 647.413 261.232C646.705 261.232 646.009 261.736 645.541 262.588H645.505L645.385 261.4H644.257V268ZM655.282 268.168C655.774 268.168 656.218 268.036 656.59 267.916L656.338 266.896C656.134 266.98 655.858 267.064 655.63 267.064C654.946 267.064 654.658 266.644 654.658 265.864V262.504H656.386V261.4H654.658V259.576H653.506L653.35 261.4L652.318 261.472V262.504H653.278V265.852C653.278 267.232 653.806 268.168 655.282 268.168ZM658.42 268H659.812V263.32C660.388 262.744 660.808 262.432 661.42 262.432C662.188 262.432 662.524 262.876 662.524 264.028V268H663.916V263.848C663.916 262.18 663.292 261.232 661.888 261.232C660.988 261.232 660.316 261.724 659.752 262.276L659.812 260.968V258.448H658.42V268ZM669.233 268.168C670.097 268.168 670.853 267.88 671.465 267.472L670.985 266.584C670.493 266.896 670.001 267.076 669.413 267.076C668.273 267.076 667.481 266.332 667.373 265.072H671.657C671.693 264.904 671.717 264.64 671.717 264.364C671.717 262.492 670.769 261.232 669.029 261.232C667.493 261.232 666.017 262.564 666.017 264.712C666.017 266.884 667.433 268.168 669.233 268.168ZM667.349 264.112C667.493 262.96 668.225 262.324 669.053 262.324C670.013 262.324 670.517 262.972 670.517 264.112H667.349ZM677.394 268H678.774V260.572C678.774 259.768 679.074 259.384 679.65 259.384C679.89 259.384 680.142 259.432 680.382 259.552L680.658 258.496C680.358 258.376 679.938 258.28 679.482 258.28C678.018 258.28 677.394 259.228 677.394 260.572V268ZM676.494 262.504H680.118V261.4H677.466L676.494 261.472V262.504ZM684.487 268.168C685.351 268.168 686.107 267.88 686.719 267.472L686.239 266.584C685.747 266.896 685.255 267.076 684.667 267.076C683.527 267.076 682.735 266.332 682.627 265.072H686.911C686.947 264.904 686.971 264.64 686.971 264.364C686.971 262.492 686.023 261.232 684.283 261.232C682.747 261.232 681.271 262.564 681.271 264.712C681.271 266.884 682.687 268.168 684.487 268.168ZM682.603 264.112C682.747 262.96 683.479 262.324 684.307 262.324C685.267 262.324 685.771 262.972 685.771 264.112H682.603ZM690.449 268.168C691.241 268.168 691.949 267.772 692.549 267.256H692.597L692.705 268H693.845V264.04C693.845 262.276 693.089 261.232 691.445 261.232C690.389 261.232 689.453 261.676 688.781 262.096L689.297 263.044C689.849 262.684 690.509 262.36 691.205 262.36C692.165 262.36 692.441 263.032 692.453 263.8C689.717 264.1 688.517 264.832 688.517 266.248C688.517 267.412 689.321 268.168 690.449 268.168ZM690.881 267.064C690.293 267.064 689.849 266.8 689.849 266.152C689.849 265.408 690.497 264.916 692.453 264.688V266.296C691.913 266.8 691.457 267.064 690.881 267.064ZM698.365 268.168C698.857 268.168 699.301 268.036 699.673 267.916L699.421 266.896C699.217 266.98 698.941 267.064 698.713 267.064C698.029 267.064 697.741 266.644 697.741 265.864V262.504H699.469V261.4H697.741V259.576H696.589L696.433 261.4L695.401 261.472V262.504H696.361V265.852C696.361 267.232 696.889 268.168 698.365 268.168ZM703.447 268.168C704.359 268.168 704.995 267.7 705.595 267.004H705.631L705.739 268H706.879V261.4H705.499V265.984C704.947 266.68 704.527 266.968 703.915 266.968C703.135 266.968 702.799 266.524 702.799 265.384V261.4H701.419V265.552C701.419 267.232 702.043 268.168 703.447 268.168ZM709.544 268H710.936V263.896C711.344 262.852 711.992 262.468 712.52 262.468C712.796 262.468 712.964 262.504 713.192 262.576L713.432 261.376C713.228 261.28 713.024 261.232 712.7 261.232C711.992 261.232 711.296 261.736 710.828 262.588H710.792L710.672 261.4H709.544V268ZM717.627 268.168C718.491 268.168 719.247 267.88 719.859 267.472L719.379 266.584C718.887 266.896 718.395 267.076 717.807 267.076C716.667 267.076 715.875 266.332 715.767 265.072H720.051C720.087 264.904 720.111 264.64 720.111 264.364C720.111 262.492 719.163 261.232 717.423 261.232C715.887 261.232 714.411 262.564 714.411 264.712C714.411 266.884 715.827 268.168 717.627 268.168ZM715.743 264.112C715.887 262.96 716.619 262.324 717.447 262.324C718.407 262.324 718.911 262.972 718.911 264.112H715.743ZM635.96 283H640.09V282.22H636.89V275.67H635.96V283ZM641.89 283H642.82V275.67H641.89V283ZM645.319 283H646.199V279.16C646.199 278.38 646.129 277.61 646.079 276.87H646.129L646.919 278.38L649.579 283H650.539V275.67H649.649V279.48C649.649 280.24 649.719 281.07 649.779 281.81H649.729L648.939 280.29L646.269 275.67H645.319V283ZM653.046 283H657.376V282.22H653.976V279.54H656.746V278.75H653.976V276.45H657.266V275.67H653.046V283ZM664.881 283.14C666.721 283.14 668.001 281.66 668.001 279.31C668.001 276.97 666.721 275.54 664.881 275.54C663.031 275.54 661.751 276.96 661.751 279.31C661.751 281.66 663.031 283.14 664.881 283.14ZM664.881 282.32C663.561 282.32 662.701 281.14 662.701 279.31C662.701 277.48 663.561 276.35 664.881 276.35C666.191 276.35 667.061 277.48 667.061 279.31C667.061 281.14 666.191 282.32 664.881 282.32ZM668.986 283H669.926L671.216 278.9C671.486 278.08 671.716 277.28 671.956 276.43H671.996C672.236 277.28 672.466 278.08 672.726 278.9L674.016 283H674.986L672.506 275.67H671.466L668.986 283ZM670.286 280.76H673.666V280.03H670.286V280.76Z" fill="#7C7C7C"/>
<g filter="url(#filter2_d_673_6740)">
<rect x="37.5144" y="163" width="112.371" height="35.8286" fill="white"/>
<rect x="38.0144" y="163.5" width="111.371" height="34.8286" stroke="#C9F6F1"/>
</g>
<path d="M304.5 147.5L298.083 141.684L296.255 150.149L304.5 147.5ZM209 143L208.867 142.262L209 143ZM133.5 177.5C133.964 178.089 133.964 178.089 133.964 178.089C133.964 178.089 133.965 178.089 133.965 178.088C133.966 178.088 133.967 178.086 133.969 178.085C133.973 178.082 133.979 178.077 133.987 178.071C134.003 178.059 134.027 178.04 134.06 178.014C134.125 177.964 134.223 177.889 134.352 177.789C134.611 177.591 134.998 177.299 135.505 176.923C136.52 176.172 138.018 175.089 139.944 173.766C143.797 171.119 149.363 167.512 156.21 163.674C169.91 155.994 188.703 147.411 209.133 143.738L208.867 142.262C188.212 145.975 169.256 154.642 155.477 162.365C148.584 166.229 142.978 169.862 139.095 172.53C137.153 173.864 135.641 174.957 134.613 175.718C134.099 176.098 133.706 176.395 133.441 176.598C133.308 176.699 133.208 176.777 133.14 176.83C133.106 176.856 133.08 176.876 133.063 176.89C133.054 176.896 133.048 176.902 133.043 176.905C133.041 176.907 133.039 176.908 133.038 176.909C133.037 176.91 133.037 176.91 133.037 176.91C133.036 176.911 133.036 176.911 133.5 177.5ZM209.133 143.738C243.846 137.498 282.578 143.785 297.757 146.811L298.05 145.34C282.836 142.307 243.872 135.969 208.867 142.262L209.133 143.738Z" fill="#F57C00"/>
<g filter="url(#filter3_d_673_6740)">
<path d="M603 79.4504C603 78.0971 604.097 77 605.45 77H665.077C666.431 77 667.528 78.0971 667.528 79.4504V152.47C667.528 153.823 666.431 154.92 665.077 154.92H605.45C604.097 154.92 603 153.823 603 152.47V79.4504Z" fill="white"/>
<path d="M605.45 77.5H665.077C666.155 77.5 667.028 78.3732 667.028 79.4504V152.47C667.028 153.547 666.155 154.42 665.077 154.42H605.45C604.373 154.42 603.5 153.547 603.5 152.47V79.4504C603.5 78.3732 604.373 77.5 605.45 77.5Z" stroke="#C9F6F1"/>
</g>
<path d="M604.218 79.8511C604.218 78.9489 604.949 78.2175 605.851 78.2175H664.677C665.579 78.2175 666.311 78.9489 666.311 79.8511V112.308H604.218V79.8511Z" fill="#C9F6F1"/>
<path d="M638 146C638 143.239 639.663 141 641.714 141H660.286C662.337 141 664 143.239 664 146V146C664 148.761 662.337 151 660.286 151H641.714C639.663 151 638 148.761 638 146V146Z" fill="#C9F6F1"/>
<path d="M606.652 128.135H628.567V131.788H606.652V128.135Z" fill="#C9F6F1"/>
<path d="M606.652 134.223H617.61V137.875H606.652V134.223Z" fill="#C9F6F1"/>
<path d="M606.652 117.178H644.395V123.265H606.652V117.178Z" fill="#C9F6F1"/>
<path d="M598.5 148.5L590.062 146.55L592.593 154.833L598.5 148.5ZM510.5 165.5L510.52 166.25L510.5 165.5ZM416 150.5C415.798 151.222 415.798 151.222 415.799 151.222C415.799 151.223 415.8 151.223 415.801 151.223C415.802 151.224 415.805 151.224 415.809 151.225C415.816 151.227 415.826 151.23 415.84 151.234C415.868 151.242 415.91 151.253 415.965 151.269C416.075 151.299 416.238 151.344 416.453 151.403C416.882 151.52 417.516 151.692 418.335 151.91C419.974 152.347 422.356 152.969 425.331 153.712C431.28 155.198 439.602 157.17 449.092 159.11C468.058 162.987 491.753 166.752 510.52 166.25L510.48 164.75C491.894 165.248 468.339 161.513 449.393 157.64C439.928 155.705 431.628 153.739 425.695 152.257C422.728 151.516 420.354 150.895 418.721 150.461C417.905 150.243 417.275 150.073 416.849 149.956C416.636 149.898 416.474 149.853 416.365 149.823C416.311 149.808 416.27 149.797 416.243 149.789C416.229 149.785 416.219 149.782 416.212 149.781C416.209 149.78 416.206 149.779 416.205 149.778C416.204 149.778 416.203 149.778 416.203 149.778C416.202 149.778 416.202 149.778 416 150.5ZM510.52 166.25C540.919 165.436 577.654 155.495 592.258 151.191L591.834 149.753C577.236 154.055 540.666 163.942 510.48 164.75L510.52 166.25Z" fill="#F57C00"/>
</g>
<defs>
<filter id="filter0_d_673_6740" x="317.165" y="69.3165" width="72.835" height="54.6835" filterUnits="userSpaceOnUse" color-interpolation-filters="sRGB">
<feFlood flood-opacity="0" result="BackgroundImageFix"/>
<feColorMatrix in="SourceAlpha" type="matrix" values="0 0 0 0 0 0 0 0 0 0 0 0 0 0 0 0 0 0 127 0" result="hardAlpha"/>
<feOffset/>
<feGaussianBlur stdDeviation="2"/>
<feComposite in2="hardAlpha" operator="out"/>
<feColorMatrix type="matrix" values="0 0 0 0 0.788235 0 0 0 0 0.964706 0 0 0 0 0.945098 0 0 0 1 0"/>
<feBlend mode="normal" in2="BackgroundImageFix" result="effect1_dropShadow_673_6740"/>
<feBlend mode="normal" in="SourceGraphic" in2="effect1_dropShadow_673_6740" result="shape"/>
</filter>
<filter id="filter1_d_673_6740" x="355" y="120.385" width="72.8115" height="38.6154" filterUnits="userSpaceOnUse" color-interpolation-filters="sRGB">
<feFlood flood-opacity="0" result="BackgroundImageFix"/>
<feColorMatrix in="SourceAlpha" type="matrix" values="0 0 0 0 0 0 0 0 0 0 0 0 0 0 0 0 0 0 127 0" result="hardAlpha"/>
<feOffset/>
<feGaussianBlur stdDeviation="2"/>
<feComposite in2="hardAlpha" operator="out"/>
<feColorMatrix type="matrix" values="0 0 0 0 0.788235 0 0 0 0 0.964706 0 0 0 0 0.945098 0 0 0 1 0"/>
<feBlend mode="normal" in2="BackgroundImageFix" result="effect1_dropShadow_673_6740"/>
<feBlend mode="normal" in="SourceGraphic" in2="effect1_dropShadow_673_6740" result="shape"/>
</filter>
<filter id="filter2_d_673_6740" x="33.5144" y="159" width="120.371" height="43.8286" filterUnits="userSpaceOnUse" color-interpolation-filters="sRGB">
<feFlood flood-opacity="0" result="BackgroundImageFix"/>
<feColorMatrix in="SourceAlpha" type="matrix" values="0 0 0 0 0 0 0 0 0 0 0 0 0 0 0 0 0 0 127 0" result="hardAlpha"/>
<feOffset/>
<feGaussianBlur stdDeviation="2"/>
<feComposite in2="hardAlpha" operator="out"/>
<feColorMatrix type="matrix" values="0 0 0 0 0.788235 0 0 0 0 0.964706 0 0 0 0 0.945098 0 0 0 1 0"/>
<feBlend mode="normal" in2="BackgroundImageFix" result="effect1_dropShadow_673_6740"/>
<feBlend mode="normal" in="SourceGraphic" in2="effect1_dropShadow_673_6740" result="shape"/>
</filter>
<filter id="filter3_d_673_6740" x="597" y="71" width="76.5278" height="89.9204" filterUnits="userSpaceOnUse" color-interpolation-filters="sRGB">
<feFlood flood-opacity="0" result="BackgroundImageFix"/>
<feColorMatrix in="SourceAlpha" type="matrix" values="0 0 0 0 0 0 0 0 0 0 0 0 0 0 0 0 0 0 127 0" result="hardAlpha"/>
<feOffset/>
<feGaussianBlur stdDeviation="3"/>
<feComposite in2="hardAlpha" operator="out"/>
<feColorMatrix type="matrix" values="0 0 0 0 0.787028 0 0 0 0 0.966667 0 0 0 0 0.946707 0 0 0 1 0"/>
<feBlend mode="normal" in2="BackgroundImageFix" result="effect1_dropShadow_673_6740"/>
<feBlend mode="normal" in="SourceGraphic" in2="effect1_dropShadow_673_6740" result="shape"/>
</filter>
<clipPath id="clip0_673_6740">
<rect width="744" height="287" fill="white"/>
</clipPath>
</defs>
</svg>
