<svg width="744" height="307" viewBox="0 0 744 307" fill="none" xmlns="http://www.w3.org/2000/svg">
<rect width="744" height="307" fill="white"/>
<g filter="url(#filter0_d_669_5629)">
<path d="M295 41.1135C295 36.6325 297.363 33 300.278 33H428.722C431.637 33 434 36.6326 434 41.1135V282.886C434 287.367 431.637 291 428.722 291H300.278C297.363 291 295 287.367 295 282.886V41.1135Z" fill="white"/>
</g>
<circle cx="465.5" cy="217.5" r="17.5" fill="#147C73"/>
<ellipse cx="467.5" cy="285" rx="8.5" ry="8" fill="#147C73"/>
<path d="M416 250L465 283" stroke="#147C73" stroke-width="1.5"/>
<circle cx="233.5" cy="261.5" r="23.5" fill="#F57C00"/>
<circle cx="471" cy="150" r="12" fill="#147C73"/>
<circle cx="245.908" cy="140.152" r="10.0315" transform="rotate(-4.75844 245.908 140.152)" fill="#147C73"/>
<rect x="300" y="196" width="63" height="39" fill="#C9F6F1"/>
<rect x="300" y="239" width="40" height="46" fill="#C9F6F1"/>
<rect x="390" y="239" width="40" height="46" fill="#C9F6F1"/>
<rect x="345" y="239" width="40" height="46" fill="#C9F6F1"/>
<rect x="300" y="37" width="130" height="25" fill="#C9F6F1"/>
<rect x="367" y="196" width="63" height="39" fill="#C9F6F1"/>
<path d="M456 222L381 244" stroke="#147C73" stroke-width="1.5"/>
<path d="M248 142L348 205" stroke="#147C73" stroke-width="1.5"/>
<path d="M469 149L389 214" stroke="#147C73" stroke-width="1.5"/>
<path d="M217 257H221.13V256.22H217.93V249.67H217V257ZM224.883 257.14C225.623 257.14 226.193 256.89 226.673 256.58L226.343 255.97C225.943 256.24 225.513 256.41 224.993 256.41C223.953 256.41 223.253 255.66 223.183 254.51H226.843C226.873 254.37 226.883 254.18 226.883 253.99C226.883 252.43 226.103 251.44 224.723 251.44C223.473 251.44 222.283 252.53 222.283 254.3C222.283 256.08 223.433 257.14 224.883 257.14ZM223.173 253.85C223.293 252.78 223.973 252.17 224.733 252.17C225.593 252.17 226.083 252.76 226.083 253.85H223.173ZM230.294 257.14C230.634 257.14 230.994 257.04 231.294 256.93L231.114 256.25C230.944 256.32 230.694 256.4 230.504 256.4C229.874 256.4 229.664 256.01 229.664 255.35V252.31H231.134V251.57H229.664V250.04H228.894L228.794 251.57L227.944 251.63V252.31H228.754V255.33C228.754 256.41 229.134 257.14 230.294 257.14ZM232.893 251.22C233.663 250.76 234.083 250.13 234.083 249.23C234.083 248.59 233.823 248.23 233.383 248.23C233.033 248.23 232.793 248.46 232.793 248.85C232.793 249.2 233.083 249.41 233.383 249.41C233.563 249.41 233.673 249.35 233.813 249.21L233.353 248.65L233.483 249.39C233.483 250.03 233.203 250.41 232.643 250.79L232.893 251.22ZM237.576 257.14C238.856 257.14 239.546 256.41 239.546 255.52C239.546 254.49 238.686 254.17 237.896 253.87C237.276 253.65 236.726 253.45 236.726 252.93C236.726 252.51 237.036 252.15 237.726 252.15C238.206 252.15 238.596 252.36 238.966 252.63L239.406 252.05C238.986 251.71 238.386 251.44 237.716 251.44C236.536 251.44 235.846 252.11 235.846 252.97C235.846 253.9 236.676 254.26 237.426 254.55C238.026 254.77 238.676 255.02 238.676 255.57C238.676 256.05 238.316 256.43 237.596 256.43C236.946 256.43 236.466 256.16 235.996 255.78L235.546 256.39C236.056 256.81 236.806 257.14 237.576 257.14ZM216.03 272H216.97L218.26 267.9C218.53 267.08 218.76 266.28 219 265.43H219.04C219.28 266.28 219.51 267.08 219.77 267.9L221.06 272H222.03L219.55 264.67H218.51L216.03 272ZM217.33 269.76H220.71V269.03H217.33V269.76ZM225.634 272.14C226.284 272.14 226.914 271.88 227.394 271.45L227.004 270.84C226.664 271.14 226.214 271.38 225.724 271.38C224.724 271.38 224.034 270.54 224.034 269.3C224.034 268.04 224.754 267.2 225.754 267.2C226.174 267.2 226.514 267.39 226.834 267.68L227.294 267.08C226.914 266.73 226.414 266.44 225.704 266.44C224.314 266.44 223.094 267.48 223.094 269.3C223.094 271.09 224.194 272.14 225.634 272.14ZM230.665 272.14C231.005 272.14 231.365 272.04 231.665 271.93L231.485 271.25C231.315 271.32 231.065 271.4 230.875 271.4C230.245 271.4 230.035 271.01 230.035 270.35V267.31H231.505V266.57H230.035V265.04H229.265L229.165 266.57L228.315 266.63V267.31H229.125V270.33C229.125 271.41 229.505 272.14 230.665 272.14ZM233.234 272H234.144V266.57H233.234V272ZM233.694 265.45C234.044 265.45 234.304 265.22 234.304 264.84C234.304 264.49 234.044 264.26 233.694 264.26C233.334 264.26 233.084 264.49 233.084 264.84C233.084 265.22 233.334 265.45 233.694 265.45ZM237.658 272H238.718L240.638 266.57H239.748L238.708 269.67C238.548 270.2 238.378 270.75 238.208 271.26H238.168C237.998 270.75 237.828 270.2 237.668 269.67L236.638 266.57H235.698L237.658 272ZM244.325 272.14C245.065 272.14 245.635 271.89 246.115 271.58L245.785 270.97C245.385 271.24 244.955 271.41 244.435 271.41C243.395 271.41 242.695 270.66 242.625 269.51H246.285C246.315 269.37 246.325 269.18 246.325 268.99C246.325 267.43 245.545 266.44 244.165 266.44C242.915 266.44 241.725 267.53 241.725 269.3C241.725 271.08 242.875 272.14 244.325 272.14ZM242.615 268.85C242.735 267.78 243.415 267.17 244.175 267.17C245.035 267.17 245.525 267.76 245.525 268.85H242.615Z" fill="#FCFCEA"/>
<path d="M237.945 263.315L319.971 235.855" stroke="#F57C00" stroke-width="1.5"/>
<defs>
<filter id="filter0_d_669_5629" x="289" y="27" width="151" height="270" filterUnits="userSpaceOnUse" color-interpolation-filters="sRGB">
<feFlood flood-opacity="0" result="BackgroundImageFix"/>
<feColorMatrix in="SourceAlpha" type="matrix" values="0 0 0 0 0 0 0 0 0 0 0 0 0 0 0 0 0 0 127 0" result="hardAlpha"/>
<feOffset/>
<feGaussianBlur stdDeviation="3"/>
<feComposite in2="hardAlpha" operator="out"/>
<feColorMatrix type="matrix" values="0 0 0 0 0.787028 0 0 0 0 0.966667 0 0 0 0 0.946707 0 0 0 1 0"/>
<feBlend mode="normal" in2="BackgroundImageFix" result="effect1_dropShadow_669_5629"/>
<feBlend mode="normal" in="SourceGraphic" in2="effect1_dropShadow_669_5629" result="shape"/>
</filter>
</defs>
</svg>
